<?xml version="1.0" encoding="utf-8"?>
<!-- Generator: Adobe Illustrator 19.1.0, SVG Export Plug-In . SVG Version: 6.00 Build 0)  -->
<svg version="1.1" id="Layer_1" xmlns="http://www.w3.org/2000/svg" xmlns:xlink="http://www.w3.org/1999/xlink" x="0px" y="0px"
	 viewBox="0 0 595.3 841.9" style="enable-background:new 0 0 595.3 841.9;" xml:space="preserve">
<style type="text/css">
	.st0{fill:#2980BA;}
</style>
<path d="M357.1,418.8c1.4-1.3,2.1-3.1,2.1-5.3c0-0.9-0.1-1.8-0.3-2.5c-0.2-0.7-0.5-1.4-1-2c-0.5-0.6-1.1-1.1-1.9-1.6
	c-0.8-0.5-1.7-0.9-2.9-1.2c-0.7-0.2-1.3-0.4-2-0.7c-0.6-0.2-1.1-0.5-1.6-0.8c-0.4-0.3-0.8-0.6-1.1-1c-0.3-0.4-0.4-0.8-0.4-1.3
	c0-0.9,0.3-1.6,0.9-2.2c0.6-0.6,1.4-0.9,2.4-0.9c0.9,0,1.7,0.2,2.4,0.5c0.7,0.4,1.3,0.9,1.8,1.7l3.1-2.6c-0.7-1.1-1.6-1.9-2.7-2.5
	c-1.1-0.6-2.6-0.9-4.5-0.9c-1.1,0-2.2,0.2-3.1,0.5c-0.9,0.4-1.7,0.8-2.3,1.5c-0.7,0.6-1.2,1.4-1.5,2.2c-0.3,0.9-0.5,1.8-0.5,2.8
	c0,0.9,0.1,1.7,0.4,2.5c0.2,0.7,0.6,1.4,1.2,1.9c0.5,0.6,1.2,1.1,2,1.5c0.8,0.4,1.8,0.8,3,1.2c0.6,0.2,1.2,0.4,1.8,0.6
	c0.6,0.2,1,0.5,1.4,0.8c0.4,0.3,0.7,0.6,0.9,1c0.2,0.4,0.3,0.9,0.3,1.5c0,0.9-0.3,1.7-0.8,2.3c-0.5,0.6-1.4,0.9-2.7,0.9
	c-1.1,0-2-0.3-2.8-0.8c-0.8-0.5-1.4-1.2-1.9-2l-3.3,2.4c0.7,1.2,1.8,2.3,3.1,3c1.3,0.8,2.9,1.2,4.9,1.2
	C353.8,420.7,355.8,420.1,357.1,418.8"/>
<polygon points="374.9,420.5 374.9,399.5 380.3,399.5 380.3,395.8 365.4,395.8 365.4,399.5 370.8,399.5 370.8,420.5 "/>
<path d="M398.6,420.5h4.3l-7.2-24.7h-3.9l-7.1,24.7h4.2c0.1-0.2,0.2-0.6,0.3-1.1c0.1-0.5,0.3-1,0.4-1.6c0.2-0.6,0.3-1.1,0.4-1.6
	c0.1-0.5,0.2-0.9,0.3-1.1h6.8L398.6,420.5z M391.2,411.6l1.3-5l1.2-5.2h0.2c0,0.2,0.1,0.6,0.2,1.1c0.1,0.5,0.2,1,0.4,1.5
	c0.1,0.5,0.2,1.1,0.4,1.6c0.1,0.5,0.2,0.9,0.2,1.1l1.2,4.9H391.2z"/>
<polygon points="410.3,420.5 414.4,420.5 414.4,410 422.7,410 422.7,406.3 414.4,406.3 414.4,399.6 424,399.6 424,395.8 
	410.3,395.8 "/>
<polygon points="431.7,420.5 435.8,420.5 435.8,410 444.1,410 444.1,406.3 435.8,406.3 435.8,399.6 445.4,399.6 445.4,395.8 
	431.7,395.8 "/>
<rect x="450.8" y="415.9" class="st0" width="4.4" height="4.6"/>
<rect x="534.6" y="388.2" class="st0" width="4.1" height="4.3"/>
<path d="M477.5,418.7c1.3-1.3,1.9-3.1,1.9-5.4c0-0.6-0.1-1.2-0.2-1.8c-0.1-0.6-0.3-1.1-0.6-1.6c-0.3-0.5-0.6-0.9-1-1.3
	c-0.4-0.4-0.9-0.6-1.5-0.8v-0.2c1.1-0.5,1.9-1.2,2.4-2.1c0.4-0.9,0.7-1.8,0.7-2.9c0-2.1-0.6-3.7-1.8-4.9c-1.2-1.2-2.9-1.8-5.3-1.8
	h-7.6v24.7h7.9C474.6,420.5,476.3,419.9,477.5,418.7 M468.5,399.5h3.2c1.2,0,2,0.3,2.6,0.9c0.5,0.6,0.8,1.3,0.8,2.3
	c0,1-0.3,1.8-0.8,2.4c-0.5,0.6-1.4,0.9-2.5,0.9h-3.2V399.5z M468.5,416.7v-7.2h3.5c1.2,0,2.1,0.3,2.6,1c0.5,0.7,0.8,1.5,0.8,2.5
	c0,0.5,0,1-0.2,1.4c-0.1,0.4-0.3,0.8-0.5,1.2c-0.3,0.3-0.6,0.6-1,0.8c-0.4,0.2-1,0.3-1.6,0.3H468.5z"/>
<path d="M497.1,395.8h-3.9l-7.1,24.7h4.2c0.1-0.2,0.2-0.6,0.3-1.1c0.1-0.5,0.3-1,0.4-1.6c0.2-0.6,0.3-1.1,0.4-1.6
	c0.1-0.5,0.2-0.9,0.3-1.1h6.8l1.4,5.3h4.3L497.1,395.8z M492.6,411.6l1.3-5l1.2-5.2h0.2c0,0.2,0.1,0.6,0.2,1.1
	c0.1,0.5,0.2,1,0.4,1.5c0.1,0.5,0.2,1.1,0.4,1.6c0.1,0.5,0.2,0.9,0.2,1.1l1.2,4.9H492.6z"/>
<path d="M525,409c-0.5-0.6-1.1-1.1-1.9-1.6c-0.8-0.5-1.7-0.9-2.9-1.2c-0.7-0.2-1.3-0.4-1.9-0.7c-0.6-0.2-1.2-0.5-1.6-0.8
	c-0.5-0.3-0.8-0.6-1.1-1c-0.3-0.4-0.4-0.8-0.4-1.3c0-0.9,0.3-1.6,0.9-2.2c0.6-0.6,1.4-0.9,2.5-0.9c0.9,0,1.7,0.2,2.4,0.5
	c0.7,0.4,1.3,0.9,1.8,1.7l3.1-2.6c-0.7-1.1-1.6-1.9-2.7-2.5c-1.2-0.6-2.6-0.9-4.5-0.9c-1.1,0-2.2,0.2-3.1,0.5
	c-0.9,0.4-1.7,0.8-2.4,1.5c-0.7,0.6-1.2,1.4-1.5,2.2c-0.4,0.9-0.5,1.8-0.5,2.8c0,0.9,0.1,1.7,0.4,2.5c0.2,0.7,0.6,1.4,1.1,1.9
	c0.5,0.6,1.2,1,2,1.5c0.8,0.4,1.8,0.8,3,1.2c0.6,0.2,1.2,0.4,1.8,0.6c0.5,0.2,1,0.5,1.4,0.8c0.4,0.3,0.7,0.6,0.9,1
	c0.2,0.4,0.3,0.9,0.3,1.5c0,0.9-0.3,1.7-0.8,2.3c-0.5,0.6-1.5,0.9-2.8,0.9c-1.1,0-2-0.3-2.8-0.8c-0.8-0.5-1.4-1.2-2-2l-3.3,2.4
	c0.7,1.2,1.8,2.3,3.1,3c1.3,0.8,2.9,1.2,4.9,1.2c2.5,0,4.4-0.6,5.8-1.9c1.4-1.3,2.1-3.1,2.1-5.3c0-0.9-0.1-1.8-0.3-2.5
	C525.8,410.3,525.4,409.6,525,409"/>
<rect x="534.6" y="395.8" width="4.1" height="24.7"/>
<path d="M562.7,413.5c0-0.9-0.1-1.8-0.3-2.5c-0.2-0.7-0.5-1.4-1-2c-0.5-0.6-1.1-1.1-1.9-1.6c-0.8-0.5-1.7-0.9-2.9-1.2
	c-0.7-0.2-1.3-0.4-2-0.7c-0.6-0.2-1.1-0.5-1.6-0.8c-0.4-0.3-0.8-0.6-1.1-1c-0.3-0.4-0.4-0.8-0.4-1.3c0-0.9,0.3-1.6,0.9-2.2
	c0.6-0.6,1.4-0.9,2.4-0.9c0.9,0,1.7,0.2,2.4,0.5c0.7,0.4,1.3,0.9,1.9,1.7l3.1-2.6c-0.7-1.1-1.6-1.9-2.7-2.5
	c-1.1-0.6-2.6-0.9-4.5-0.9c-1.1,0-2.2,0.2-3.1,0.5c-0.9,0.4-1.7,0.8-2.4,1.5c-0.7,0.6-1.2,1.4-1.5,2.2c-0.4,0.9-0.5,1.8-0.5,2.8
	c0,0.9,0.1,1.7,0.4,2.5c0.2,0.7,0.6,1.4,1.1,1.9c0.5,0.6,1.2,1,2,1.5c0.8,0.4,1.8,0.8,3,1.2c0.6,0.2,1.2,0.4,1.8,0.6
	c0.5,0.2,1,0.5,1.4,0.8c0.4,0.3,0.7,0.6,0.9,1c0.2,0.4,0.3,0.9,0.3,1.5c0,0.9-0.3,1.7-0.8,2.3c-0.5,0.6-1.4,0.9-2.7,0.9
	c-1.1,0-2-0.3-2.8-0.8c-0.8-0.5-1.4-1.2-1.9-2l-3.3,2.4c0.7,1.2,1.7,2.3,3,3c1.3,0.8,3,1.2,4.9,1.2c2.5,0,4.4-0.6,5.8-1.9
	C562,417.5,562.7,415.8,562.7,413.5"/>
<path class="st0" d="M284,388.2c-13.6,7.8-18.3,25.2-10.5,38.8c7.8,13.6,25.2,18.3,38.8,10.5c13.6-7.8,18.3-25.2,10.5-38.8
	C315,385.1,297.6,380.4,284,388.2 M311.3,435.8c-12.7,7.3-28.9,2.9-36.1-9.8c-7.3-12.7-2.9-28.9,9.8-36.1
	c12.7-7.3,28.9-2.9,36.1,9.8C328.4,412.4,324,428.6,311.3,435.8"/>
<path class="st0" d="M281,409.3c-0.2,0-0.4,0-0.4,0L281,409.3z"/>
<path class="st0" d="M279.7,418.7C279.7,418.7,279.7,418.7,279.7,418.7C279.7,418.7,279.7,418.7,279.7,418.7"/>
<path class="st0" d="M316.8,409.2c0-0.1,0.9-0.8,1-0.8c-0.9,0-0.9-0.2-1.5,0.1c-0.2-0.5-0.9-1.3-2.5-1.3c-1.7,0-2.6,0.5-2.6,0.5
	s-0.3-0.2,0.6-1.9c0-0.3-0.8-2.1-4.4-3.5c-3.8-1-8.3-2-13.7-1.5c0.8,0.3,1.2,0.3,1.2,0.3l-0.2,0.3l1.6,0.3l0.1,0.3l1.2,0.2l0.3,0.3
	l1.1,0.3l0.3,0.2l0.9,0.3l0.3,0.3l0.5,0.1l1,0.7c0,0,0.8,0.5,1.7,0.8c-0.3,0.3-1.6,1.6-1.8,2.8c0,0.6,0,1,0.4,0.8
	c-1.5,0.7-2.7,1.1-2.7,1.1l-18.5-0.4c1.8,0,9.1,0.3,10.5,1.5c1.1,0.5,1.6,0.9,1.6,0.9l0.2,0.2l-0.1,0.3l0,0.3l-0.2,0.4l0.1,0.2
	l0.1,0c0,0-1,1.5-12.8,5.4c-0.5,0.2-0.6,0.3-0.7,0.3c0.1,0,11.3-3.7,14.6-4.4c2.7-0.7,4.3-0.9,4.3-0.9s1.6,0.4,2.6,0.6
	c0.2,0.9,0.5,2.6,1.5,3.6c-1.2,0.8-4.6,3.8-7.5,8c-3.4,3.7-5.6,5.4-5.6,5.5c-0.1,0-1,0.9-1,0.9s2.7-0.2,10.2-4.7
	c5.8-3.8,9.2-6.3,10.2-7.3c1-1,3.5-2.9,2.7-4.9c-0.3-0.8-0.2-0.8-0.2-0.8s3.6-1.6,5.2-4.1c1-0.5,1.6-0.9,1.6-0.9
	S317.7,408.9,316.8,409.2"/>
<g>
	<polygon class="st0" points="344.8,442.3 345.8,442.3 345.8,432.5 349.8,432.5 349.8,442.3 350.8,442.3 350.8,431.6 344.8,431.6 	
		"/>
	<polygon class="st0" points="354.3,442.3 359.8,442.3 359.8,441.3 355.3,441.3 355.3,437.3 359.2,437.3 359.2,436.4 355.3,436.4 
		355.3,432.6 359.8,432.6 359.8,431.6 354.3,431.6 	"/>
	<path class="st0" d="M372.2,433.8c0.1-0.3,0.2-0.5,0.4-0.7c0.2-0.2,0.4-0.4,0.7-0.5c0.3-0.1,0.6-0.2,0.9-0.2c0.5,0,1,0.1,1.3,0.4
		c0.3,0.3,0.6,0.6,0.7,1.1l0.9-0.4c-0.2-0.7-0.5-1.2-1-1.5c-0.5-0.4-1.1-0.5-1.9-0.5c-0.5,0-0.9,0.1-1.3,0.2c-0.4,0.1-0.7,0.4-1,0.6
		c-0.3,0.3-0.5,0.6-0.6,1c-0.1,0.4-0.2,0.8-0.2,1.2v4.6c0,0.5,0.1,0.9,0.2,1.3c0.1,0.4,0.3,0.7,0.6,1c0.3,0.3,0.6,0.5,1,0.6
		c0.4,0.2,0.8,0.2,1.3,0.2c0.7,0,1.3-0.2,1.9-0.5c0.5-0.4,0.9-0.9,1-1.6l-0.9-0.3c-0.1,0.5-0.3,0.9-0.7,1.1
		c-0.3,0.2-0.8,0.4-1.3,0.4c-0.3,0-0.6-0.1-0.9-0.2c-0.3-0.1-0.5-0.3-0.7-0.5c-0.2-0.2-0.3-0.4-0.4-0.7c-0.1-0.3-0.1-0.6-0.1-0.8
		v-4.7C372.1,434.4,372.2,434.1,372.2,433.8"/>
	<path class="st0" d="M365.4,431.6h-3v10.6h1v-4.4h2.1c0.5,0,1-0.1,1.4-0.3c0.4-0.2,0.7-0.4,0.9-0.7c0.2-0.3,0.4-0.6,0.5-1
		c0.1-0.4,0.2-0.8,0.2-1.2c0-1-0.3-1.8-0.8-2.3C367.2,431.9,366.4,431.6,365.4,431.6 M367.4,435.6c-0.1,0.3-0.2,0.5-0.4,0.7
		c-0.2,0.2-0.4,0.4-0.6,0.5c-0.3,0.1-0.6,0.2-1,0.2h-2v-4.4h2c0.7,0,1.2,0.2,1.6,0.6c0.3,0.4,0.5,0.9,0.5,1.6
		C367.5,435,367.5,435.3,367.4,435.6"/>
	<path class="st0" d="M385.2,432.5c-0.3-0.3-0.6-0.5-1-0.7c-0.4-0.2-0.8-0.2-1.3-0.2c-0.5,0-1,0.1-1.4,0.3c-0.4,0.2-0.7,0.4-1,0.7
		c-0.3,0.3-0.4,0.6-0.6,1c-0.1,0.4-0.2,0.8-0.2,1.1v4.5c0,0.5,0.1,0.9,0.2,1.3c0.1,0.4,0.3,0.7,0.6,1c0.3,0.3,0.6,0.5,1,0.7
		c0.4,0.2,0.8,0.3,1.4,0.3c0.5,0,0.9-0.1,1.2-0.2c0.4-0.2,0.7-0.4,1-0.6c0.3-0.3,0.5-0.6,0.6-1c0.1-0.4,0.2-0.8,0.2-1.3v-4.6
		c0-0.4-0.1-0.8-0.2-1.2C385.7,433.1,385.5,432.8,385.2,432.5 M385,439.3c0,0.3-0.1,0.6-0.2,0.9c-0.1,0.3-0.2,0.5-0.4,0.7
		c-0.2,0.2-0.4,0.3-0.7,0.5c-0.3,0.1-0.5,0.2-0.8,0.2c-0.4,0-0.7-0.1-0.9-0.2c-0.3-0.1-0.5-0.3-0.7-0.5c-0.2-0.2-0.3-0.4-0.4-0.7
		c-0.1-0.3-0.1-0.6-0.1-0.9v-4.5c0-0.3,0-0.5,0.1-0.8c0.1-0.3,0.2-0.5,0.4-0.7c0.2-0.2,0.4-0.4,0.7-0.5c0.3-0.1,0.6-0.2,1-0.2
		c0.4,0,0.7,0.1,0.9,0.2c0.3,0.1,0.5,0.3,0.6,0.5c0.2,0.2,0.3,0.4,0.4,0.7c0.1,0.3,0.1,0.5,0.1,0.7V439.3z"/>
	<polygon class="st0" points="394.3,436.4 390.2,436.4 390.2,431.6 389.2,431.6 389.2,442.3 390.2,442.3 390.2,437.3 394.3,437.3 
		394.3,442.3 395.3,442.3 395.3,431.6 394.3,431.6 	"/>
	<path class="st0" d="M401.1,431.6l-3.1,10.6h1l0.7-2.6h3.7l0.7,2.6h1l-3.1-10.6H401.1z M403.2,438.9h-3.3c0-0.1,0.1-0.3,0.2-0.6
		c0.1-0.3,0.2-0.6,0.3-1c0.1-0.4,0.2-0.7,0.3-1c0.1-0.3,0.2-0.5,0.2-0.7c0-0.1,0.1-0.2,0.1-0.5c0.1-0.2,0.1-0.5,0.2-0.8
		c0.1-0.3,0.1-0.5,0.2-0.8c0.1-0.2,0.1-0.4,0.1-0.5h0.1l0.7,2.5L403.2,438.9z"/>
	<path class="st0" d="M408.6,437.5c0,0.8,0,1.4-0.1,1.9c-0.1,0.5-0.2,0.9-0.3,1.2c-0.1,0.3-0.3,0.5-0.6,0.7
		c-0.2,0.2-0.5,0.4-0.7,0.5c0,0.1,0.1,0.3,0.2,0.4c0.1,0.1,0.1,0.2,0.2,0.4c0.4-0.1,0.7-0.3,1-0.6c0.3-0.2,0.5-0.5,0.7-0.9
		c0.2-0.4,0.3-0.9,0.4-1.5c0.1-0.6,0.1-1.3,0.1-2.2v-4.8h3.5v9.8h1v-10.6h-5.4V437.5z"/>
	<path class="st0" d="M448.5,432.5c-0.3-0.3-0.6-0.5-1-0.7c-0.4-0.2-0.8-0.2-1.3-0.2c-0.5,0-1,0.1-1.4,0.3c-0.4,0.2-0.7,0.4-1,0.7
		c-0.3,0.3-0.4,0.6-0.6,1c-0.1,0.4-0.2,0.8-0.2,1.1v4.5c0,0.5,0.1,0.9,0.2,1.3c0.1,0.4,0.3,0.7,0.6,1c0.3,0.3,0.6,0.5,1,0.7
		c0.4,0.2,0.9,0.3,1.4,0.3c0.5,0,0.9-0.1,1.2-0.2c0.4-0.2,0.7-0.4,1-0.6c0.3-0.3,0.5-0.6,0.6-1c0.1-0.4,0.2-0.8,0.2-1.3v-4.6
		c0-0.4-0.1-0.8-0.2-1.2C448.9,433.1,448.7,432.8,448.5,432.5 M448.3,439.3c0,0.3-0.1,0.6-0.2,0.9c-0.1,0.3-0.2,0.5-0.4,0.7
		c-0.2,0.2-0.4,0.3-0.7,0.5c-0.2,0.1-0.5,0.2-0.8,0.2c-0.4,0-0.7-0.1-0.9-0.2c-0.3-0.1-0.5-0.3-0.7-0.5c-0.2-0.2-0.3-0.4-0.4-0.7
		c-0.1-0.3-0.1-0.6-0.1-0.9v-4.5c0-0.3,0-0.5,0.1-0.8c0.1-0.3,0.2-0.5,0.4-0.7c0.2-0.2,0.4-0.4,0.7-0.5c0.3-0.1,0.6-0.2,0.9-0.2
		c0.4,0,0.7,0.1,1,0.2c0.3,0.1,0.5,0.3,0.6,0.5c0.2,0.2,0.3,0.4,0.4,0.7c0.1,0.3,0.1,0.5,0.1,0.7V439.3z"/>
	<path class="st0" d="M453.4,433.8c0.1-0.3,0.2-0.5,0.4-0.7c0.2-0.2,0.4-0.3,0.7-0.5c0.3-0.1,0.6-0.2,0.9-0.2c0.5,0,0.9,0.1,1.3,0.4
		c0.3,0.3,0.6,0.6,0.6,1.1l0.9-0.4c-0.2-0.7-0.5-1.2-1-1.5c-0.5-0.4-1.1-0.5-1.8-0.5c-0.5,0-0.9,0.1-1.3,0.2c-0.4,0.1-0.7,0.4-1,0.6
		c-0.3,0.3-0.5,0.6-0.6,1c-0.1,0.4-0.2,0.8-0.2,1.2v4.6c0,0.5,0.1,0.9,0.2,1.3c0.1,0.4,0.3,0.7,0.6,1c0.3,0.3,0.6,0.5,1,0.6
		c0.4,0.2,0.8,0.2,1.3,0.2c0.7,0,1.3-0.2,1.9-0.5c0.5-0.4,0.9-0.9,1-1.6l-0.9-0.3c-0.1,0.5-0.4,0.9-0.7,1.1
		c-0.4,0.2-0.8,0.4-1.3,0.4c-0.3,0-0.6-0.1-0.9-0.2c-0.3-0.1-0.5-0.3-0.6-0.5c-0.2-0.2-0.3-0.4-0.4-0.7c-0.1-0.3-0.1-0.6-0.1-0.8
		v-4.7C453.2,434.4,453.3,434.1,453.4,433.8"/>
	<polygon class="st0" points="466.2,436.4 462.1,436.4 462.1,431.6 461.1,431.6 461.1,442.3 462.1,442.3 462.1,437.3 466.2,437.3 
		466.2,442.3 467.2,442.3 467.2,431.6 466.2,431.6 	"/>
	<path class="st0" d="M475.7,432.5c-0.3-0.3-0.6-0.5-0.9-0.7c-0.4-0.2-0.8-0.2-1.3-0.2c-0.5,0-1,0.1-1.4,0.3c-0.4,0.2-0.7,0.4-1,0.7
		c-0.3,0.3-0.4,0.6-0.6,1c-0.1,0.4-0.2,0.8-0.2,1.1v4.5c0,0.5,0.1,0.9,0.2,1.3c0.1,0.4,0.3,0.7,0.6,1c0.3,0.3,0.6,0.5,1,0.7
		c0.4,0.2,0.8,0.3,1.4,0.3c0.5,0,0.9-0.1,1.2-0.2c0.4-0.2,0.7-0.4,1-0.6c0.3-0.3,0.5-0.6,0.6-1c0.1-0.4,0.2-0.8,0.2-1.3v-4.6
		c0-0.4-0.1-0.8-0.2-1.2C476.2,433.1,476,432.8,475.7,432.5 M475.5,439.3c0,0.3-0.1,0.6-0.2,0.9c-0.1,0.3-0.2,0.5-0.4,0.7
		c-0.2,0.2-0.4,0.3-0.7,0.5c-0.3,0.1-0.5,0.2-0.8,0.2c-0.4,0-0.7-0.1-0.9-0.2c-0.3-0.1-0.5-0.3-0.7-0.5c-0.2-0.2-0.3-0.4-0.4-0.7
		c-0.1-0.3-0.1-0.6-0.1-0.9v-4.5c0-0.3,0-0.5,0.1-0.8c0.1-0.3,0.2-0.5,0.4-0.7c0.2-0.2,0.4-0.4,0.7-0.5c0.3-0.1,0.6-0.2,0.9-0.2
		c0.4,0,0.7,0.1,0.9,0.2c0.3,0.1,0.5,0.3,0.6,0.5c0.2,0.2,0.3,0.4,0.4,0.7c0.1,0.3,0.1,0.5,0.1,0.7V439.3z"/>
	<path class="st0" d="M485.5,437.7c-0.1-0.2-0.3-0.4-0.5-0.6c-0.2-0.2-0.4-0.3-0.7-0.4v0c0.5-0.2,0.9-0.6,1.1-1
		c0.2-0.4,0.3-0.9,0.3-1.4c0-0.8-0.2-1.5-0.7-2c-0.5-0.5-1.2-0.8-2.1-0.8h-3.1v10.6h3.3c0.9,0,1.5-0.2,2.1-0.8
		c0.5-0.5,0.8-1.2,0.8-2.3c0-0.3,0-0.6-0.1-0.8C485.7,438.2,485.6,437.9,485.5,437.7 M480.7,432.5h2c0.7,0,1.2,0.2,1.5,0.5
		c0.3,0.3,0.5,0.8,0.5,1.4c0,0.6-0.2,1-0.5,1.4c-0.3,0.3-0.8,0.5-1.5,0.5h-2V432.5z M484.7,440c-0.1,0.3-0.2,0.5-0.3,0.7
		c-0.2,0.2-0.4,0.3-0.6,0.5c-0.3,0.1-0.6,0.2-0.9,0.2h-2.1v-4.1h2.2c0.7,0,1.2,0.2,1.5,0.6c0.3,0.4,0.5,0.8,0.5,1.4
		C484.8,439.5,484.8,439.8,484.7,440"/>
	<path class="st0" d="M491.2,431.6l-3.1,10.6h1l0.7-2.6h3.7l0.7,2.6h1l-3.1-10.6H491.2z M493.3,438.9h-3.3c0-0.1,0.1-0.3,0.2-0.6
		c0.1-0.3,0.2-0.6,0.3-1c0.1-0.4,0.2-0.7,0.3-1c0.1-0.3,0.2-0.5,0.2-0.7c0-0.1,0.1-0.2,0.1-0.5c0.1-0.2,0.1-0.5,0.2-0.8
		c0.1-0.3,0.1-0.5,0.2-0.8c0.1-0.2,0.1-0.4,0.1-0.5h0.1l0.7,2.5L493.3,438.9z"/>
	<path class="st0" d="M507.8,437.1c-0.2-0.3-0.6-0.5-0.9-0.6c-0.4-0.1-0.8-0.2-1.4-0.2h-2v-3.7h4.3v-0.9h-5.3v10.6h3
		c1,0,1.7-0.3,2.3-0.8c0.5-0.5,0.8-1.3,0.8-2.3c0-0.4-0.1-0.8-0.2-1.2C508.2,437.7,508.1,437.4,507.8,437.1 M507,440.8
		c-0.3,0.4-0.9,0.6-1.6,0.6h-2v-4.2h2c0.4,0,0.7,0,1,0.2c0.3,0.1,0.5,0.3,0.6,0.4c0.2,0.2,0.3,0.4,0.4,0.6c0.1,0.2,0.1,0.5,0.1,0.8
		C507.5,439.9,507.4,440.4,507,440.8"/>
	<polygon class="st0" points="512.5,440.4 512.5,440.4 512.5,431.6 511.5,431.6 511.5,442.3 512.4,442.3 517,433.5 517,433.5 
		517,442.3 518,442.3 518,431.6 517,431.6 	"/>
	<path class="st0" d="M526.6,437.9c-0.1-0.3-0.2-0.5-0.4-0.7c-0.2-0.2-0.4-0.4-0.8-0.5v-0.1c0.3-0.1,0.5-0.2,0.6-0.4
		c0.2-0.2,0.3-0.4,0.4-0.6c0.1-0.2,0.2-0.4,0.2-0.7c0-0.2,0.1-0.5,0.1-0.6c0-0.9-0.2-1.5-0.7-2c-0.5-0.4-1.2-0.7-2.1-0.7
		c-0.4,0-0.7,0-1.1,0.1c-0.3,0.1-0.6,0.2-0.9,0.4c-0.3,0.2-0.5,0.4-0.7,0.7c-0.2,0.3-0.3,0.6-0.4,0.9l0.9,0.3
		c0.1-0.5,0.4-0.9,0.7-1.2c0.4-0.3,0.8-0.4,1.4-0.4c0.3,0,0.5,0,0.7,0.1c0.2,0.1,0.4,0.2,0.6,0.3c0.2,0.1,0.3,0.3,0.4,0.6
		c0.1,0.2,0.1,0.5,0.1,0.8c0,0.6-0.1,1.1-0.4,1.4c-0.3,0.4-0.7,0.6-1.3,0.6h-0.9v0.8h1c0.5,0,1,0.2,1.3,0.6c0.3,0.4,0.5,0.9,0.5,1.6
		c0,0.7-0.2,1.3-0.6,1.7c-0.4,0.4-0.9,0.6-1.6,0.6c-0.5,0-1-0.1-1.4-0.4c-0.4-0.3-0.6-0.7-0.7-1.3c0,0-0.1,0-0.2,0.1
		c-0.1,0-0.2,0.1-0.3,0.1c-0.1,0-0.2,0.1-0.3,0.1c-0.1,0-0.2,0-0.2,0.1c0.1,0.4,0.2,0.7,0.4,1c0.2,0.3,0.4,0.5,0.7,0.7
		c0.3,0.2,0.6,0.3,0.9,0.4c0.3,0.1,0.7,0.1,1.1,0.1c1,0,1.8-0.3,2.3-0.8c0.5-0.6,0.8-1.3,0.8-2.3c0-0.2,0-0.4,0-0.7
		C526.7,438.3,526.7,438.1,526.6,437.9"/>
	<polygon class="st0" points="535.1,436.4 531,436.4 531,431.6 530.1,431.6 530.1,442.3 531,442.3 531,437.3 535.1,437.3 
		535.1,442.3 536.1,442.3 536.1,431.6 535.1,431.6 	"/>
	<polygon class="st0" points="539.7,442.3 545.2,442.3 545.2,441.3 540.6,441.3 540.6,437.3 544.6,437.3 544.6,436.4 540.6,436.4 
		540.6,432.6 545.2,432.6 545.2,431.6 539.7,431.6 	"/>
	<path class="st0" d="M548.9,433.8c0.1-0.3,0.2-0.5,0.4-0.7c0.2-0.2,0.4-0.3,0.7-0.5c0.3-0.1,0.5-0.2,0.9-0.2c0.5,0,0.9,0.1,1.3,0.4
		c0.3,0.3,0.6,0.6,0.7,1.1l0.9-0.4c-0.2-0.7-0.5-1.2-1-1.5c-0.5-0.4-1.1-0.5-1.8-0.5c-0.5,0-0.9,0.1-1.3,0.2c-0.4,0.1-0.7,0.4-1,0.6
		c-0.3,0.3-0.5,0.6-0.6,1c-0.1,0.4-0.2,0.8-0.2,1.2v4.6c0,0.5,0.1,0.9,0.2,1.3c0.1,0.4,0.3,0.7,0.6,1c0.3,0.3,0.6,0.5,1,0.6
		c0.4,0.2,0.8,0.2,1.3,0.2c0.7,0,1.3-0.2,1.9-0.5c0.5-0.4,0.9-0.9,1-1.6l-0.9-0.3c-0.1,0.5-0.4,0.9-0.7,1.1
		c-0.3,0.2-0.8,0.4-1.3,0.4c-0.3,0-0.6-0.1-0.9-0.2c-0.3-0.1-0.5-0.3-0.7-0.5c-0.2-0.2-0.3-0.4-0.4-0.7c-0.1-0.3-0.1-0.6-0.1-0.8
		v-4.7C548.8,434.4,548.9,434.1,548.9,433.8"/>
	<path class="st0" d="M559,431.6l-3.1,10.6h1l0.7-2.6h3.7l0.7,2.6h1l-3.1-10.6H559z M561.1,438.9h-3.3c0-0.1,0.1-0.3,0.2-0.6
		c0.1-0.3,0.2-0.6,0.3-1c0.1-0.4,0.2-0.7,0.3-1c0.1-0.3,0.2-0.5,0.2-0.7c0-0.1,0.1-0.2,0.1-0.5c0.1-0.2,0.1-0.5,0.2-0.8
		c0.1-0.3,0.1-0.5,0.2-0.8c0.1-0.2,0.1-0.4,0.1-0.5h0.1l0.7,2.5L561.1,438.9z"/>
	<rect x="421.7" y="437.1" class="st0" width="13.5" height="0.9"/>
</g>
</svg>
