<?xml version="1.0" encoding="UTF-8" standalone="no"?>
<svg width="295px" height="59px" viewBox="0 0 295 59" version="1.1" xmlns="http://www.w3.org/2000/svg" xmlns:xlink="http://www.w3.org/1999/xlink" xmlns:sketch="http://www.bohemiancoding.com/sketch/ns">
    <!-- Generator: Sketch 3.3.2 (12043) - http://www.bohemiancoding.com/sketch -->
    <title>Slice 1</title>
    <desc>Created with Sketch.</desc>
    <defs></defs>
    <g id="Page-1" stroke="none" stroke-width="1" fill="none" fill-rule="evenodd" sketch:type="MSPage">
        <g id="logo" sketch:type="MSLayerGroup">
            <path d="M88.1,34.8 C89.5,33.5 90.2,31.7 90.2,29.5 C90.2,28.6 90.1,27.7 89.9,27 C89.7,26.3 89.4,25.6 88.9,25 C88.4,24.4 87.8,23.9 87,23.4 C86.2,22.9 85.3,22.5 84.1,22.2 C83.4,22 82.8,21.8 82.1,21.5 C81.5,21.3 81,21 80.5,20.7 C80.1,20.4 79.7,20.1 79.4,19.7 C79.1,19.3 79,18.9 79,18.4 C79,17.5 79.3,16.8 79.9,16.2 C80.5,15.6 81.3,15.3 82.3,15.3 C83.2,15.3 84,15.5 84.7,15.8 C85.4,16.2 86,16.7 86.5,17.5 L89.6,14.9 C88.9,13.8 88,13 86.9,12.4 C85.8,11.8 84.3,11.5 82.4,11.5 C81.3,11.5 80.2,11.7 79.3,12 C78.4,12.4 77.6,12.8 77,13.5 C76.3,14.1 75.8,14.9 75.5,15.7 C75.2,16.6 75,17.5 75,18.5 C75,19.4 75.1,20.2 75.4,21 C75.6,21.7 76,22.4 76.6,22.9 C77.1,23.5 77.8,24 78.6,24.4 C79.4,24.8 80.4,25.2 81.6,25.6 C82.2,25.8 82.8,26 83.4,26.2 C84,26.4 84.4,26.7 84.8,27 C85.2,27.3 85.5,27.6 85.7,28 C85.9,28.4 86,28.9 86,29.5 C86,30.4 85.7,31.2 85.2,31.8 C84.7,32.4 83.8,32.7 82.5,32.7 C81.4,32.7 80.5,32.4 79.7,31.9 C78.9,31.4 78.3,30.7 77.8,29.9 L74.5,32.3 C75.2,33.5 76.3,34.6 77.6,35.3 C78.9,36.1 80.5,36.5 82.5,36.5 C84.8,36.7 86.8,36.1 88.1,34.8" id="Shape" fill="#000000" sketch:type="MSShapeGroup"></path>
            <path d="M105.9,36.5 L105.9,15.5 L111.3,15.5 L111.3,11.8 L96.4,11.8 L96.4,15.5 L101.8,15.5 L101.8,36.5 L105.9,36.5 Z" id="Shape" fill="#000000" sketch:type="MSShapeGroup"></path>
            <path d="M129.6,36.5 L133.9,36.5 L126.7,11.8 L122.8,11.8 L115.7,36.5 L119.9,36.5 C120,36.3 120.1,35.9 120.2,35.4 C120.3,34.9 120.5,34.4 120.6,33.8 C120.8,33.2 120.9,32.7 121,32.2 C121.1,31.7 121.2,31.3 121.3,31.1 L128.1,31.1 L129.6,36.5 L129.6,36.5 Z M122.2,27.6 L123.5,22.6 L124.7,17.4 L124.9,17.4 C124.9,17.6 125,18 125.1,18.5 C125.2,19 125.3,19.5 125.5,20 C125.6,20.5 125.7,21.1 125.9,21.6 C126,22.1 126.1,22.5 126.1,22.7 L127.3,27.6 L122.2,27.6 L122.2,27.6 Z" id="Shape" fill="#000000" sketch:type="MSShapeGroup"></path>
            <path d="M141.3,36.5 L145.4,36.5 L145.4,26 L153.7,26 L153.7,22.3 L145.4,22.3 L145.4,15.6 L155,15.6 L155,11.8 L141.3,11.8 L141.3,36.5 Z" id="Shape" fill="#000000" sketch:type="MSShapeGroup"></path>
            <path d="M162.7,36.5 L166.8,36.5 L166.8,26 L175.1,26 L175.1,22.3 L166.8,22.3 L166.8,15.6 L176.4,15.6 L176.4,11.8 L162.7,11.8 L162.7,36.5 Z" id="Shape" fill="#000000" sketch:type="MSShapeGroup"></path>
            <rect id="Rectangle-path" fill="#2980BA" sketch:type="MSShapeGroup" x="181.8" y="31.9" width="4.4" height="4.6"></rect>
            <rect id="Rectangle-path" fill="#2980BA" sketch:type="MSShapeGroup" x="265.6" y="4.2" width="4.1" height="4.3"></rect>
            <path d="M208.5,34.7 C209.8,33.4 210.4,31.6 210.4,29.3 C210.4,28.7 210.3,28.1 210.2,27.5 C210.1,26.9 209.9,26.4 209.6,25.9 C209.3,25.4 209,25 208.6,24.6 C208.2,24.2 207.7,24 207.1,23.8 L207.1,23.6 C208.2,23.1 209,22.4 209.5,21.5 C209.9,20.6 210.2,19.7 210.2,18.6 C210.2,16.5 209.6,14.9 208.4,13.7 C207.2,12.5 205.5,11.9 203.1,11.9 L195.5,11.9 L195.5,36.6 L203.4,36.6 C205.6,36.5 207.3,35.9 208.5,34.7 L208.5,34.7 Z M199.5,15.5 L202.7,15.5 C203.9,15.5 204.7,15.8 205.3,16.4 C205.8,17 206.1,17.7 206.1,18.7 C206.1,19.7 205.8,20.5 205.3,21.1 C204.8,21.7 203.9,22 202.8,22 L199.6,22 L199.6,15.5 L199.5,15.5 Z M199.5,32.7 L199.5,25.5 L203,25.5 C204.2,25.5 205.1,25.8 205.6,26.5 C206.1,27.2 206.4,28 206.4,29 C206.4,29.5 206.4,30 206.2,30.4 C206.1,30.8 205.9,31.2 205.7,31.6 C205.4,31.9 205.1,32.2 204.7,32.4 C204.3,32.6 203.7,32.7 203.1,32.7 L199.5,32.7 L199.5,32.7 Z" id="Shape" fill="#000000" sketch:type="MSShapeGroup"></path>
            <path d="M228.1,11.8 L224.2,11.8 L217.1,36.5 L221.3,36.5 C221.4,36.3 221.5,35.9 221.6,35.4 C221.7,34.9 221.9,34.4 222,33.8 C222.2,33.2 222.3,32.7 222.4,32.2 C222.5,31.7 222.6,31.3 222.7,31.1 L229.5,31.1 L230.9,36.4 L235.2,36.4 L228.1,11.8 L228.1,11.8 Z M223.6,27.6 L224.9,22.6 L226.1,17.4 L226.3,17.4 C226.3,17.6 226.4,18 226.5,18.5 C226.6,19 226.7,19.5 226.9,20 C227,20.5 227.1,21.1 227.3,21.6 C227.4,22.1 227.5,22.5 227.5,22.7 L228.7,27.6 L223.6,27.6 L223.6,27.6 Z" id="Shape" fill="#000000" sketch:type="MSShapeGroup"></path>
            <path d="M256,25 C255.5,24.4 254.9,23.9 254.1,23.4 C253.3,22.9 252.4,22.5 251.2,22.2 C250.5,22 249.9,21.8 249.3,21.5 C248.7,21.3 248.1,21 247.7,20.7 C247.2,20.4 246.9,20.1 246.6,19.7 C246.3,19.3 246.2,18.9 246.2,18.4 C246.2,17.5 246.5,16.8 247.1,16.2 C247.7,15.6 248.5,15.3 249.6,15.3 C250.5,15.3 251.3,15.5 252,15.8 C252.7,16.2 253.3,16.7 253.8,17.5 L256.9,14.9 C256.2,13.8 255.3,13 254.2,12.4 C253,11.8 251.6,11.5 249.7,11.5 C248.6,11.5 247.5,11.7 246.6,12 C245.7,12.4 244.9,12.8 244.2,13.5 C243.5,14.1 243,14.9 242.7,15.7 C242.3,16.6 242.2,17.5 242.2,18.5 C242.2,19.4 242.3,20.2 242.6,21 C242.8,21.7 243.2,22.4 243.7,22.9 C244.2,23.5 244.9,23.9 245.7,24.4 C246.5,24.8 247.5,25.2 248.7,25.6 C249.3,25.8 249.9,26 250.5,26.2 C251,26.4 251.5,26.7 251.9,27 C252.3,27.3 252.6,27.6 252.8,28 C253,28.4 253.1,28.9 253.1,29.5 C253.1,30.4 252.8,31.2 252.3,31.8 C251.8,32.4 250.8,32.7 249.5,32.7 C248.4,32.7 247.5,32.4 246.7,31.9 C245.9,31.4 245.3,30.7 244.7,29.9 L241.4,32.3 C242.1,33.5 243.2,34.6 244.5,35.3 C245.8,36.1 247.4,36.5 249.4,36.5 C251.9,36.5 253.8,35.9 255.2,34.6 C256.6,33.3 257.3,31.5 257.3,29.3 C257.3,28.4 257.2,27.5 257,26.8 C256.8,26.3 256.4,25.6 256,25" id="Shape" fill="#000000" sketch:type="MSShapeGroup"></path>
            <rect id="Rectangle-path" fill="#000000" sketch:type="MSShapeGroup" x="265.6" y="11.8" width="4.1" height="24.7"></rect>
            <path d="M293.7,29.5 C293.7,28.6 293.6,27.7 293.4,27 C293.2,26.3 292.9,25.6 292.4,25 C291.9,24.4 291.3,23.9 290.5,23.4 C289.7,22.9 288.8,22.5 287.6,22.2 C286.9,22 286.3,21.8 285.6,21.5 C285,21.3 284.5,21 284,20.7 C283.6,20.4 283.2,20.1 282.9,19.7 C282.6,19.3 282.5,18.9 282.5,18.4 C282.5,17.5 282.8,16.8 283.4,16.2 C284,15.6 284.8,15.3 285.8,15.3 C286.7,15.3 287.5,15.5 288.2,15.8 C288.9,16.2 289.5,16.7 290.1,17.5 L293.2,14.9 C292.5,13.8 291.6,13 290.5,12.4 C289.4,11.8 287.9,11.5 286,11.5 C284.9,11.5 283.8,11.7 282.9,12 C282,12.4 281.2,12.8 280.5,13.5 C279.8,14.1 279.3,14.9 279,15.7 C278.6,16.6 278.5,17.5 278.5,18.5 C278.5,19.4 278.6,20.2 278.9,21 C279.1,21.7 279.5,22.4 280,22.9 C280.5,23.5 281.2,23.9 282,24.4 C282.8,24.8 283.8,25.2 285,25.6 C285.6,25.8 286.2,26 286.8,26.2 C287.3,26.4 287.8,26.7 288.2,27 C288.6,27.3 288.9,27.6 289.1,28 C289.3,28.4 289.4,28.9 289.4,29.5 C289.4,30.4 289.1,31.2 288.6,31.8 C288.1,32.4 287.2,32.7 285.9,32.7 C284.8,32.7 283.9,32.4 283.1,31.9 C282.3,31.4 281.7,30.7 281.2,29.9 L277.9,32.3 C278.6,33.5 279.6,34.6 280.9,35.3 C282.2,36.1 283.9,36.5 285.8,36.5 C288.3,36.5 290.2,35.9 291.6,34.6 C293,33.5 293.7,31.8 293.7,29.5" id="Shape" fill="#000000" sketch:type="MSShapeGroup"></path>
            <path d="M15,4.2 C1.4,12 -3.3,29.4 4.5,43 C12.3,56.6 29.7,61.3 43.3,53.5 C56.9,45.7 61.6,28.3 53.8,14.7 C46,1.1 28.6,-3.6 15,4.2 M42.3,51.8 C29.6,59.1 13.4,54.7 6.2,42 C-1.1,29.3 3.3,13.1 16,5.9 C28.7,-1.4 44.9,3 52.1,15.7 C59.4,28.4 55,44.6 42.3,51.8" id="Shape" fill="#2980BA" sketch:type="MSShapeGroup"></path>
            <path id="Shape" fill="#2980BA" sketch:type="MSShapeGroup" d="M12,25.3 L11.6,25.3 L12,25.3 L12,25.3 Z"></path>
            <path d="M47.8,25.2 C47.8,25.1 48.7,24.4 48.8,24.4 C47.9,24.4 47.9,24.2 47.3,24.5 C47.1,24 46.4,23.2 44.8,23.2 C43.1,23.2 42.2,23.7 42.2,23.7 C42.2,23.7 41.9,23.5 42.8,21.8 C42.8,21.5 42,19.7 38.4,18.3 C34.6,17.3 30.1,16.3 24.7,16.8 C25.5,17.1 25.9,17.1 25.9,17.1 L25.7,17.4 L27.3,17.7 L27.4,18 L28.6,18.2 L28.9,18.5 L30,18.8 L30.3,19 L31.2,19.3 L31.5,19.6 L32,19.7 L33,20.4 C33,20.4 33.8,20.9 34.7,21.2 C34.4,21.5 33.1,22.8 32.9,24 C32.9,24.6 32.9,25 33.3,24.8 C31.8,25.5 30.6,25.9 30.6,25.9 L12.1,25.5 C13.9,25.5 21.2,25.8 22.6,27 C23.7,27.5 24.2,27.9 24.2,27.9 L24.4,28.1 L24.3,28.4 L24.3,28.7 L24.1,29.1 L24.2,29.3 L24.3,29.3 C24.3,29.3 23.3,30.8 11.5,34.7 C11,34.9 10.9,35 10.8,35 C10.9,35 22.1,31.3 25.4,30.6 C28.1,29.9 29.7,29.7 29.7,29.7 C29.7,29.7 31.3,30.1 32.3,30.3 C32.5,31.2 32.8,32.9 33.8,33.9 C32.6,34.7 29.2,37.7 26.3,41.9 C22.9,45.6 20.7,47.3 20.7,47.4 C20.6,47.4 19.7,48.3 19.7,48.3 C19.7,48.3 22.4,48.1 29.9,43.6 C35.7,39.8 39.1,37.3 40.1,36.3 C41.1,35.3 43.6,33.4 42.8,31.4 C42.5,30.6 42.6,30.6 42.6,30.6 C42.6,30.6 46.2,29 47.8,26.5 C48.8,26 49.4,25.6 49.4,25.6 C49.4,25.6 48.7,24.9 47.8,25.2" id="Shape" fill="#2980BA" sketch:type="MSShapeGroup"></path>
            <g id="Group" transform="translate(75.000000, 47.000000)" fill="#2980BA" sketch:type="MSShapeGroup">
                <path d="M0.8,11.3 L1.8,11.3 L1.8,1.5 L5.8,1.5 L5.8,11.3 L6.8,11.3 L6.8,0.6 L0.8,0.6 L0.8,11.3 Z" id="Shape"></path>
                <path d="M10.3,11.3 L15.8,11.3 L15.8,10.3 L11.3,10.3 L11.3,6.3 L15.2,6.3 L15.2,5.4 L11.3,5.4 L11.3,1.6 L15.8,1.6 L15.8,0.6 L10.3,0.6 L10.3,11.3 Z" id="Shape"></path>
                <path d="M28.2,2.8 C28.3,2.5 28.4,2.3 28.6,2.1 C28.8,1.9 29,1.7 29.3,1.6 C29.6,1.5 29.9,1.4 30.2,1.4 C30.7,1.4 31.2,1.5 31.5,1.8 C31.8,2.1 32.1,2.4 32.2,2.9 L33.1,2.5 C32.9,1.8 32.6,1.3 32.1,1 C31.6,0.6 31,0.5 30.2,0.5 C29.7,0.5 29.3,0.6 28.9,0.7 C28.5,0.8 28.2,1.1 27.9,1.3 C27.6,1.6 27.4,1.9 27.3,2.3 C27.2,2.7 27.1,3.1 27.1,3.5 L27.1,8.1 C27.1,8.6 27.2,9 27.3,9.4 C27.4,9.8 27.6,10.1 27.9,10.4 C28.2,10.7 28.5,10.9 28.9,11 C29.3,11.2 29.7,11.2 30.2,11.2 C30.9,11.2 31.5,11 32.1,10.7 C32.6,10.3 33,9.8 33.1,9.1 L32.2,8.8 C32.1,9.3 31.9,9.7 31.5,9.9 C31.2,10.1 30.7,10.3 30.2,10.3 C29.9,10.3 29.6,10.2 29.3,10.1 C29,10 28.8,9.8 28.6,9.6 C28.4,9.4 28.3,9.2 28.2,8.9 C28.1,8.6 28.1,8.3 28.1,8.1 L28.1,3.4 C28.1,3.4 28.2,3.1 28.2,2.8" id="Shape"></path>
                <path d="M21.4,0.6 L18.4,0.6 L18.4,11.2 L19.4,11.2 L19.4,6.8 L21.5,6.8 C22,6.8 22.5,6.7 22.9,6.5 C23.3,6.3 23.6,6.1 23.8,5.8 C24,5.5 24.2,5.2 24.3,4.8 C24.4,4.4 24.5,4 24.5,3.6 C24.5,2.6 24.2,1.8 23.7,1.3 C23.2,0.9 22.4,0.6 21.4,0.6 M23.4,4.6 C23.3,4.9 23.2,5.1 23,5.3 C22.8,5.5 22.6,5.7 22.4,5.8 C22.1,5.9 21.8,6 21.4,6 L19.4,6 L19.4,1.6 L21.4,1.6 C22.1,1.6 22.6,1.8 23,2.2 C23.3,2.6 23.5,3.1 23.5,3.8 C23.5,4 23.5,4.3 23.4,4.6" id="Shape"></path>
                <path d="M41.2,1.5 C40.9,1.2 40.6,1 40.2,0.8 C39.8,0.6 39.4,0.6 38.9,0.6 C38.4,0.6 37.9,0.7 37.5,0.9 C37.1,1.1 36.8,1.3 36.5,1.6 C36.2,1.9 36.1,2.2 35.9,2.6 C35.8,3 35.7,3.4 35.7,3.7 L35.7,8.2 C35.7,8.7 35.8,9.1 35.9,9.5 C36,9.9 36.2,10.2 36.5,10.5 C36.8,10.8 37.1,11 37.5,11.2 C37.9,11.4 38.3,11.5 38.9,11.5 C39.4,11.5 39.8,11.4 40.1,11.3 C40.5,11.1 40.8,10.9 41.1,10.7 C41.4,10.4 41.6,10.1 41.7,9.7 C41.8,9.3 41.9,8.9 41.9,8.4 L41.9,3.8 C41.9,3.4 41.8,3 41.7,2.6 C41.7,2.1 41.5,1.8 41.2,1.5 L41.2,1.5 Z M41,8.3 C41,8.6 40.9,8.9 40.8,9.2 C40.7,9.5 40.6,9.7 40.4,9.9 C40.2,10.1 40,10.2 39.7,10.4 C39.4,10.5 39.2,10.6 38.9,10.6 C38.5,10.6 38.2,10.5 38,10.4 C37.7,10.3 37.5,10.1 37.3,9.9 C37.1,9.7 37,9.5 36.9,9.2 C36.8,8.9 36.8,8.6 36.8,8.3 L36.8,3.8 C36.8,3.5 36.8,3.3 36.9,3 C37,2.7 37.1,2.5 37.3,2.3 C37.5,2.1 37.7,1.9 38,1.8 C38.3,1.7 38.6,1.6 39,1.6 C39.4,1.6 39.7,1.7 39.9,1.8 C40.2,1.9 40.4,2.1 40.5,2.3 C40.7,2.5 40.8,2.7 40.9,3 C41,3.3 41,3.5 41,3.7 L41,8.3 L41,8.3 Z" id="Shape"></path>
                <path d="M50.3,5.4 L46.2,5.4 L46.2,0.6 L45.2,0.6 L45.2,11.3 L46.2,11.3 L46.2,6.3 L50.3,6.3 L50.3,11.3 L51.3,11.3 L51.3,0.6 L50.3,0.6 L50.3,5.4 Z" id="Shape"></path>
                <path d="M57.1,0.6 L54,11.2 L55,11.2 L55.7,8.6 L59.4,8.6 L60.1,11.2 L61.1,11.2 L58,0.6 L57.1,0.6 L57.1,0.6 Z M59.2,7.9 L55.9,7.9 C55.9,7.8 56,7.6 56.1,7.3 C56.2,7 56.3,6.7 56.4,6.3 C56.5,5.9 56.6,5.6 56.7,5.3 C56.8,5 56.9,4.8 56.9,4.6 C56.9,4.5 57,4.4 57,4.1 C57.1,3.9 57.1,3.6 57.2,3.3 C57.3,3 57.3,2.8 57.4,2.5 C57.5,2.3 57.5,2.1 57.5,2 L57.6,2 L58.3,4.5 L59.2,7.9 L59.2,7.9 Z" id="Shape"></path>
                <path d="M64.6,6.5 C64.6,7.3 64.6,7.9 64.5,8.4 C64.4,8.9 64.3,9.3 64.2,9.6 C64.1,9.9 63.9,10.1 63.6,10.3 C63.4,10.5 63.1,10.7 62.9,10.8 C62.9,10.9 63,11.1 63.1,11.2 C63.2,11.3 63.2,11.4 63.3,11.6 C63.7,11.5 64,11.3 64.3,11 C64.6,10.8 64.8,10.5 65,10.1 C65.2,9.7 65.3,9.2 65.4,8.6 C65.5,8 65.5,7.3 65.5,6.4 L65.5,1.6 L69,1.6 L69,11.4 L70,11.4 L70,0.8 L64.6,0.8 L64.6,6.5 L64.6,6.5 Z" id="Shape"></path>
                <path d="M104.5,1.5 C104.2,1.2 103.9,1 103.5,0.8 C103.1,0.6 102.7,0.6 102.2,0.6 C101.7,0.6 101.2,0.7 100.8,0.9 C100.4,1.1 100.1,1.3 99.8,1.6 C99.5,1.9 99.4,2.2 99.2,2.6 C99.1,3 99,3.4 99,3.7 L99,8.2 C99,8.7 99.1,9.1 99.2,9.5 C99.3,9.9 99.5,10.2 99.8,10.5 C100.1,10.8 100.4,11 100.8,11.2 C101.2,11.4 101.7,11.5 102.2,11.5 C102.7,11.5 103.1,11.4 103.4,11.3 C103.8,11.1 104.1,10.9 104.4,10.7 C104.7,10.4 104.9,10.1 105,9.7 C105.1,9.3 105.2,8.9 105.2,8.4 L105.2,3.8 C105.2,3.4 105.1,3 105,2.6 C104.9,2.1 104.7,1.8 104.5,1.5 L104.5,1.5 Z M104.3,8.3 C104.3,8.6 104.2,8.9 104.1,9.2 C104,9.5 103.9,9.7 103.7,9.9 C103.5,10.1 103.3,10.2 103,10.4 C102.8,10.5 102.5,10.6 102.2,10.6 C101.8,10.6 101.5,10.5 101.3,10.4 C101,10.3 100.8,10.1 100.6,9.9 C100.4,9.7 100.3,9.5 100.2,9.2 C100.1,8.9 100.1,8.6 100.1,8.3 L100.1,3.8 C100.1,3.5 100.1,3.3 100.2,3 C100.3,2.7 100.4,2.5 100.6,2.3 C100.8,2.1 101,1.9 101.3,1.8 C101.6,1.7 101.9,1.6 102.2,1.6 C102.6,1.6 102.9,1.7 103.2,1.8 C103.5,1.9 103.7,2.1 103.8,2.3 C104,2.5 104.1,2.7 104.2,3 C104.3,3.3 104.3,3.5 104.3,3.7 L104.3,8.3 L104.3,8.3 Z" id="Shape"></path>
                <path d="M109.4,2.8 C109.5,2.5 109.6,2.3 109.8,2.1 C110,1.9 110.2,1.8 110.5,1.6 C110.8,1.5 111.1,1.4 111.4,1.4 C111.9,1.4 112.3,1.5 112.7,1.8 C113,2.1 113.3,2.4 113.3,2.9 L114.2,2.5 C114,1.8 113.7,1.3 113.2,1 C112.7,0.6 112.1,0.5 111.4,0.5 C110.9,0.5 110.5,0.6 110.1,0.7 C109.7,0.8 109.4,1.1 109.1,1.3 C108.8,1.6 108.6,1.9 108.5,2.3 C108.4,2.7 108.3,3.1 108.3,3.5 L108.3,8.1 C108.3,8.6 108.4,9 108.5,9.4 C108.6,9.8 108.8,10.1 109.1,10.4 C109.4,10.7 109.7,10.9 110.1,11 C110.5,11.2 110.9,11.2 111.4,11.2 C112.1,11.2 112.7,11 113.3,10.7 C113.8,10.3 114.2,9.8 114.3,9.1 L113.4,8.8 C113.3,9.3 113,9.7 112.7,9.9 C112.3,10.1 111.9,10.3 111.4,10.3 C111.1,10.3 110.8,10.2 110.5,10.1 C110.2,10 110,9.8 109.9,9.6 C109.7,9.4 109.6,9.2 109.5,8.9 C109.4,8.6 109.4,8.3 109.4,8.1 L109.4,3.4 C109.2,3.4 109.3,3.1 109.4,2.8" id="Shape"></path>
                <path d="M122.2,5.4 L118.1,5.4 L118.1,0.6 L117.1,0.6 L117.1,11.3 L118.1,11.3 L118.1,6.3 L122.2,6.3 L122.2,11.3 L123.2,11.3 L123.2,0.6 L122.2,0.6 L122.2,5.4 Z" id="Shape"></path>
                <path d="M131.7,1.5 C131.4,1.2 131.1,1 130.8,0.8 C130.4,0.6 130,0.6 129.5,0.6 C129,0.6 128.5,0.7 128.1,0.9 C127.7,1.1 127.4,1.3 127.1,1.6 C126.8,1.9 126.7,2.2 126.5,2.6 C126.4,3 126.3,3.4 126.3,3.7 L126.3,8.2 C126.3,8.7 126.4,9.1 126.5,9.5 C126.6,9.9 126.8,10.2 127.1,10.5 C127.4,10.8 127.7,11 128.1,11.2 C128.5,11.4 128.9,11.5 129.5,11.5 C130,11.5 130.4,11.4 130.7,11.3 C131.1,11.1 131.4,10.9 131.7,10.7 C132,10.4 132.2,10.1 132.3,9.7 C132.4,9.3 132.5,8.9 132.5,8.4 L132.5,3.8 C132.5,3.4 132.4,3 132.3,2.6 C132.2,2.1 132,1.8 131.7,1.5 L131.7,1.5 Z M131.5,8.3 C131.5,8.6 131.4,8.9 131.3,9.2 C131.2,9.5 131.1,9.7 130.9,9.9 C130.7,10.1 130.5,10.2 130.2,10.4 C129.9,10.5 129.7,10.6 129.4,10.6 C129,10.6 128.7,10.5 128.5,10.4 C128.2,10.3 128,10.1 127.8,9.9 C127.6,9.7 127.5,9.5 127.4,9.2 C127.3,8.9 127.3,8.6 127.3,8.3 L127.3,3.8 C127.3,3.5 127.3,3.3 127.4,3 C127.5,2.7 127.6,2.5 127.8,2.3 C128,2.1 128.2,1.9 128.5,1.8 C128.8,1.7 129.1,1.6 129.4,1.6 C129.8,1.6 130.1,1.7 130.3,1.8 C130.6,1.9 130.8,2.1 130.9,2.3 C131.1,2.5 131.2,2.7 131.3,3 C131.4,3.3 131.4,3.5 131.4,3.7 L131.4,8.3 L131.5,8.3 Z" id="Shape"></path>
                <path d="M141.5,6.7 C141.4,6.5 141.2,6.3 141,6.1 C140.8,5.9 140.6,5.8 140.3,5.7 L140.3,5.7 C140.8,5.5 141.2,5.1 141.4,4.7 C141.6,4.3 141.7,3.8 141.7,3.3 C141.7,2.5 141.5,1.8 141,1.3 C140.5,0.8 139.8,0.5 138.9,0.5 L135.8,0.5 L135.8,11.1 L139.1,11.1 C140,11.1 140.6,10.9 141.2,10.3 C141.7,9.8 142,9.1 142,8 C142,7.7 142,7.4 141.9,7.2 C141.7,7.2 141.6,6.9 141.5,6.7 L141.5,6.7 Z M136.7,1.5 L138.7,1.5 C139.4,1.5 139.9,1.7 140.2,2 C140.5,2.3 140.7,2.8 140.7,3.4 C140.7,4 140.5,4.4 140.2,4.8 C139.9,5.1 139.4,5.3 138.7,5.3 L136.7,5.3 L136.7,1.5 L136.7,1.5 Z M140.7,9 C140.6,9.3 140.5,9.5 140.4,9.7 C140.2,9.9 140,10 139.8,10.2 C139.5,10.3 139.2,10.4 138.9,10.4 L136.8,10.4 L136.8,6.3 L139,6.3 C139.7,6.3 140.2,6.5 140.5,6.9 C140.8,7.3 141,7.7 141,8.3 C140.8,8.5 140.8,8.8 140.7,9 L140.7,9 Z" id="Shape"></path>
                <path d="M147.2,0.6 L144.1,11.2 L145.1,11.2 L145.8,8.6 L149.5,8.6 L150.2,11.2 L151.2,11.2 L148.1,0.6 L147.2,0.6 L147.2,0.6 Z M149.3,7.9 L146,7.9 C146,7.8 146.1,7.6 146.2,7.3 C146.3,7 146.4,6.7 146.5,6.3 C146.6,5.9 146.7,5.6 146.8,5.3 C146.9,5 147,4.8 147,4.6 C147,4.5 147.1,4.4 147.1,4.1 C147.2,3.9 147.2,3.6 147.3,3.3 C147.4,3 147.4,2.8 147.5,2.5 C147.6,2.3 147.6,2.1 147.6,2 L147.7,2 L148.4,4.5 L149.3,7.9 L149.3,7.9 Z" id="Shape"></path>
                <path d="M163.8,6.1 C163.6,5.8 163.2,5.6 162.9,5.5 C162.5,5.4 162.1,5.3 161.5,5.3 L159.5,5.3 L159.5,1.6 L163.8,1.6 L163.8,0.7 L158.5,0.7 L158.5,11.3 L161.5,11.3 C162.5,11.3 163.2,11 163.8,10.5 C164.3,10 164.6,9.2 164.6,8.2 C164.6,7.8 164.5,7.4 164.4,7 C164.2,6.7 164.1,6.4 163.8,6.1 M163,9.8 C162.7,10.2 162.1,10.4 161.4,10.4 L159.4,10.4 L159.4,6.2 L161.4,6.2 C161.8,6.2 162.1,6.2 162.4,6.4 C162.7,6.5 162.9,6.7 163,6.8 C163.2,7 163.3,7.2 163.4,7.4 C163.5,7.6 163.5,7.9 163.5,8.2 C163.5,8.9 163.4,9.4 163,9.8" id="Shape"></path>
                <path d="M168.5,9.4 L168.5,9.4 L168.5,0.6 L167.5,0.6 L167.5,11.3 L168.4,11.3 L173,2.5 L173,11.3 L174,11.3 L174,0.6 L173,0.6 L168.5,9.4 Z" id="Shape"></path>
                <path d="M182.6,6.9 C182.5,6.6 182.4,6.4 182.2,6.2 C182,6 181.8,5.8 181.4,5.7 L181.4,5.6 C181.7,5.5 181.9,5.4 182,5.2 C182.2,5 182.3,4.8 182.4,4.6 C182.5,4.4 182.6,4.2 182.6,3.9 C182.6,3.7 182.7,3.4 182.7,3.3 C182.7,2.4 182.5,1.8 182,1.3 C181.5,0.9 180.8,0.6 179.9,0.6 C179.5,0.6 179.2,0.6 178.8,0.7 C178.5,0.8 178.2,0.9 177.9,1.1 C177.6,1.3 177.4,1.5 177.2,1.8 C177,2.1 176.9,2.4 176.8,2.7 L177.7,3 C177.8,2.5 178.1,2.1 178.4,1.8 C178.8,1.5 179.2,1.4 179.8,1.4 C180.1,1.4 180.3,1.4 180.5,1.5 L181.1,1.8 C181.3,1.9 181.4,2.1 181.5,2.4 C181.6,2.6 181.6,2.9 181.6,3.2 C181.6,3.8 181.5,4.3 181.2,4.6 C180.9,5 180.5,5.2 179.9,5.2 L179,5.2 L179,6 L180,6 C180.5,6 181,6.2 181.3,6.6 C181.6,7 181.8,7.5 181.8,8.2 C181.8,8.9 181.6,9.5 181.2,9.9 C180.8,10.3 180.3,10.5 179.6,10.5 C179.1,10.5 178.6,10.4 178.2,10.1 C177.8,9.8 177.6,9.4 177.5,8.8 C177.5,8.8 177.4,8.8 177.3,8.9 C177.2,8.9 177.1,9 177,9 C176.9,9 176.8,9.1 176.7,9.1 C176.6,9.1 176.5,9.1 176.5,9.2 C176.6,9.6 176.7,9.9 176.9,10.2 C177.1,10.5 177.3,10.7 177.6,10.9 C177.9,11.1 178.2,11.2 178.5,11.3 C178.8,11.4 179.2,11.4 179.6,11.4 C180.6,11.4 181.4,11.1 181.9,10.6 C182.4,10 182.7,9.3 182.7,8.3 L182.7,7.6 C182.7,7.3 182.7,7.1 182.6,6.9" id="Shape"></path>
                <path d="M191.1,5.4 L187,5.4 L187,0.6 L186.1,0.6 L186.1,11.3 L187,11.3 L187,6.3 L191.1,6.3 L191.1,11.3 L192.1,11.3 L192.1,0.6 L191.1,0.6 L191.1,5.4 Z" id="Shape"></path>
                <path d="M195.7,11.3 L201.2,11.3 L201.2,10.3 L196.6,10.3 L196.6,6.3 L200.6,6.3 L200.6,5.4 L196.6,5.4 L196.6,1.6 L201.2,1.6 L201.2,0.6 L195.7,0.6 L195.7,11.3 Z" id="Shape"></path>
                <path d="M204.9,2.8 C205,2.5 205.1,2.3 205.3,2.1 C205.5,1.9 205.7,1.8 206,1.6 C206.3,1.5 206.5,1.4 206.9,1.4 C207.4,1.4 207.8,1.5 208.2,1.8 C208.5,2.1 208.8,2.4 208.9,2.9 L209.8,2.5 C209.6,1.8 209.3,1.3 208.8,1 C208.3,0.6 207.7,0.5 207,0.5 C206.5,0.5 206.1,0.6 205.7,0.7 C205.3,0.8 205,1.1 204.7,1.3 C204.4,1.6 204.2,1.9 204.1,2.3 C204,2.7 203.9,3.1 203.9,3.5 L203.9,8.1 C203.9,8.6 204,9 204.1,9.4 C204.2,9.8 204.4,10.1 204.7,10.4 C205,10.7 205.3,10.9 205.7,11 C206.1,11.2 206.5,11.2 207,11.2 C207.7,11.2 208.3,11 208.9,10.7 C209.4,10.3 209.8,9.8 209.9,9.1 L209,8.8 C208.9,9.3 208.6,9.7 208.3,9.9 C208,10.1 207.5,10.3 207,10.3 C206.7,10.3 206.4,10.2 206.1,10.1 C205.8,10 205.6,9.8 205.4,9.6 C205.2,9.4 205.1,9.2 205,8.9 C204.9,8.6 204.9,8.3 204.9,8.1 L204.9,3.4 C204.8,3.4 204.9,3.1 204.9,2.8" id="Shape"></path>
                <path d="M215,0.6 L211.9,11.2 L212.9,11.2 L213.6,8.6 L217.3,8.6 L218,11.2 L219,11.2 L215.9,0.6 L215,0.6 L215,0.6 Z M217.1,7.9 L213.8,7.9 C213.8,7.8 213.9,7.6 214,7.3 C214.1,7 214.2,6.7 214.3,6.3 C214.4,5.9 214.5,5.6 214.6,5.3 C214.7,5 214.8,4.8 214.8,4.6 C214.8,4.5 214.9,4.4 214.9,4.1 C215,3.9 215,3.6 215.1,3.3 C215.2,3 215.2,2.8 215.3,2.5 C215.4,2.3 215.4,2.1 215.4,2 L215.5,2 L216.2,4.5 L217.1,7.9 L217.1,7.9 Z" id="Shape"></path>
                <rect id="Rectangle-path" x="77.7" y="6.1" width="13.5" height="0.9"></rect>
            </g>
        </g>
    </g>
</svg>