<svg xmlns="http://www.w3.org/2000/svg">
<defs>
<font id="Calibri-Light" horiz-adv-x="1020" >
  <font-face 
    font-family="Calibri Light"
    font-weight="300"
    font-stretch="normal"
    units-per-em="2048"
    panose-1="2 15 3 2 2 2 4 3 2 4"
    ascent="1536"
    descent="-512"
    x-height="946.002"
    cap-height="1294"
    bbox="-810.998 -397 2457 1950"
    underline-thickness="104"
    underline-position="-209"
    unicode-range="U+000D-U+FB04"
  />
<missing-glyph horiz-adv-x="1038" 
d="M973 1294v-1294h-927v1294h927zM897 70v1154h-778v-1154h778zM760 860c0 -40 -5.99707 -75.667 -17.9971 -107s-28.833 -57.666 -50.5 -78.999s-47.167 -37.833 -76.5 -49.5s-61.333 -17.834 -96 -18.501l-5 -170c0 -5.33301 -3.66699 -9.16602 -11 -11.499
s-18 -3.5 -32 -3.5c-6.66699 0 -12.334 0.333008 -17.001 1s-8.66699 1.66699 -12 3s-5.83301 2.83301 -7.5 4.5s-2.5 3.83398 -2.5 6.50098l-4 200c0 15.333 4.33301 26.5 13 33.5s20 10.5 34 10.5h20c32.667 0 59.834 4.5 81.501 13.5s39.167 21.167 52.5 36.5
s22.833 33.666 28.5 54.999s8.5 44 8.5 68c0 53.333 -14.667 95.333 -44 126s-76.666 46 -141.999 46c-26 0 -49.5 -2.83301 -70.5 -8.5s-39.5 -12 -55.5 -19s-29.333 -13.333 -40 -19s-18.334 -8.5 -23.001 -8.5c-2 0 -4.16699 0.5 -6.5 1.5s-4.33301 3 -6 6s-3 7 -4 12
s-1.5 11.5 -1.5 19.5s0.833008 15.167 2.5 21.5s5.16699 12.166 10.5 17.499c4.66699 4.66699 13.667 10.167 27 16.5s29.166 12.5 47.499 18.5s38.666 11.167 60.999 15.5s44.5 6.5 66.5 6.5c46 0 86 -6.33301 120 -19s62.167 -30 84.5 -52s39.166 -48 50.499 -78
s17 -62 17 -96zM536.003 267c0 -12 -1 -22 -3 -30s-5.33301 -14.5 -10 -19.5s-10.834 -8.5 -18.501 -10.5s-17.167 -3 -28.5 -3c-12 0 -22 1 -30 3s-14.5 5.5 -19.5 10.5s-8.5 11.5 -10.5 19.5s-3 18 -3 30s1 22 3 30s5.5 14.5 10.5 19.5s11.5 8.5 19.5 10.5s18 3 30 3
c11.333 0 20.833 -1 28.5 -3s13.834 -5.5 18.501 -10.5s8 -11.5 10 -19.5s3 -18 3 -30z" />
    <glyph glyph-name="uniFB00" unicode="ff" horiz-adv-x="1175" 
d="M1200 1311c0 -15.333 -1.66797 -26.6699 -5.00098 -34.0029s-8.66602 -11 -15.999 -11c-5.33301 0 -11.833 1.66699 -19.5 5s-17.334 7 -29.001 11s-25 7.66699 -40 11s-31.833 5 -50.5 5c-55.333 0 -94.166 -19.5 -116.499 -58.5s-33.5 -101.167 -33.5 -186.5v-107h222
c4.66699 0 8.83398 -1 12.501 -3s6.83398 -5.16699 9.50098 -9.5s4.66699 -9.66602 6 -15.999s2 -13.833 2 -22.5c0 -16.667 -2.66699 -29.167 -8 -37.5s-12.666 -12.5 -21.999 -12.5h-222v-825c0 -4 -1 -7.66699 -3 -11s-5.16699 -6 -9.5 -8s-10.333 -3.66699 -18 -5
s-17.167 -2 -28.5 -2c-12 0 -21.833 0.666992 -29.5 2s-13.667 3 -18 5s-7.5 4.66699 -9.5 8s-3 7 -3 11v825h-444v-825c0 -4 -1 -7.66699 -3 -11s-5.33301 -6 -10 -8s-10.834 -3.66699 -18.501 -5s-17.167 -2 -28.5 -2s-20.833 0.666992 -28.5 2s-13.834 3 -18.501 5
s-7.83398 4.66699 -9.50098 8s-2.5 7 -2.5 11v825h-136c-9.33301 0 -16.5 4.16699 -21.5 12.5s-7.5 20.833 -7.5 37.5c0 8.66699 0.666992 16.167 2 22.5s3.16602 11.666 5.49902 15.999s5.33301 7.5 9 9.5s7.83398 3 12.501 3h136v96c0 62.667 5.83301 116 17.5 160
s29 79.833 52 107.5s51.5 47.834 85.5 60.501s73 19 117 19c29.333 0 54.666 -2.66699 75.999 -8s38 -10.666 50 -15.999c6 -2.66699 10.833 -5.83398 14.5 -9.50098s6.66699 -8.16699 9 -13.5s4 -11.5 5 -18.5s1.5 -14.833 1.5 -23.5c0 -15.333 -1.5 -26.666 -4.5 -33.999
s-8.16699 -11 -15.5 -11c-5.33301 0 -12 1.66699 -20 5s-17.833 7 -29.5 11s-25 7.66699 -40 11s-31.833 5 -50.5 5c-55.333 0 -94 -19.5 -116 -58.5s-33 -101.167 -33 -186.5v-96h444v107c0 62.667 6 116 18 160s29.5 79.833 52.5 107.5s51.5 47.834 85.5 60.501
s73 19 117 19c28.667 0 53.834 -2.66699 75.501 -8s38.5 -10.666 50.5 -15.999c5.33301 -2.66699 10 -5.83398 14 -9.50098s7.16699 -8.16699 9.5 -13.5s4 -11.5 5 -18.5s1.5 -14.833 1.5 -23.5z" />
    <glyph glyph-name="uniFB01" unicode="fi" horiz-adv-x="1057" 
d="M908 1229c0 -15.333 -1.16699 -28.166 -3.5 -38.499s-6.33301 -18.666 -12 -24.999s-13.5 -10.833 -23.5 -13.5s-22.667 -4 -38 -4s-28 1.33301 -38 4s-18 7.16699 -24 13.5s-10.167 14.666 -12.5 24.999s-3.5 23.166 -3.5 38.499s1.16699 28.166 3.5 38.499
s6.5 18.833 12.5 25.5s14 11.334 24 14.001s22.667 4 38 4s28 -1.33301 38 -4s17.833 -7.33398 23.5 -14.001s9.66699 -15.167 12 -25.5s3.5 -23.166 3.5 -38.499zM890 20c0 -4 -0.999023 -7.66895 -2.99902 -11.002s-5.16699 -6 -9.5 -8s-10.333 -3.66699 -18 -5
s-17.167 -2 -28.5 -2c-12 0 -21.833 0.666992 -29.5 2s-13.667 3 -18 5s-7.5 4.66699 -9.5 8s-3 7 -3 11v825h-444v-825c0 -4 -1 -7.66699 -3 -11s-5.16699 -6 -9.5 -8s-10.333 -3.66699 -18 -5s-17.5 -2 -29.5 -2c-11.333 0 -20.833 0.666992 -28.5 2s-13.834 3 -18.501 5
s-7.83398 4.66699 -9.50098 8s-2.5 7 -2.5 11v825h-136c-9.33301 0 -16.5 4.16699 -21.5 12.5s-7.5 20.833 -7.5 37.5c0 8.66699 0.666992 16.167 2 22.5s3.16602 11.666 5.49902 15.999s5.33301 7.5 9 9.5s7.83398 3 12.501 3h136v107c0 62.667 5.83301 116 17.5 160
s28.834 79.833 51.501 107.5s50.5 47.834 83.5 60.501s70.5 19 112.5 19c14.667 0 29 -0.666992 43 -2s26.833 -3.16602 38.5 -5.49902s21.667 -5 30 -8s14 -6 17 -9s5.5 -6.16699 7.5 -9.5s3.5 -7.16602 4.5 -11.499s1.83301 -9.5 2.5 -15.5s1 -13 1 -21
c0 -14.667 -1.5 -25.667 -4.5 -33s-8.16699 -11 -15.5 -11c-5.33301 0 -11 1.16699 -17 3.5s-13.833 5 -23.5 8s-21.5 5.83301 -35.5 8.5s-31.333 4 -52 4c-52 0 -88.667 -19.5 -110 -58.5s-32 -101.167 -32 -186.5v-107h526c13.333 0 22.833 -3.83301 28.5 -11.5
s8.5 -17.5 8.5 -29.5v-885z" />
    <glyph glyph-name="uniFB02" unicode="fl" horiz-adv-x="1057" 
d="M890 20c0 -4 -1.00684 -7.66992 -3.00684 -11.0029s-5.16699 -6 -9.5 -8s-10.333 -3.66699 -18 -5s-17.167 -2 -28.5 -2c-12 0 -21.833 0.666992 -29.5 2s-13.667 3 -18 5s-7.5 4.66699 -9.5 8s-3 7 -3 11v1256c-1.33301 -1.33301 -3 -2.16602 -5 -2.49902
s-5 -0.5 -9 -0.5c-8 0 -21 2.16699 -39 6.5s-36.5 7.83301 -55.5 10.5s-37 4.66699 -54 6s-33.167 2 -48.5 2c-47.333 0 -86.166 -4.83301 -116.499 -14.5s-54.166 -24.5 -71.499 -44.5s-29.166 -45.5 -35.499 -76.5s-9.5 -67.5 -9.5 -109.5v-107h205
c4.66699 0 8.83398 -1 12.501 -3s6.83398 -5.16699 9.50098 -9.5s4.66699 -9.66602 6 -15.999s2 -13.833 2 -22.5c0 -16.667 -2.66699 -29.167 -8 -37.5s-12.666 -12.5 -21.999 -12.5h-205v-825c0 -4 -1 -7.66699 -3 -11s-5.16699 -6 -9.5 -8s-10.333 -3.66699 -18 -5
s-17.5 -2 -29.5 -2c-11.333 0 -20.833 0.666992 -28.5 2s-13.834 3 -18.501 5s-7.83398 4.66699 -9.50098 8s-2.5 7 -2.5 11v825h-136c-9.33301 0 -16.5 4.16699 -21.5 12.5s-7.5 20.833 -7.5 37.5c0 8.66699 0.666992 16.167 2 22.5s3.16602 11.666 5.49902 15.999
s5.33301 7.5 9 9.5s7.83398 3 12.501 3h136v107c0 62.667 7 116 21 160s35.667 79.833 65 107.5s66.333 47.834 111 60.501s97.667 19 159 19c17.333 0 34.833 -0.666992 52.5 -2s34.834 -3 51.501 -5s31.334 -4.16699 44.001 -6.5s22.667 -4.5 30 -6.5
s13.333 -4.33301 18 -7s8.33398 -6.66699 11.001 -12c0 6.66699 1 12 3 16s5.16699 7.33301 9.5 10s10.333 4.5 18 5.5s17.5 1.5 29.5 1.5c11.333 0 20.833 -0.5 28.5 -1.5s13.667 -2.66699 18 -5s7.5 -5.16602 9.5 -8.49902s3 -7 3 -11v-1348z" />
    <glyph glyph-name="uniFB03" unicode="ffi" horiz-adv-x="1620" 
d="M1472 1229c0 -15.333 -1.16699 -28.166 -3.5 -38.499s-6.5 -18.666 -12.5 -24.999s-14 -10.833 -24 -13.5s-22.667 -4 -38 -4s-28 1.33301 -38 4s-18 7.16699 -24 13.5s-10.167 14.666 -12.5 24.999s-3.5 23.166 -3.5 38.499s1.16699 28.166 3.5 38.499
s6.5 18.833 12.5 25.5s14 11.334 24 14.001s22.667 4 38 4s28 -1.33301 38 -4s18 -7.33398 24 -14.001s10.167 -15.167 12.5 -25.5s3.5 -23.166 3.5 -38.499zM1454 20c0 -4 -0.995117 -7.6709 -2.99512 -11.0039s-5.16699 -6 -9.5 -8s-10.333 -3.66699 -18 -5
s-17.5 -2 -29.5 -2c-11.333 0 -20.833 0.666992 -28.5 2s-13.834 3 -18.501 5s-7.83398 4.66699 -9.50098 8s-2.5 7 -2.5 11v825h-445v-825c0 -4 -1 -7.66699 -3 -11s-5.16699 -6 -9.5 -8s-10.333 -3.66699 -18 -5s-17.167 -2 -28.5 -2c-12 0 -21.833 0.666992 -29.5 2
s-13.667 3 -18 5s-7.5 4.66699 -9.5 8s-3 7 -3 11v825h-444v-825c0 -4 -1 -7.66699 -3 -11s-5.16699 -6 -9.5 -8s-10.5 -3.66699 -18.5 -5s-17.667 -2 -29 -2s-20.833 0.666992 -28.5 2s-13.834 3 -18.501 5s-7.83398 4.66699 -9.50098 8s-2.5 7 -2.5 11v825h-136
c-9.33301 0 -16.5 4.16699 -21.5 12.5s-7.5 20.833 -7.5 37.5c0 8.66699 0.666992 16.167 2 22.5s3.16602 11.666 5.49902 15.999s5.33301 7.5 9 9.5s7.83398 3 12.501 3h136v96c0 62.667 5.83301 116 17.5 160s29 79.833 52 107.5s51.5 47.834 85.5 60.501s73 19 117 19
c29.333 0 54.666 -2.66699 75.999 -8s36.5 -10 45.5 -14s15.333 -7.83301 19 -11.5s6.66699 -8.16699 9 -13.5s4 -11.5 5 -18.5s1.5 -14.833 1.5 -23.5c0 -15.333 -1.5 -26.666 -4.5 -33.999s-8.16699 -11 -15.5 -11c-5.33301 0 -12 1.66699 -20 5s-17.833 7 -29.5 11
s-25 7.66699 -40 11s-31.833 5 -50.5 5c-55.333 0 -94 -19.5 -116 -58.5s-33 -101.167 -33 -186.5v-96h444v107c0 62.667 6 116 18 160s29.167 79.833 51.5 107.5s50 47.834 83 60.501s70.5 19 112.5 19c14.667 0 29.167 -0.666992 43.5 -2s27.166 -3.16602 38.499 -5.49902
s21.166 -5 29.499 -8s14 -6 17 -9s5.5 -6.16699 7.5 -9.5s3.66699 -7.16602 5 -11.499s2.33301 -9.5 3 -15.5s1 -13 1 -21c0 -14.667 -1.5 -25.667 -4.5 -33s-8.16699 -11 -15.5 -11c-5.33301 0 -11.166 1.16699 -17.499 3.5s-14.166 5 -23.499 8s-21 5.83301 -35 8.5
s-31.333 4 -52 4c-52 0 -88.833 -19.5 -110.5 -58.5s-32.5 -101.167 -32.5 -186.5v-107h526c13.333 0 23 -3.83301 29 -11.5s9 -17.5 9 -29.5v-885z" />
    <glyph glyph-name="uniFB04" unicode="ffl" horiz-adv-x="1620" 
d="M1454 20c0 -4 -0.998047 -7.67188 -2.99805 -11.0049s-5.16699 -6 -9.5 -8s-10.333 -3.66699 -18 -5s-17.5 -2 -29.5 -2c-11.333 0 -20.833 0.666992 -28.5 2s-13.834 3 -18.501 5s-7.83398 4.66699 -9.50098 8s-2.5 7 -2.5 11v1256c-2 -1.33301 -4 -2.16602 -6 -2.49902
s-5 -0.5 -9 -0.5c-8 0 -21 2.16699 -39 6.5s-36.5 7.83301 -55.5 10.5s-37 4.66699 -54 6s-32.833 2 -47.5 2c-47.333 0 -86.166 -4.83301 -116.499 -14.5s-54.166 -24.5 -71.499 -44.5s-29.333 -45.5 -36 -76.5s-10 -67.5 -10 -109.5v-107h206c4.66699 0 8.66699 -1 12 -3
s6.33301 -5.16699 9 -9.5s4.66699 -9.66602 6 -15.999s2 -13.833 2 -22.5c0 -16.667 -2.66699 -29.167 -8 -37.5s-12.333 -12.5 -21 -12.5h-206v-825c0 -4 -1 -7.66699 -3 -11s-5.16699 -6 -9.5 -8s-10.333 -3.66699 -18 -5s-17.167 -2 -28.5 -2
c-12 0 -21.833 0.666992 -29.5 2s-13.667 3 -18 5s-7.5 4.66699 -9.5 8s-3 7 -3 11v825h-444v-825c0 -4 -1 -7.66699 -3 -11s-5.16699 -6 -9.5 -8s-10.5 -3.66699 -18.5 -5s-17.667 -2 -29 -2s-20.833 0.666992 -28.5 2s-13.834 3 -18.501 5s-7.83398 4.66699 -9.50098 8
s-2.5 7 -2.5 11v825h-136c-9.33301 0 -16.5 4.16699 -21.5 12.5s-7.5 20.833 -7.5 37.5c0 8.66699 0.666992 16.167 2 22.5s3.16602 11.666 5.49902 15.999s5.33301 7.5 9 9.5s7.83398 3 12.501 3h136v96c0 62.667 5.83301 116 17.5 160s29 79.833 52 107.5
s51.5 47.834 85.5 60.501s73 19 117 19c29.333 0 54.666 -2.66699 75.999 -8s36.5 -10 45.5 -14s15.333 -7.83301 19 -11.5s6.66699 -8.16699 9 -13.5s4 -11.5 5 -18.5s1.5 -14.833 1.5 -23.5c0 -15.333 -1.5 -26.666 -4.5 -33.999s-8.16699 -11 -15.5 -11
c-5.33301 0 -12 1.66699 -20 5s-17.833 7 -29.5 11s-25 7.66699 -40 11s-31.833 5 -50.5 5c-55.333 0 -94 -19.5 -116 -58.5s-33 -101.167 -33 -186.5v-96h444v107c0 62.667 7.16699 116 21.5 160s36 79.833 65 107.5s65.833 47.834 110.5 60.501s97.667 19 159 19
c17.333 0 34.833 -0.666992 52.5 -2s34.834 -3 51.501 -5s31.5 -4.16699 44.5 -6.5s23.167 -4.5 30.5 -6.5s13.166 -4.33301 17.499 -7s8.16602 -6.66699 11.499 -12c0 6.66699 0.833008 12 2.5 16s4.83398 7.33301 9.50098 10s10.834 4.5 18.501 5.5s17.167 1.5 28.5 1.5
c12 0 21.833 -0.5 29.5 -1.5s13.667 -2.66699 18 -5s7.5 -5.16602 9.5 -8.49902s3 -7 3 -11v-1348z" />
    <glyph glyph-name="f_b.liga" unicode="fb" horiz-adv-x="1668" 
d="M1561 484c0 -77.333 -8.34082 -146.836 -25.0078 -208.503s-41.334 -114.167 -74.001 -157.5s-73.167 -76.666 -121.5 -99.999s-103.833 -35 -166.5 -35c-28 0 -53.833 2.83301 -77.5 8.5s-47 14.834 -70 27.501s-46.167 28.667 -69.5 48s-48.666 42.666 -75.999 69.999
v-117c0 -4.66699 -1.16699 -8.66699 -3.5 -12s-5.66602 -6 -9.99902 -8s-10 -3.5 -17 -4.5s-15.5 -1.5 -25.5 -1.5s-18.5 0.5 -25.5 1.5s-12.667 2.5 -17 4.5s-7.33301 4.66699 -9 8s-2.5 7.33301 -2.5 12v1256c-2.66699 -1.33301 -5.16699 -2.16602 -7.5 -2.49902
s-5.16602 -0.5 -8.49902 -0.5c-6.66699 0 -19.667 2.16699 -39 6.5s-37.666 7.83301 -54.999 10.5s-34.666 4.66699 -51.999 6s-33.666 2 -48.999 2c-47.333 0 -86.166 -4.83301 -116.499 -14.5s-54.166 -24.5 -71.499 -44.5s-29.166 -45.5 -35.499 -76.5
s-9.5 -67.5 -9.5 -109.5v-107h205c4.66699 0 8.83398 -1 12.501 -3s6.83398 -5.16699 9.50098 -9.5s4.66699 -9.66602 6 -15.999s2 -13.833 2 -22.5c0 -16.667 -2.66699 -29.167 -8 -37.5s-12.666 -12.5 -21.999 -12.5h-205v-825c0 -4 -1 -7.66699 -3 -11
s-5.33301 -6 -10 -8s-10.834 -3.66699 -18.501 -5s-17.167 -2 -28.5 -2s-20.833 0.666992 -28.5 2s-13.834 3 -18.501 5s-7.83398 4.66699 -9.50098 8s-2.5 7 -2.5 11v825h-136c-9.33301 0 -16.5 4.16699 -21.5 12.5s-7.5 20.833 -7.5 37.5
c0 8.66699 0.666992 16.167 2 22.5s3.16602 11.666 5.49902 15.999s5.33301 7.5 9 9.5s7.83398 3 12.501 3h136v107c0 62.667 7 116 21 160s35.667 79.833 65 107.5s66.333 47.834 111 60.501s97.667 19 159 19c17.333 0 34.833 -0.666992 52.5 -2s34.5 -3 50.5 -5
s30.667 -4.16699 44 -6.5s23.666 -4.5 30.999 -6.5s13.333 -4.33301 18 -7s8.33398 -6.66699 11.001 -12c0 6.66699 1 12 3 16s5.16699 7.33301 9.5 10s10.333 4.5 18 5.5s17.5 1.5 29.5 1.5c11.333 0 20.833 -0.5 28.5 -1.5s13.667 -2.66699 18 -5
s7.5 -5.16602 9.5 -8.49902s3 -7 3 -11v-565c29.333 30 57 55.167 83 75.5s51.333 36.666 76 48.999s49.167 21.166 73.5 26.499s49.5 8 75.5 8c65.333 0 121 -12.667 167 -38s83.5 -59.666 112.5 -102.999s50.167 -94 63.5 -152s20 -119.667 20 -185zM1436.99 464.997
c0 50.667 -4.00195 99.666 -12.002 146.999s-21.667 89.333 -41 126s-45 66.167 -77 88.5s-72 33.5 -120 33.5c-24 0 -47.333 -3.33301 -70 -10s-46 -17.667 -70 -33s-48.833 -35.166 -74.5 -59.499s-53.167 -54.5 -82.5 -90.5v-394
c50 -60.667 98.167 -107.167 144.5 -139.5s94.5 -48.5 144.5 -48.5c46.667 0 86.334 11.167 119.001 33.5s59.334 51.5 80.001 87.5s35.667 76.667 45 122s14 91 14 137z" />
    <glyph glyph-name="f_f_b.liga" unicode="ffb" horiz-adv-x="2232" 
d="M2000 465c0 50.667 -4 99.666 -12 146.999s-21.667 89.333 -41 126s-45 66.167 -77 88.5s-72 33.5 -120 33.5c-23.333 0 -46.5 -3.33301 -69.5 -10s-46.5 -17.667 -70.5 -33s-48.833 -35.166 -74.5 -59.499s-52.834 -54.5 -81.501 -90.5v-394
c50 -60.667 98.167 -107.167 144.5 -139.5s94.5 -48.5 144.5 -48.5c46 0 85.333 11.167 118 33.5s59.334 51.5 80.001 87.5s35.667 76.667 45 122s14 91 14 137zM771 945.999l0.00195312 106.995c0 62.667 7.16699 116 21.5 160s36 79.833 65 107.5
s65.833 47.834 110.5 60.501s97.667 19 159 19c18 0 35.833 -0.666992 53.5 -2s34.5 -3 50.5 -5s30.667 -4.16699 44 -6.5s23.666 -4.5 30.999 -6.5s13.166 -4.33301 17.499 -7s8.16602 -6.66699 11.499 -12c0 6.66699 0.833008 12 2.5 16s4.83398 7.33301 9.50098 10
s10.834 4.5 18.501 5.5s17.167 1.5 28.5 1.5c12 0 21.833 -0.5 29.5 -1.5s13.667 -2.66699 18 -5s7.5 -5.16602 9.5 -8.49902s3 -7 3 -11v-565c28.667 30 56 55.167 82 75.5s51.333 36.666 76 48.999s49.167 21.166 73.5 26.499s49.5 8 75.5 8
c65.333 0 121.166 -12.667 167.499 -38s84 -59.666 113 -102.999s50.167 -94 63.5 -152s20 -119.667 20 -185c0 -77.333 -8.33301 -146.833 -25 -208.5s-41.5 -114.167 -74.5 -157.5s-73.667 -76.666 -122 -99.999s-103.833 -35 -166.5 -35c-28 0 -53.833 2.83301 -77.5 8.5
s-46.834 14.834 -69.501 27.501s-45.834 28.667 -69.501 48s-49.167 42.666 -76.5 69.999v-117c0 -4.66699 -1 -8.66699 -3 -12s-5.33301 -6 -10 -8s-10.334 -3.5 -17.001 -4.5s-15 -1.5 -25 -1.5s-18.5 0.5 -25.5 1.5s-12.667 2.5 -17 4.5s-7.33301 4.66699 -9 8
s-2.5 7.33301 -2.5 12v1256c-2.66699 -1.33301 -5.16699 -2.16602 -7.5 -2.49902s-5.16602 -0.5 -8.49902 -0.5c-6.66699 0 -19.667 2.16699 -39 6.5s-37.666 7.83301 -54.999 10.5s-34.666 4.66699 -51.999 6s-33.666 2 -48.999 2
c-47.333 0 -86.166 -4.83301 -116.499 -14.5s-54.166 -24.5 -71.499 -44.5s-29.333 -45.5 -36 -76.5s-10 -67.5 -10 -109.5v-107h206c4.66699 0 8.66699 -1 12 -3s6.33301 -5.16699 9 -9.5s4.66699 -9.66602 6 -15.999s2 -13.833 2 -22.5
c0 -16.667 -2.66699 -29.167 -8 -37.5s-12.333 -12.5 -21 -12.5h-206v-825c0 -4 -1 -7.66699 -3 -11s-5.16699 -6 -9.5 -8s-10.333 -3.66699 -18 -5s-17.167 -2 -28.5 -2c-12 0 -21.833 0.666992 -29.5 2s-13.667 3 -18 5s-7.5 4.66699 -9.5 8s-3 7 -3 11v825h-444v-825
c0 -4 -1 -7.66699 -3 -11s-5.16699 -6 -9.5 -8s-10.333 -3.66699 -18 -5s-17.5 -2 -29.5 -2c-11.333 0 -20.833 0.666992 -28.5 2s-13.834 3 -18.501 5s-7.83398 4.66699 -9.50098 8s-2.5 7 -2.5 11v825h-136c-9.33301 0 -16.5 4.16699 -21.5 12.5s-7.5 20.833 -7.5 37.5
c0 8.66699 0.666992 16.167 2 22.5s3.16602 11.666 5.49902 15.999s5.33301 7.5 9 9.5s7.83398 3 12.501 3h136v96c0 62.667 5.83301 116 17.5 160s29 79.833 52 107.5s51.5 47.834 85.5 60.501s73 19 117 19c29.333 0 54.666 -2.66699 75.999 -8s38 -10.666 50 -15.999
c6 -2.66699 10.833 -5.83398 14.5 -9.50098s6.66699 -8.16699 9 -13.5s4 -11.5 5 -18.5s1.5 -14.833 1.5 -23.5c0 -15.333 -1.5 -26.666 -4.5 -33.999s-8.16699 -11 -15.5 -11c-5.33301 0 -12 1.66699 -20 5s-17.833 7 -29.5 11s-25 7.66699 -40 11s-31.833 5 -50.5 5
c-55.333 0 -94 -19.5 -116 -58.5s-33 -101.167 -33 -186.5v-96h444z" />
    <glyph glyph-name="f_h.liga" unicode="fh" horiz-adv-x="1669" 
d="M1505 20c0 -4 -1.00488 -7.6709 -3.00488 -11.0039s-5.16699 -6 -9.5 -8s-10.333 -3.66699 -18 -5s-17.167 -2 -28.5 -2s-20.833 0.666992 -28.5 2s-14 3 -19 5s-8.33301 4.66699 -10 8s-2.5 7 -2.5 11v537c0 56 -4.16699 101.5 -12.5 136.5s-21.333 65 -39 90
s-39.834 44.333 -66.501 58s-58 20.5 -94 20.5c-46 0 -92 -16.333 -138 -49s-94.667 -80.667 -146 -144v-649c0 -4 -1 -7.66699 -3 -11s-5.16699 -6 -9.5 -8s-10.333 -3.66699 -18 -5s-17.167 -2 -28.5 -2c-12 0 -21.833 0.666992 -29.5 2s-13.667 3 -18 5
s-7.5 4.66699 -9.5 8s-3 7 -3 11v1256c-2.66699 -1.33301 -5.16699 -2.16602 -7.5 -2.49902s-5.16602 -0.5 -8.49902 -0.5c-6.66699 0 -19.667 2.16699 -39 6.5s-37.666 7.83301 -54.999 10.5s-34.666 4.66699 -51.999 6s-33.666 2 -48.999 2
c-47.333 0 -86.166 -4.83301 -116.499 -14.5s-54.166 -24.5 -71.499 -44.5s-29.166 -45.5 -35.499 -76.5s-9.5 -67.5 -9.5 -109.5v-107h205c4.66699 0 8.83398 -1 12.501 -3s6.83398 -5.16699 9.50098 -9.5s4.66699 -9.66602 6 -15.999s2 -13.833 2 -22.5
c0 -16.667 -2.66699 -29.167 -8 -37.5s-12.666 -12.5 -21.999 -12.5h-205v-825c0 -4 -1 -7.66699 -3 -11s-5.16699 -6 -9.5 -8s-10.333 -3.66699 -18 -5s-17.5 -2 -29.5 -2c-11.333 0 -20.833 0.666992 -28.5 2s-13.834 3 -18.501 5s-7.83398 4.66699 -9.50098 8
s-2.5 7 -2.5 11v825h-136c-9.33301 0 -16.5 4.16699 -21.5 12.5s-7.5 20.833 -7.5 37.5c0 8.66699 0.666992 16.167 2 22.5s3.16602 11.666 5.49902 15.999s5.33301 7.5 9 9.5s7.83398 3 12.501 3h136v107c0 62.667 7 116 21 160s35.667 79.833 65 107.5
s66.333 47.834 111 60.501s97.667 19 159 19c17.333 0 34.833 -0.666992 52.5 -2s34.5 -3 50.5 -5s30.667 -4.16699 44 -6.5s23.666 -4.5 30.999 -6.5s13.333 -4.33301 18 -7s8.33398 -6.66699 11.001 -12c0 6.66699 1 12 3 16s5.16699 7.33301 9.5 10s10.333 4.5 18 5.5
s17.5 1.5 29.5 1.5c11.333 0 20.833 -0.5 28.5 -1.5s13.667 -2.66699 18 -5s7.5 -5.16602 9.5 -8.49902s3 -7 3 -11v-565c49.333 54.667 98.666 94.834 147.999 120.501s99 38.5 149 38.5c59.333 0 109.166 -10 149.499 -30s73 -47 98 -81s43 -73.667 54 -119
s16.5 -100 16.5 -164v-548z" />
    <glyph glyph-name="f_f_h.liga" unicode="ffh" horiz-adv-x="2232" 
d="M771 1053c0 62.667 7.1709 115.994 21.5039 159.994s36 79.833 65 107.5s65.833 47.834 110.5 60.501s97.667 19 159 19c18 0 35.833 -0.666992 53.5 -2s34.5 -3 50.5 -5s30.667 -4.16699 44 -6.5s23.666 -4.5 30.999 -6.5s13.166 -4.33301 17.499 -7
s8.16602 -6.66699 11.499 -12c0 6.66699 0.833008 12 2.5 16s4.83398 7.33301 9.50098 10s10.834 4.5 18.501 5.5s17.167 1.5 28.5 1.5c12 0 21.833 -0.5 29.5 -1.5s13.667 -2.66699 18 -5s7.5 -5.16602 9.5 -8.49902s3 -7 3 -11v-565
c49.333 54.667 98.666 94.834 147.999 120.501s98.666 38.5 147.999 38.5c59.333 0 109.333 -10 150 -30s73.5 -47 98.5 -81s43 -73.667 54 -119s16.5 -100 16.5 -164v-548c0 -4 -1 -7.66699 -3 -11s-5.16699 -6 -9.5 -8s-10.333 -3.66699 -18 -5s-17.167 -2 -28.5 -2
c-12 0 -21.833 0.666992 -29.5 2s-13.667 3 -18 5s-7.5 4.66699 -9.5 8s-3 7 -3 11v537c0 56 -4.33301 101.5 -13 136.5s-21.667 65 -39 90s-39.5 44.333 -66.5 58s-58.5 20.5 -94.5 20.5c-46 0 -91.833 -16.333 -137.5 -49s-94.167 -80.667 -145.5 -144v-649
c0 -4 -1 -7.66699 -3 -11s-5.16699 -6 -9.5 -8s-10.333 -3.66699 -18 -5s-17.5 -2 -29.5 -2c-11.333 0 -20.833 0.666992 -28.5 2s-13.834 3 -18.501 5s-7.83398 4.66699 -9.50098 8s-2.5 7 -2.5 11v1256c-2.66699 -1.33301 -5.16699 -2.16602 -7.5 -2.49902
s-5.16602 -0.5 -8.49902 -0.5c-6 0 -17.5 2 -34.5 6s-35.5 7.5 -55.5 10.5s-38.667 5.16699 -56 6.5s-33.666 2 -48.999 2c-47.333 0 -86.166 -4.83301 -116.499 -14.5s-54.166 -24.5 -71.499 -44.5s-29.333 -45.5 -36 -76.5s-10 -67.5 -10 -109.5v-107h206
c4.66699 0 8.66699 -1 12 -3s6.33301 -5.16699 9 -9.5s4.66699 -9.66602 6 -15.999s2 -13.833 2 -22.5c0 -16.667 -2.66699 -29.167 -8 -37.5s-12.333 -12.5 -21 -12.5h-206v-825c0 -4 -1 -7.66699 -3 -11s-5.16699 -6 -9.5 -8s-10.333 -3.66699 -18 -5s-17.167 -2 -28.5 -2
c-12 0 -21.833 0.666992 -29.5 2s-13.667 3 -18 5s-7.5 4.66699 -9.5 8s-3 7 -3 11v825h-444v-825c0 -4 -1 -7.66699 -3 -11s-5.16699 -6 -9.5 -8s-10.5 -3.66699 -18.5 -5s-17.667 -2 -29 -2s-20.833 0.666992 -28.5 2s-13.834 3 -18.501 5s-7.83398 4.66699 -9.50098 8
s-2.5 7 -2.5 11v825h-136c-9.33301 0 -16.5 4.16699 -21.5 12.5s-7.5 20.833 -7.5 37.5c0 8.66699 0.666992 16.167 2 22.5s3.16602 11.666 5.49902 15.999s5.33301 7.5 9 9.5s7.83398 3 12.501 3h136v96c0 62.667 5.83301 116 17.5 160s29 79.833 52 107.5
s51.5 47.834 85.5 60.501s73 19 117 19c29.333 0 54.666 -2.66699 75.999 -8s38 -10.666 50 -15.999c6 -2.66699 10.833 -5.83398 14.5 -9.50098s6.66699 -8.16699 9 -13.5s4 -11.5 5 -18.5s1.5 -14.833 1.5 -23.5c0 -15.333 -1.5 -26.666 -4.5 -33.999
s-8.16699 -11 -15.5 -11c-5.33301 0 -12 1.66699 -20 5s-17.833 7 -29.5 11s-25 7.66699 -40 11s-31.833 5 -50.5 5c-55.333 0 -94 -19.5 -116 -58.5s-33 -101.167 -33 -186.5v-96h444v107z" />
    <glyph glyph-name="f_igrave.liga" unicode="f&#xec;" horiz-adv-x="1057" 
d="M890 20c0 -4 -0.993164 -7.66504 -2.99316 -10.998s-5.16699 -6 -9.5 -8s-10.333 -3.66699 -18 -5s-17.167 -2 -28.5 -2c-12 0 -21.833 0.666992 -29.5 2s-13.667 3 -18 5s-7.5 4.66699 -9.5 8s-3 7 -3 11v825h-444v-825c0 -4 -1 -7.66699 -3 -11s-5.16699 -6 -9.5 -8
s-10.5 -3.66699 -18.5 -5s-17.667 -2 -29 -2s-20.833 0.666992 -28.5 2s-13.834 3 -18.501 5s-7.83398 4.66699 -9.50098 8s-2.5 7 -2.5 11v825h-136c-9.33301 0 -16.5 4.16699 -21.5 12.5s-7.5 20.833 -7.5 37.5c0 8.66699 0.666992 16.167 2 22.5
s3.16602 11.666 5.49902 15.999s5.33301 7.5 9 9.5s7.83398 3 12.501 3h136v126c0 58 5.83301 107.667 17.5 149s28.5 75.166 50.5 101.499s48.667 45.833 80 58.5s66.666 19 105.999 19c19.333 0 37.666 -1.33301 54.999 -4s31.666 -6 42.999 -10s19 -8 23 -12
s7.16699 -8.66699 9.5 -14s4 -11.5 5 -18.5s1.5 -14.833 1.5 -23.5c0 -14.667 -1.66699 -25.667 -5 -33s-8.66602 -11 -15.999 -11c-5.33301 0 -11.333 1.16699 -18 3.5s-14.834 5 -24.501 8s-20.834 5.83301 -33.501 8.5s-27.334 4 -44.001 4
c-46.667 0 -80.167 -18.5 -100.5 -55.5s-30.5 -93.833 -30.5 -170.5v-126h526c13.333 0 22.833 -3.83301 28.5 -11.5s8.5 -17.5 8.5 -29.5v-885zM883.007 1133c2 -6 3.16602 -11.333 3.49902 -16s-0.833984 -8.5 -3.50098 -11.5s-7.16699 -5.33301 -13.5 -7
s-14.5 -2.5 -24.5 -2.5s-18.167 0.333008 -24.5 1s-11.666 2 -15.999 4s-8 4.83301 -11 8.5s-6.16699 8.83398 -9.5 15.501l-124 234c-3.33301 6 -4.66602 11.5 -3.99902 16.5s3.16699 9.33301 7.5 13s10.666 6.5 18.999 8.5s18.833 3 31.5 3s23 -0.5 31 -1.5
s14.5 -2.66699 19.5 -5s8.83301 -5.83301 11.5 -10.5s5.33398 -10.334 8.00098 -17.001z" />
    <glyph glyph-name="f_iacute.liga" unicode="f&#xed;" horiz-adv-x="1057" 
d="M890 20c0 -4 -0.99707 -7.66797 -2.99707 -11.001s-5.16699 -6 -9.5 -8s-10.333 -3.66699 -18 -5s-17.167 -2 -28.5 -2c-12 0 -21.833 0.666992 -29.5 2s-13.667 3 -18 5s-7.5 4.66699 -9.5 8s-3 7 -3 11v825h-444v-825c0 -4 -1 -7.66699 -3 -11s-5.16699 -6 -9.5 -8
s-10.333 -3.66699 -18 -5s-17.5 -2 -29.5 -2c-11.333 0 -20.833 0.666992 -28.5 2s-13.834 3 -18.501 5s-7.83398 4.66699 -9.50098 8s-2.5 7 -2.5 11v825h-136c-9.33301 0 -16.5 4.16699 -21.5 12.5s-7.5 20.833 -7.5 37.5c0 8.66699 0.666992 16.167 2 22.5
s3.16602 11.666 5.49902 15.999s5.33301 7.5 9 9.5s7.83398 3 12.501 3h136v107c0 62.667 5.83301 116 17.5 160s29 79.833 52 107.5s51.5 47.834 85.5 60.501s73 19 117 19c25.333 0 48.666 -2.16699 69.999 -6.5s37.5 -9 48.5 -14s18.333 -9.33301 22 -13
s6.66699 -8.16699 9 -13.5s4 -11.5 5 -18.5s1.5 -14.833 1.5 -23.5c0 -15.333 -1.5 -26.666 -4.5 -33.999s-8.16699 -11 -15.5 -11c-5.33301 0 -12 1.66699 -20 5s-17.833 7 -29.5 11s-25 7.66699 -40 11s-31.833 5 -50.5 5c-55.333 0 -94 -19.5 -116 -58.5
s-33 -101.167 -33 -186.5v-107h526c13.333 0 22.833 -3.83301 28.5 -11.5s8.5 -17.5 8.5 -29.5v-885zM931.003 1366c4 6.66699 8.33398 12.334 13.001 17.001s10.167 8.16699 16.5 10.5s14 4 23 5s19.833 1.5 32.5 1.5s23 -1 31 -3s13.667 -4.83301 17 -8.5s4.5 -8 3.5 -13
s-3.83301 -10.5 -8.5 -16.5l-174 -234c-4.66699 -6.66699 -8.83398 -11.834 -12.501 -15.501s-7.83398 -6.5 -12.501 -8.5s-10.334 -3.33301 -17.001 -4s-15 -1 -25 -1s-18.167 0.833008 -24.5 2.5s-10.666 4 -12.999 7s-3.16602 6.83301 -2.49902 11.5s3 10 7 16z
M629.004 945.999z" />
    <glyph glyph-name="f_icircumflex.liga" unicode="f&#xee;" horiz-adv-x="1057" 
d="M890 20c0 -4 -0.998047 -7.66504 -2.99805 -10.998s-5.16699 -6 -9.5 -8s-10.333 -3.66699 -18 -5s-17.167 -2 -28.5 -2c-12 0 -21.833 0.666992 -29.5 2s-13.667 3 -18 5s-7.5 4.66699 -9.5 8s-3 7 -3 11v825h-444v-825c0 -4 -1 -7.66699 -3 -11s-5.16699 -6 -9.5 -8
s-10.333 -3.66699 -18 -5s-17.5 -2 -29.5 -2c-11.333 0 -20.833 0.666992 -28.5 2s-13.834 3 -18.501 5s-7.83398 4.66699 -9.50098 8s-2.5 7 -2.5 11v825h-136c-9.33301 0 -16.5 4.16699 -21.5 12.5s-7.5 20.833 -7.5 37.5c0 8.66699 0.666992 16.167 2 22.5
s3.16602 11.666 5.49902 15.999s5.33301 7.5 9 9.5s7.83398 3 12.501 3h136v126c0 58 5.83301 107.667 17.5 149s28.5 75.166 50.5 101.499s48.667 45.833 80 58.5s66.666 19 105.999 19c19.333 0 38 -1.33301 56 -4s32.333 -6 43 -10s18 -8 22 -12
s7.16699 -8.66699 9.5 -14s4 -11.5 5 -18.5s1.5 -14.833 1.5 -23.5c0 -14.667 -1.66699 -25.667 -5 -33s-8.66602 -11 -15.999 -11c-5.33301 0 -11.333 1.16699 -18 3.5l-23.5 8c-9 3 -20.167 5.83301 -33.5 8.5s-28.333 4 -45 4c-46.667 0 -80.167 -18.5 -100.5 -55.5
s-30.5 -93.833 -30.5 -170.5v-126h526c13.333 0 22.833 -3.83301 28.5 -11.5s8.5 -17.5 8.5 -29.5v-885zM706.002 1122c-3.33301 -5.33301 -6.83398 -9.66895 -10.501 -13.002s-7.66699 -6 -12 -8s-9.66602 -3.33301 -15.999 -4s-13.833 -1 -22.5 -1
c-13.333 0 -23.5 1 -30.5 3s-11.5 5 -13.5 9s-1.66699 9.16699 1 15.5s7.33398 13.833 14.001 22.5l165 232c3.33301 4.66699 6.66602 8.33398 9.99902 11.001s7.5 4.83398 12.5 6.50098s11.333 2.83398 19 3.50098s17.167 1 28.5 1c10 0 18.333 -0.333008 25 -1
s12.5 -2 17.5 -4s9.16699 -4.33301 12.5 -7s6.66602 -6 9.99902 -10l165 -232c6 -8.66699 10.167 -16.167 12.5 -22.5s2.33301 -11.5 0 -15.5s-7.16602 -7 -14.499 -9s-17.333 -3 -30 -3c-10 0 -18 0.333008 -24 1s-11.167 2 -15.5 4s-8 4.66699 -11 8
s-6.5 7.66602 -10.5 12.999l-141 198z" />
    <glyph glyph-name="f_itilde.liga" unicode="f&#x129;" horiz-adv-x="1075" 
d="M909 20c0 -4 -0.994141 -7.66406 -2.99414 -10.9971s-5.16699 -6 -9.5 -8s-10.333 -3.66699 -18 -5s-17.5 -2 -29.5 -2c-11.333 0 -20.833 0.666992 -28.5 2s-13.834 3 -18.501 5s-7.83398 4.66699 -9.50098 8s-2.5 7 -2.5 11v825h-463v-825c0 -4 -1 -7.66699 -3 -11
s-5.16699 -6 -9.5 -8s-10.5 -3.66699 -18.5 -5s-17.667 -2 -29 -2s-20.833 0.666992 -28.5 2s-13.834 3 -18.501 5s-7.83398 4.66699 -9.50098 8s-2.5 7 -2.5 11v825h-136c-9.33301 0 -16.5 4.16699 -21.5 12.5s-7.5 20.833 -7.5 37.5c0 8.66699 0.666992 16.167 2 22.5
s3.16602 11.666 5.49902 15.999s5.33301 7.5 9 9.5s7.83398 3 12.501 3h136v126c0 58 5.83301 107.667 17.5 149s28.5 75.166 50.5 101.499s48.667 45.833 80 58.5s66.666 19 105.999 19c10 0 19.833 -0.333008 29.5 -1s18.834 -1.66699 27.501 -3s16.834 -3 24.501 -5
s14.167 -4 19.5 -6s9.66602 -4.5 12.999 -7.5s6 -6.83301 8 -11.5s3.5 -10.334 4.5 -17.001s1.5 -14.334 1.5 -23.001c0 -15.333 -1.66699 -26.666 -5 -33.999s-8.66602 -11 -15.999 -11c-5.33301 0 -10.833 0.833008 -16.5 2.5s-12.834 3.66699 -21.501 6
s-18.834 4.33301 -30.501 6s-25.834 2.5 -42.501 2.5c-46.667 0 -80.167 -18.5 -100.5 -55.5s-30.5 -93.833 -30.5 -170.5v-126h545c13.333 0 22.833 -3.83301 28.5 -11.5s8.5 -17.5 8.5 -29.5v-885zM1129.01 1283c0 -32.667 -4 -61.332 -12 -85.999s-19 -45.5 -33 -62.5
s-30.667 -29.833 -50 -38.5s-40.333 -13 -63 -13c-32 0 -59.5 7.33301 -82.5 22s-43.5 31 -61.5 49l-49.5 49c-15 14.667 -30.833 22 -47.5 22c-22 0 -38 -10.833 -48 -32.5s-15 -49.5 -15 -83.5c0 -9.33301 -3.16699 -16 -9.5 -20s-19.166 -6 -38.499 -6
c-15.333 0 -26.833 2.66699 -34.5 8s-11.5 16.666 -11.5 33.999c0 60.667 14.167 109.334 42.5 146.001s67.166 55 116.499 55c21.333 0 40.5 -3.5 57.5 -10.5s32.667 -15.833 47 -26.5s27.5 -22.167 39.5 -34.5l34 -34.5c10.667 -10.667 21 -19.5 31 -26.5
s20.667 -10.5 32 -10.5c19.333 0 34.5 9.66699 45.5 29s16.5 48.666 16.5 87.999c0 9.33301 3.5 16 10.5 20s18.167 6 33.5 6c18.667 0 31.667 -2.83301 39 -8.5s11 -17.167 11 -34.5z" />
    <glyph glyph-name="f_idieresis.liga" unicode="f&#xef;" horiz-adv-x="1075" 
d="M909 20c0 -4 -0.994141 -7.66406 -2.99414 -10.9971s-5.16699 -6 -9.5 -8s-10.333 -3.66699 -18 -5s-17.167 -2 -28.5 -2c-12 0 -21.833 0.666992 -29.5 2s-13.834 3 -18.501 5s-7.83398 4.66699 -9.50098 8s-2.5 7 -2.5 11v825h-463v-825c0 -4 -1 -7.66699 -3 -11
s-5.16699 -6 -9.5 -8s-10.5 -3.66699 -18.5 -5s-17.667 -2 -29 -2s-20.833 0.666992 -28.5 2s-13.834 3 -18.501 5s-7.83398 4.66699 -9.50098 8s-2.5 7 -2.5 11v825h-136c-9.33301 0 -16.5 4.16699 -21.5 12.5s-7.5 20.833 -7.5 37.5c0 8.66699 0.666992 16.167 2 22.5
s3.16602 11.666 5.49902 15.999s5.33301 7.5 9 9.5s7.83398 3 12.501 3h136v126c0 58 5.83301 107.667 17.5 149s28.5 75.166 50.5 101.499s48.667 45.833 80 58.5s66.666 19 105.999 19c10 0 19.833 -0.333008 29.5 -1s18.834 -1.66699 27.501 -3s16.834 -3 24.501 -5
s14.167 -4 19.5 -6s9.66602 -4.5 12.999 -7.5s6 -6.83301 8 -11.5s3.5 -10.334 4.5 -17.001s1.5 -14.334 1.5 -23.001c0 -15.333 -1.66699 -26.666 -5 -33.999s-8.66602 -11 -15.999 -11c-5.33301 0 -10.833 0.833008 -16.5 2.5s-12.834 3.66699 -21.501 6
s-18.834 4.33301 -30.501 6s-25.834 2.5 -42.501 2.5c-46.667 0 -80.167 -18.5 -100.5 -55.5s-30.5 -93.833 -30.5 -170.5v-126h545c13.333 0 22.833 -3.83301 28.5 -11.5s8.5 -17.5 8.5 -29.5v-885zM649.006 1229c0 14.667 1.16699 27 3.5 37s6.33301 18 12 24
s13.334 10.333 23.001 13s21.5 4 35.5 4c14.667 0 26.667 -1.33301 36 -4s16.833 -7 22.5 -13s9.66699 -14 12 -24s3.5 -22.333 3.5 -37c0 -14 -1.16699 -26 -3.5 -36s-6.33301 -18.167 -12 -24.5s-13.167 -10.833 -22.5 -13.5s-21.333 -4 -36 -4
c-14 0 -25.833 1.33301 -35.5 4s-17.334 7.16699 -23.001 13.5s-9.66699 14.5 -12 24.5s-3.5 22 -3.5 36zM927.006 1229c0 14.667 1.16699 27 3.5 37s6.33301 18 12 24s13.334 10.333 23.001 13s21.5 4 35.5 4c14.667 0 26.667 -1.33301 36 -4s16.833 -7 22.5 -13
s9.66699 -14 12 -24s3.5 -22.333 3.5 -37c0 -14 -1.16699 -26 -3.5 -36s-6.33301 -18.167 -12 -24.5s-13.167 -10.833 -22.5 -13.5s-21.333 -4 -36 -4c-14 0 -25.833 1.33301 -35.5 4s-17.334 7.16699 -23.001 13.5s-9.66699 14.5 -12 24.5s-3.5 22 -3.5 36z" />
    <glyph glyph-name="f_imacron.liga" unicode="f&#x12b;" horiz-adv-x="1075" 
d="M909 20c0 -4 -0.993164 -7.66406 -2.99316 -10.9971s-5.16699 -6 -9.5 -8s-10.333 -3.66699 -18 -5s-17.5 -2 -29.5 -2c-11.333 0 -20.833 0.666992 -28.5 2s-13.834 3 -18.501 5s-7.83398 4.66699 -9.50098 8s-2.5 7 -2.5 11v825h-463v-825c0 -4 -1 -7.66699 -3 -11
s-5.16699 -6 -9.5 -8s-10.5 -3.66699 -18.5 -5s-17.667 -2 -29 -2s-20.833 0.666992 -28.5 2s-13.834 3 -18.501 5s-7.83398 4.66699 -9.50098 8s-2.5 7 -2.5 11v825h-136c-9.33301 0 -16.5 4.16699 -21.5 12.5s-7.5 20.833 -7.5 37.5c0 8.66699 0.666992 16.167 2 22.5
s3.16602 11.666 5.49902 15.999s5.33301 7.5 9 9.5s7.83398 3 12.501 3h136v126c0 58 5.83301 107.667 17.5 149s28.5 75.166 50.5 101.499s48.667 45.833 80 58.5s66.666 19 105.999 19c10 0 19.833 -0.333008 29.5 -1s18.834 -1.66699 27.501 -3s16.834 -3 24.501 -5
s14.167 -4 19.5 -6s9.66602 -4.5 12.999 -7.5s6 -6.83301 8 -11.5s3.5 -10.334 4.5 -17.001s1.5 -14.334 1.5 -23.001c0 -15.333 -1.66699 -26.666 -5 -33.999s-8.66602 -11 -15.999 -11c-5.33301 0 -10.833 0.833008 -16.5 2.5s-12.834 3.66699 -21.501 6
s-18.834 4.33301 -30.501 6s-25.834 2.5 -42.501 2.5c-46.667 0 -80.334 -18.5 -101.001 -55.5s-30.667 -93.833 -30 -170.5v-126h545c13.333 0 22.833 -3.83301 28.5 -11.5s8.5 -17.5 8.5 -29.5v-885zM1064.01 1277c4 0 7.66699 -1 11 -3s6.16602 -5 8.49902 -9
s4 -9.16699 5 -15.5s1.5 -13.833 1.5 -22.5c0 -8 -0.5 -15 -1.5 -21s-2.66699 -11.167 -5 -15.5s-5.16602 -7.66602 -8.49902 -9.99902s-7 -3.5 -11 -3.5h-415c-4.66699 0 -8.83398 1.16699 -12.501 3.5s-6.66699 5.66602 -9 9.99902s-4 9.5 -5 15.5s-1.5 13 -1.5 21
c0 8.66699 0.5 16.167 1.5 22.5s2.66699 11.5 5 15.5s5.33301 7 9 9s7.83398 3 12.501 3h415z" />
    <glyph glyph-name="f_ibreve.liga" unicode="f&#x12d;" horiz-adv-x="1075" 
d="M909 20c0 -4 -0.994141 -7.66406 -2.99414 -10.9971s-5.16699 -6 -9.5 -8s-10.333 -3.66699 -18 -5s-17.167 -2 -28.5 -2c-12 0 -21.833 0.666992 -29.5 2s-13.834 3 -18.501 5s-7.83398 4.66699 -9.50098 8s-2.5 7 -2.5 11v825h-463v-825c0 -4 -1 -7.66699 -3 -11
s-5.16699 -6 -9.5 -8s-10.333 -3.66699 -18 -5s-17.5 -2 -29.5 -2c-11.333 0 -20.833 0.666992 -28.5 2s-13.834 3 -18.501 5s-7.83398 4.66699 -9.50098 8s-2.5 7 -2.5 11v825h-136c-9.33301 0 -16.5 4.16699 -21.5 12.5s-7.5 20.833 -7.5 37.5
c0 8.66699 0.666992 16.167 2 22.5s3.16602 11.666 5.49902 15.999s5.33301 7.5 9 9.5s7.83398 3 12.501 3h136v126c0 58 5.83301 107.667 17.5 149s28.5 75.166 50.5 101.499s48.667 45.833 80 58.5s66.666 19 105.999 19c10 0 19.833 -0.333008 29.5 -1
s18.834 -1.66699 27.501 -3s16.834 -3 24.501 -5s14.167 -4 19.5 -6s9.66602 -4.5 12.999 -7.5s6 -6.83301 8 -11.5s3.5 -10.334 4.5 -17.001s1.5 -14.334 1.5 -23.001c0 -15.333 -1.66699 -26.666 -5 -33.999s-8.66602 -11 -15.999 -11
c-5.33301 0 -10.833 0.833008 -16.5 2.5s-12.834 3.66699 -21.501 6s-18.834 4.33301 -30.501 6s-25.834 2.5 -42.501 2.5c-46.667 0 -80.167 -18.5 -100.5 -55.5s-30.5 -93.833 -30.5 -170.5v-126h545c13.333 0 22.833 -3.83301 28.5 -11.5s8.5 -17.5 8.5 -29.5v-885z
M992.006 1361c0 7.33301 3.00293 13.166 9.00293 17.499s18.333 6.5 37 6.5c19.333 0 31.666 -1.83301 36.999 -5.5s8 -9.83398 8 -18.501c0 -45.333 -4.83301 -84.666 -14.5 -117.999s-24 -61 -43 -83s-42.667 -38.5 -71 -49.5s-61.5 -16.5 -99.5 -16.5
c-41.333 0 -76.5 5.83301 -105.5 17.5s-52.5 28.834 -70.5 51.501s-31.167 50.167 -39.5 82.5s-12.5 69.5 -12.5 111.5c0 9.33301 3 16.333 9 21s17.667 7 35 7c9.33301 0 17 -0.5 23 -1.5s10.667 -2.5 14 -4.5s5.66602 -4.5 6.99902 -7.5s2 -6.5 2 -10.5
c1.33301 -26.667 4.66602 -50.667 9.99902 -72s13.333 -39.5 24 -54.5s24.5 -26.5 41.5 -34.5s37.833 -12 62.5 -12c20 0 38.167 3.16699 54.5 9.5s30.333 16.5 42 30.5s21 31.833 28 53.5s11.167 48.167 12.5 79.5z" />
    <glyph glyph-name="f_iogonek.liga" unicode="f&#x12f;" horiz-adv-x="1057" 
d="M908 1229c0 -15.333 -1.16699 -28.166 -3.5 -38.499s-6.33301 -18.666 -12 -24.999s-13.5 -10.833 -23.5 -13.5s-22.667 -4 -38 -4s-28 1.33301 -38 4s-18 7.16699 -24 13.5s-10.167 14.666 -12.5 24.999s-3.5 23.166 -3.5 38.499s1.16699 28.166 3.5 38.499
s6.5 18.833 12.5 25.5s14 11.334 24 14.001s22.667 4 38 4s28 -1.33301 38 -4s17.833 -7.33398 23.5 -14.001s9.66699 -15.167 12 -25.5s3.5 -23.166 3.5 -38.499zM890 20c0 -14.667 -1.49609 -26.1719 -4.49609 -34.5049s-7.16699 -15.166 -12.5 -20.499l-81 -82
c-11.333 -11.333 -20.333 -21.333 -27 -30s-11.667 -16.5 -15 -23.5s-5.5 -13.5 -6.5 -19.5s-1.5 -12 -1.5 -18c0 -20 6.5 -34.833 19.5 -44.5s32.833 -14.5 59.5 -14.5h121c4 0 7.5 -0.5 10.5 -1.5s5.5 -3 7.5 -6s3.5 -7.16699 4.5 -12.5s1.5 -12.333 1.5 -21
c0 -7.33301 -0.5 -13.333 -1.5 -18s-2.5 -8.66699 -4.5 -12s-5 -5.83301 -9 -7.5s-9 -3.16699 -15 -4.5c-20.667 -5.33301 -41.334 -9.16602 -62.001 -11.499s-42.667 -3.5 -66 -3.5c-28.667 0 -54.167 3.16699 -76.5 9.5s-41.333 15.5 -57 27.5s-27.5 26.833 -35.5 44.5
s-12 38.167 -12 61.5c0 9.33301 0.666992 19.333 2 30s4.66602 22.334 9.99902 35.001s13.166 26.5 23.499 41.5s24.833 31.833 43.5 50.5l65 65v845h-444v-825c0 -4 -1 -7.66699 -3 -11s-5.16699 -6 -9.5 -8s-10.333 -3.66699 -18 -5s-17.5 -2 -29.5 -2
c-11.333 0 -20.833 0.666992 -28.5 2s-13.834 3 -18.501 5s-7.83398 4.66699 -9.50098 8s-2.5 7 -2.5 11v825h-136c-9.33301 0 -16.5 4.16699 -21.5 12.5s-7.5 20.833 -7.5 37.5c0 8.66699 0.666992 16.167 2 22.5s3.16602 11.666 5.49902 15.999s5.33301 7.5 9 9.5
s7.83398 3 12.501 3h136v107c0 62.667 5.83301 116 17.5 160s28.834 79.833 51.501 107.5s50.5 47.834 83.5 60.501s70.5 19 112.5 19c14.667 0 29 -0.666992 43 -2s26.833 -3.16602 38.5 -5.49902s21.667 -5 30 -8s14 -6 17 -9s5.5 -6.16699 7.5 -9.5
s3.5 -7.16602 4.5 -11.499s1.83301 -9.5 2.5 -15.5s1 -13 1 -21c0 -14.667 -1.5 -25.667 -4.5 -33s-8.16699 -11 -15.5 -11c-5.33301 0 -11 1.16699 -17 3.5s-13.833 5 -23.5 8s-21.5 5.83301 -35.5 8.5s-31.333 4 -52 4c-52 0 -88.833 -19.5 -110.5 -58.5
s-32.167 -101.167 -31.5 -186.5v-107h526c13.333 0 22.833 -3.83301 28.5 -11.5s8.5 -17.5 8.5 -29.5v-885z" />
    <glyph glyph-name="f_dotlessi.liga" unicode="f&#x131;" horiz-adv-x="1057" 
d="M890 20c0 -4 -0.99707 -7.66797 -2.99707 -11.001s-5.16699 -6 -9.5 -8s-10.333 -3.66699 -18 -5s-17.167 -2 -28.5 -2c-12 0 -21.833 0.666992 -29.5 2s-13.667 3 -18 5s-7.5 4.66699 -9.5 8s-3 7 -3 11v825h-444v-825c0 -4 -1 -7.66699 -3 -11s-5.16699 -6 -9.5 -8
s-10.333 -3.66699 -18 -5s-17.5 -2 -29.5 -2c-11.333 0 -20.833 0.666992 -28.5 2s-13.834 3 -18.501 5s-7.83398 4.66699 -9.50098 8s-2.5 7 -2.5 11v825h-136c-9.33301 0 -16.5 4.16699 -21.5 12.5s-7.5 20.833 -7.5 37.5c0 8.66699 0.666992 16.167 2 22.5
s3.16602 11.666 5.49902 15.999s5.33301 7.5 9 9.5s7.83398 3 12.501 3h136v107c0 62.667 5.83301 116 17.5 160s29 79.833 52 107.5s51.5 47.834 85.5 60.501s73 19 117 19c25.333 0 48.666 -2.16699 69.999 -6.5s37.5 -9 48.5 -14s18.333 -9.33301 22 -13
s6.66699 -8.16699 9 -13.5s4 -11.5 5 -18.5s1.5 -14.833 1.5 -23.5c0 -15.333 -1.5 -26.666 -4.5 -33.999s-8.16699 -11 -15.5 -11c-5.33301 0 -12 1.66699 -20 5s-17.833 7 -29.5 11s-25 7.66699 -40 11s-31.833 5 -50.5 5c-55.333 0 -94 -19.5 -116 -58.5
s-33 -101.167 -33 -186.5v-107h526c13.333 0 22.833 -3.83301 28.5 -11.5s8.5 -17.5 8.5 -29.5v-885z" />
    <glyph glyph-name="f_f_igrave.liga" unicode="ff&#xec;" horiz-adv-x="1620" 
d="M1454 20c0 -4 -0.990234 -7.66699 -2.99023 -11s-5.16699 -6 -9.5 -8s-10.333 -3.66699 -18 -5s-17.5 -2 -29.5 -2c-11.333 0 -20.833 0.666992 -28.5 2s-13.834 3 -18.501 5s-7.83398 4.66699 -9.50098 8s-2.5 7 -2.5 11v825h-445v-825c0 -4 -1 -7.66699 -3 -11
s-5.16699 -6 -9.5 -8s-10.333 -3.66699 -18 -5s-17.167 -2 -28.5 -2c-12 0 -21.833 0.666992 -29.5 2s-13.667 3 -18 5s-7.5 4.66699 -9.5 8s-3 7 -3 11v825h-444v-825c0 -4 -1 -7.66699 -3 -11s-5.16699 -6 -9.5 -8s-10.5 -3.66699 -18.5 -5s-17.667 -2 -29 -2
s-20.833 0.666992 -28.5 2s-13.834 3 -18.501 5s-7.83398 4.66699 -9.50098 8s-2.5 7 -2.5 11v825h-136c-9.33301 0 -16.5 4.16699 -21.5 12.5s-7.5 20.833 -7.5 37.5c0 8.66699 0.666992 16.167 2 22.5s3.16602 11.666 5.49902 15.999s5.33301 7.5 9 9.5
s7.83398 3 12.501 3h136v96c0 62.667 5.83301 116 17.5 160s29 79.833 52 107.5s51.5 47.834 85.5 60.501s73 19 117 19c29.333 0 54.666 -2.66699 75.999 -8s36.5 -10 45.5 -14s15.333 -7.83301 19 -11.5s6.66699 -8.16699 9 -13.5s4 -11.5 5 -18.5s1.5 -14.833 1.5 -23.5
c0 -15.333 -1.5 -26.666 -4.5 -33.999s-8.16699 -11 -15.5 -11c-5.33301 0 -12 1.66699 -20 5s-17.833 7 -29.5 11s-25 7.66699 -40 11s-31.833 5 -50.5 5c-55.333 0 -94 -19.5 -116 -58.5s-33 -101.167 -33 -186.5v-96h444v126c0 58 5.83301 107.667 17.5 149
s28.5 75.166 50.5 101.499s48.667 45.833 80 58.5s66.666 19 105.999 19c19.333 0 39.166 -1.5 59.499 -4.5s34.833 -6.33301 43.5 -10s14.834 -7.5 18.501 -11.5s6.66699 -8.66699 9 -14s4 -11.5 5 -18.5s1.5 -14.833 1.5 -23.5c0 -14.667 -1.5 -25.667 -4.5 -33
s-8.16699 -11 -15.5 -11c-5.33301 0 -11.333 1.16699 -18 3.5s-14.834 5 -24.501 8s-20.834 5.83301 -33.501 8.5s-27.334 4 -44.001 4c-46.667 0 -80.334 -18.5 -101.001 -55.5s-31 -93.833 -31 -170.5v-126h526c13.333 0 23 -3.83301 29 -11.5s9 -17.5 9 -29.5v-885z
M1446.01 1133c2 -6 3.16992 -11.333 3.50293 -16s-0.833984 -8.5 -3.50098 -11.5s-7 -5.33301 -13 -7s-14 -2.5 -24 -2.5s-18.333 0.333008 -25 1s-12 2 -16 4s-7.5 4.83301 -10.5 8.5s-6.16699 8.83398 -9.5 15.501l-124 234c-3.33301 6 -4.83301 11.5 -4.5 16.5
s2.66602 9.33301 6.99902 13s10.666 6.5 18.999 8.5s18.833 3 31.5 3s23 -0.5 31 -1.5s14.5 -2.66699 19.5 -5s9 -5.83301 12 -10.5s5.83301 -10.334 8.5 -17.001z" />
    <glyph glyph-name="f_f_iacute.liga" unicode="ff&#xed;" horiz-adv-x="1620" 
d="M1454 20c0 -4 -0.99707 -7.66992 -2.99707 -11.0029s-5.16699 -6 -9.5 -8s-10.333 -3.66699 -18 -5s-17.5 -2 -29.5 -2c-11.333 0 -20.833 0.666992 -28.5 2s-13.834 3 -18.501 5s-7.83398 4.66699 -9.50098 8s-2.5 7 -2.5 11v825h-445v-825c0 -4 -1 -7.66699 -3 -11
s-5.16699 -6 -9.5 -8s-10.333 -3.66699 -18 -5s-17.167 -2 -28.5 -2c-12 0 -21.833 0.666992 -29.5 2s-13.667 3 -18 5s-7.5 4.66699 -9.5 8s-3 7 -3 11v825h-444v-825c0 -4 -1 -7.66699 -3 -11s-5.16699 -6 -9.5 -8s-10.333 -3.66699 -18 -5s-17.5 -2 -29.5 -2
c-11.333 0 -20.833 0.666992 -28.5 2s-13.834 3 -18.501 5s-7.83398 4.66699 -9.50098 8s-2.5 7 -2.5 11v825h-136c-9.33301 0 -16.5 4.16699 -21.5 12.5s-7.5 20.833 -7.5 37.5c0 8.66699 0.666992 16.167 2 22.5s3.16602 11.666 5.49902 15.999s5.33301 7.5 9 9.5
s7.83398 3 12.501 3h136v96c0 62.667 5.83301 116 17.5 160s29 79.833 52 107.5s51.5 47.834 85.5 60.501s73 19 117 19c27.333 0 52 -2.5 74 -7.5s37.667 -9.66699 47 -14s15.833 -8.33301 19.5 -12s6.66699 -8.16699 9 -13.5s4 -11.5 5 -18.5s1.5 -14.833 1.5 -23.5
c0 -15.333 -1.5 -26.666 -4.5 -33.999s-8.16699 -11 -15.5 -11c-5.33301 0 -12 1.66699 -20 5s-17.833 7 -29.5 11s-25 7.66699 -40 11s-31.833 5 -50.5 5c-55.333 0 -94 -19.5 -116 -58.5s-33 -101.167 -33 -186.5v-96h444v107c0 62.667 6 116 18 160
s29.5 79.833 52.5 107.5s51.5 47.834 85.5 60.501s72.333 19 115 19c27.333 0 52.333 -2.5 75 -7.5s38.5 -9.66699 47.5 -14s15.5 -8.33301 19.5 -12s7.16699 -8.16699 9.5 -13.5s4 -11.5 5 -18.5s1.5 -14.833 1.5 -23.5c0 -15.333 -1.66699 -26.666 -5 -33.999
s-8.66602 -11 -15.999 -11c-5.33301 0 -11.833 1.66699 -19.5 5s-17.334 7 -29.001 11s-25 7.66699 -40 11s-31.833 5 -50.5 5c-55.333 0 -94.166 -19.5 -116.499 -58.5s-33.5 -101.167 -33.5 -186.5v-107h526c13.333 0 23 -3.83301 29 -11.5s9 -17.5 9 -29.5v-885z
M1494 1366c4 6.66699 8.33398 12.334 13.001 17.001s10.167 8.16699 16.5 10.5s14 4 23 5s19.833 1.5 32.5 1.5s23 -1 31 -3s13.667 -4.83301 17 -8.5s4.5 -8 3.5 -13s-3.83301 -10.5 -8.5 -16.5l-174 -234c-4.66699 -6.66699 -8.83398 -11.834 -12.501 -15.501
s-7.83398 -6.5 -12.501 -8.5s-10.334 -3.33301 -17.001 -4s-15 -1 -25 -1s-18.167 0.833008 -24.5 2.5s-10.666 4 -12.999 7s-3.16602 6.83301 -2.49902 11.5s3 10 7 16zM1192 945.997z" />
    <glyph glyph-name="f_f_icircumflex.liga" unicode="ff&#xee;" horiz-adv-x="1620" 
d="M1454 20c0 -4 -0.990234 -7.66699 -2.99023 -11s-5.16699 -6 -9.5 -8s-10.333 -3.66699 -18 -5s-17.5 -2 -29.5 -2c-11.333 0 -20.833 0.666992 -28.5 2s-13.834 3 -18.501 5s-7.83398 4.66699 -9.50098 8s-2.5 7 -2.5 11v825h-445v-825c0 -4 -1 -7.66699 -3 -11
s-5.16699 -6 -9.5 -8s-10.333 -3.66699 -18 -5s-17.167 -2 -28.5 -2c-12 0 -21.833 0.666992 -29.5 2s-13.667 3 -18 5s-7.5 4.66699 -9.5 8s-3 7 -3 11v825h-444v-825c0 -4 -1 -7.66699 -3 -11s-5.16699 -6 -9.5 -8s-10.5 -3.66699 -18.5 -5s-17.667 -2 -29 -2
s-20.833 0.666992 -28.5 2s-13.834 3 -18.501 5s-7.83398 4.66699 -9.50098 8s-2.5 7 -2.5 11v825h-136c-9.33301 0 -16.5 4.16699 -21.5 12.5s-7.5 20.833 -7.5 37.5c0 8.66699 0.666992 16.167 2 22.5s3.16602 11.666 5.49902 15.999s5.33301 7.5 9 9.5
s7.83398 3 12.501 3h136v96c0 62.667 5.83301 116 17.5 160s29 79.833 52 107.5s51.5 47.834 85.5 60.501s73 19 117 19c29.333 0 54.666 -2.66699 75.999 -8s36.5 -10 45.5 -14s15.333 -7.83301 19 -11.5s6.66699 -8.16699 9 -13.5s4 -11.5 5 -18.5s1.5 -14.833 1.5 -23.5
c0 -15.333 -1.5 -26.666 -4.5 -33.999s-8.16699 -11 -15.5 -11c-5.33301 0 -12 1.66699 -20 5s-17.833 7 -29.5 11s-25 7.66699 -40 11s-31.833 5 -50.5 5c-55.333 0 -94 -19.5 -116 -58.5s-33 -101.167 -33 -186.5v-96h444v126c0 58 5.83301 107.667 17.5 149
s28.5 75.166 50.5 101.499s48.667 45.833 80 58.5s66.666 19 105.999 19c19.333 0 39.166 -1.5 59.499 -4.5s34.833 -6.33301 43.5 -10s14.834 -7.5 18.501 -11.5s6.66699 -8.66699 9 -14s4 -11.5 5 -18.5s1.5 -14.833 1.5 -23.5c0 -14.667 -1.5 -25.667 -4.5 -33
s-8.16699 -11 -15.5 -11c-5.33301 0 -11.333 1.16699 -18 3.5s-14.834 5 -24.501 8s-20.834 5.83301 -33.501 8.5s-27.334 4 -44.001 4c-46.667 0 -80.334 -18.5 -101.001 -55.5s-31 -93.833 -31 -170.5v-126h526c13.333 0 23 -3.83301 29 -11.5s9 -17.5 9 -29.5v-885z
M1270.01 1122c-4 -5.33301 -7.66797 -9.66895 -11.001 -13.002s-7.33301 -6 -12 -8s-10 -3.33301 -16 -4s-13.333 -1 -22 -1c-13.333 0 -23.5 1 -30.5 3s-11.5 5 -13.5 9s-1.83301 9.16699 0.5 15.5s6.83301 13.833 13.5 22.5l165 232
c3.33301 4.66699 6.66602 8.33398 9.99902 11.001s7.5 4.83398 12.5 6.50098s11.333 2.83398 19 3.50098s17.5 1 29.5 1c10 0 18.333 -0.333008 25 -1s12.334 -2 17.001 -4s8.66699 -4.33301 12 -7s6.66602 -6 9.99902 -10l165 -232c6 -8.66699 10.333 -16.167 13 -22.5
s2.83398 -11.5 0.500977 -15.5s-7.16602 -7 -14.499 -9s-17.333 -3 -30 -3c-10 0 -18 0.333008 -24 1s-11.167 2 -15.5 4s-8 4.66699 -11 8s-6.5 7.66602 -10.5 12.999l-141 198z" />
    <glyph glyph-name="f_f_itilde.liga" unicode="ff&#x129;" horiz-adv-x="1639" 
d="M1472 20c0 -4 -0.994141 -7.66602 -2.99414 -10.999s-5.16699 -6 -9.5 -8s-10.333 -3.66699 -18 -5s-17.167 -2 -28.5 -2c-12 0 -21.833 0.666992 -29.5 2s-13.667 3 -18 5s-7.5 4.66699 -9.5 8s-3 7 -3 11v825h-463v-825c0 -4 -1 -7.66699 -3 -11s-5.16699 -6 -9.5 -8
s-10.333 -3.66699 -18 -5s-17.167 -2 -28.5 -2c-12 0 -21.833 0.666992 -29.5 2s-13.667 3 -18 5s-7.5 4.66699 -9.5 8s-3 7 -3 11v825h-444v-825c0 -4 -1 -7.66699 -3 -11s-5.16699 -6 -9.5 -8s-10.333 -3.66699 -18 -5s-17.5 -2 -29.5 -2
c-11.333 0 -20.833 0.666992 -28.5 2s-13.834 3 -18.501 5s-7.83398 4.66699 -9.50098 8s-2.5 7 -2.5 11v825h-136c-9.33301 0 -16.5 4.16699 -21.5 12.5s-7.5 20.833 -7.5 37.5c0 8.66699 0.666992 16.167 2 22.5s3.16602 11.666 5.49902 15.999s5.33301 7.5 9 9.5
s7.83398 3 12.501 3h136v96c0 62.667 5.83301 116 17.5 160s29 79.833 52 107.5s51.5 47.834 85.5 60.501s73 19 117 19c29.333 0 54.666 -2.66699 75.999 -8s36.5 -10 45.5 -14s15.333 -7.83301 19 -11.5s6.66699 -8.16699 9 -13.5s4 -11.5 5 -18.5s1.5 -14.833 1.5 -23.5
c0 -15.333 -1.5 -26.666 -4.5 -33.999s-8.16699 -11 -15.5 -11c-5.33301 0 -12 1.66699 -20 5s-17.833 7 -29.5 11s-25 7.66699 -40 11s-31.833 5 -50.5 5c-55.333 0 -94 -19.5 -116 -58.5s-33 -101.167 -33 -186.5v-96h444v126c0 58 5.83301 107.667 17.5 149
s28.5 75.166 50.5 101.499s48.667 45.833 80 58.5s66.666 19 105.999 19c19.333 0 38.333 -1.33301 57 -4s32 -5.66699 40 -9s13.667 -6.5 17 -9.5s6 -6.83301 8 -11.5s3.5 -10.334 4.5 -17.001s1.5 -14.334 1.5 -23.001c0 -15.333 -1.5 -26.666 -4.5 -33.999
s-8.16699 -11 -15.5 -11c-5.33301 0 -11 0.833008 -17 2.5l-21.5 6c-8.33301 2.33301 -18.333 4.33301 -30 6s-25.834 2.5 -42.501 2.5c-46.667 0 -80.334 -18.5 -101.001 -55.5s-31 -93.833 -31 -170.5v-126h545c13.333 0 22.833 -3.83301 28.5 -11.5s8.5 -17.5 8.5 -29.5
v-885zM1693.01 1283c0 -32.667 -3.99805 -61.332 -11.998 -85.999s-19 -45.5 -33 -62.5s-30.667 -29.833 -50 -38.5s-40.333 -13 -63 -13c-32.667 0 -60.334 7.33301 -83.001 22s-43 31 -61 49l-49.5 49c-15 14.667 -30.833 22 -47.5 22c-22 0 -38 -10.833 -48 -32.5
s-15 -49.5 -15 -83.5c0 -9.33301 -3.16699 -16 -9.5 -20s-19.166 -6 -38.499 -6c-16 0 -27.667 2.66699 -35 8s-11 16.666 -11 33.999c0 60.667 14.167 109.334 42.5 146.001s67.166 55 116.499 55c21.333 0 40.5 -3.5 57.5 -10.5s32.667 -15.833 47 -26.5
s27.333 -22.167 39 -34.5l33.5 -34.5c10.667 -10.667 21.167 -19.5 31.5 -26.5s21.166 -10.5 32.499 -10.5c19.333 0 34.333 9.66699 45 29s16 48.666 16 87.999c0 9.33301 3.5 16 10.5 20s18.5 6 34.5 6c18.667 0 31.667 -2.83301 39 -8.5s11 -17.167 11 -34.5z" />
    <glyph glyph-name="f_f_idieresis.liga" unicode="ff&#xef;" horiz-adv-x="1639" 
d="M1472 20c0 -4 -0.994141 -7.66602 -2.99414 -10.999s-5.16699 -6 -9.5 -8s-10.333 -3.66699 -18 -5s-17.167 -2 -28.5 -2c-12 0 -21.833 0.666992 -29.5 2s-13.667 3 -18 5s-7.5 4.66699 -9.5 8s-3 7 -3 11v825h-463v-825c0 -4 -1 -7.66699 -3 -11s-5.16699 -6 -9.5 -8
s-10.333 -3.66699 -18 -5s-17.167 -2 -28.5 -2c-12 0 -21.833 0.666992 -29.5 2s-13.667 3 -18 5s-7.5 4.66699 -9.5 8s-3 7 -3 11v825h-444v-825c0 -4 -1 -7.66699 -3 -11s-5.16699 -6 -9.5 -8s-10.333 -3.66699 -18 -5s-17.5 -2 -29.5 -2
c-11.333 0 -20.833 0.666992 -28.5 2s-13.834 3 -18.501 5s-7.83398 4.66699 -9.50098 8s-2.5 7 -2.5 11v825h-136c-9.33301 0 -16.5 4.16699 -21.5 12.5s-7.5 20.833 -7.5 37.5c0 8.66699 0.666992 16.167 2 22.5s3.16602 11.666 5.49902 15.999s5.33301 7.5 9 9.5
s7.83398 3 12.501 3h136v96c0 62.667 5.83301 116 17.5 160s29 79.833 52 107.5s51.5 47.834 85.5 60.501s73 19 117 19c29.333 0 54.666 -2.66699 75.999 -8s36.5 -10 45.5 -14s15.333 -7.83301 19 -11.5s6.66699 -8.16699 9 -13.5s4 -11.5 5 -18.5s1.5 -14.833 1.5 -23.5
c0 -15.333 -1.5 -26.666 -4.5 -33.999s-8.16699 -11 -15.5 -11c-5.33301 0 -12 1.66699 -20 5s-17.833 7 -29.5 11s-25 7.66699 -40 11s-31.833 5 -50.5 5c-55.333 0 -94 -19.5 -116 -58.5s-33 -101.167 -33 -186.5v-96h444v126c0 58 5.83301 107.667 17.5 149
s28.5 75.166 50.5 101.499s48.667 45.833 80 58.5s66.666 19 105.999 19c19.333 0 38.333 -1.33301 57 -4s32 -5.66699 40 -9s13.667 -6.5 17 -9.5s6 -6.83301 8 -11.5s3.5 -10.334 4.5 -17.001s1.5 -14.334 1.5 -23.001c0 -15.333 -1.5 -26.666 -4.5 -33.999
s-8.16699 -11 -15.5 -11c-5.33301 0 -11 0.833008 -17 2.5l-21.5 6c-8.33301 2.33301 -18.333 4.33301 -30 6s-25.834 2.5 -42.501 2.5c-46.667 0 -80.334 -18.5 -101.001 -55.5s-31 -93.833 -31 -170.5v-126h545c13.333 0 22.833 -3.83301 28.5 -11.5s8.5 -17.5 8.5 -29.5
v-885zM1213.01 1229c0 14.667 1.16699 27 3.5 37s6.33301 18 12 24s13.167 10.333 22.5 13s21.333 4 36 4c14 0 25.833 -1.33301 35.5 -4s17.334 -7 23.001 -13s9.66699 -14 12 -24s3.5 -22.333 3.5 -37c0 -14 -1.16699 -26 -3.5 -36s-6.33301 -18.167 -12 -24.5
s-13.334 -10.833 -23.001 -13.5s-21.5 -4 -35.5 -4c-14.667 0 -26.667 1.33301 -36 4s-16.833 7.16699 -22.5 13.5s-9.66699 14.5 -12 24.5s-3.5 22 -3.5 36zM1491.01 1229c0 14.667 1.16699 27 3.5 37s6.33301 18 12 24s13.167 10.333 22.5 13s21.333 4 36 4
c14 0 25.833 -1.33301 35.5 -4s17.334 -7 23.001 -13s9.66699 -14 12 -24s3.5 -22.333 3.5 -37c0 -14 -1.16699 -26 -3.5 -36s-6.33301 -18.167 -12 -24.5s-13.334 -10.833 -23.001 -13.5s-21.5 -4 -35.5 -4c-14.667 0 -26.667 1.33301 -36 4s-16.833 7.16699 -22.5 13.5
s-9.66699 14.5 -12 24.5s-3.5 22 -3.5 36z" />
    <glyph glyph-name="f_f_imacron.liga" unicode="ff&#x12b;" horiz-adv-x="1639" 
d="M1472 20c0 -4 -0.994141 -7.66602 -2.99414 -10.999s-5.16699 -6 -9.5 -8s-10.333 -3.66699 -18 -5s-17.167 -2 -28.5 -2c-12 0 -21.833 0.666992 -29.5 2s-13.667 3 -18 5s-7.5 4.66699 -9.5 8s-3 7 -3 11v825h-463v-825c0 -4 -1 -7.66699 -3 -11s-5.16699 -6 -9.5 -8
s-10.333 -3.66699 -18 -5s-17.167 -2 -28.5 -2c-12 0 -21.833 0.666992 -29.5 2s-13.667 3 -18 5s-7.5 4.66699 -9.5 8s-3 7 -3 11v825h-444v-825c0 -4 -1 -7.66699 -3 -11s-5.16699 -6 -9.5 -8s-10.333 -3.66699 -18 -5s-17.5 -2 -29.5 -2
c-11.333 0 -20.833 0.666992 -28.5 2s-13.834 3 -18.501 5s-7.83398 4.66699 -9.50098 8s-2.5 7 -2.5 11v825h-136c-9.33301 0 -16.5 4.16699 -21.5 12.5s-7.5 20.833 -7.5 37.5c0 8.66699 0.666992 16.167 2 22.5s3.16602 11.666 5.49902 15.999s5.33301 7.5 9 9.5
s7.83398 3 12.501 3h136v96c0 62.667 5.83301 116 17.5 160s29 79.833 52 107.5s51.5 47.834 85.5 60.501s73 19 117 19c29.333 0 54.666 -2.66699 75.999 -8s36.5 -10 45.5 -14s15.333 -7.83301 19 -11.5s6.66699 -8.16699 9 -13.5s4 -11.5 5 -18.5s1.5 -14.833 1.5 -23.5
c0 -15.333 -1.5 -26.666 -4.5 -33.999s-8.16699 -11 -15.5 -11c-5.33301 0 -12 1.66699 -20 5s-17.833 7 -29.5 11s-25 7.66699 -40 11s-31.833 5 -50.5 5c-55.333 0 -94 -19.5 -116 -58.5s-33 -101.167 -33 -186.5v-96h444v126c0 58 5.83301 107.667 17.5 149
s28.5 75.166 50.5 101.499s48.667 45.833 80 58.5s66.666 19 105.999 19c19.333 0 38.333 -1.33301 57 -4s32 -5.66699 40 -9s13.667 -6.5 17 -9.5s6 -6.83301 8 -11.5s3.5 -10.334 4.5 -17.001s1.5 -14.334 1.5 -23.001c0 -15.333 -1.5 -26.666 -4.5 -33.999
s-8.16699 -11 -15.5 -11c-5.33301 0 -11 0.833008 -17 2.5l-21.5 6c-8.33301 2.33301 -18.333 4.33301 -30 6s-25.834 2.5 -42.501 2.5c-46.667 0 -80.334 -18.5 -101.001 -55.5s-31 -93.833 -31 -170.5v-126h545c13.333 0 22.833 -3.83301 28.5 -11.5s8.5 -17.5 8.5 -29.5
v-885zM1628.01 1277c4 0 7.66797 -1 11.001 -3s6 -5 8 -9s3.66699 -9.16699 5 -15.5s2 -13.833 2 -22.5c0 -8 -0.666992 -15 -2 -21s-3 -11.167 -5 -15.5s-4.66699 -7.66602 -8 -9.99902s-7 -3.5 -11 -3.5h-415c-4.66699 0 -8.83398 1.16699 -12.501 3.5
s-6.66699 5.66602 -9 9.99902s-4 9.5 -5 15.5s-1.5 13 -1.5 21c0 16.667 2.33301 29.167 7 37.5s11.667 12.5 21 12.5h415z" />
    <glyph glyph-name="f_f_ibreve.liga" unicode="ff&#x12d;" horiz-adv-x="1639" 
d="M1472 20c0 -4 -0.994141 -7.66602 -2.99414 -10.999s-5.16699 -6 -9.5 -8s-10.333 -3.66699 -18 -5s-17.167 -2 -28.5 -2c-12 0 -21.833 0.666992 -29.5 2s-13.667 3 -18 5s-7.5 4.66699 -9.5 8s-3 7 -3 11v825h-463v-825c0 -4 -1 -7.66699 -3 -11s-5.16699 -6 -9.5 -8
s-10.333 -3.66699 -18 -5s-17.167 -2 -28.5 -2c-12 0 -21.833 0.666992 -29.5 2s-13.667 3 -18 5s-7.5 4.66699 -9.5 8s-3 7 -3 11v825h-444v-825c0 -4 -1 -7.66699 -3 -11s-5.16699 -6 -9.5 -8s-10.333 -3.66699 -18 -5s-17.5 -2 -29.5 -2
c-11.333 0 -20.833 0.666992 -28.5 2s-13.834 3 -18.501 5s-7.83398 4.66699 -9.50098 8s-2.5 7 -2.5 11v825h-136c-9.33301 0 -16.5 4.16699 -21.5 12.5s-7.5 20.833 -7.5 37.5c0 8.66699 0.666992 16.167 2 22.5s3.16602 11.666 5.49902 15.999s5.33301 7.5 9 9.5
s7.83398 3 12.501 3h136v96c0 62.667 5.83301 116 17.5 160s29 79.833 52 107.5s51.5 47.834 85.5 60.501s73 19 117 19c29.333 0 54.666 -2.66699 75.999 -8s36.5 -10 45.5 -14s15.333 -7.83301 19 -11.5s6.66699 -8.16699 9 -13.5s4 -11.5 5 -18.5s1.5 -14.833 1.5 -23.5
c0 -15.333 -1.5 -26.666 -4.5 -33.999s-8.16699 -11 -15.5 -11c-5.33301 0 -12 1.66699 -20 5s-17.833 7 -29.5 11s-25 7.66699 -40 11s-31.833 5 -50.5 5c-55.333 0 -94 -19.5 -116 -58.5s-33 -101.167 -33 -186.5v-96h444v126c0 58 5.83301 107.667 17.5 149
s28.5 75.166 50.5 101.499s48.667 45.833 80 58.5s66.666 19 105.999 19c19.333 0 38.333 -1.33301 57 -4s32 -5.66699 40 -9s13.667 -6.5 17 -9.5s6 -6.83301 8 -11.5s3.5 -10.334 4.5 -17.001s1.5 -14.334 1.5 -23.001c0 -15.333 -1.5 -26.666 -4.5 -33.999
s-8.16699 -11 -15.5 -11c-5.33301 0 -11 0.833008 -17 2.5l-21.5 6c-8.33301 2.33301 -18.333 4.33301 -30 6s-25.834 2.5 -42.501 2.5c-46.667 0 -80.334 -18.5 -101.001 -55.5s-31 -93.833 -31 -170.5v-126h545c13.333 0 22.833 -3.83301 28.5 -11.5s8.5 -17.5 8.5 -29.5
v-885zM1556.01 1361c0 7.33301 2.99707 13.165 8.99707 17.498s18.333 6.5 37 6.5c10 0 17.833 -0.5 23.5 -1.5s10 -2.5 13 -4.5s5 -4.5 6 -7.5s1.5 -6.5 1.5 -10.5c0 -45.333 -4.83301 -84.666 -14.5 -117.999s-24 -61 -43 -83s-42.667 -38.5 -71 -49.5
s-61.5 -16.5 -99.5 -16.5c-41.333 0 -76.5 5.83301 -105.5 17.5s-52.5 28.834 -70.5 51.501s-31.167 50.167 -39.5 82.5s-12.5 69.5 -12.5 111.5c0 4.66699 0.666992 8.83398 2 12.501s3.83301 6.66699 7.5 9s8.33398 4 14.001 5s12.834 1.5 21.501 1.5
c18.667 0 31 -1.83301 37 -5.5s9 -9.83398 9 -18.501c1.33301 -26.667 4.66602 -50.667 9.99902 -72s13.333 -39.5 24 -54.5s24.334 -26.5 41.001 -34.5s37.334 -12 62.001 -12c40.667 0 73 13.333 97 40s37.667 71 41 133z" />
    <glyph glyph-name="f_f_iogonek.liga" unicode="ff&#x12f;" horiz-adv-x="1620" 
d="M1472 1229c0 -15.333 -1.16699 -28.166 -3.5 -38.499s-6.5 -18.666 -12.5 -24.999s-14 -10.833 -24 -13.5s-22.667 -4 -38 -4s-28 1.33301 -38 4s-18 7.16699 -24 13.5s-10.167 14.666 -12.5 24.999s-3.5 23.166 -3.5 38.499s1.16699 28.166 3.5 38.499
s6.5 18.833 12.5 25.5s14 11.334 24 14.001s22.667 4 38 4s28 -1.33301 38 -4s18 -7.33398 24 -14.001s10.167 -15.167 12.5 -25.5s3.5 -23.166 3.5 -38.499zM1530 -308c0 -7.33301 -0.496094 -13.3379 -1.49609 -18.0049s-2.5 -8.66699 -4.5 -12s-5 -5.83301 -9 -7.5
s-9 -3.16699 -15 -4.5c-20.667 -5.33301 -41.334 -9.16602 -62.001 -11.499s-42.667 -3.5 -66 -3.5c-28.667 0 -54.334 3.16699 -77.001 9.5s-41.667 15.5 -57 27.5s-27.166 26.833 -35.499 44.5s-12.5 38.167 -12.5 61.5c0 9.33301 0.666992 19.333 2 30
s4.66602 22.334 9.99902 35.001s13.333 26.5 24 41.5s25.334 31.833 44.001 50.5l65 65v845h-445v-825c0 -4 -1 -7.66699 -3 -11s-5.16699 -6 -9.5 -8s-10.333 -3.66699 -18 -5s-17.167 -2 -28.5 -2c-12 0 -21.833 0.666992 -29.5 2s-13.667 3 -18 5s-7.5 4.66699 -9.5 8
s-3 7 -3 11v825h-444v-825c0 -4 -1 -7.66699 -3 -11s-5.16699 -6 -9.5 -8s-10.333 -3.66699 -18 -5s-17.5 -2 -29.5 -2c-11.333 0 -20.833 0.666992 -28.5 2s-13.834 3 -18.501 5s-7.83398 4.66699 -9.50098 8s-2.5 7 -2.5 11v825h-136c-9.33301 0 -16.5 4.16699 -21.5 12.5
s-7.5 20.833 -7.5 37.5c0 8.66699 0.666992 16.167 2 22.5s3.16602 11.666 5.49902 15.999s5.33301 7.5 9 9.5s7.83398 3 12.501 3h136v96c0 62.667 5.83301 116 17.5 160s29 79.833 52 107.5s51.5 47.834 85.5 60.501s73 19 117 19c29.333 0 54.666 -2.66699 75.999 -8
s36.5 -10 45.5 -14s15.333 -7.83301 19 -11.5s6.66699 -8.16699 9 -13.5s4 -11.5 5 -18.5s1.5 -14.833 1.5 -23.5c0 -15.333 -1.5 -26.666 -4.5 -33.999s-8.16699 -11 -15.5 -11c-5.33301 0 -12 1.66699 -20 5s-17.833 7 -29.5 11s-25 7.66699 -40 11s-31.833 5 -50.5 5
c-55.333 0 -94 -19.5 -116 -58.5s-33 -101.167 -33 -186.5v-96h444v107c0 62.667 6 116 18 160s29.167 79.833 51.5 107.5s50 47.834 83 60.501s70.5 19 112.5 19c14.667 0 29.167 -0.666992 43.5 -2s27.166 -3.16602 38.499 -5.49902s21.166 -5 29.499 -8s14 -6 17 -9
s5.5 -6 7.5 -9s3.66699 -6.66699 5 -11s2.33301 -9.5 3 -15.5s1 -13.333 1 -22c0 -14.667 -1.5 -25.667 -4.5 -33s-8.16699 -11 -15.5 -11c-5.33301 0 -11.166 1.16699 -17.499 3.5s-14.166 5 -23.499 8s-21 5.83301 -35 8.5s-31.333 4 -52 4
c-52 0 -88.833 -19.5 -110.5 -58.5s-32.5 -101.167 -32.5 -186.5v-107h526c13.333 0 23 -3.83301 29 -11.5s9 -17.5 9 -29.5v-885c0 -8 -1.5 -17.833 -4.5 -29.5s-7.16699 -20.167 -12.5 -25.5l-82 -82c-22 -22 -35.833 -39.833 -41.5 -53.5s-8.5 -26.167 -8.5 -37.5
c0 -39.333 26.667 -59 80 -59h120c4 0 7.66699 -0.5 11 -1.5s6 -3 8 -6s3.5 -7.16699 4.5 -12.5s1.5 -12.333 1.5 -21z" />
    <glyph glyph-name="f_f_dotlessi.liga" unicode="ff&#x131;" horiz-adv-x="1620" 
d="M1454 20c0 -4 -0.99707 -7.66992 -2.99707 -11.0029s-5.16699 -6 -9.5 -8s-10.333 -3.66699 -18 -5s-17.5 -2 -29.5 -2c-11.333 0 -20.833 0.666992 -28.5 2s-13.834 3 -18.501 5s-7.83398 4.66699 -9.50098 8s-2.5 7 -2.5 11v825h-445v-825c0 -4 -1 -7.66699 -3 -11
s-5.16699 -6 -9.5 -8s-10.333 -3.66699 -18 -5s-17.167 -2 -28.5 -2c-12 0 -21.833 0.666992 -29.5 2s-13.667 3 -18 5s-7.5 4.66699 -9.5 8s-3 7 -3 11v825h-444v-825c0 -4 -1 -7.66699 -3 -11s-5.16699 -6 -9.5 -8s-10.333 -3.66699 -18 -5s-17.5 -2 -29.5 -2
c-11.333 0 -20.833 0.666992 -28.5 2s-13.834 3 -18.501 5s-7.83398 4.66699 -9.50098 8s-2.5 7 -2.5 11v825h-136c-9.33301 0 -16.5 4.16699 -21.5 12.5s-7.5 20.833 -7.5 37.5c0 8.66699 0.666992 16.167 2 22.5s3.16602 11.666 5.49902 15.999s5.33301 7.5 9 9.5
s7.83398 3 12.501 3h136v96c0 62.667 5.83301 116 17.5 160s29 79.833 52 107.5s51.5 47.834 85.5 60.501s73 19 117 19c27.333 0 52 -2.5 74 -7.5s37.667 -9.66699 47 -14s15.833 -8.33301 19.5 -12s6.66699 -8.16699 9 -13.5s4 -11.5 5 -18.5s1.5 -14.833 1.5 -23.5
c0 -15.333 -1.5 -26.666 -4.5 -33.999s-8.16699 -11 -15.5 -11c-5.33301 0 -12 1.66699 -20 5s-17.833 7 -29.5 11s-25 7.66699 -40 11s-31.833 5 -50.5 5c-55.333 0 -94 -19.5 -116 -58.5s-33 -101.167 -33 -186.5v-96h444v107c0 62.667 6 116 18 160
s29.5 79.833 52.5 107.5s51.5 47.834 85.5 60.501s72.333 19 115 19c27.333 0 52.333 -2.5 75 -7.5s38.5 -9.66699 47.5 -14s15.5 -8.33301 19.5 -12s7.16699 -8.16699 9.5 -13.5s4 -11.5 5 -18.5s1.5 -14.833 1.5 -23.5c0 -15.333 -1.66699 -26.666 -5 -33.999
s-8.66602 -11 -15.999 -11c-5.33301 0 -11.833 1.66699 -19.5 5s-17.334 7 -29.001 11s-25 7.66699 -40 11s-31.833 5 -50.5 5c-55.333 0 -94.166 -19.5 -116.499 -58.5s-33.5 -101.167 -33.5 -186.5v-107h526c13.333 0 23 -3.83301 29 -11.5s9 -17.5 9 -29.5v-885z" />
    <glyph glyph-name="f_j.liga" unicode="fj" horiz-adv-x="1057" 
d="M908 1229c0 -15.333 -1.16699 -28.166 -3.5 -38.499s-6.33301 -18.666 -12 -24.999s-13.5 -10.833 -23.5 -13.5s-22.667 -4 -38 -4s-28 1.33301 -38 4s-18 7.16699 -24 13.5s-10.167 14.666 -12.5 24.999s-3.5 23.166 -3.5 38.499s1.16699 28.166 3.5 38.499
s6.5 18.833 12.5 25.5s14 11.334 24 14.001s22.667 4 38 4s28 -1.33301 38 -4s17.833 -7.33398 23.5 -14.001s9.66699 -15.167 12 -25.5s3.5 -23.166 3.5 -38.499zM890 -43c0 -58.667 -3.66309 -106.502 -10.9961 -143.502s-20.5 -68.667 -39.5 -95s-45 -46.833 -78 -61.5
s-74.833 -22 -125.5 -22c-12.667 0 -25.334 0.666992 -38.001 2s-24.834 3.33301 -36.501 6s-22 5.83398 -31 9.50098s-15.167 6.83398 -18.5 9.50098s-5.83301 5.66699 -7.5 9s-2.83398 7 -3.50098 11s-1.16699 7.66699 -1.5 11s-0.5 8.66602 -0.5 15.999
c0 8.66699 0.5 16.334 1.5 23.001s2.5 12.167 4.5 16.5s4.5 7.5 7.5 9.5s6.5 3 10.5 3c6 0 13.5 -1.83301 22.5 -5.5s21.167 -7.33398 36.5 -11.001s34.666 -5.5 57.999 -5.5c22 0 41.333 3.66699 58 11s30.334 19.5 41.001 36.5s18.667 39.167 24 66.5s8 67.666 8 120.999
v871h-444v-825c0 -4 -1 -7.66699 -3 -11s-5.16699 -6 -9.5 -8s-10.333 -3.66699 -18 -5s-17.5 -2 -29.5 -2c-11.333 0 -20.833 0.666992 -28.5 2s-13.834 3 -18.501 5s-7.83398 4.66699 -9.50098 8s-2.5 7 -2.5 11v825h-136c-9.33301 0 -16.5 4.16699 -21.5 12.5
s-7.5 20.833 -7.5 37.5c0 8.66699 0.666992 16.167 2 22.5s3.16602 11.666 5.49902 15.999s5.33301 7.5 9 9.5s7.83398 3 12.501 3h136v107c0 62.667 5.83301 116 17.5 160s28.834 79.833 51.501 107.5s50.5 47.834 83.5 60.501s70.5 19 112.5 19
c14.667 0 29 -0.666992 43 -2s26.833 -3.16602 38.5 -5.49902s21.667 -5 30 -8s14 -6 17 -9s5.5 -6.16699 7.5 -9.5s3.5 -7.16602 4.5 -11.499s1.83301 -9.5 2.5 -15.5s1 -13 1 -21c0 -14.667 -1.5 -25.667 -4.5 -33s-8.16699 -11 -15.5 -11c-5.33301 0 -11 1.16699 -17 3.5
s-13.833 5 -23.5 8s-21.5 5.83301 -35.5 8.5s-31.333 4 -52 4c-52 0 -88.667 -19.5 -110 -58.5s-32 -101.167 -32 -186.5v-107h526c13.333 0 22.833 -3.83301 28.5 -11.5s8.5 -17.5 8.5 -29.5v-948z" />
    <glyph glyph-name="f_jcircumflex.liga" unicode="f&#x135;" horiz-adv-x="1057" 
d="M890 -63c0 -45.333 -3.65918 -86.5 -10.9922 -123.5s-20.5 -68.667 -39.5 -95s-45 -46.833 -78 -61.5s-74.833 -22 -125.5 -22c-12.667 0 -25.334 0.666992 -38.001 2s-24.834 3.33301 -36.501 6s-22 5.83398 -31 9.50098s-15.167 6.83398 -18.5 9.50098
s-5.83301 5.66699 -7.5 9s-2.83398 7 -3.50098 11s-1.16699 8 -1.5 12s-0.5 9 -0.5 15c0 8.66699 0.5 16.334 1.5 23.001s2.5 12.167 4.5 16.5s4.5 7.5 7.5 9.5s6.5 3 10.5 3c6 0 15 -2.33301 27 -7s25.167 -8.33398 39.5 -11.001s31.166 -4 50.499 -4
c22 0 41.333 3.66699 58 11s30.334 19.5 41.001 36.5s18.667 39.167 24 66.5s8 61 8 101v891h-444v-825c0 -4 -1 -7.66699 -3 -11s-5.16699 -6 -9.5 -8s-10.5 -3.66699 -18.5 -5s-17.667 -2 -29 -2s-20.833 0.666992 -28.5 2s-13.834 3 -18.501 5
s-7.83398 4.66699 -9.50098 8s-2.5 7 -2.5 11v825h-136c-9.33301 0 -16.5 4.16699 -21.5 12.5s-7.5 20.833 -7.5 37.5c0 8.66699 0.666992 16.167 2 22.5s3.16602 11.666 5.49902 15.999s5.33301 7.5 9 9.5s7.83398 3 12.501 3h136v126c0 58 5.83301 107.667 17.5 149
s28.5 75.166 50.5 101.499s48.667 45.833 80 58.5s66.666 19 105.999 19c19.333 0 38.333 -1.5 57 -4.5s33 -6.33301 43 -10s17 -7.5 21 -11.5s7.16699 -8.66699 9.5 -14s4 -11.5 5 -18.5s1.5 -14.833 1.5 -23.5c0 -14.667 -1.66699 -25.667 -5 -33
s-8.66602 -11 -15.999 -11c-5.33301 0 -11.333 1.16699 -18 3.5s-14.834 5 -24.501 8s-20.834 5.83301 -33.501 8.5s-27.334 4 -44.001 4c-46.667 0 -80.167 -18.5 -100.5 -55.5s-30.5 -93.833 -30.5 -170.5v-126h526c13.333 0 22.833 -3.83301 28.5 -11.5
s8.5 -17.5 8.5 -29.5v-968zM706.008 1122c-3.33301 -5.33301 -6.83398 -9.66895 -10.501 -13.002s-7.66699 -6 -12 -8s-9.66602 -3.33301 -15.999 -4s-13.833 -1 -22.5 -1c-13.333 0 -23.5 1 -30.5 3s-11.5 5 -13.5 9s-1.66699 9.16699 1 15.5s7.33398 13.833 14.001 22.5
l165 232c3.33301 4.66699 6.66602 8.33398 9.99902 11.001s7.5 4.83398 12.5 6.50098s11.333 2.83398 19 3.50098s17.167 1 28.5 1c10 0 18.333 -0.333008 25 -1s12.5 -2 17.5 -4s9.16699 -4.33301 12.5 -7s6.66602 -6 9.99902 -10l165 -232
c6 -8.66699 10.167 -16.167 12.5 -22.5s2.33301 -11.5 0 -15.5s-7.16602 -7 -14.499 -9s-17.333 -3 -30 -3c-10 0 -18 0.333008 -24 1s-11.167 2 -15.5 4s-8 4.66699 -11 8s-6.5 7.66602 -10.5 12.999l-141 198z" />
    <glyph glyph-name="f_f_j.liga" unicode="ffj" horiz-adv-x="1620" 
d="M1472 1229c0 -15.333 -1.16699 -28.166 -3.5 -38.499s-6.5 -18.666 -12.5 -24.999s-14 -10.833 -24 -13.5s-22.667 -4 -38 -4s-28 1.33301 -38 4s-18 7.16699 -24 13.5s-10.167 14.666 -12.5 24.999s-3.5 23.166 -3.5 38.499s1.16699 28.166 3.5 38.499
s6.5 18.833 12.5 25.5s14 11.334 24 14.001s22.667 4 38 4s28 -1.33301 38 -4s18 -7.33398 24 -14.001s10.167 -15.167 12.5 -25.5s3.5 -23.166 3.5 -38.499zM771 1053c0 62.667 6.00781 115.993 18.0078 159.993s29.167 79.833 51.5 107.5s50 47.834 83 60.501
s70.5 19 112.5 19c16 0 31.167 -0.666992 45.5 -2s27.166 -3.16602 38.499 -5.49902s20.833 -5 28.5 -8s13 -6 16 -9s5.5 -6.16699 7.5 -9.5s3.5 -7.16602 4.5 -11.499s1.83301 -9.5 2.5 -15.5s1 -13 1 -21c0 -14.667 -1.5 -25.667 -4.5 -33s-8.16699 -11 -15.5 -11
c-5.33301 0 -11 1.16699 -17 3.5s-13.667 5 -23 8s-21 5.83301 -35 8.5s-31.333 4 -52 4c-52 0 -88.833 -19.5 -110.5 -58.5s-32.5 -101.167 -32.5 -186.5v-107h526c13.333 0 23 -3.83301 29 -11.5s9 -17.5 9 -29.5v-968c0 -45.333 -3.66699 -86.5 -11 -123.5
s-20.5 -68.667 -39.5 -95s-45 -46.833 -78 -61.5s-74.833 -22 -125.5 -22c-13.333 0 -26.333 0.666992 -39 2s-24.834 3.33301 -36.501 6s-22 5.83398 -31 9.50098s-15.167 6.83398 -18.5 9.50098s-5.83301 5.66699 -7.5 9s-2.83398 6.83301 -3.50098 10.5
s-1.16699 7.5 -1.5 11.5s-0.5 9.33301 -0.5 16c0 8.66699 0.5 16.334 1.5 23.001s2.5 12.167 4.5 16.5s4.5 7.5 7.5 9.5s6.5 3 10.5 3c6 0 11.833 -1.16699 17.5 -3.5s12.667 -4.83301 21 -7.5s18.666 -5.16699 30.999 -7.5s28.166 -3.5 47.499 -3.5
c22 0 41.333 3.66699 58 11s30.5 19.5 41.5 36.5s19.167 39.167 24.5 66.5s8 61 8 101v891h-445v-825c0 -4 -1 -7.66699 -3 -11s-5.16699 -6 -9.5 -8s-10.333 -3.66699 -18 -5s-17.167 -2 -28.5 -2c-12 0 -21.833 0.666992 -29.5 2s-13.667 3 -18 5s-7.5 4.66699 -9.5 8
s-3 7 -3 11v825h-444v-825c0 -4 -1 -7.66699 -3 -11s-5.16699 -6 -9.5 -8s-10.333 -3.66699 -18 -5s-17.5 -2 -29.5 -2c-11.333 0 -20.833 0.666992 -28.5 2s-13.834 3 -18.501 5s-7.83398 4.66699 -9.50098 8s-2.5 7 -2.5 11v825h-136c-9.33301 0 -16.5 4.16699 -21.5 12.5
s-7.5 20.833 -7.5 37.5c0 8.66699 0.666992 16.167 2 22.5s3.16602 11.666 5.49902 15.999s5.33301 7.5 9 9.5s7.83398 3 12.501 3h136v96c0 62.667 5.83301 116 17.5 160s29 79.833 52 107.5s51.5 47.834 85.5 60.501s73 19 117 19c29.333 0 54.666 -2.66699 75.999 -8
s36.5 -10 45.5 -14s15.333 -7.83301 19 -11.5s6.66699 -8.16699 9 -13.5s4 -11.5 5 -18.5s1.5 -14.833 1.5 -23.5c0 -15.333 -1.5 -26.666 -4.5 -33.999s-8.16699 -11 -15.5 -11c-5.33301 0 -12 1.66699 -20 5s-17.833 7 -29.5 11s-25 7.66699 -40 11s-31.833 5 -50.5 5
c-55.333 0 -94 -19.5 -116 -58.5s-33 -101.167 -33 -186.5v-96h444v107z" />
    <glyph glyph-name="f_k.liga" unicode="fk" horiz-adv-x="1507" 
d="M831 1394c11.333 0 20.8223 -0.505859 28.4893 -1.50586s13.667 -2.66699 18 -5s7.5 -5.16602 9.5 -8.49902s3 -7 3 -11v-832l382 385c4.66699 6 9.83398 10.833 15.501 14.5s11.834 6.66699 18.501 9s14.334 4 23.001 5s18.667 1.5 30 1.5s21.166 -0.333008 29.499 -1
s15.333 -2 21 -4s9.83398 -4.5 12.501 -7.5s4 -6.83301 4 -11.5c0 -6.66699 -2.16699 -13.167 -6.5 -19.5s-11.5 -14.5 -21.5 -24.5l-362 -342l403 -480c8 -10 13.667 -17.667 17 -23s5 -10.666 5 -15.999c0 -4.66699 -1 -8.66699 -3 -12s-5.33301 -6.16602 -10 -8.49902
s-11 -4.16602 -19 -5.49902s-18.333 -2 -31 -2c-13.333 0 -24.333 0.5 -33 1.5s-16.167 2.5 -22.5 4.5s-11.666 4.66699 -15.999 8s-8.5 7.33301 -12.5 12l-424 514v-514c0 -4 -1 -7.66699 -3 -11s-5.16699 -6 -9.5 -8s-10.333 -3.66699 -18 -5s-17.167 -2 -28.5 -2
c-12 0 -21.833 0.666992 -29.5 2s-13.667 3 -18 5s-7.5 4.66699 -9.5 8s-3 7 -3 11v1256c-1.33301 -1.33301 -3 -2.16602 -5 -2.49902s-5 -0.5 -9 -0.5c-8 0 -21 2.16699 -39 6.5s-36.5 7.83301 -55.5 10.5s-37 4.66699 -54 6s-33.167 2 -48.5 2
c-47.333 0 -86.166 -4.83301 -116.499 -14.5s-54.166 -24.5 -71.499 -44.5s-29.166 -45.5 -35.499 -76.5s-9.5 -67.5 -9.5 -109.5v-107h205c4.66699 0 8.83398 -1 12.501 -3s6.83398 -5.16699 9.50098 -9.5s4.66699 -9.66602 6 -15.999s2 -13.833 2 -22.5
c0 -16.667 -2.66699 -29.167 -8 -37.5s-12.666 -12.5 -21.999 -12.5h-205v-825c0 -4 -1 -7.66699 -3 -11s-5.16699 -6 -9.5 -8s-10.5 -3.66699 -18.5 -5s-17.667 -2 -29 -2s-20.833 0.666992 -28.5 2s-13.834 3 -18.501 5s-7.83398 4.66699 -9.50098 8s-2.5 7 -2.5 11v825
h-136c-9.33301 0 -16.5 4.16699 -21.5 12.5s-7.5 20.833 -7.5 37.5c0 8.66699 0.666992 16.167 2 22.5s3.16602 11.666 5.49902 15.999s5.33301 7.5 9 9.5s7.83398 3 12.501 3h136v107c0 62.667 7 116 21 160s35.667 79.833 65 107.5s66.333 47.834 111 60.501
s97.667 19 159 19c17.333 0 34.833 -0.666992 52.5 -2s34.834 -3 51.501 -5s31.334 -4.16699 44.001 -6.5s22.667 -4.5 30 -6.5s13.333 -4.33301 18 -7s8.33398 -6.66699 11.001 -12c0 6.66699 1 12 3 16s5.16699 7.33301 9.5 10s10.333 4.5 18 5.5s17.5 1.5 29.5 1.5z" />
    <glyph glyph-name="f_f_k.liga" unicode="ffk" horiz-adv-x="2071" 
d="M2025 22c0 -4.66699 -1.00098 -8.6748 -3.00098 -12.0078s-5.33301 -6.16602 -10 -8.49902s-11 -4.16602 -19 -5.49902s-18.333 -2 -31 -2c-13.333 0 -24.333 0.5 -33 1.5s-16.167 2.5 -22.5 4.5s-11.666 4.66699 -15.999 8s-8.5 7.33301 -12.5 12l-424 514v-514
c0 -4 -1 -7.66699 -3 -11s-5.16699 -6 -9.5 -8s-10.333 -3.66699 -18 -5s-17.5 -2 -29.5 -2c-11.333 0 -20.833 0.666992 -28.5 2s-13.834 3 -18.501 5s-7.83398 4.66699 -9.50098 8s-2.5 7 -2.5 11v1256c-1.33301 -1.33301 -3 -2.16602 -5 -2.49902s-5 -0.5 -9 -0.5
c-8 0 -21 2.16699 -39 6.5s-36.5 7.83301 -55.5 10.5s-37 4.66699 -54 6s-33.167 2 -48.5 2c-47.333 0 -86.166 -4.83301 -116.499 -14.5s-54.166 -24.5 -71.499 -44.5s-29.333 -45.5 -36 -76.5s-10 -67.5 -10 -109.5v-107h206c4.66699 0 8.66699 -1 12 -3
s6.33301 -5.16699 9 -9.5s4.66699 -9.66602 6 -15.999s2 -13.833 2 -22.5c0 -16.667 -2.66699 -29.167 -8 -37.5s-12.333 -12.5 -21 -12.5h-206v-825c0 -4 -1 -7.66699 -3 -11s-5.16699 -6 -9.5 -8s-10.333 -3.66699 -18 -5s-17.167 -2 -28.5 -2
c-12 0 -21.833 0.666992 -29.5 2s-13.667 3 -18 5s-7.5 4.66699 -9.5 8s-3 7 -3 11v825h-444v-825c0 -4 -1 -7.66699 -3 -11s-5.16699 -6 -9.5 -8s-10.5 -3.66699 -18.5 -5s-17.667 -2 -29 -2s-20.833 0.666992 -28.5 2s-13.834 3 -18.501 5s-7.83398 4.66699 -9.50098 8
s-2.5 7 -2.5 11v825h-136c-9.33301 0 -16.5 4.16699 -21.5 12.5s-7.5 20.833 -7.5 37.5c0 8.66699 0.666992 16.167 2 22.5s3.16602 11.666 5.49902 15.999s5.33301 7.5 9 9.5s7.83398 3 12.501 3h136v96c0 62.667 5.83301 116 17.5 160s29 79.833 52 107.5
s51.5 47.834 85.5 60.501s73 19 117 19c29.333 0 54.666 -2.66699 75.999 -8s36.5 -10 45.5 -14s15.333 -7.83301 19 -11.5s6.66699 -8.16699 9 -13.5s4 -11.5 5 -18.5s1.5 -14.833 1.5 -23.5c0 -15.333 -1.5 -26.666 -4.5 -33.999s-8.16699 -11 -15.5 -11
c-5.33301 0 -12 1.66699 -20 5s-17.833 7 -29.5 11s-25 7.66699 -40 11s-31.833 5 -50.5 5c-55.333 0 -94 -19.5 -116 -58.5s-33 -101.167 -33 -186.5v-96h444v107c0 62.667 7.16699 116 21.5 160s36 79.833 65 107.5s65.833 47.834 110.5 60.501s97.667 19 159 19
c18 0 35.833 -0.666992 53.5 -2s34.834 -3 51.501 -5s31.334 -4.16699 44.001 -6.5s22.667 -4.5 30 -6.5s13.333 -4.33301 18 -7s8.33398 -6.66699 11.001 -12c0 6.66699 1 12 3 16s5.16699 7.33301 9.5 10s10.333 4.5 18 5.5s17.167 1.5 28.5 1.5
c12 0 21.833 -0.5 29.5 -1.5s13.667 -2.66699 18 -5s7.5 -5.16602 9.5 -8.49902s3 -7 3 -11v-832l381 385c5.33301 6 10.833 10.833 16.5 14.5s11.834 6.66699 18.501 9s14.334 4 23.001 5s18.667 1.5 30 1.5s21.166 -0.333008 29.499 -1s15.166 -2 20.499 -4
s9.33301 -4.5 12 -7.5s4 -6.83301 4 -11.5c0 -6.66699 -2 -13.167 -6 -19.5s-11 -14.5 -21 -24.5l-362 -342l402 -480c8.66699 -10 14.667 -17.667 18 -23s5 -10.666 5 -15.999z" />
    <glyph glyph-name="f_lacute.liga" unicode="f&#x13a;" horiz-adv-x="1057" 
d="M890 20c0 -4 -1.00684 -7.66992 -3.00684 -11.0029s-5.16699 -6 -9.5 -8s-10.333 -3.66699 -18 -5s-17.167 -2 -28.5 -2c-12 0 -21.833 0.666992 -29.5 2s-13.667 3 -18 5s-7.5 4.66699 -9.5 8s-3 7 -3 11v1256c-1.33301 -1.33301 -3 -2.16602 -5 -2.49902
s-5 -0.5 -9 -0.5c-8 0 -21 2.16699 -39 6.5s-36.5 7.83301 -55.5 10.5s-37 4.66699 -54 6s-33.167 2 -48.5 2c-47.333 0 -86.166 -4.83301 -116.499 -14.5s-54.166 -24.5 -71.499 -44.5s-29.166 -45.5 -35.499 -76.5s-9.5 -67.5 -9.5 -109.5v-107h205
c4.66699 0 8.83398 -1 12.501 -3s6.83398 -5.16699 9.50098 -9.5s4.66699 -9.66602 6 -15.999s2 -13.833 2 -22.5c0 -16.667 -2.66699 -29.167 -8 -37.5s-12.666 -12.5 -21.999 -12.5h-205v-825c0 -4 -1 -7.66699 -3 -11s-5.16699 -6 -9.5 -8s-10.333 -3.66699 -18 -5
s-17.5 -2 -29.5 -2c-11.333 0 -20.833 0.666992 -28.5 2s-13.834 3 -18.501 5s-7.83398 4.66699 -9.50098 8s-2.5 7 -2.5 11v825h-136c-9.33301 0 -16.5 4.16699 -21.5 12.5s-7.5 20.833 -7.5 37.5c0 8.66699 0.666992 16.167 2 22.5s3.16602 11.666 5.49902 15.999
s5.33301 7.5 9 9.5s7.83398 3 12.501 3h136v107c0 62.667 7 116 21 160s35.667 79.833 65 107.5s66.333 47.834 111 60.501s97.667 19 159 19c17.333 0 34.833 -0.666992 52.5 -2s34.834 -3 51.501 -5s31.334 -4.16699 44.001 -6.5s22.667 -4.5 30 -6.5
s13.333 -4.33301 18 -7s8.33398 -6.66699 11.001 -12c0 6.66699 1 12 3 16s5.16699 7.33301 9.5 10s10.333 4.5 18 5.5s17.5 1.5 29.5 1.5c11.333 0 20.833 -0.5 28.5 -1.5s13.667 -2.66699 18 -5s7.5 -5.16602 9.5 -8.49902s3 -7 3 -11v-1348zM992.993 1726
c6.66699 7.33301 13.168 13.1689 19.501 17.502s13.166 7.66602 20.499 9.99902s15.666 3.83301 24.999 4.5s20 1 32 1c14 0 25.333 -1.16699 34 -3.5s14.834 -5.33301 18.501 -9s5 -8 4 -13s-3.83301 -10.167 -8.5 -15.5l-228 -219
c-6.66699 -6.66699 -12.667 -11.834 -18 -15.501s-11 -6.5 -17 -8.5s-12.5 -3.33301 -19.5 -4s-15.5 -1 -25.5 -1c-11.333 0 -20.166 0.833008 -26.499 2.5s-10.5 4 -12.5 7s-2.33301 6.83301 -1 11.5s4.66602 10 9.99902 16zM640.994 1364z" />
    <glyph glyph-name="f_lcaron.liga" unicode="f&#x13e;" horiz-adv-x="1098" 
d="M890 20c0 -4 -1.00684 -7.66992 -3.00684 -11.0029s-5.16699 -6 -9.5 -8s-10.333 -3.66699 -18 -5s-17.167 -2 -28.5 -2c-12 0 -21.833 0.666992 -29.5 2s-13.667 3 -18 5s-7.5 4.66699 -9.5 8s-3 7 -3 11v1256c-1.33301 -1.33301 -3 -2.16602 -5 -2.49902
s-5 -0.5 -9 -0.5c-8 0 -21 2.16699 -39 6.5s-36.5 7.83301 -55.5 10.5s-37 4.66699 -54 6s-33.167 2 -48.5 2c-47.333 0 -86.166 -4.83301 -116.499 -14.5s-54.166 -24.5 -71.499 -44.5s-29.166 -45.5 -35.499 -76.5s-9.5 -67.5 -9.5 -109.5v-107h205
c4.66699 0 8.83398 -1 12.501 -3s6.83398 -5.16699 9.50098 -9.5s4.66699 -9.66602 6 -15.999s2 -13.833 2 -22.5c0 -16.667 -2.66699 -29.167 -8 -37.5s-12.666 -12.5 -21.999 -12.5h-205v-825c0 -4 -1 -7.66699 -3 -11s-5.16699 -6 -9.5 -8s-10.333 -3.66699 -18 -5
s-17.5 -2 -29.5 -2c-11.333 0 -20.833 0.666992 -28.5 2s-13.834 3 -18.501 5s-7.83398 4.66699 -9.50098 8s-2.5 7 -2.5 11v825h-136c-9.33301 0 -16.5 4.16699 -21.5 12.5s-7.5 20.833 -7.5 37.5c0 8.66699 0.666992 16.167 2 22.5s3.16602 11.666 5.49902 15.999
s5.33301 7.5 9 9.5s7.83398 3 12.501 3h136v107c0 62.667 7 116 21 160s35.667 79.833 65 107.5s66.333 47.834 111 60.501s97.667 19 159 19c17.333 0 34.833 -0.666992 52.5 -2s34.834 -3 51.501 -5s31.334 -4.16699 44.001 -6.5s22.667 -4.5 30 -6.5
s13.333 -4.33301 18 -7s8.33398 -6.66699 11.001 -12c0 6.66699 1 12 3 16s5.16699 7.33301 9.5 10s10.333 4.5 18 5.5s17.5 1.5 29.5 1.5c11.333 0 20.833 -0.5 28.5 -1.5s13.667 -2.66699 18 -5s7.5 -5.16602 9.5 -8.49902s3 -7 3 -11v-1348zM1065.99 1365
c2 6 4.66699 11 8 15s7.66602 7 12.999 9s12.333 3.5 21 4.5s19 1.5 31 1.5c10 0 17.833 -0.5 23.5 -1.5s9.83398 -2.66699 12.501 -5s4.16699 -5.5 4.5 -9.5s-0.166992 -8.66699 -1.5 -14l-125 -312c-0.666992 -2.66699 -2 -5 -4 -7s-5.16699 -3.66699 -9.5 -5
s-10 -2.33301 -17 -3s-15.833 -1 -26.5 -1c-7.33301 0 -13.166 0.5 -17.499 1.5s-7.5 2.5 -9.5 4.5s-3.33301 4.33301 -4 7s-0.333984 5.66699 0.999023 9zM815.993 1002z" />
    <glyph glyph-name="f_lcommaaccent.liga" unicode="f&#x13c;" horiz-adv-x="1057" 
d="M890 20c0 -4 -1.00684 -7.66992 -3.00684 -11.0029s-5.16699 -6 -9.5 -8s-10.333 -3.66699 -18 -5s-17.167 -2 -28.5 -2c-12 0 -21.833 0.666992 -29.5 2s-13.667 3 -18 5s-7.5 4.66699 -9.5 8s-3 7 -3 11v1256c-1.33301 -1.33301 -3 -2.16602 -5 -2.49902
s-5 -0.5 -9 -0.5c-8 0 -21 2.16699 -39 6.5s-36.5 7.83301 -55.5 10.5s-37 4.66699 -54 6s-33.167 2 -48.5 2c-47.333 0 -86.166 -4.83301 -116.499 -14.5s-54.166 -24.5 -71.499 -44.5s-29.166 -45.5 -35.499 -76.5s-9.5 -67.5 -9.5 -109.5v-107h205
c4.66699 0 8.83398 -1 12.501 -3s6.83398 -5.16699 9.50098 -9.5s4.66699 -9.66602 6 -15.999s2 -13.833 2 -22.5c0 -16.667 -2.66699 -29.167 -8 -37.5s-12.666 -12.5 -21.999 -12.5h-205v-825c0 -4 -1 -7.66699 -3 -11s-5.16699 -6 -9.5 -8s-10.333 -3.66699 -18 -5
s-17.5 -2 -29.5 -2c-11.333 0 -20.833 0.666992 -28.5 2s-13.834 3 -18.501 5s-7.83398 4.66699 -9.50098 8s-2.5 7 -2.5 11v825h-136c-9.33301 0 -16.5 4.16699 -21.5 12.5s-7.5 20.833 -7.5 37.5c0 8.66699 0.666992 16.167 2 22.5s3.16602 11.666 5.49902 15.999
s5.33301 7.5 9 9.5s7.83398 3 12.501 3h136v107c0 62.667 7 116 21 160s35.667 79.833 65 107.5s66.333 47.834 111 60.501s97.667 19 159 19c17.333 0 34.833 -0.666992 52.5 -2s34.834 -3 51.501 -5s31.334 -4.16699 44.001 -6.5s22.667 -4.5 30 -6.5
s13.333 -4.33301 18 -7s8.33398 -6.66699 11.001 -12c0 6.66699 1 12 3 16s5.16699 7.33301 9.5 10s10.333 4.5 18 5.5s17.5 1.5 29.5 1.5c11.333 0 20.833 -0.5 28.5 -1.5s13.667 -2.66699 18 -5s7.5 -5.16602 9.5 -8.49902s3 -7 3 -11v-1348zM761.993 -119.003
c2.66699 6.66699 5.66992 12.333 9.00293 17s7.83301 8.16699 13.5 10.5s12.667 4 21 5s19.166 1.5 32.499 1.5c12.667 0 22.5 -1 29.5 -3s12 -4.83301 15 -8.5s4.16699 -8 3.5 -13s-2.33398 -10.5 -5.00098 -16.5l-95 -210
c-2.66699 -6.66699 -5.83398 -11.834 -9.50098 -15.501s-8 -6.5 -13 -8.5s-11 -3.33301 -18 -4s-15.5 -1 -25.5 -1c-9.33301 0 -16.333 0.666992 -21 2s-8 3.5 -10 6.5s-2.5 6.83301 -1.5 11.5s2.5 10.334 4.5 17.001z" />
    <glyph glyph-name="f_t.liga" unicode="ft" horiz-adv-x="1238" 
d="M327 845l-0.000976562 -824.998c0 -4 -1 -7.66699 -3 -11s-5.16699 -6 -9.5 -8s-10.5 -3.66699 -18.5 -5s-17.667 -2 -29 -2s-20.833 0.666992 -28.5 2s-13.834 3 -18.501 5s-7.83398 4.66699 -9.50098 8s-2.5 7 -2.5 11v825h-136c-9.33301 0 -16.5 4.16699 -21.5 12.5
s-7.5 20.833 -7.5 37.5c0 8.66699 0.666992 16.167 2 22.5s3.16602 11.666 5.49902 15.999s5.33301 7.5 9 9.5s7.83398 3 12.501 3h136v103c0 63.333 5.66699 117.333 17 162s28.5 81 51.5 109s51.833 48.333 86.5 61s75 19 121 19c24 0 47.167 -2.5 69.5 -7.5
s38.166 -9.66699 47.499 -14s15.833 -8.33301 19.5 -12s6.66699 -8.16699 9 -13.5s4 -11.5 5 -18.5s1.5 -14.833 1.5 -23.5c0 -9.33301 -0.5 -16.833 -1.5 -22.5s-2.33301 -10.167 -4 -13.5s-3.66699 -5.66602 -6 -6.99902s-5.16602 -2 -8.49902 -2
c-5.33301 0 -11.666 1.66699 -18.999 5s-16.5 7 -27.5 11s-24 7.66699 -39 11s-32.5 5 -52.5 5c-28 0 -51.667 -4.5 -71 -13.5s-34.833 -23.333 -46.5 -43s-20.167 -45 -25.5 -76s-8 -68.5 -8 -112.5v-107h442v222c0 4 1 7.66699 3 11s5.16699 6.16602 9.5 8.49902
s10.333 4 18 5s17.5 1.5 29.5 1.5c11.333 0 20.833 -0.5 28.5 -1.5s13.667 -2.66699 18 -5s7.5 -5.16602 9.5 -8.49902s3 -7 3 -11v-222h250c4.66699 0 8.83398 -1 12.501 -3s6.83398 -5.16699 9.50098 -9.5s4.66699 -9.66602 6 -15.999s2 -13.833 2 -22.5
c0 -16.667 -2.66699 -29.167 -8 -37.5s-12.666 -12.5 -21.999 -12.5h-250v-547c0 -68.667 9.83301 -121 29.5 -157s55.5 -54 107.5 -54c16 0 30.5 1.66699 43.5 5s24.5 7 34.5 11s18.667 7.66699 26 11s13.666 5 18.999 5c3.33301 0 6.16602 -0.666992 8.49902 -2
s4.33301 -3.83301 6 -7.5s3 -8.33398 4 -14.001s1.5 -12.834 1.5 -21.501c0 -14 -1.16699 -25.333 -3.5 -34s-6 -15.5 -11 -20.5s-12.167 -9.66699 -21.5 -14s-20.333 -8 -33 -11s-26 -5.33301 -40 -7s-27.667 -2.5 -41 -2.5c-45.333 0 -83.666 6 -114.999 18
s-57 30.167 -77 54.5s-34.5 55.166 -43.5 92.499s-13.5 81.333 -13.5 132v563h-442z" />
    <glyph glyph-name="f_tcommaaccent.liga" unicode="f&#x163;" horiz-adv-x="1238" 
d="M327 845l-0.000976562 -824.998c0 -4 -1 -7.66699 -3 -11s-5.16699 -6 -9.5 -8s-10.5 -3.66699 -18.5 -5s-17.667 -2 -29 -2s-20.833 0.666992 -28.5 2s-13.834 3 -18.501 5s-7.83398 4.66699 -9.50098 8s-2.5 7 -2.5 11v825h-136c-9.33301 0 -16.5 4.16699 -21.5 12.5
s-7.5 20.833 -7.5 37.5c0 8.66699 0.666992 16.167 2 22.5s3.16602 11.666 5.49902 15.999s5.33301 7.5 9 9.5s7.83398 3 12.501 3h136v103c0 63.333 5.66699 117.333 17 162s28.5 81 51.5 109s51.833 48.333 86.5 61s75 19 121 19c24 0 47.167 -2.5 69.5 -7.5
s38.166 -9.66699 47.499 -14s15.833 -8.33301 19.5 -12s6.66699 -8.16699 9 -13.5s4 -11.5 5 -18.5s1.5 -14.833 1.5 -23.5c0 -9.33301 -0.5 -16.833 -1.5 -22.5s-2.33301 -10.167 -4 -13.5s-3.66699 -5.66602 -6 -6.99902s-5.16602 -2 -8.49902 -2
c-5.33301 0 -11.666 1.66699 -18.999 5s-16.5 7 -27.5 11s-24 7.66699 -39 11s-32.5 5 -52.5 5c-28 0 -51.667 -4.5 -71 -13.5s-34.833 -23.333 -46.5 -43s-20.167 -45 -25.5 -76s-8 -68.5 -8 -112.5v-107h442v222c0 4 1 7.66699 3 11s5.16699 6.16602 9.5 8.49902
s10.333 4 18 5s17.5 1.5 29.5 1.5c11.333 0 20.833 -0.5 28.5 -1.5s13.667 -2.66699 18 -5s7.5 -5.16602 9.5 -8.49902s3 -7 3 -11v-222h250c4.66699 0 8.83398 -1 12.501 -3s6.83398 -5.16699 9.50098 -9.5s4.66699 -9.66602 6 -15.999s2 -13.833 2 -22.5
c0 -16.667 -2.66699 -29.167 -8 -37.5s-12.666 -12.5 -21.999 -12.5h-250v-547c0 -68.667 9.83301 -121 29.5 -157s55.5 -54 107.5 -54c16 0 30.5 1.66699 43.5 5s24.5 7 34.5 11s18.667 7.66699 26 11s13.666 5 18.999 5c3.33301 0 6.16602 -0.666992 8.49902 -2
s4.33301 -3.83301 6 -7.5s3 -8.33398 4 -14.001s1.5 -12.834 1.5 -21.501c0 -14 -1.16699 -25.333 -3.5 -34s-6 -15.5 -11 -20.5s-12.167 -9.66699 -21.5 -14s-20.333 -8 -33 -11s-26 -5.33301 -40 -7s-27.667 -2.5 -41 -2.5c-45.333 0 -83.666 6 -114.999 18
s-57 30.167 -77 54.5s-34.5 55.166 -43.5 92.499s-13.5 81.333 -13.5 132v563h-442zM907.999 -118.998c2.66699 6.66699 5.66992 12.333 9.00293 17s7.83301 8.16699 13.5 10.5s12.667 4 21 5s19.166 1.5 32.499 1.5c12.667 0 22.5 -1 29.5 -3s12 -4.83301 15 -8.5
s4.16699 -8 3.5 -13s-2.33398 -10.5 -5.00098 -16.5l-95 -210c-2.66699 -6.66699 -5.83398 -11.834 -9.50098 -15.501s-8 -6.5 -13 -8.5s-11 -3.33301 -18 -4s-15.5 -1 -25.5 -1c-9.33301 0 -16.333 0.666992 -21 2s-8 3.5 -10 6.5s-2.5 6.83301 -1.5 11.5
s2.5 10.334 4.5 17.001z" />
    <glyph glyph-name="f_tcaron.liga" unicode="f&#x165;" horiz-adv-x="1272" 
d="M327 845l-0.000976562 -824.998c0 -4 -1 -7.66699 -3 -11s-5.16699 -6 -9.5 -8s-10.5 -3.66699 -18.5 -5s-17.667 -2 -29 -2s-20.833 0.666992 -28.5 2s-13.834 3 -18.501 5s-7.83398 4.66699 -9.50098 8s-2.5 7 -2.5 11v825h-136c-9.33301 0 -16.5 4.16699 -21.5 12.5
s-7.5 20.833 -7.5 37.5c0 8.66699 0.666992 16.167 2 22.5s3.16602 11.666 5.49902 15.999s5.33301 7.5 9 9.5s7.83398 3 12.501 3h136v103c0 63.333 5.66699 117.333 17 162s28.5 81 51.5 109s51.833 48.333 86.5 61s75 19 121 19c24 0 47.167 -2.5 69.5 -7.5
s38.166 -9.66699 47.499 -14s15.833 -8.33301 19.5 -12s6.66699 -8.16699 9 -13.5s4 -11.5 5 -18.5s1.5 -14.833 1.5 -23.5c0 -9.33301 -0.5 -16.833 -1.5 -22.5s-2.33301 -10.167 -4 -13.5s-3.66699 -5.66602 -6 -6.99902s-5.16602 -2 -8.49902 -2
c-5.33301 0 -11.666 1.66699 -18.999 5s-16.5 7 -27.5 11s-24 7.66699 -39 11s-32.5 5 -52.5 5c-28 0 -51.667 -4.5 -71 -13.5s-34.833 -23.333 -46.5 -43s-20.167 -45 -25.5 -76s-8 -68.5 -8 -112.5v-107h442v222c0 4 1 7.66699 3 11s5.16699 6.16602 9.5 8.49902
s10.333 4 18 5s17.5 1.5 29.5 1.5c11.333 0 20.833 -0.5 28.5 -1.5s13.667 -2.66699 18 -5s7.5 -5.16602 9.5 -8.49902s3 -7 3 -11v-222h250c4.66699 0 8.83398 -1 12.501 -3s6.83398 -5.16699 9.50098 -9.5s4.66699 -9.66602 6 -15.999s2 -13.833 2 -22.5
c0 -16.667 -2.66699 -29.167 -8 -37.5s-12.666 -12.5 -21.999 -12.5h-250v-547c0 -68.667 9.83301 -121 29.5 -157s55.5 -54 107.5 -54c16 0 30.5 1.66699 43.5 5s24.5 7 34.5 11s18.667 7.66699 26 11s13.666 5 18.999 5c3.33301 0 6.16602 -0.666992 8.49902 -2
s4.33301 -3.83301 6 -7.5s3 -8.33398 4 -14.001s1.5 -12.834 1.5 -21.501c0 -14 -1.16699 -25.333 -3.5 -34s-6 -15.5 -11 -20.5s-12.167 -9.66699 -21.5 -14s-20.333 -8 -33 -11s-26 -5.33301 -40 -7s-27.667 -2.5 -41 -2.5c-45.333 0 -83.666 6 -114.999 18
s-57 30.167 -77 54.5s-34.5 55.166 -43.5 92.499s-13.5 81.333 -13.5 132v563h-442zM1127 1420c2 6 4.66699 11 8 15s7.66602 7 12.999 9s12.333 3.5 21 4.5s19 1.5 31 1.5c10 0 17.833 -0.5 23.5 -1.5s9.83398 -2.66699 12.501 -5s4.16699 -5.5 4.5 -9.5
s-0.166992 -8.66699 -1.5 -14l-125 -312c-0.666992 -2.66699 -2 -5 -4 -7s-5.16699 -3.66699 -9.5 -5s-10 -2.33301 -17 -3s-15.833 -1 -26.5 -1c-7.33301 0 -13.166 0.5 -17.499 1.5s-7.5 2.5 -9.5 4.5s-3.33301 4.33301 -4 7s-0.333984 5.66699 0.999023 9zM876.999 1057z
" />
    <glyph glyph-name="f_f_t.liga" unicode="fft" horiz-adv-x="1802" 
d="M1732 74c0 -14 -1.17188 -25.3301 -3.50488 -33.9971s-6 -15.5 -11 -20.5s-12.333 -9.66699 -22 -14s-20.834 -8 -33.501 -11s-26 -5.33301 -40 -7s-27.667 -2.5 -41 -2.5c-44.667 0 -82.667 6 -114 18s-57 30.167 -77 54.5s-34.5 55.166 -43.5 92.499
s-13.5 81.333 -13.5 132v563h-443v-825c0 -4 -1 -7.66699 -3 -11s-5.16699 -6 -9.5 -8s-10.333 -3.66699 -18 -5s-17.167 -2 -28.5 -2c-12 0 -21.833 0.666992 -29.5 2s-13.667 3 -18 5s-7.5 4.66699 -9.5 8s-3 7 -3 11v825h-444v-825c0 -4 -1 -7.66699 -3 -11
s-5.16699 -6 -9.5 -8s-10.5 -3.66699 -18.5 -5s-17.667 -2 -29 -2s-20.833 0.666992 -28.5 2s-13.834 3 -18.501 5s-7.83398 4.66699 -9.50098 8s-2.5 7 -2.5 11v825h-136c-9.33301 0 -16.5 4.16699 -21.5 12.5s-7.5 20.833 -7.5 37.5c0 8.66699 0.666992 16.167 2 22.5
s3.16602 11.666 5.49902 15.999s5.33301 7.5 9 9.5s7.83398 3 12.501 3h136v92c0 63.333 5.66699 117.333 17 162s28.5 81 51.5 109s51.833 48.333 86.5 61s75 19 121 19c25.333 0 49 -2.66699 71 -8s37.5 -10 46.5 -14s15.333 -7.83301 19 -11.5s6.66699 -8.16699 9 -13.5
s4 -11.5 5 -18.5s1.5 -14.833 1.5 -23.5c0 -9.33301 -0.5 -16.833 -1.5 -22.5s-2.33301 -10.167 -4 -13.5s-3.66699 -5.66602 -6 -6.99902s-5.16602 -2 -8.49902 -2c-5.33301 0 -11.666 1.66699 -18.999 5s-16.5 7 -27.5 11s-24 7.66699 -39 11s-32.5 5 -52.5 5
c-28 0 -51.667 -4.5 -71 -13.5s-35 -23.333 -47 -43s-20.5 -45 -25.5 -76s-7.5 -68.5 -7.5 -112.5v-96h444v103c0 63.333 5.83301 117.333 17.5 162s29 81 52 109s51.833 48.333 86.5 61s75 19 121 19c22.667 0 44.667 -2.33301 66 -7s37.333 -9.33398 48 -14.001
s18 -8.83398 22 -12.501s7.16699 -8.16699 9.5 -13.5s4 -11.5 5 -18.5s1.5 -14.833 1.5 -23.5c0 -9.33301 -0.5 -16.833 -1.5 -22.5s-2.33301 -10.167 -4 -13.5s-3.83398 -5.66602 -6.50098 -6.99902s-5.66699 -2 -9 -2c-5.33301 0 -11.666 1.66699 -18.999 5
s-16.333 7 -27 11s-23.5 7.66699 -38.5 11s-32.5 5 -52.5 5c-28 0 -51.667 -4.5 -71 -13.5s-35 -23.333 -47 -43s-20.667 -45 -26 -76s-8 -68.5 -8 -112.5v-107h443v222c0 4 0.833008 7.66699 2.5 11s4.83398 6.16602 9.50098 8.49902s10.834 4 18.501 5
s17.167 1.5 28.5 1.5c12 0 21.833 -0.5 29.5 -1.5s13.667 -2.66699 18 -5s7.5 -5.16602 9.5 -8.49902s3 -7 3 -11v-222h250c4.66699 0 8.83398 -1 12.501 -3s6.83398 -5.16699 9.50098 -9.5s4.66699 -9.66602 6 -15.999s2 -13.833 2 -22.5
c0 -16.667 -2.66699 -29.167 -8 -37.5s-12.666 -12.5 -21.999 -12.5h-250v-547c0 -68.667 9.83301 -121 29.5 -157s55.5 -54 107.5 -54c16 0 30.5 1.66699 43.5 5s24.5 7 34.5 11s18.5 7.66699 25.5 11s13.167 5 18.5 5c3.33301 0 6.33301 -0.666992 9 -2
s4.83398 -3.83301 6.50098 -7.5s3 -8.33398 4 -14.001s1.5 -12.834 1.5 -21.501z" />
    <glyph glyph-name="t_f.liga" unicode="tf" horiz-adv-x="1231" 
d="M827 946l-0.00683594 103.002c0 63.333 5.83301 117.333 17.5 162s29 81 52 109s51.667 48.333 86 61s74.5 19 120.5 19c21.333 0 42.833 -2.16699 64.5 -6.5s38.167 -9 49.5 -14s18.833 -9.33301 22.5 -13s6.66699 -8.16699 9 -13.5s4 -11.5 5 -18.5
s1.5 -14.833 1.5 -23.5c0 -9.33301 -0.5 -16.833 -1.5 -22.5s-2.33301 -10.167 -4 -13.5s-3.66699 -5.66602 -6 -6.99902s-5.16602 -2 -8.49902 -2c-5.33301 0 -15.833 3.33301 -31.5 10s-32.167 12 -49.5 16s-36 6 -56 6c-28 0 -51.667 -4.5 -71 -13.5s-35 -23.333 -47 -43
s-20.667 -45 -26 -76s-8 -68.5 -8 -112.5v-107h222c4.66699 0 8.83398 -1 12.501 -3s6.83398 -5.16699 9.50098 -9.5s4.66699 -9.66602 6 -15.999s2 -13.833 2 -22.5c0 -16.667 -2.66699 -29.167 -8 -37.5s-12.666 -12.5 -21.999 -12.5h-222v-825c0 -4 -1 -7.66699 -3 -11
s-5.16699 -6 -9.5 -8s-10.333 -3.66699 -18 -5s-17.5 -2 -29.5 -2c-11.333 0 -20.833 0.666992 -28.5 2s-13.834 3 -18.501 5s-7.83398 4.66699 -9.50098 8s-2.5 7 -2.5 11v825h-504v-547c0 -68.667 9.83301 -121 29.5 -157s55.5 -54 107.5 -54c16 0 30.5 1.66699 43.5 5
s24.5 7 34.5 11s18.5 7.66699 25.5 11s13.167 5 18.5 5c3.33301 0 6.33301 -0.666992 9 -2s4.83398 -3.83301 6.50098 -7.5s3 -8.33398 4 -14.001s1.5 -12.834 1.5 -21.501c0 -14 -1.16699 -25.333 -3.5 -34s-6 -15.5 -11 -20.5s-12.333 -9.66699 -22 -14
s-20.834 -8 -33.501 -11s-26 -5.33301 -40 -7s-27.667 -2.5 -41 -2.5c-44.667 0 -82.667 6 -114 18s-57 30.167 -77 54.5s-34.5 55.166 -43.5 92.499s-13.5 81.333 -13.5 132v563h-135c-9.33301 0 -16.666 4.16699 -21.999 12.5s-8 20.833 -8 37.5
c0 8.66699 0.666992 16.167 2 22.5s3.33301 11.666 6 15.999s5.83398 7.5 9.50098 9.5s7.83398 3 12.501 3h135v222c0 4 0.833008 7.66699 2.5 11s4.83398 6.16602 9.50098 8.49902s10.834 4 18.501 5s17.167 1.5 28.5 1.5c12 0 21.833 -0.5 29.5 -1.5
s13.667 -2.66699 18 -5s7.5 -5.16602 9.5 -8.49902s3 -7 3 -11v-222h504z" />
    <glyph glyph-name="t_i.liga" unicode="ti" horiz-adv-x="1109" 
d="M903 946c15.333 0 25.6621 -3.8291 30.9951 -11.4961s8 -18.167 8 -31.5v-883c0 -4 -1 -7.66699 -3 -11s-5.16699 -6 -9.5 -8s-10.333 -3.66699 -18 -5s-17.167 -2 -28.5 -2c-12 0 -21.833 0.666992 -29.5 2s-13.667 3 -18 5s-7.5 4.66699 -9.5 8s-3 7 -3 11v825h-500
v-547c0 -68.667 9.83301 -121 29.5 -157s55.5 -54 107.5 -54c16 0 30.5 1.66699 43.5 5s24.5 7 34.5 11s18.5 7.66699 25.5 11s13.167 5 18.5 5c3.33301 0 6.33301 -0.666992 9 -2s4.83398 -3.83301 6.50098 -7.5s3 -8.33398 4 -14.001s1.5 -12.834 1.5 -21.501
c0 -14 -1.16699 -25.333 -3.5 -34s-6 -15.5 -11 -20.5s-12.333 -9.66699 -22 -14s-20.834 -8 -33.501 -11s-26 -5.33301 -40 -7s-27.667 -2.5 -41 -2.5c-44.667 0 -82.667 6 -114 18s-57 30.167 -77 54.5s-34.5 55.166 -43.5 92.499s-13.5 81.333 -13.5 132v563h-135
c-9.33301 0 -16.666 4.16699 -21.999 12.5s-8 20.833 -8 37.5c0 8.66699 0.666992 16.167 2 22.5s3.33301 11.666 6 15.999s5.83398 7.5 9.50098 9.5s7.83398 3 12.501 3h135v222c0 4 0.833008 7.66699 2.5 11s4.83398 6.16602 9.50098 8.49902s10.834 4 18.501 5
s17.167 1.5 28.5 1.5c12 0 21.833 -0.5 29.5 -1.5s13.667 -2.66699 18 -5s7.5 -5.16602 9.5 -8.49902s3 -7 3 -11v-222h580zM959.996 1230c0 -32 -5.66699 -53.667 -17 -65s-32 -17 -62 -17c-29.333 0 -49.5 5.5 -60.5 16.5s-16.5 32.5 -16.5 64.5s5.66699 53.667 17 65
s32 17 62 17c29.333 0 49.5 -5.5 60.5 -16.5s16.5 -32.5 16.5 -64.5zM655.996 946.004z" />
    <glyph glyph-name="t_igrave.liga" unicode="t&#xec;" horiz-adv-x="1109" 
d="M903 946c15.333 0 25.6621 -3.8291 30.9951 -11.4961s8 -18.167 8 -31.5v-883c0 -4 -1 -7.66699 -3 -11s-5.16699 -6 -9.5 -8s-10.333 -3.66699 -18 -5s-17.167 -2 -28.5 -2c-12 0 -21.833 0.666992 -29.5 2s-13.667 3 -18 5s-7.5 4.66699 -9.5 8s-3 7 -3 11v825h-500
v-547c0 -68.667 9.83301 -121 29.5 -157s55.5 -54 107.5 -54c16 0 30.5 1.66699 43.5 5s24.5 7 34.5 11s18.5 7.66699 25.5 11s13.167 5 18.5 5c3.33301 0 6.33301 -0.666992 9 -2s4.83398 -3.83301 6.50098 -7.5s3 -8.33398 4 -14.001s1.5 -12.834 1.5 -21.501
c0 -14 -1.16699 -25.333 -3.5 -34s-6 -15.5 -11 -20.5s-12.333 -9.66699 -22 -14s-20.834 -8 -33.501 -11s-26 -5.33301 -40 -7s-27.667 -2.5 -41 -2.5c-44.667 0 -82.667 6 -114 18s-57 30.167 -77 54.5s-34.5 55.166 -43.5 92.499s-13.5 81.333 -13.5 132v563h-135
c-9.33301 0 -16.666 4.16699 -21.999 12.5s-8 20.833 -8 37.5c0 8.66699 0.666992 16.167 2 22.5s3.33301 11.666 6 15.999s5.83398 7.5 9.50098 9.5s7.83398 3 12.501 3h135v222c0 4 0.833008 7.66699 2.5 11s4.83398 6.16602 9.50098 8.49902s10.834 4 18.501 5
s17.167 1.5 28.5 1.5c12 0 21.833 -0.5 29.5 -1.5s13.667 -2.66699 18 -5s7.5 -5.16602 9.5 -8.49902s3 -7 3 -11v-222h580zM918.996 1133c4 -6 6.5 -11.333 7.5 -16s0.333008 -8.5 -2 -11.5s-6.5 -5.33301 -12.5 -7s-14 -2.5 -24 -2.5s-18.333 0.333008 -25 1
s-12.5 2 -17.5 4s-9.5 4.83301 -13.5 8.5s-8.33301 8.83398 -13 15.501l-174 234c-4.66699 6 -7.33398 11.5 -8.00098 16.5s0.666016 9.33301 3.99902 13s9 6.5 17 8.5s18.333 3 31 3s23.334 -0.5 32.001 -1.5s16 -2.66699 22 -5s11.333 -5.83301 16 -10.5
s9.33398 -10.334 14.001 -17.001zM488.996 946.004z" />
    <glyph glyph-name="t_iacute.liga" unicode="t&#xed;" horiz-adv-x="1109" 
d="M903 946c15.333 0 25.6621 -3.8291 30.9951 -11.4961s8 -18.167 8 -31.5v-883c0 -4 -1 -7.66699 -3 -11s-5.16699 -6 -9.5 -8s-10.333 -3.66699 -18 -5s-17.167 -2 -28.5 -2c-12 0 -21.833 0.666992 -29.5 2s-13.667 3 -18 5s-7.5 4.66699 -9.5 8s-3 7 -3 11v825h-500
v-547c0 -68.667 9.83301 -121 29.5 -157s55.5 -54 107.5 -54c16 0 30.5 1.66699 43.5 5s24.5 7 34.5 11s18.5 7.66699 25.5 11s13.167 5 18.5 5c3.33301 0 6.33301 -0.666992 9 -2s4.83398 -3.83301 6.50098 -7.5s3 -8.33398 4 -14.001s1.5 -12.834 1.5 -21.501
c0 -14 -1.16699 -25.333 -3.5 -34s-6 -15.5 -11 -20.5s-12.333 -9.66699 -22 -14s-20.834 -8 -33.501 -11s-26 -5.33301 -40 -7s-27.667 -2.5 -41 -2.5c-44.667 0 -82.667 6 -114 18s-57 30.167 -77 54.5s-34.5 55.166 -43.5 92.499s-13.5 81.333 -13.5 132v563h-135
c-9.33301 0 -16.666 4.16699 -21.999 12.5s-8 20.833 -8 37.5c0 8.66699 0.666992 16.167 2 22.5s3.33301 11.666 6 15.999s5.83398 7.5 9.50098 9.5s7.83398 3 12.501 3h135v222c0 4 0.833008 7.66699 2.5 11s4.83398 6.16602 9.50098 8.49902s10.834 4 18.501 5
s17.167 1.5 28.5 1.5c12 0 21.833 -0.5 29.5 -1.5s13.667 -2.66699 18 -5s7.5 -5.16602 9.5 -8.49902s3 -7 3 -11v-222h580zM972.996 1366c4 6.66699 8.33398 12.334 13.001 17.001s10.167 8.16699 16.5 10.5s14 4 23 5s19.833 1.5 32.5 1.5s23 -1 31 -3
s13.667 -4.83301 17 -8.5s4.5 -8 3.5 -13s-3.83301 -10.5 -8.5 -16.5l-174 -234c-4.66699 -6.66699 -8.83398 -11.834 -12.501 -15.501s-7.83398 -6.5 -12.501 -8.5s-10.334 -3.33301 -17.001 -4s-15 -1 -25 -1s-18.167 0.833008 -24.5 2.5s-10.666 4 -12.999 7
s-3.16602 6.83301 -2.49902 11.5s3 10 7 16zM670.997 946.004z" />
    <glyph glyph-name="t_icircumflex.liga" unicode="t&#xee;" horiz-adv-x="1109" 
d="M903 946c15.333 0 25.6621 -3.8291 30.9951 -11.4961s8 -18.167 8 -31.5v-883c0 -4 -1 -7.66699 -3 -11s-5.16699 -6 -9.5 -8s-10.333 -3.66699 -18 -5s-17.167 -2 -28.5 -2c-12 0 -21.833 0.666992 -29.5 2s-13.667 3 -18 5s-7.5 4.66699 -9.5 8s-3 7 -3 11v825h-500
v-547c0 -68.667 9.83301 -121 29.5 -157s55.5 -54 107.5 -54c16 0 30.5 1.66699 43.5 5s24.5 7 34.5 11s18.5 7.66699 25.5 11s13.167 5 18.5 5c3.33301 0 6.33301 -0.666992 9 -2s4.83398 -3.83301 6.50098 -7.5s3 -8.33398 4 -14.001s1.5 -12.834 1.5 -21.501
c0 -14 -1.16699 -25.333 -3.5 -34s-6 -15.5 -11 -20.5s-12.333 -9.66699 -22 -14s-20.834 -8 -33.501 -11s-26 -5.33301 -40 -7s-27.667 -2.5 -41 -2.5c-44.667 0 -82.667 6 -114 18s-57 30.167 -77 54.5s-34.5 55.166 -43.5 92.499s-13.5 81.333 -13.5 132v563h-135
c-9.33301 0 -16.666 4.16699 -21.999 12.5s-8 20.833 -8 37.5c0 8.66699 0.666992 16.167 2 22.5s3.33301 11.666 6 15.999s5.83398 7.5 9.50098 9.5s7.83398 3 12.501 3h135v222c0 4 0.833008 7.66699 2.5 11s4.83398 6.16602 9.50098 8.49902s10.834 4 18.501 5
s17.167 1.5 28.5 1.5c12 0 21.833 -0.5 29.5 -1.5s13.667 -2.66699 18 -5s7.5 -5.16602 9.5 -8.49902s3 -7 3 -11v-222h580zM728.996 1122c-4 -5.33301 -7.66895 -9.66895 -11.002 -13.002s-7.33301 -6 -12 -8s-10 -3.33301 -16 -4s-13.333 -1 -22 -1
c-13.333 0 -23.666 1 -30.999 3s-12.166 5 -14.499 9s-2.33301 9.16699 0 15.5s6.83301 13.833 13.5 22.5l169 232c3.33301 4.66699 6.83301 8.33398 10.5 11.001s8.16699 4.83398 13.5 6.50098s11.833 2.83398 19.5 3.50098s17.167 1 28.5 1c10 0 18.333 -0.333008 25 -1
s12.5 -2 17.5 -4s9.16699 -4.33301 12.5 -7s6.66602 -6 9.99902 -10l169 -232c6 -8.66699 10.167 -16.167 12.5 -22.5s2.33301 -11.5 0 -15.5s-7.16602 -7 -14.499 -9s-17.333 -3 -30 -3c-10 0 -18 0.333008 -24 1s-11.167 2 -15.5 4s-8 4.66699 -11 8
s-6.5 7.66602 -10.5 12.999l-145 198zM472.994 946.001z" />
    <glyph glyph-name="t_idieresis.liga" unicode="t&#xef;" horiz-adv-x="1109" 
d="M903 946c15.333 0 25.6621 -3.8291 30.9951 -11.4961s8 -18.167 8 -31.5v-883c0 -4 -1 -7.66699 -3 -11s-5.16699 -6 -9.5 -8s-10.333 -3.66699 -18 -5s-17.167 -2 -28.5 -2c-12 0 -21.833 0.666992 -29.5 2s-13.667 3 -18 5s-7.5 4.66699 -9.5 8s-3 7 -3 11v825h-500
v-547c0 -68.667 9.83301 -121 29.5 -157s55.5 -54 107.5 -54c16 0 30.5 1.66699 43.5 5s24.5 7 34.5 11s18.5 7.66699 25.5 11s13.167 5 18.5 5c3.33301 0 6.33301 -0.666992 9 -2s4.83398 -3.83301 6.50098 -7.5s3 -8.33398 4 -14.001s1.5 -12.834 1.5 -21.501
c0 -14 -1.16699 -25.333 -3.5 -34s-6 -15.5 -11 -20.5s-12.333 -9.66699 -22 -14s-20.834 -8 -33.501 -11s-26 -5.33301 -40 -7s-27.667 -2.5 -41 -2.5c-44.667 0 -82.667 6 -114 18s-57 30.167 -77 54.5s-34.5 55.166 -43.5 92.499s-13.5 81.333 -13.5 132v563h-135
c-9.33301 0 -16.666 4.16699 -21.999 12.5s-8 20.833 -8 37.5c0 8.66699 0.666992 16.167 2 22.5s3.33301 11.666 6 15.999s5.83398 7.5 9.50098 9.5s7.83398 3 12.501 3h135v222c0 4 0.833008 7.66699 2.5 11s4.83398 6.16602 9.50098 8.49902s10.834 4 18.501 5
s17.167 1.5 28.5 1.5c12 0 21.833 -0.5 29.5 -1.5s13.667 -2.66699 18 -5s7.5 -5.16602 9.5 -8.49902s3 -7 3 -11v-222h580zM802.996 1211c0 -30 -5.50098 -50.499 -16.501 -61.499s-30.5 -16.5 -58.5 -16.5s-47.333 5.33301 -58 16s-16 31 -16 61
c0 30.667 5.5 51.5 16.5 62.5s30.167 16.5 57.5 16.5c28.667 0 48.334 -5.33301 59.001 -16s16 -31.334 16 -62.001zM1100 1211c0 -30 -5.50098 -50.499 -16.501 -61.499s-30.5 -16.5 -58.5 -16.5s-47.333 5.33301 -58 16s-16 31 -16 61c0 30.667 5.5 51.5 16.5 62.5
s30.167 16.5 57.5 16.5c28.667 0 48.334 -5.33301 59.001 -16s16 -31.334 16 -62.001zM505.994 946.006z" />
    <glyph glyph-name="t_imacron.liga" unicode="t&#x12b;" horiz-adv-x="1109" 
d="M903 946c15.333 0 25.6621 -3.8291 30.9951 -11.4961s8 -18.167 8 -31.5v-883c0 -4 -1 -7.66699 -3 -11s-5.16699 -6 -9.5 -8s-10.333 -3.66699 -18 -5s-17.167 -2 -28.5 -2c-12 0 -21.833 0.666992 -29.5 2s-13.667 3 -18 5s-7.5 4.66699 -9.5 8s-3 7 -3 11v825h-500
v-547c0 -68.667 9.83301 -121 29.5 -157s55.5 -54 107.5 -54c16 0 30.5 1.66699 43.5 5s24.5 7 34.5 11s18.5 7.66699 25.5 11s13.167 5 18.5 5c3.33301 0 6.33301 -0.666992 9 -2s4.83398 -3.83301 6.50098 -7.5s3 -8.33398 4 -14.001s1.5 -12.834 1.5 -21.501
c0 -14 -1.16699 -25.333 -3.5 -34s-6 -15.5 -11 -20.5s-12.333 -9.66699 -22 -14s-20.834 -8 -33.501 -11s-26 -5.33301 -40 -7s-27.667 -2.5 -41 -2.5c-44.667 0 -82.667 6 -114 18s-57 30.167 -77 54.5s-34.5 55.166 -43.5 92.499s-13.5 81.333 -13.5 132v563h-135
c-9.33301 0 -16.666 4.16699 -21.999 12.5s-8 20.833 -8 37.5c0 8.66699 0.666992 16.167 2 22.5s3.33301 11.666 6 15.999s5.83398 7.5 9.50098 9.5s7.83398 3 12.501 3h135v222c0 4 0.833008 7.66699 2.5 11s4.83398 6.16602 9.50098 8.49902s10.834 4 18.501 5
s17.167 1.5 28.5 1.5c12 0 21.833 -0.5 29.5 -1.5s13.667 -2.66699 18 -5s7.5 -5.16602 9.5 -8.49902s3 -7 3 -11v-222h580zM1107 1277c4 0 7.66699 -1 11 -3s6 -5 8 -9s3.66699 -9.16699 5 -15.5s2 -13.833 2 -22.5c0 -8 -0.666992 -15 -2 -21s-3 -11.167 -5 -15.5
s-4.66699 -7.66602 -8 -9.99902s-7 -3.5 -11 -3.5h-462c-4.66699 0 -8.66699 1.16699 -12 3.5s-6.16602 5.66602 -8.49902 9.99902s-4.16602 9.5 -5.49902 15.5s-2 13 -2 21c0 8.66699 0.666992 16.167 2 22.5s3.16602 11.5 5.49902 15.5s5.16602 7 8.49902 9
s7.33301 3 12 3h462zM468.996 946.004z" />
    <glyph glyph-name="t_itilde.liga" unicode="t&#x129;" horiz-adv-x="1109" 
d="M903 946c15.333 0 25.6621 -3.8291 30.9951 -11.4961s8 -18.167 8 -31.5v-883c0 -4 -1 -7.66699 -3 -11s-5.16699 -6 -9.5 -8s-10.333 -3.66699 -18 -5s-17.167 -2 -28.5 -2c-12 0 -21.833 0.666992 -29.5 2s-13.667 3 -18 5s-7.5 4.66699 -9.5 8s-3 7 -3 11v825h-500
v-547c0 -68.667 9.83301 -121 29.5 -157s55.5 -54 107.5 -54c16 0 30.5 1.66699 43.5 5s24.5 7 34.5 11s18.5 7.66699 25.5 11s13.167 5 18.5 5c3.33301 0 6.33301 -0.666992 9 -2s4.83398 -3.83301 6.50098 -7.5s3 -8.33398 4 -14.001s1.5 -12.834 1.5 -21.501
c0 -14 -1.16699 -25.333 -3.5 -34s-6 -15.5 -11 -20.5s-12.333 -9.66699 -22 -14s-20.834 -8 -33.501 -11s-26 -5.33301 -40 -7s-27.667 -2.5 -41 -2.5c-44.667 0 -82.667 6 -114 18s-57 30.167 -77 54.5s-34.5 55.166 -43.5 92.499s-13.5 81.333 -13.5 132v563h-135
c-9.33301 0 -16.666 4.16699 -21.999 12.5s-8 20.833 -8 37.5c0 8.66699 0.666992 16.167 2 22.5s3.33301 11.666 6 15.999s5.83398 7.5 9.50098 9.5s7.83398 3 12.501 3h135v222c0 4 0.833008 7.66699 2.5 11s4.83398 6.16602 9.50098 8.49902s10.834 4 18.501 5
s17.167 1.5 28.5 1.5c12 0 21.833 -0.5 29.5 -1.5s13.667 -2.66699 18 -5s7.5 -5.16602 9.5 -8.49902s3 -7 3 -11v-222h580zM1181 1302c0 -65.333 -16.5029 -115.167 -49.5029 -149.5s-76.5 -51.5 -130.5 -51.5c-24 0 -45.5 3.5 -64.5 10.5s-36.5 15.833 -52.5 26.5
s-30.833 22.167 -44.5 34.5s-27.167 23.833 -40.5 34.5s-26.666 19.5 -39.999 26.5s-27.666 10.5 -42.999 10.5c-29.333 0 -49.666 -10.833 -60.999 -32.5s-17 -49.834 -17 -84.501c0 -4.66699 -0.5 -8.66699 -1.5 -12s-3.33301 -6 -7 -8s-9 -3.5 -16 -4.5
s-16.167 -1.5 -27.5 -1.5c-8.66699 0 -16 0.666992 -22 2s-10.667 3.5 -14 6.5s-5.83301 7.33301 -7.5 13s-2.5 12.834 -2.5 21.501c0 60 15.5 108.333 46.5 145s75.167 55 132.5 55c36 0 66.833 -7.5 92.5 -22.5s49 -31.333 70 -49l60.5 -49
c19.333 -15 40.333 -22.5 63 -22.5c26 0 45.5 9.66699 58.5 29s19.5 48.666 19.5 87.999c0 9.33301 2.83301 16 8.5 20s18.167 6 37.5 6c21.333 0 35.333 -2.66699 42 -8s10 -16.666 10 -33.999zM394.993 946.003z" />
    <glyph glyph-name="t_ibreve.liga" unicode="t&#x12d;" horiz-adv-x="1109" 
d="M903 946c15.333 0 25.6621 -3.8291 30.9951 -11.4961s8 -18.167 8 -31.5v-883c0 -4 -1 -7.66699 -3 -11s-5.16699 -6 -9.5 -8s-10.333 -3.66699 -18 -5s-17.167 -2 -28.5 -2c-12 0 -21.833 0.666992 -29.5 2s-13.667 3 -18 5s-7.5 4.66699 -9.5 8s-3 7 -3 11v825h-500
v-547c0 -68.667 9.83301 -121 29.5 -157s55.5 -54 107.5 -54c16 0 30.5 1.66699 43.5 5s24.5 7 34.5 11s18.5 7.66699 25.5 11s13.167 5 18.5 5c3.33301 0 6.33301 -0.666992 9 -2s4.83398 -3.83301 6.50098 -7.5s3 -8.33398 4 -14.001s1.5 -12.834 1.5 -21.501
c0 -14 -1.16699 -25.333 -3.5 -34s-6 -15.5 -11 -20.5s-12.333 -9.66699 -22 -14s-20.834 -8 -33.501 -11s-26 -5.33301 -40 -7s-27.667 -2.5 -41 -2.5c-44.667 0 -82.667 6 -114 18s-57 30.167 -77 54.5s-34.5 55.166 -43.5 92.499s-13.5 81.333 -13.5 132v563h-135
c-9.33301 0 -16.666 4.16699 -21.999 12.5s-8 20.833 -8 37.5c0 8.66699 0.666992 16.167 2 22.5s3.33301 11.666 6 15.999s5.83398 7.5 9.50098 9.5s7.83398 3 12.501 3h135v222c0 4 0.833008 7.66699 2.5 11s4.83398 6.16602 9.50098 8.49902s10.834 4 18.501 5
s17.167 1.5 28.5 1.5c12 0 21.833 -0.5 29.5 -1.5s13.667 -2.66699 18 -5s7.5 -5.16602 9.5 -8.49902s3 -7 3 -11v-222h580zM1027 1368c0 7.33301 3.00391 13.166 9.00391 17.499s18.333 6.5 37 6.5c10 0 17.833 -0.5 23.5 -1.5s10.167 -2.5 13.5 -4.5s5.5 -4.5 6.5 -7.5
s1.5 -6.5 1.5 -10.5c0 -45.333 -5.33301 -84.666 -16 -117.999s-26.167 -61 -46.5 -83s-45.5 -38.5 -75.5 -49.5s-64 -16.5 -102 -16.5c-41.333 0 -77 6 -107 18s-54.833 29.167 -74.5 51.5s-34.167 49.833 -43.5 82.5s-14 70 -14 112c0 9.33301 3.16699 16.166 9.5 20.499
s18.166 6.5 35.499 6.5c9.33301 0 17 -0.5 23 -1.5s10.667 -2.5 14 -4.5s5.66602 -4.5 6.99902 -7.5s2 -6.5 2 -10.5c1.33301 -26 5.16602 -49.667 11.499 -71s15.5 -39.5 27.5 -54.5s27 -26.5 45 -34.5s39.333 -12 64 -12c20.667 0 39.667 3.16699 57 9.5
s32.666 16.333 45.999 30s24 31.334 32 53.001s12.667 48.167 14 79.5zM491 946.004z" />
    <glyph glyph-name="t_iogonek.liga" unicode="t&#x12f;" horiz-adv-x="1109" 
d="M901 946c16 0 26.8311 -3.83105 32.498 -11.498s8.5 -19.5 8.5 -35.5v-879c0 -8 -1.5 -17.833 -4.5 -29.5s-7.16699 -20.167 -12.5 -25.5l-81 -82c-11.333 -11.333 -20.333 -21.333 -27 -30s-11.667 -16.5 -15 -23.5s-5.5 -13.5 -6.5 -19.5s-1.5 -12 -1.5 -18
c0 -20 6.33301 -34.833 19 -44.5s32.667 -14.5 60 -14.5h121c4 0 7.5 -0.5 10.5 -1.5s5.5 -3 7.5 -6s3.5 -7.16699 4.5 -12.5s1.5 -12.333 1.5 -21c0 -7.33301 -0.5 -13.333 -1.5 -18s-2.5 -8.66699 -4.5 -12s-5 -5.83301 -9 -7.5s-9 -3.16699 -15 -4.5
c-20.667 -5.33301 -41.334 -9.16602 -62.001 -11.499s-42.667 -3.5 -66 -3.5c-28.667 0 -54.167 3.16699 -76.5 9.5s-41.333 15.5 -57 27.5s-27.5 26.833 -35.5 44.5s-12 38.167 -12 61.5c0 9.33301 0.666992 19.333 2 30s4.66602 22.334 9.99902 35.001
s13.166 26.5 23.499 41.5s24.833 31.833 43.5 50.5l65 65v845h-500v-547c0 -68.667 9.83301 -121 29.5 -157s55.5 -54 107.5 -54c16 0 30.5 1.66699 43.5 5s24.5 7 34.5 11s18.5 7.66699 25.5 11s13.167 5 18.5 5c3.33301 0 6.33301 -0.666992 9 -2
s4.83398 -3.83301 6.50098 -7.5s3 -8.33398 4 -14.001s1.5 -12.834 1.5 -21.501c0 -14 -1.16699 -25.333 -3.5 -34s-6 -15.5 -11 -20.5s-12.333 -9.66699 -22 -14s-20.834 -8 -33.501 -11s-26 -5.33301 -40 -7s-27.667 -2.5 -41 -2.5c-44.667 0 -82.667 6 -114 18
s-57 30.167 -77 54.5s-34.5 55.166 -43.5 92.499s-13.5 81.333 -13.5 132v563h-135c-9.33301 0 -16.666 4.16699 -21.999 12.5s-8 20.833 -8 37.5c0 8.66699 0.666992 16.167 2 22.5s3.33301 11.666 6 15.999s5.83398 7.5 9.50098 9.5s7.83398 3 12.501 3h135v222
c0 4 0.833008 7.66699 2.5 11s4.83398 6.16602 9.50098 8.49902s10.834 4 18.501 5s17.167 1.5 28.5 1.5c12 0 21.833 -0.5 29.5 -1.5s13.667 -2.66699 18 -5s7.5 -5.16602 9.5 -8.49902s3 -7 3 -11v-222h578zM959.998 1229c0 -15.333 -1.16699 -28.166 -3.5 -38.499
s-6.33301 -18.666 -12 -24.999s-13.5 -10.833 -23.5 -13.5s-22.667 -4 -38 -4s-28 1.33301 -38 4s-18 7.16699 -24 13.5s-10.167 14.666 -12.5 24.999s-3.5 23.166 -3.5 38.499s1.16699 28.166 3.5 38.499s6.5 18.833 12.5 25.5s14 11.334 24 14.001s22.667 4 38 4
s28 -1.33301 38 -4s17.833 -7.33398 23.5 -14.001s9.66699 -15.167 12 -25.5s3.5 -23.166 3.5 -38.499z" />
    <glyph glyph-name="t_dotlessi.liga" unicode="t&#x131;" horiz-adv-x="1109" 
d="M903 946c15.333 0 25.6621 -3.8291 30.9951 -11.4961s8 -18.167 8 -31.5v-883c0 -4 -1 -7.66699 -3 -11s-5.16699 -6 -9.5 -8s-10.333 -3.66699 -18 -5s-17.167 -2 -28.5 -2c-12 0 -21.833 0.666992 -29.5 2s-13.667 3 -18 5s-7.5 4.66699 -9.5 8s-3 7 -3 11v825h-500
v-547c0 -68.667 9.83301 -121 29.5 -157s55.5 -54 107.5 -54c16 0 30.5 1.66699 43.5 5s24.5 7 34.5 11s18.5 7.66699 25.5 11s13.167 5 18.5 5c3.33301 0 6.33301 -0.666992 9 -2s4.83398 -3.83301 6.50098 -7.5s3 -8.33398 4 -14.001s1.5 -12.834 1.5 -21.501
c0 -14 -1.16699 -25.333 -3.5 -34s-6 -15.5 -11 -20.5s-12.333 -9.66699 -22 -14s-20.834 -8 -33.501 -11s-26 -5.33301 -40 -7s-27.667 -2.5 -41 -2.5c-44.667 0 -82.667 6 -114 18s-57 30.167 -77 54.5s-34.5 55.166 -43.5 92.499s-13.5 81.333 -13.5 132v563h-135
c-9.33301 0 -16.666 4.16699 -21.999 12.5s-8 20.833 -8 37.5c0 8.66699 0.666992 16.167 2 22.5s3.33301 11.666 6 15.999s5.83398 7.5 9.50098 9.5s7.83398 3 12.501 3h135v222c0 4 0.833008 7.66699 2.5 11s4.83398 6.16602 9.50098 8.49902s10.834 4 18.501 5
s17.167 1.5 28.5 1.5c12 0 21.833 -0.5 29.5 -1.5s13.667 -2.66699 18 -5s7.5 -5.16602 9.5 -8.49902s3 -7 3 -11v-222h580z" />
    <glyph glyph-name="t_t.liga" unicode="tt" horiz-adv-x="1274" 
d="M1203 74c0 -14 -1.00781 -25.3281 -3.00781 -33.9951s-5.66699 -15.334 -11 -20.001s-12.666 -9.16699 -21.999 -13.5s-20.333 -8.16602 -33 -11.499s-26 -5.83301 -40 -7.5s-27.667 -2.5 -41 -2.5c-45.333 0 -83.666 6 -114.999 18s-56.833 30.167 -76.5 54.5
s-34 55.166 -43 92.499s-13.5 81.333 -13.5 132v563h-482v-547c0 -68.667 9.83301 -121 29.5 -157s55.5 -54 107.5 -54c16 0 30.5 1.66699 43.5 5s24.5 7 34.5 11s18.5 7.66699 25.5 11s13.167 5 18.5 5c3.33301 0 6.33301 -0.666992 9 -2s4.83398 -3.83301 6.50098 -7.5
s3 -8.33398 4 -14.001s1.5 -12.834 1.5 -21.501c0 -7.33301 -0.166992 -13.166 -0.5 -17.499s-1 -8.83301 -2 -13.5s-2.5 -9.16699 -4.5 -13.5s-5.5 -8.5 -10.5 -12.5s-12 -8 -21 -12s-19.667 -7.5 -32 -10.5s-25.5 -5.33301 -39.5 -7s-27.667 -2.5 -41 -2.5
c-44.667 0 -82.667 6 -114 18s-57 30.167 -77 54.5s-34.5 55.166 -43.5 92.499s-13.5 81.333 -13.5 132v563h-135c-9.33301 0 -16.666 4.16699 -21.999 12.5s-8 20.833 -8 37.5c0 8.66699 0.666992 16.167 2 22.5s3.33301 11.666 6 15.999s5.83398 7.5 9.50098 9.5
s7.83398 3 12.501 3h135v222c0 4 0.833008 7.66699 2.5 11s4.83398 6.16602 9.50098 8.49902s10.834 4 18.501 5s17.167 1.5 28.5 1.5c12 0 21.833 -0.5 29.5 -1.5s13.667 -2.66699 18 -5s7.5 -5.16602 9.5 -8.49902s3 -7 3 -11v-222h482v263c0 4 0.833008 7.66699 2.5 11
s4.83398 6 9.50098 8s10.834 3.66699 18.501 5s17.167 2 28.5 2s21 -0.666992 29 -2s14.167 -3 18.5 -5s7.5 -4.66699 9.5 -8s3 -7 3 -11v-263h250c4.66699 0 8.66699 -1 12 -3s6.33301 -5.16699 9 -9.5s4.66699 -9.66602 6 -15.999s2 -13.833 2 -22.5
c0 -16.667 -2.66699 -29.167 -8 -37.5s-12.333 -12.5 -21 -12.5h-250v-547c0 -68.667 9.83301 -121 29.5 -157s55.167 -54 106.5 -54c16 0 30.5 1.66699 43.5 5s24.5 7 34.5 11s18.667 7.66699 26 11s13.666 5 18.999 5c3.33301 0 6.16602 -0.666992 8.49902 -2
s4.33301 -3.83301 6 -7.5s3 -8.33398 4 -14.001s1.5 -12.834 1.5 -21.501z" />
    <glyph glyph-name="t_t_f.liga" unicode="ttf" horiz-adv-x="1832" 
d="M1856 1311c0 -9.33301 -0.504883 -16.8262 -1.50488 -22.4932s-2.33301 -10.167 -4 -13.5s-3.83398 -5.66602 -6.50098 -6.99902s-5.66699 -2 -9 -2c-5.33301 0 -11.666 1.66699 -18.999 5s-16.333 7 -27 11s-23.5 7.66699 -38.5 11s-32.5 5 -52.5 5
c-28 0 -51.667 -4.5 -71 -13.5s-34.833 -23.333 -46.5 -43s-20.167 -45 -25.5 -76s-8 -68.5 -8 -112.5v-107h222c4.66699 0 8.66699 -1 12 -3s6.33301 -5.16699 9 -9.5s4.66699 -9.66602 6 -15.999s2 -13.833 2 -22.5c0 -16.667 -2.66699 -29.167 -8 -37.5
s-12.333 -12.5 -21 -12.5h-222v-825c0 -4 -1 -7.66699 -3 -11s-5.16699 -6 -9.5 -8s-10.5 -3.66699 -18.5 -5s-17.667 -2 -29 -2s-20.833 0.666992 -28.5 2s-13.834 3 -18.501 5s-7.83398 4.66699 -9.50098 8s-2.5 7 -2.5 11v825h-504v-547
c0 -68.667 9.83301 -121 29.5 -157s55.167 -54 106.5 -54c16 0 30.5 1.66699 43.5 5s24.5 7 34.5 11s18.667 7.66699 26 11s13.666 5 18.999 5c3.33301 0 6.16602 -0.666992 8.49902 -2s4.33301 -3.83301 6 -7.5s3 -8.33398 4 -14.001s1.5 -12.834 1.5 -21.501
c0 -14 -1 -25.333 -3 -34s-5.66699 -15.5 -11 -20.5s-13 -9.66699 -23 -14s-21 -8 -33 -11s-25 -5.33301 -39 -7s-27.667 -2.5 -41 -2.5c-45.333 0 -83.666 6 -114.999 18s-56.833 30.167 -76.5 54.5s-34 55.166 -43 92.499s-13.5 81.333 -13.5 132v563h-482v-547
c0 -68.667 9.83301 -121 29.5 -157s55.5 -54 107.5 -54c16 0 30.5 1.66699 43.5 5s24.5 7 34.5 11s18.5 7.66699 25.5 11s13.167 5 18.5 5c3.33301 0 6.33301 -0.666992 9 -2s4.83398 -3.83301 6.50098 -7.5s3 -8.33398 4 -14.001s1.5 -12.834 1.5 -21.501
c0 -14 -1.16699 -25.333 -3.5 -34s-6 -15.5 -11 -20.5s-12.667 -9.66699 -23 -14s-21.5 -8 -33.5 -11s-25 -5.33301 -39 -7s-27.667 -2.5 -41 -2.5c-44.667 0 -82.667 6 -114 18s-57 30.167 -77 54.5s-34.5 55.166 -43.5 92.499s-13.5 81.333 -13.5 132v563h-135
c-9.33301 0 -16.666 4.16699 -21.999 12.5s-8 20.833 -8 37.5c0 8.66699 0.666992 16.167 2 22.5s3.33301 11.666 6 15.999s5.83398 7.5 9.50098 9.5s7.83398 3 12.501 3h135v222c0 4 0.833008 7.66699 2.5 11s4.83398 6.16602 9.50098 8.49902s10.834 4 18.501 5
s17.167 1.5 28.5 1.5c12 0 21.833 -0.5 29.5 -1.5s13.667 -2.66699 18 -5s7.5 -5.16602 9.5 -8.49902s3 -7 3 -11v-222h482v263c0 4 0.833008 7.66699 2.5 11s4.83398 6 9.50098 8s10.834 3.66699 18.501 5s17.167 2 28.5 2c12 0 21.833 -0.666992 29.5 -2s13.667 -3 18 -5
s7.5 -4.66699 9.5 -8s3 -7 3 -11v-263h504v103c0 63.333 5.66699 117.333 17 162s28.5 81 51.5 109s51.833 48.333 86.5 61s75 19 121 19c24.667 0 47.167 -2.33301 67.5 -7s35.833 -9.33398 46.5 -14.001s18 -8.83398 22 -12.501s7.16699 -8.16699 9.5 -13.5
s4 -11.5 5 -18.5s1.5 -14.833 1.5 -23.5z" />
    <glyph glyph-name="t_t_i.liga" unicode="tti" horiz-adv-x="1709" 
d="M323 845l-0.00585938 -546.993c0 -68.667 9.83301 -121 29.5 -157s55.5 -54 107.5 -54c16 0 30.5 1.66699 43.5 5s24.5 7 34.5 11s18.5 7.66699 25.5 11s13.167 5 18.5 5c3.33301 0 6.33301 -0.666992 9 -2s4.83398 -3.83301 6.50098 -7.5s3 -8.33398 4 -14.001
s1.5 -12.834 1.5 -21.501c0 -14 -1.16699 -25.333 -3.5 -34s-6 -15.5 -11 -20.5s-12.333 -9.66699 -22 -14s-20.834 -8 -33.501 -11s-26 -5.33301 -40 -7s-27.667 -2.5 -41 -2.5c-44.667 0 -82.667 6 -114 18s-57 30.167 -77 54.5s-34.5 55.166 -43.5 92.499
s-13.5 81.333 -13.5 132v563h-135c-9.33301 0 -16.666 4.16699 -21.999 12.5s-8 20.833 -8 37.5c0 8.66699 0.666992 16.167 2 22.5s3.33301 11.666 6 15.999s5.83398 7.5 9.50098 9.5s7.83398 3 12.501 3h135v222c0 4 0.833008 7.66699 2.5 11
s4.83398 6.16602 9.50098 8.49902s10.834 4 18.501 5s17.167 1.5 28.5 1.5c12 0 21.833 -0.5 29.5 -1.5s13.667 -2.66699 18 -5s7.5 -5.16602 9.5 -8.49902s3 -7 3 -11v-222h482v263c0 4 0.833008 7.66699 2.5 11s4.83398 6 9.50098 8s10.834 3.66699 18.501 5
s17.167 2 28.5 2c12 0 21.833 -0.666992 29.5 -2s13.667 -3 18 -5s7.5 -4.66699 9.5 -8s3 -7 3 -11v-263h580c14.667 0 24.834 -3.83301 30.501 -11.5s8.5 -18.167 8.5 -31.5v-883c0 -4 -1 -7.66699 -3 -11s-5.16699 -6 -9.5 -8s-10.333 -3.66699 -18 -5s-17.5 -2 -29.5 -2
c-11.333 0 -20.833 0.666992 -28.5 2s-13.834 3 -18.501 5s-7.83398 4.66699 -9.50098 8s-2.5 7 -2.5 11v825h-500v-547c0 -68.667 9.83301 -121 29.5 -157s55.167 -54 106.5 -54c16 0 30.5 1.66699 43.5 5s24.5 7 34.5 11s18.667 7.66699 26 11s13.666 5 18.999 5
c3.33301 0 6.16602 -0.666992 8.49902 -2s4.33301 -3.83301 6 -7.5s3 -8.33398 4 -14.001s1.5 -12.834 1.5 -21.501c0 -14 -1 -25.333 -3 -34s-5.66699 -15.5 -11 -20.5s-12.666 -9.66699 -21.999 -14s-20.333 -8 -33 -11s-26 -5.33301 -40 -7s-27.667 -2.5 -41 -2.5
c-45.333 0 -83.666 6 -114.999 18s-56.833 30.167 -76.5 54.5s-34 55.166 -43 92.499s-13.5 81.333 -13.5 132v563h-482zM1560.99 1230.01c0 -32 -5.66699 -53.667 -17 -65s-32 -17 -62 -17c-29.333 0 -49.5 5.5 -60.5 16.5s-16.5 32.5 -16.5 64.5s5.66699 53.667 17 65
s32 17 62 17c29.333 0 49.5 -5.5 60.5 -16.5s16.5 -32.5 16.5 -64.5zM1256.99 946.007z" />
    <glyph glyph-name="t_t_igrave.liga" unicode="tt&#xec;" horiz-adv-x="1709" 
d="M323 845l-0.00585938 -546.993c0 -68.667 9.83301 -121 29.5 -157s55.5 -54 107.5 -54c16 0 30.5 1.66699 43.5 5s24.5 7 34.5 11s18.5 7.66699 25.5 11s13.167 5 18.5 5c3.33301 0 6.33301 -0.666992 9 -2s4.83398 -3.83301 6.50098 -7.5s3 -8.33398 4 -14.001
s1.5 -12.834 1.5 -21.501c0 -14 -1.16699 -25.333 -3.5 -34s-6 -15.5 -11 -20.5s-12.333 -9.66699 -22 -14s-20.834 -8 -33.501 -11s-26 -5.33301 -40 -7s-27.667 -2.5 -41 -2.5c-44.667 0 -82.667 6 -114 18s-57 30.167 -77 54.5s-34.5 55.166 -43.5 92.499
s-13.5 81.333 -13.5 132v563h-135c-9.33301 0 -16.666 4.16699 -21.999 12.5s-8 20.833 -8 37.5c0 8.66699 0.666992 16.167 2 22.5s3.33301 11.666 6 15.999s5.83398 7.5 9.50098 9.5s7.83398 3 12.501 3h135v222c0 4 0.833008 7.66699 2.5 11
s4.83398 6.16602 9.50098 8.49902s10.834 4 18.501 5s17.167 1.5 28.5 1.5c12 0 21.833 -0.5 29.5 -1.5s13.667 -2.66699 18 -5s7.5 -5.16602 9.5 -8.49902s3 -7 3 -11v-222h482v263c0 4 0.833008 7.66699 2.5 11s4.83398 6 9.50098 8s10.834 3.66699 18.501 5
s17.167 2 28.5 2c12 0 21.833 -0.666992 29.5 -2s13.667 -3 18 -5s7.5 -4.66699 9.5 -8s3 -7 3 -11v-263h580c14.667 0 24.834 -3.83301 30.501 -11.5s8.5 -18.167 8.5 -31.5v-883c0 -4 -1 -7.66699 -3 -11s-5.16699 -6 -9.5 -8s-10.333 -3.66699 -18 -5s-17.5 -2 -29.5 -2
c-11.333 0 -20.833 0.666992 -28.5 2s-13.834 3 -18.501 5s-7.83398 4.66699 -9.50098 8s-2.5 7 -2.5 11v825h-500v-547c0 -68.667 9.83301 -121 29.5 -157s55.167 -54 106.5 -54c16 0 30.5 1.66699 43.5 5s24.5 7 34.5 11s18.667 7.66699 26 11s13.666 5 18.999 5
c3.33301 0 6.16602 -0.666992 8.49902 -2s4.33301 -3.83301 6 -7.5s3 -8.33398 4 -14.001s1.5 -12.834 1.5 -21.501c0 -14 -1 -25.333 -3 -34s-5.66699 -15.5 -11 -20.5s-12.666 -9.66699 -21.999 -14s-20.333 -8 -33 -11s-26 -5.33301 -40 -7s-27.667 -2.5 -41 -2.5
c-45.333 0 -83.666 6 -114.999 18s-56.833 30.167 -76.5 54.5s-34 55.166 -43 92.499s-13.5 81.333 -13.5 132v563h-482zM1519.99 1133.01c4 -6 6.5 -11.333 7.5 -16s0.333008 -8.5 -2 -11.5s-6.5 -5.33301 -12.5 -7s-14 -2.5 -24 -2.5s-18.333 0.333008 -25 1
s-12.5 2 -17.5 4s-9.5 4.83301 -13.5 8.5s-8.33301 8.83398 -13 15.501l-174 234c-4.66699 6 -7.33398 11.5 -8.00098 16.5s0.666016 9.33301 3.99902 13s9 6.5 17 8.5s18.333 3 31 3s23.334 -0.5 32.001 -1.5s16 -2.66699 22 -5s11.333 -5.83301 16 -10.5
s9.33398 -10.334 14.001 -17.001zM1089.99 946.007z" />
    <glyph glyph-name="t_t_iacute.liga" unicode="tt&#xed;" horiz-adv-x="1709" 
d="M323 845l-0.00585938 -546.993c0 -68.667 9.83301 -121 29.5 -157s55.5 -54 107.5 -54c16 0 30.5 1.66699 43.5 5s24.5 7 34.5 11s18.5 7.66699 25.5 11s13.167 5 18.5 5c3.33301 0 6.33301 -0.666992 9 -2s4.83398 -3.83301 6.50098 -7.5s3 -8.33398 4 -14.001
s1.5 -12.834 1.5 -21.501c0 -14 -1.16699 -25.333 -3.5 -34s-6 -15.5 -11 -20.5s-12.333 -9.66699 -22 -14s-20.834 -8 -33.501 -11s-26 -5.33301 -40 -7s-27.667 -2.5 -41 -2.5c-44.667 0 -82.667 6 -114 18s-57 30.167 -77 54.5s-34.5 55.166 -43.5 92.499
s-13.5 81.333 -13.5 132v563h-135c-9.33301 0 -16.666 4.16699 -21.999 12.5s-8 20.833 -8 37.5c0 8.66699 0.666992 16.167 2 22.5s3.33301 11.666 6 15.999s5.83398 7.5 9.50098 9.5s7.83398 3 12.501 3h135v222c0 4 0.833008 7.66699 2.5 11
s4.83398 6.16602 9.50098 8.49902s10.834 4 18.501 5s17.167 1.5 28.5 1.5c12 0 21.833 -0.5 29.5 -1.5s13.667 -2.66699 18 -5s7.5 -5.16602 9.5 -8.49902s3 -7 3 -11v-222h482v263c0 4 0.833008 7.66699 2.5 11s4.83398 6 9.50098 8s10.834 3.66699 18.501 5
s17.167 2 28.5 2c12 0 21.833 -0.666992 29.5 -2s13.667 -3 18 -5s7.5 -4.66699 9.5 -8s3 -7 3 -11v-263h580c14.667 0 24.834 -3.83301 30.501 -11.5s8.5 -18.167 8.5 -31.5v-883c0 -4 -1 -7.66699 -3 -11s-5.16699 -6 -9.5 -8s-10.333 -3.66699 -18 -5s-17.5 -2 -29.5 -2
c-11.333 0 -20.833 0.666992 -28.5 2s-13.834 3 -18.501 5s-7.83398 4.66699 -9.50098 8s-2.5 7 -2.5 11v825h-500v-547c0 -68.667 9.83301 -121 29.5 -157s55.167 -54 106.5 -54c16 0 30.5 1.66699 43.5 5s24.5 7 34.5 11s18.667 7.66699 26 11s13.666 5 18.999 5
c3.33301 0 6.16602 -0.666992 8.49902 -2s4.33301 -3.83301 6 -7.5s3 -8.33398 4 -14.001s1.5 -12.834 1.5 -21.501c0 -14 -1 -25.333 -3 -34s-5.66699 -15.5 -11 -20.5s-12.666 -9.66699 -21.999 -14s-20.333 -8 -33 -11s-26 -5.33301 -40 -7s-27.667 -2.5 -41 -2.5
c-45.333 0 -83.666 6 -114.999 18s-56.833 30.167 -76.5 54.5s-34 55.166 -43 92.499s-13.5 81.333 -13.5 132v563h-482zM1573.99 1366.01c4 6.66699 8.33398 12.334 13.001 17.001s10.167 8.16699 16.5 10.5s14 4 23 5s19.833 1.5 32.5 1.5s23 -1 31 -3
s13.667 -4.83301 17 -8.5s4.5 -8 3.5 -13s-3.83301 -10.5 -8.5 -16.5l-174 -234c-4.66699 -6.66699 -8.83398 -11.834 -12.501 -15.501s-7.83398 -6.5 -12.501 -8.5s-10.334 -3.33301 -17.001 -4s-15 -1 -25 -1s-18.167 0.833008 -24.5 2.5s-10.666 4 -12.999 7
s-3.16602 6.83301 -2.49902 11.5s3 10 7 16zM1272 946.007z" />
    <glyph glyph-name="t_t_icircumflex.liga" unicode="tt&#xee;" horiz-adv-x="1709" 
d="M323 845l-0.00585938 -546.993c0 -68.667 9.83301 -121 29.5 -157s55.5 -54 107.5 -54c16 0 30.5 1.66699 43.5 5s24.5 7 34.5 11s18.5 7.66699 25.5 11s13.167 5 18.5 5c3.33301 0 6.33301 -0.666992 9 -2s4.83398 -3.83301 6.50098 -7.5s3 -8.33398 4 -14.001
s1.5 -12.834 1.5 -21.501c0 -14 -1.16699 -25.333 -3.5 -34s-6 -15.5 -11 -20.5s-12.333 -9.66699 -22 -14s-20.834 -8 -33.501 -11s-26 -5.33301 -40 -7s-27.667 -2.5 -41 -2.5c-44.667 0 -82.667 6 -114 18s-57 30.167 -77 54.5s-34.5 55.166 -43.5 92.499
s-13.5 81.333 -13.5 132v563h-135c-9.33301 0 -16.666 4.16699 -21.999 12.5s-8 20.833 -8 37.5c0 8.66699 0.666992 16.167 2 22.5s3.33301 11.666 6 15.999s5.83398 7.5 9.50098 9.5s7.83398 3 12.501 3h135v222c0 4 0.833008 7.66699 2.5 11
s4.83398 6.16602 9.50098 8.49902s10.834 4 18.501 5s17.167 1.5 28.5 1.5c12 0 21.833 -0.5 29.5 -1.5s13.667 -2.66699 18 -5s7.5 -5.16602 9.5 -8.49902s3 -7 3 -11v-222h482v263c0 4 0.833008 7.66699 2.5 11s4.83398 6 9.50098 8s10.834 3.66699 18.501 5
s17.167 2 28.5 2c12 0 21.833 -0.666992 29.5 -2s13.667 -3 18 -5s7.5 -4.66699 9.5 -8s3 -7 3 -11v-263h580c14.667 0 24.834 -3.83301 30.501 -11.5s8.5 -18.167 8.5 -31.5v-883c0 -4 -1 -7.66699 -3 -11s-5.16699 -6 -9.5 -8s-10.333 -3.66699 -18 -5s-17.5 -2 -29.5 -2
c-11.333 0 -20.833 0.666992 -28.5 2s-13.834 3 -18.501 5s-7.83398 4.66699 -9.50098 8s-2.5 7 -2.5 11v825h-500v-547c0 -68.667 9.83301 -121 29.5 -157s55.167 -54 106.5 -54c16 0 30.5 1.66699 43.5 5s24.5 7 34.5 11s18.667 7.66699 26 11s13.666 5 18.999 5
c3.33301 0 6.16602 -0.666992 8.49902 -2s4.33301 -3.83301 6 -7.5s3 -8.33398 4 -14.001s1.5 -12.834 1.5 -21.501c0 -14 -1 -25.333 -3 -34s-5.66699 -15.5 -11 -20.5s-12.666 -9.66699 -21.999 -14s-20.333 -8 -33 -11s-26 -5.33301 -40 -7s-27.667 -2.5 -41 -2.5
c-45.333 0 -83.666 6 -114.999 18s-56.833 30.167 -76.5 54.5s-34 55.166 -43 92.499s-13.5 81.333 -13.5 132v563h-482zM1328.99 1122.01c-4 -5.33301 -7.66895 -9.66895 -11.002 -13.002s-7.33301 -6 -12 -8s-10 -3.33301 -16 -4s-13.333 -1 -22 -1
c-13.333 0 -23.666 1 -30.999 3s-12.166 5 -14.499 9s-2.33301 9.16699 0 15.5s6.83301 13.833 13.5 22.5l169 232c3.33301 4.66699 6.83301 8.33398 10.5 11.001s8.16699 4.83398 13.5 6.50098s11.833 2.83398 19.5 3.50098s17.167 1 28.5 1c10 0 18.333 -0.333008 25 -1
s12.5 -2 17.5 -4s9.16699 -4.33301 12.5 -7s6.66602 -6 9.99902 -10l169 -232c6 -8.66699 10.167 -16.167 12.5 -22.5s2.33301 -11.5 0 -15.5s-7.16602 -7 -14.499 -9s-17.333 -3 -30 -3c-10 0 -18 0.333008 -24 1s-11.167 2 -15.5 4s-8 4.66699 -11 8
s-6.5 7.66602 -10.5 12.999l-145 198zM1072.99 946.004z" />
    <glyph glyph-name="t_t_idieresis.liga" unicode="tt&#xef;" horiz-adv-x="1709" 
d="M323 845l-0.00585938 -546.993c0 -68.667 9.83301 -121 29.5 -157s55.5 -54 107.5 -54c16 0 30.5 1.66699 43.5 5s24.5 7 34.5 11s18.5 7.66699 25.5 11s13.167 5 18.5 5c3.33301 0 6.33301 -0.666992 9 -2s4.83398 -3.83301 6.50098 -7.5s3 -8.33398 4 -14.001
s1.5 -12.834 1.5 -21.501c0 -14 -1.16699 -25.333 -3.5 -34s-6 -15.5 -11 -20.5s-12.333 -9.66699 -22 -14s-20.834 -8 -33.501 -11s-26 -5.33301 -40 -7s-27.667 -2.5 -41 -2.5c-44.667 0 -82.667 6 -114 18s-57 30.167 -77 54.5s-34.5 55.166 -43.5 92.499
s-13.5 81.333 -13.5 132v563h-135c-9.33301 0 -16.666 4.16699 -21.999 12.5s-8 20.833 -8 37.5c0 8.66699 0.666992 16.167 2 22.5s3.33301 11.666 6 15.999s5.83398 7.5 9.50098 9.5s7.83398 3 12.501 3h135v222c0 4 0.833008 7.66699 2.5 11
s4.83398 6.16602 9.50098 8.49902s10.834 4 18.501 5s17.167 1.5 28.5 1.5c12 0 21.833 -0.5 29.5 -1.5s13.667 -2.66699 18 -5s7.5 -5.16602 9.5 -8.49902s3 -7 3 -11v-222h482v263c0 4 0.833008 7.66699 2.5 11s4.83398 6 9.50098 8s10.834 3.66699 18.501 5
s17.167 2 28.5 2c12 0 21.833 -0.666992 29.5 -2s13.667 -3 18 -5s7.5 -4.66699 9.5 -8s3 -7 3 -11v-263h580c14.667 0 24.834 -3.83301 30.501 -11.5s8.5 -18.167 8.5 -31.5v-883c0 -4 -1 -7.66699 -3 -11s-5.16699 -6 -9.5 -8s-10.333 -3.66699 -18 -5s-17.5 -2 -29.5 -2
c-11.333 0 -20.833 0.666992 -28.5 2s-13.834 3 -18.501 5s-7.83398 4.66699 -9.50098 8s-2.5 7 -2.5 11v825h-500v-547c0 -68.667 9.83301 -121 29.5 -157s55.167 -54 106.5 -54c16 0 30.5 1.66699 43.5 5s24.5 7 34.5 11s18.667 7.66699 26 11s13.666 5 18.999 5
c3.33301 0 6.16602 -0.666992 8.49902 -2s4.33301 -3.83301 6 -7.5s3 -8.33398 4 -14.001s1.5 -12.834 1.5 -21.501c0 -14 -1 -25.333 -3 -34s-5.66699 -15.5 -11 -20.5s-12.666 -9.66699 -21.999 -14s-20.333 -8 -33 -11s-26 -5.33301 -40 -7s-27.667 -2.5 -41 -2.5
c-45.333 0 -83.666 6 -114.999 18s-56.833 30.167 -76.5 54.5s-34 55.166 -43 92.499s-13.5 81.333 -13.5 132v563h-482zM1403.99 1211.01c0 -30 -5.50098 -50.499 -16.501 -61.499s-30.5 -16.5 -58.5 -16.5s-47.333 5.33301 -58 16s-16 31 -16 61
c0 30.667 5.5 51.5 16.5 62.5s30.167 16.5 57.5 16.5c28.667 0 48.334 -5.33301 59.001 -16s16 -31.334 16 -62.001zM1700.99 1211.01c0 -30 -5.50098 -50.499 -16.501 -61.499s-30.5 -16.5 -58.5 -16.5s-47.333 5.33301 -58 16s-16 31 -16 61c0 30.667 5.5 51.5 16.5 62.5
s30.167 16.5 57.5 16.5c28.667 0 48.334 -5.33301 59.001 -16s16 -31.334 16 -62.001zM1106.99 946.009z" />
    <glyph glyph-name="t_t_imacron.liga" unicode="tt&#x12b;" horiz-adv-x="1709" 
d="M323 845l-0.00585938 -546.993c0 -68.667 9.83301 -121 29.5 -157s55.5 -54 107.5 -54c16 0 30.5 1.66699 43.5 5s24.5 7 34.5 11s18.5 7.66699 25.5 11s13.167 5 18.5 5c3.33301 0 6.33301 -0.666992 9 -2s4.83398 -3.83301 6.50098 -7.5s3 -8.33398 4 -14.001
s1.5 -12.834 1.5 -21.501c0 -14 -1.16699 -25.333 -3.5 -34s-6 -15.5 -11 -20.5s-12.333 -9.66699 -22 -14s-20.834 -8 -33.501 -11s-26 -5.33301 -40 -7s-27.667 -2.5 -41 -2.5c-44.667 0 -82.667 6 -114 18s-57 30.167 -77 54.5s-34.5 55.166 -43.5 92.499
s-13.5 81.333 -13.5 132v563h-135c-9.33301 0 -16.666 4.16699 -21.999 12.5s-8 20.833 -8 37.5c0 8.66699 0.666992 16.167 2 22.5s3.33301 11.666 6 15.999s5.83398 7.5 9.50098 9.5s7.83398 3 12.501 3h135v222c0 4 0.833008 7.66699 2.5 11
s4.83398 6.16602 9.50098 8.49902s10.834 4 18.501 5s17.167 1.5 28.5 1.5c12 0 21.833 -0.5 29.5 -1.5s13.667 -2.66699 18 -5s7.5 -5.16602 9.5 -8.49902s3 -7 3 -11v-222h482v263c0 4 0.833008 7.66699 2.5 11s4.83398 6 9.50098 8s10.834 3.66699 18.501 5
s17.167 2 28.5 2c12 0 21.833 -0.666992 29.5 -2s13.667 -3 18 -5s7.5 -4.66699 9.5 -8s3 -7 3 -11v-263h580c14.667 0 24.834 -3.83301 30.501 -11.5s8.5 -18.167 8.5 -31.5v-883c0 -4 -1 -7.66699 -3 -11s-5.16699 -6 -9.5 -8s-10.333 -3.66699 -18 -5s-17.5 -2 -29.5 -2
c-11.333 0 -20.833 0.666992 -28.5 2s-13.834 3 -18.501 5s-7.83398 4.66699 -9.50098 8s-2.5 7 -2.5 11v825h-500v-547c0 -68.667 9.83301 -121 29.5 -157s55.167 -54 106.5 -54c16 0 30.5 1.66699 43.5 5s24.5 7 34.5 11s18.667 7.66699 26 11s13.666 5 18.999 5
c3.33301 0 6.16602 -0.666992 8.49902 -2s4.33301 -3.83301 6 -7.5s3 -8.33398 4 -14.001s1.5 -12.834 1.5 -21.501c0 -14 -1 -25.333 -3 -34s-5.66699 -15.5 -11 -20.5s-12.666 -9.66699 -21.999 -14s-20.333 -8 -33 -11s-26 -5.33301 -40 -7s-27.667 -2.5 -41 -2.5
c-45.333 0 -83.666 6 -114.999 18s-56.833 30.167 -76.5 54.5s-34 55.166 -43 92.499s-13.5 81.333 -13.5 132v563h-482zM1707.99 1277.01c4 0 7.66699 -1 11 -3s6 -5 8 -9s3.66699 -9.16699 5 -15.5s2 -13.833 2 -22.5c0 -8 -0.666992 -15 -2 -21s-3 -11.167 -5 -15.5
s-4.66699 -7.66602 -8 -9.99902s-7 -3.5 -11 -3.5h-462c-4.66699 0 -8.66699 1.16699 -12 3.5s-6.16602 5.66602 -8.49902 9.99902s-4.16602 9.5 -5.49902 15.5s-2 13 -2 21c0 8.66699 0.666992 16.167 2 22.5s3.16602 11.5 5.49902 15.5s5.16602 7 8.49902 9
s7.33301 3 12 3h462zM1069.99 946.007z" />
    <glyph glyph-name="t_t_itilde.liga" unicode="tt&#x129;" horiz-adv-x="1709" 
d="M323 845l-0.00585938 -546.993c0 -68.667 9.83301 -121 29.5 -157s55.5 -54 107.5 -54c16 0 30.5 1.66699 43.5 5s24.5 7 34.5 11s18.5 7.66699 25.5 11s13.167 5 18.5 5c3.33301 0 6.33301 -0.666992 9 -2s4.83398 -3.83301 6.50098 -7.5s3 -8.33398 4 -14.001
s1.5 -12.834 1.5 -21.501c0 -14 -1.16699 -25.333 -3.5 -34s-6 -15.5 -11 -20.5s-12.333 -9.66699 -22 -14s-20.834 -8 -33.501 -11s-26 -5.33301 -40 -7s-27.667 -2.5 -41 -2.5c-44.667 0 -82.667 6 -114 18s-57 30.167 -77 54.5s-34.5 55.166 -43.5 92.499
s-13.5 81.333 -13.5 132v563h-135c-9.33301 0 -16.666 4.16699 -21.999 12.5s-8 20.833 -8 37.5c0 8.66699 0.666992 16.167 2 22.5s3.33301 11.666 6 15.999s5.83398 7.5 9.50098 9.5s7.83398 3 12.501 3h135v222c0 4 0.833008 7.66699 2.5 11
s4.83398 6.16602 9.50098 8.49902s10.834 4 18.501 5s17.167 1.5 28.5 1.5c12 0 21.833 -0.5 29.5 -1.5s13.667 -2.66699 18 -5s7.5 -5.16602 9.5 -8.49902s3 -7 3 -11v-222h482v263c0 4 0.833008 7.66699 2.5 11s4.83398 6 9.50098 8s10.834 3.66699 18.501 5
s17.167 2 28.5 2c12 0 21.833 -0.666992 29.5 -2s13.667 -3 18 -5s7.5 -4.66699 9.5 -8s3 -7 3 -11v-263h580c14.667 0 24.834 -3.83301 30.501 -11.5s8.5 -18.167 8.5 -31.5v-883c0 -4 -1 -7.66699 -3 -11s-5.16699 -6 -9.5 -8s-10.333 -3.66699 -18 -5s-17.5 -2 -29.5 -2
c-11.333 0 -20.833 0.666992 -28.5 2s-13.834 3 -18.501 5s-7.83398 4.66699 -9.50098 8s-2.5 7 -2.5 11v825h-500v-547c0 -68.667 9.83301 -121 29.5 -157s55.167 -54 106.5 -54c16 0 30.5 1.66699 43.5 5s24.5 7 34.5 11s18.667 7.66699 26 11s13.666 5 18.999 5
c3.33301 0 6.16602 -0.666992 8.49902 -2s4.33301 -3.83301 6 -7.5s3 -8.33398 4 -14.001s1.5 -12.834 1.5 -21.501c0 -14 -1 -25.333 -3 -34s-5.66699 -15.5 -11 -20.5s-12.666 -9.66699 -21.999 -14s-20.333 -8 -33 -11s-26 -5.33301 -40 -7s-27.667 -2.5 -41 -2.5
c-45.333 0 -83.666 6 -114.999 18s-56.833 30.167 -76.5 54.5s-34 55.166 -43 92.499s-13.5 81.333 -13.5 132v563h-482zM1781.99 1302.01c0 -65.333 -16.5029 -115.167 -49.5029 -149.5s-76.5 -51.5 -130.5 -51.5c-24 0 -45.5 3.5 -64.5 10.5s-36.5 15.833 -52.5 26.5
s-30.833 22.167 -44.5 34.5s-27.167 23.833 -40.5 34.5s-26.666 19.5 -39.999 26.5s-27.666 10.5 -42.999 10.5c-29.333 0 -49.666 -10.833 -60.999 -32.5s-17 -49.834 -17 -84.501c0 -4.66699 -0.5 -8.66699 -1.5 -12s-3.33301 -6 -7 -8s-9 -3.5 -16 -4.5
s-16.167 -1.5 -27.5 -1.5c-8.66699 0 -16 0.666992 -22 2s-10.667 3.5 -14 6.5s-5.83301 7.33301 -7.5 13s-2.5 12.834 -2.5 21.501c0 60 15.5 108.333 46.5 145s75.167 55 132.5 55c36 0 66.833 -7.5 92.5 -22.5s49 -31.333 70 -49l60.5 -49
c19.333 -15 40.333 -22.5 63 -22.5c26 0 45.5 9.66699 58.5 29s19.5 48.666 19.5 87.999c0 9.33301 2.83301 16 8.5 20s18.167 6 37.5 6c21.333 0 35.333 -2.66699 42 -8s10 -16.666 10 -33.999zM995.991 946.006z" />
    <glyph glyph-name="t_t_ibreve.liga" unicode="tt&#x12d;" horiz-adv-x="1709" 
d="M323 845l-0.00585938 -546.993c0 -68.667 9.83301 -121 29.5 -157s55.5 -54 107.5 -54c16 0 30.5 1.66699 43.5 5s24.5 7 34.5 11s18.5 7.66699 25.5 11s13.167 5 18.5 5c3.33301 0 6.33301 -0.666992 9 -2s4.83398 -3.83301 6.50098 -7.5s3 -8.33398 4 -14.001
s1.5 -12.834 1.5 -21.501c0 -14 -1.16699 -25.333 -3.5 -34s-6 -15.5 -11 -20.5s-12.333 -9.66699 -22 -14s-20.834 -8 -33.501 -11s-26 -5.33301 -40 -7s-27.667 -2.5 -41 -2.5c-44.667 0 -82.667 6 -114 18s-57 30.167 -77 54.5s-34.5 55.166 -43.5 92.499
s-13.5 81.333 -13.5 132v563h-135c-9.33301 0 -16.666 4.16699 -21.999 12.5s-8 20.833 -8 37.5c0 8.66699 0.666992 16.167 2 22.5s3.33301 11.666 6 15.999s5.83398 7.5 9.50098 9.5s7.83398 3 12.501 3h135v222c0 4 0.833008 7.66699 2.5 11
s4.83398 6.16602 9.50098 8.49902s10.834 4 18.501 5s17.167 1.5 28.5 1.5c12 0 21.833 -0.5 29.5 -1.5s13.667 -2.66699 18 -5s7.5 -5.16602 9.5 -8.49902s3 -7 3 -11v-222h482v263c0 4 0.833008 7.66699 2.5 11s4.83398 6 9.50098 8s10.834 3.66699 18.501 5
s17.167 2 28.5 2c12 0 21.833 -0.666992 29.5 -2s13.667 -3 18 -5s7.5 -4.66699 9.5 -8s3 -7 3 -11v-263h580c14.667 0 24.834 -3.83301 30.501 -11.5s8.5 -18.167 8.5 -31.5v-883c0 -4 -1 -7.66699 -3 -11s-5.16699 -6 -9.5 -8s-10.333 -3.66699 -18 -5s-17.5 -2 -29.5 -2
c-11.333 0 -20.833 0.666992 -28.5 2s-13.834 3 -18.501 5s-7.83398 4.66699 -9.50098 8s-2.5 7 -2.5 11v825h-500v-547c0 -68.667 9.83301 -121 29.5 -157s55.167 -54 106.5 -54c16 0 30.5 1.66699 43.5 5s24.5 7 34.5 11s18.667 7.66699 26 11s13.666 5 18.999 5
c3.33301 0 6.16602 -0.666992 8.49902 -2s4.33301 -3.83301 6 -7.5s3 -8.33398 4 -14.001s1.5 -12.834 1.5 -21.501c0 -14 -1 -25.333 -3 -34s-5.66699 -15.5 -11 -20.5s-12.666 -9.66699 -21.999 -14s-20.333 -8 -33 -11s-26 -5.33301 -40 -7s-27.667 -2.5 -41 -2.5
c-45.333 0 -83.666 6 -114.999 18s-56.833 30.167 -76.5 54.5s-34 55.166 -43 92.499s-13.5 81.333 -13.5 132v563h-482zM1627.99 1368.01c0 7.33301 3.00391 13.166 9.00391 17.499s18.333 6.5 37 6.5c10 0 17.833 -0.5 23.5 -1.5s10.167 -2.5 13.5 -4.5s5.5 -4.5 6.5 -7.5
s1.5 -6.5 1.5 -10.5c0 -45.333 -5.33301 -84.666 -16 -117.999s-26.167 -61 -46.5 -83s-45.5 -38.5 -75.5 -49.5s-64 -16.5 -102 -16.5c-41.333 0 -77 6 -107 18s-54.833 29.167 -74.5 51.5s-34.167 49.833 -43.5 82.5s-14 70 -14 112c0 9.33301 3.16699 16.166 9.5 20.499
s18.166 6.5 35.499 6.5c9.33301 0 17 -0.5 23 -1.5s10.667 -2.5 14 -4.5s5.66602 -4.5 6.99902 -7.5s2 -6.5 2 -10.5c1.33301 -26 5.16602 -49.667 11.499 -71s15.5 -39.5 27.5 -54.5s27 -26.5 45 -34.5s39.333 -12 64 -12c20.667 0 39.667 3.16699 57 9.5
s32.666 16.333 45.999 30s24 31.334 32 53.001s12.667 48.167 14 79.5zM1092 946.007z" />
    <glyph glyph-name="t_t_iogonek.liga" unicode="tt&#x12f;" horiz-adv-x="1709" 
d="M1619 -308c0 -7.33301 -0.506836 -13.3281 -1.50684 -17.9951s-2.5 -8.66699 -4.5 -12s-5 -5.83301 -9 -7.5s-9 -3.16699 -15 -4.5c-20.667 -5.33301 -41.334 -9.16602 -62.001 -11.499s-42.667 -3.5 -66 -3.5c-28.667 0 -54.334 3.16699 -77.001 9.5
s-41.667 15.5 -57 27.5s-27.166 26.833 -35.499 44.5s-12.5 38.167 -12.5 61.5c0 9.33301 0.666992 19.333 2 30s4.66602 22.334 9.99902 35.001s13.333 26.5 24 41.5s25.334 31.833 44.001 50.5l65 65v845h-500v-547c0 -68.667 9.83301 -121 29.5 -157
s55.167 -54 106.5 -54c16 0 30.5 1.66699 43.5 5s24.5 7 34.5 11s18.667 7.66699 26 11s13.666 5 18.999 5c3.33301 0 6.16602 -0.666992 8.49902 -2s4.33301 -3.83301 6 -7.5s3 -8.33398 4 -14.001s1.5 -12.834 1.5 -21.501c0 -14 -1 -25.333 -3 -34
s-5.66699 -15.5 -11 -20.5s-12.666 -9.66699 -21.999 -14s-20.333 -8 -33 -11s-26 -5.33301 -40 -7s-27.667 -2.5 -41 -2.5c-45.333 0 -83.666 6 -114.999 18s-56.833 30.167 -76.5 54.5s-34 55.166 -43 92.499s-13.5 81.333 -13.5 132v563h-482v-547
c0 -68.667 9.83301 -121 29.5 -157s55.5 -54 107.5 -54c16 0 30.5 1.66699 43.5 5s24.5 7 34.5 11s18.5 7.66699 25.5 11s13.167 5 18.5 5c3.33301 0 6.33301 -0.666992 9 -2s4.83398 -3.83301 6.50098 -7.5s3 -8.33398 4 -14.001s1.5 -12.834 1.5 -21.501
c0 -14 -1.16699 -25.333 -3.5 -34s-6 -15.5 -11 -20.5s-12.333 -9.66699 -22 -14s-20.834 -8 -33.501 -11s-26 -5.33301 -40 -7s-27.667 -2.5 -41 -2.5c-44.667 0 -82.667 6 -114 18s-57 30.167 -77 54.5s-34.5 55.166 -43.5 92.499s-13.5 81.333 -13.5 132v563h-135
c-9.33301 0 -16.666 4.16699 -21.999 12.5s-8 20.833 -8 37.5c0 8.66699 0.666992 16.167 2 22.5s3.33301 11.666 6 15.999s5.83398 7.5 9.50098 9.5s7.83398 3 12.501 3h135v222c0 4 0.833008 7.66699 2.5 11s4.83398 6.16602 9.50098 8.49902s10.834 4 18.501 5
s17.167 1.5 28.5 1.5c12 0 21.833 -0.5 29.5 -1.5s13.667 -2.66699 18 -5s7.5 -5.16602 9.5 -8.49902s3 -7 3 -11v-222h482v263c0 4 0.833008 7.66699 2.5 11s4.83398 6 9.50098 8s10.834 3.66699 18.501 5s17.167 2 28.5 2s21 -0.666992 29 -2s14.167 -3 18.5 -5
s7.5 -4.66699 9.5 -8s3 -7 3 -11v-263h580c14.667 0 24.834 -3.83301 30.501 -11.5s8.5 -18.167 8.5 -31.5v-883c0 -8 -1.5 -17.833 -4.5 -29.5s-7.16699 -20.167 -12.5 -25.5l-82 -82c-22 -22 -35.833 -39.833 -41.5 -53.5s-8.5 -26.167 -8.5 -37.5
c0 -39.333 26.667 -59 80 -59h120c4 0 7.66699 -0.5 11 -1.5s6 -3 8 -6s3.5 -7.16699 4.5 -12.5s1.5 -12.333 1.5 -21zM1560.99 1229c0 -15.333 -1.16699 -28.166 -3.5 -38.499s-6.5 -18.666 -12.5 -24.999s-14 -10.833 -24 -13.5s-22.667 -4 -38 -4s-28 1.33301 -38 4
s-18 7.16699 -24 13.5s-10.167 14.666 -12.5 24.999s-3.5 23.166 -3.5 38.499s1.16699 28.166 3.5 38.499s6.5 18.833 12.5 25.5s14 11.334 24 14.001s22.667 4 38 4s28 -1.33301 38 -4s18 -7.33398 24 -14.001s10.167 -15.167 12.5 -25.5s3.5 -23.166 3.5 -38.499z" />
    <glyph glyph-name="t_t_dotlessi.liga" unicode="tt&#x131;" horiz-adv-x="1709" 
d="M323 845l-0.00585938 -546.993c0 -68.667 9.83301 -121 29.5 -157s55.5 -54 107.5 -54c16 0 30.5 1.66699 43.5 5s24.5 7 34.5 11s18.5 7.66699 25.5 11s13.167 5 18.5 5c3.33301 0 6.33301 -0.666992 9 -2s4.83398 -3.83301 6.50098 -7.5s3 -8.33398 4 -14.001
s1.5 -12.834 1.5 -21.501c0 -14 -1.16699 -25.333 -3.5 -34s-6 -15.5 -11 -20.5s-12.333 -9.66699 -22 -14s-20.834 -8 -33.501 -11s-26 -5.33301 -40 -7s-27.667 -2.5 -41 -2.5c-44.667 0 -82.667 6 -114 18s-57 30.167 -77 54.5s-34.5 55.166 -43.5 92.499
s-13.5 81.333 -13.5 132v563h-135c-9.33301 0 -16.666 4.16699 -21.999 12.5s-8 20.833 -8 37.5c0 8.66699 0.666992 16.167 2 22.5s3.33301 11.666 6 15.999s5.83398 7.5 9.50098 9.5s7.83398 3 12.501 3h135v222c0 4 0.833008 7.66699 2.5 11
s4.83398 6.16602 9.50098 8.49902s10.834 4 18.501 5s17.167 1.5 28.5 1.5c12 0 21.833 -0.5 29.5 -1.5s13.667 -2.66699 18 -5s7.5 -5.16602 9.5 -8.49902s3 -7 3 -11v-222h482v263c0 4 0.833008 7.66699 2.5 11s4.83398 6 9.50098 8s10.834 3.66699 18.501 5
s17.167 2 28.5 2c12 0 21.833 -0.666992 29.5 -2s13.667 -3 18 -5s7.5 -4.66699 9.5 -8s3 -7 3 -11v-263h580c14.667 0 24.834 -3.83301 30.501 -11.5s8.5 -18.167 8.5 -31.5v-883c0 -4 -1 -7.66699 -3 -11s-5.16699 -6 -9.5 -8s-10.333 -3.66699 -18 -5s-17.5 -2 -29.5 -2
c-11.333 0 -20.833 0.666992 -28.5 2s-13.834 3 -18.501 5s-7.83398 4.66699 -9.50098 8s-2.5 7 -2.5 11v825h-500v-547c0 -68.667 9.83301 -121 29.5 -157s55.167 -54 106.5 -54c16 0 30.5 1.66699 43.5 5s24.5 7 34.5 11s18.667 7.66699 26 11s13.666 5 18.999 5
c3.33301 0 6.16602 -0.666992 8.49902 -2s4.33301 -3.83301 6 -7.5s3 -8.33398 4 -14.001s1.5 -12.834 1.5 -21.501c0 -14 -1 -25.333 -3 -34s-5.66699 -15.5 -11 -20.5s-12.666 -9.66699 -21.999 -14s-20.333 -8 -33 -11s-26 -5.33301 -40 -7s-27.667 -2.5 -41 -2.5
c-45.333 0 -83.666 6 -114.999 18s-56.833 30.167 -76.5 54.5s-34 55.166 -43 92.499s-13.5 81.333 -13.5 132v563h-482z" />
    <glyph glyph-name=".notdef" horiz-adv-x="1038" 
d="M973 1294v-1294h-927v1294h927zM897 70v1154h-778v-1154h778zM760 860c0 -40 -5.99707 -75.667 -17.9971 -107s-28.833 -57.666 -50.5 -78.999s-47.167 -37.833 -76.5 -49.5s-61.333 -17.834 -96 -18.501l-5 -170c0 -5.33301 -3.66699 -9.16602 -11 -11.499
s-18 -3.5 -32 -3.5c-6.66699 0 -12.334 0.333008 -17.001 1s-8.66699 1.66699 -12 3s-5.83301 2.83301 -7.5 4.5s-2.5 3.83398 -2.5 6.50098l-4 200c0 15.333 4.33301 26.5 13 33.5s20 10.5 34 10.5h20c32.667 0 59.834 4.5 81.501 13.5s39.167 21.167 52.5 36.5
s22.833 33.666 28.5 54.999s8.5 44 8.5 68c0 53.333 -14.667 95.333 -44 126s-76.666 46 -141.999 46c-26 0 -49.5 -2.83301 -70.5 -8.5s-39.5 -12 -55.5 -19s-29.333 -13.333 -40 -19s-18.334 -8.5 -23.001 -8.5c-2 0 -4.16699 0.5 -6.5 1.5s-4.33301 3 -6 6s-3 7 -4 12
s-1.5 11.5 -1.5 19.5s0.833008 15.167 2.5 21.5s5.16699 12.166 10.5 17.499c4.66699 4.66699 13.667 10.167 27 16.5s29.166 12.5 47.499 18.5s38.666 11.167 60.999 15.5s44.5 6.5 66.5 6.5c46 0 86 -6.33301 120 -19s62.167 -30 84.5 -52s39.166 -48 50.499 -78
s17 -62 17 -96zM536.003 267c0 -12 -1 -22 -3 -30s-5.33301 -14.5 -10 -19.5s-10.834 -8.5 -18.501 -10.5s-17.167 -3 -28.5 -3c-12 0 -22 1 -30 3s-14.5 5.5 -19.5 10.5s-8.5 11.5 -10.5 19.5s-3 18 -3 30s1 22 3 30s5.5 14.5 10.5 19.5s11.5 8.5 19.5 10.5s18 3 30 3
c11.333 0 20.833 -1 28.5 -3s13.834 -5.5 18.501 -10.5s8 -11.5 10 -19.5s3 -18 3 -30z" />
    <glyph glyph-name="glyph1" horiz-adv-x="0" 
 />
    <glyph glyph-name="glyph1" horiz-adv-x="0" 
 />
    <glyph glyph-name="uni000D" unicode="&#xd;" horiz-adv-x="0" 
 />
    <glyph glyph-name="space" unicode=" " horiz-adv-x="463" 
 />
    <glyph glyph-name="space" unicode="&#xa0;" horiz-adv-x="463" 
 />
    <glyph glyph-name="exclam" unicode="!" horiz-adv-x="667" 
d="M425 345c0 -4 -0.833008 -7.66699 -2.5 -11s-4.66699 -6.16602 -9 -8.49902s-10 -4 -17 -5s-15.5 -1.5 -25.5 -1.5s-18.5 0.5 -25.5 1.5s-12.667 2.66699 -17 5s-7.33301 5.16602 -9 8.49902s-2.5 7 -2.5 11l-13 979c0 8 0.833008 14.833 2.5 20.5s5 10.334 10 14.001
s11.833 6.16699 20.5 7.5s20 2 34 2c13.333 0 24.333 -0.833008 33 -2.5s15.5 -4.33398 20.5 -8.00098s8.5 -8.16699 10.5 -13.5s3 -12 3 -20zM456 89c0 -18.667 -1.16699 -34.167 -3.5 -46.5s-6.83301 -22.166 -13.5 -29.499s-15.5 -12.5 -26.5 -15.5
s-24.833 -4.5 -41.5 -4.5c-17.333 0 -31.5 1.5 -42.5 4.5s-19.667 8.16699 -26 15.5s-10.666 17.166 -12.999 29.499s-3.5 27.833 -3.5 46.5s1.16699 34.334 3.5 47.001s6.66602 22.5 12.999 29.5s15 12 26 15s25.167 4.5 42.5 4.5c16.667 0 30.5 -1.5 41.5 -4.5
s19.833 -8 26.5 -15s11.167 -16.833 13.5 -29.5s3.5 -28.334 3.5 -47.001z" />
    <glyph glyph-name="quotedbl" unicode="&#x22;" horiz-adv-x="779" 
d="M608 897c0 -4 -0.832031 -7.66699 -2.49902 -11s-4.5 -6 -8.5 -8s-9 -3.66699 -15 -5s-13.333 -2 -22 -2c-9.33301 0 -17 0.666992 -23 2s-10.833 3 -14.5 5s-6.33398 4.66699 -8.00098 8s-2.5 7 -2.5 11l-23 473c0 4 1.5 7.66699 4.5 11s7.33301 6.16602 13 8.49902
s13 4 22 5s19.5 1.5 31.5 1.5c12.667 0 23.5 -0.5 32.5 -1.5s16.333 -2.66699 22 -5s9.66699 -5.16602 12 -8.49902s3.5 -7 3.5 -11zM267.001 897c0 -4 -0.832031 -7.66602 -2.49902 -10.999s-4.5 -6 -8.5 -8s-9 -3.66699 -15 -5s-13.333 -2 -22 -2
c-9.33301 0 -17 0.666992 -23 2s-10.833 3 -14.5 5s-6.33398 4.66699 -8.00098 8s-2.5 7 -2.5 11l-23 473c0 4 1.5 7.66699 4.5 11s7.33301 6.16602 13 8.49902s13 4 22 5s19.5 1.5 31.5 1.5c26 0 44.167 -2.16699 54.5 -6.5s15.5 -10.833 15.5 -19.5z" />
    <glyph glyph-name="numbersign" unicode="#" 
d="M979 886c0 -8.66699 -0.832031 -16.167 -2.49902 -22.5s-3.83398 -11.666 -6.50098 -15.999s-6 -7.5 -10 -9.5s-8.33301 -3 -13 -3h-139l-44 -357h126c9.33301 0 16.833 -4.33301 22.5 -13s8.5 -21.667 8.5 -39c0 -8.66699 -0.833008 -16.167 -2.5 -22.5
s-3.83398 -11.666 -6.50098 -15.999s-5.83398 -7.5 -9.50098 -9.5s-7.83398 -3 -12.501 -3h-141l-44 -358c-0.666992 -4 -1.66699 -7.5 -3 -10.5s-4 -5.5 -8 -7.5s-9.66699 -3.33301 -17 -4s-17.333 -1 -30 -1s-23.167 0.333008 -31.5 1s-14.833 2 -19.5 4s-8 4.5 -10 7.5
s-2.66699 6.5 -2 10.5l45 358h-308l-45 -358c-0.666992 -4 -1.66699 -7.5 -3 -10.5s-3.83301 -5.5 -7.5 -7.5s-9.16699 -3.33301 -16.5 -4s-17.333 -1 -30 -1s-23.167 0.333008 -31.5 1s-14.833 2 -19.5 4s-8 4.5 -10 7.5s-2.66699 6.5 -2 10.5l44 358h-128
c-9.33301 0 -16.833 4.16699 -22.5 12.5s-8.5 21.166 -8.5 38.499c0 8.66699 0.833008 16.167 2.5 22.5s3.83398 11.666 6.50098 15.999s5.83398 7.66602 9.50098 9.99902s7.83398 3.5 12.501 3.5h143l45 357h-132c-9.33301 0 -17 4.33301 -23 13s-9 21.334 -9 38.001
c0 17.333 3 30.333 9 39s13.667 13 23 13h145l44 338c0 4 1 7.5 3 10.5s5.33301 5.5 10 7.5s11 3.5 19 4.5s18.333 1.5 31 1.5s22.834 -0.5 30.501 -1.5s13.5 -2.5 17.5 -4.5s6.66699 -4.5 8 -7.5s2 -6.5 2 -10.5l-45 -338h308l42 338c0.666992 4 2 7.5 4 10.5
s5.16699 5.5 9.5 7.5s10.5 3.5 18.5 4.5s18.333 1.5 31 1.5s23 -0.5 31 -1.5s14 -2.5 18 -4.5s6.66699 -4.5 8 -7.5s1.66602 -6.5 0.999023 -10.5l-43 -338h126c9.33301 0 17 -4.33301 23 -13s9 -21.667 9 -39zM380.001 835l-44 -357h307l45 357h-308z" />
    <glyph glyph-name="dollar" unicode="$" horiz-adv-x="1038" 
d="M921 352c0 -51.333 -10.0029 -98.1611 -30.0029 -140.494s-48.667 -78.833 -86 -109.5s-83.333 -54.834 -138 -72.501s-116.334 -27.5 -185.001 -29.5l-22 -219c-0.666992 -4 -1.66699 -7.66699 -3 -11s-3.83301 -6 -7.5 -8s-9 -3.66699 -16 -5s-16.167 -2 -27.5 -2
c-12 0 -21.5 0.666992 -28.5 2s-12.5 3 -16.5 5s-6.66699 4.66699 -8 8s-1.66602 7 -0.999023 11l24 223c-34 4 -65.167 9.16699 -93.5 15.5s-53.333 13.166 -75 20.499s-39.834 14.833 -54.501 22.5s-25.334 14.834 -32.001 21.501s-11.167 14.834 -13.5 24.501
s-3.5 22.167 -3.5 37.5c0 10 0.5 18.5 1.5 25.5s2.83301 13 5.5 18s6 8.66699 10 11s8.66699 3.5 14 3.5c8.66699 0 20.834 -4.83301 36.501 -14.5s36.667 -20.334 63 -32.001s58.833 -22.334 97.5 -32.001s85.334 -14.5 140.001 -14.5
c104.667 0 184.334 20.833 239.001 62.5s82 98.834 82 171.501c0 44 -9.33301 80.667 -28 110s-43.5 54.333 -74.5 75s-66.167 38.167 -105.5 52.5l-120.5 43c-41 14.333 -81 30.166 -120 47.499s-74 39.166 -105 65.499s-55.833 58.666 -74.5 96.999s-28 85.5 -28 141.5
c0 42 7.33301 81.5 22 118.5s37.167 69.667 67.5 98s69 51.333 116 69s102.833 28.167 167.5 31.5l20 202c0.666992 4 1.66699 7.66699 3 11s3.83301 6.16602 7.5 8.49902s8.83398 4 15.501 5s16 1.5 28 1.5c11.333 0 20.666 -0.5 27.999 -1.5s13 -2.66699 17 -5
s6.5 -5.16602 7.5 -8.49902s1.5 -7 1.5 -11l-23 -206c20.667 -2 42 -5.5 64 -10.5s42.833 -10.667 62.5 -17s37.334 -13.5 53.001 -21.5s26.334 -14.667 32.001 -20s9.5 -10 11.5 -14s3.66699 -8.33301 5 -13s2.33301 -10 3 -16s1 -12.333 1 -19
c0 -8.66699 -0.333008 -16.5 -1 -23.5s-2 -12.833 -4 -17.5s-4.5 -8.33398 -7.5 -11.001s-6.83301 -4 -11.5 -4c-6.66699 0 -17.834 4.33301 -33.501 13s-35.667 18 -60 28s-52.666 19.333 -84.999 28s-68.5 13 -108.5 13c-50 0 -92.667 -5 -128 -15s-64 -23.833 -86 -41.5
s-38 -38.834 -48 -63.501s-15 -51.667 -15 -81c0 -44.667 9.5 -81.834 28.5 -111.501s44 -54.667 75 -75s66.333 -37.5 106 -51.5l121.5 -42.5c41.333 -14.333 81.833 -30 121.5 -47s75 -38.667 106 -65s56 -58.666 75 -96.999s28.5 -85.833 28.5 -142.5z" />
    <glyph glyph-name="percent" unicode="%" horiz-adv-x="1448" 
d="M614 973c0 -51.333 -5.66699 -97.833 -17 -139.5s-28.166 -77.167 -50.499 -106.5s-50.5 -52.166 -84.5 -68.499s-73.667 -24.5 -119 -24.5c-44.667 0 -83.5 7.16699 -116.5 21.5s-60.333 35.666 -82 63.999s-37.834 63.5 -48.501 105.5s-16 90.667 -16 146
c0 48 5.33301 92.5 16 133.5s27 76.5 49 106.5s50 53.5 84 70.5s74 25.5 120 25.5c49.333 0 91 -8.83301 125 -26.5s61.333 -41.667 82 -72s35.5 -65.833 44.5 -106.5s13.5 -83.667 13.5 -129zM505 968c0 38.667 -3.00098 73.332 -9.00098 103.999s-15.333 56.5 -28 77.5
s-29.167 37 -49.5 48s-44.833 16.5 -73.5 16.5c-26.667 0 -49.834 -5.16699 -69.501 -15.5s-35.834 -25.666 -48.501 -45.999s-22 -45.166 -28 -74.499s-9 -63 -9 -101c0 -48 3.5 -88.167 10.5 -120.5s17.333 -58 31 -77s30.5 -32.5 50.5 -40.5s43 -12 69 -12
c30.667 0 55.834 5.83301 75.501 17.5s35.334 28.167 47.001 49.5s19.834 46.666 24.501 75.999s7 62 7 98zM1368 325.998c0 -51.333 -5.66699 -97.833 -17 -139.5s-28.166 -77.167 -50.499 -106.5s-50.5 -52.166 -84.5 -68.499s-73.667 -24.5 -119 -24.5
c-44.667 0 -83.5 7.16699 -116.5 21.5s-60.333 35.666 -82 63.999s-37.834 63.5 -48.501 105.5s-16 90.667 -16 146c0 48 5.33301 92.5 16 133.5s27 76.5 49 106.5s50 53.5 84 70.5s74 25.5 120 25.5c49.333 0 91 -8.83301 125 -26.5s61.333 -41.667 82 -72
s35.5 -65.833 44.5 -106.5s13.5 -83.667 13.5 -129zM1259 320.998c0 38.667 -3.00098 73.332 -9.00098 103.999s-15.333 56.5 -28 77.5s-29.167 37 -49.5 48s-44.833 16.5 -73.5 16.5c-26.667 0 -49.834 -5.16699 -69.501 -15.5s-35.834 -25.666 -48.501 -45.999
s-22 -45.166 -28 -74.499s-9 -63 -9 -101c0 -48 3.5 -88.167 10.5 -120.5s17.333 -58 31 -77s30.5 -32.5 50.5 -40.5s43 -12 69 -12c30.667 0 55.834 5.83301 75.501 17.5s35.334 28.167 47.001 49.5s19.834 46.666 24.501 75.999s7 62 7 98zM325.998 -17.0039
c-2.66699 -4 -5.83398 -7.16797 -9.50098 -9.50098s-8.16699 -4.33301 -13.5 -6s-11.5 -2.83398 -18.5 -3.50098s-15.5 -1 -25.5 -1c-10.667 0 -19.334 1.16699 -26.001 3.5s-11.334 5.66602 -14.001 9.99902s-3.66699 9.33301 -3 15s3.33398 12.167 8.00098 19.5l888 1303
c2.66699 4 5.83398 7.33301 9.50098 10s8.16699 4.83398 13.5 6.50098s11.5 2.83398 18.5 3.50098s15.5 1 25.5 1c10.667 0 19.334 -1.16699 26.001 -3.5s11.5 -5.66602 14.5 -9.99902s4 -9.5 3 -15.5s-3.83301 -12.333 -8.5 -19z" />
    <glyph glyph-name="ampersand" unicode="&#x26;" horiz-adv-x="1372" 
d="M122 330c0 36 4.66797 70.6709 14.001 104.004s24.666 65.833 45.999 97.5s49.666 62.667 84.999 93s78.666 61.166 129.999 92.499c-28 38.667 -51.833 73.334 -71.5 104.001s-35.667 59 -48 85s-21.166 50.667 -26.499 74s-8 47 -8 71c0 38.667 6.33301 76 19 112
s33.167 68 61.5 96s65.333 50.5 111 67.5s101.167 25.5 166.5 25.5c52 0 97.5 -6.33301 136.5 -19s71.5 -30.334 97.5 -53.001s45.667 -49.834 59 -81.501s20 -66.5 20 -104.5c0 -38.667 -6.16699 -74.167 -18.5 -106.5s-32.5 -63.833 -60.5 -94.5s-64.5 -61.667 -109.5 -93
s-100.167 -65 -165.5 -101l81 -96l92 -100.5l98 -100l100 -94.5c16 20.667 30.333 44 43 70s23.667 53.5 33 82.5s16.5 58.833 21.5 89.5s7.5 61.667 7.5 93v39c0 6 0.833008 11 2.5 15s4.5 7.33301 8.5 10s9.83301 4.5 17.5 5.5s17.5 1.5 29.5 1.5
c10 0 18.833 -0.166992 26.5 -0.5s14 -1.5 19 -3.5s8.83301 -5.33301 11.5 -10s4 -11.334 4 -20.001v-20c0 -40 -3.5 -79.167 -10.5 -117.5s-16.667 -75.5 -29 -111.5s-27.5 -70.333 -45.5 -103s-38 -63 -60 -91c34 -27.333 63.5 -50.166 88.5 -68.499
s46.5 -33.166 64.5 -44.499s32.667 -19.333 44 -24s20.666 -7 27.999 -7c6.66699 0 12.834 0.333008 18.501 1s10.334 0.166992 14.001 -1.5s6.5 -5.33398 8.5 -11.001s3 -14.834 3 -27.501s-0.166992 -23 -0.5 -31s-1.16602 -14 -2.49902 -18
s-3.66602 -7.33301 -6.99902 -10s-9.5 -5 -18.5 -7s-22.167 -3 -39.5 -3c-12.667 0 -27 2.5 -43 7.5s-34.833 13.833 -56.5 26.5s-47 29.667 -76 51s-62.833 48.666 -101.5 81.999c-26.667 -24 -54.834 -46.167 -84.501 -66.5s-61.5 -38 -95.5 -53
s-70.167 -26.667 -108.5 -35s-79.833 -12.5 -124.5 -12.5c-41.333 0 -79.833 3.66699 -115.5 11s-68.334 18 -98.001 32s-56 31.167 -79 51.5s-42.333 43.166 -58 68.499s-27.667 53.333 -36 84s-12.5 63.334 -12.5 98.001zM369.001 1064c0 -20 2.66699 -40.332 8 -60.999
s13.5 -42.334 24.5 -65.001s24.833 -47.167 41.5 -73.5s36.334 -55.5 59.001 -87.5c54 30.667 99.333 58.667 136 84s66.167 50 88.5 74s38.5 47.833 48.5 71.5s15 49.167 15 76.5c0 21.333 -3.83301 41.833 -11.5 61.5s-19.834 37.167 -36.501 52.5s-38 27.666 -64 36.999
s-57.333 14 -94 14c-39.333 0 -72.5 -5.16699 -99.5 -15.5s-49.167 -24.166 -66.5 -41.499s-29.833 -37 -37.5 -59s-11.5 -44.667 -11.5 -68zM250.001 349.005c0 -38 6.1709 -72.667 18.5039 -104s30.666 -58.5 54.999 -81.5s54.666 -40.833 90.999 -53.5
s78.166 -19 125.499 -19c32 0 62.5 3.33301 91.5 10s56.833 15.834 83.5 27.501s51.667 25.5 75 41.5s45 33.333 65 52l-110.5 101.5l-105.5 106l-98 106.5c-31.333 35.333 -60.333 70 -87 104c-39.333 -24.667 -72 -48.834 -98 -72.501s-46.833 -47.5 -62.5 -71.5
s-26.834 -48 -33.501 -72s-10 -49 -10 -75zM0.00488281 1294z" />
    <glyph glyph-name="quotesingle" unicode="'" horiz-adv-x="438" 
d="M267 897c0 -4 -0.832031 -7.66699 -2.49902 -11s-4.5 -6 -8.5 -8s-9 -3.66699 -15 -5s-13.333 -2 -22 -2c-9.33301 0 -17 0.666992 -23 2s-10.833 3 -14.5 5s-6.33398 4.66699 -8.00098 8s-2.5 7 -2.5 11l-23 473c0 4 1.5 7.66699 4.5 11s7.33301 6.16602 13 8.49902
s13 4 22 5s19.5 1.5 31.5 1.5c12.667 0 23.5 -0.5 32.5 -1.5s16.333 -2.66699 22 -5s9.66699 -5.16602 12 -8.49902s3.5 -7 3.5 -11z" />
    <glyph glyph-name="parenleft" unicode="(" horiz-adv-x="612" 
d="M473 1383c-67.333 -136 -117.002 -275.33 -149.002 -417.997s-48 -284.334 -48 -425.001c0 -142 16.5 -284 49.5 -426s81.5 -282 145.5 -420c2.66699 -6 4.16699 -11.167 4.5 -15.5s-1 -8 -4 -11s-7.83301 -5.16699 -14.5 -6.5s-15.667 -2 -27 -2
c-8 0 -15.167 0.333008 -21.5 1s-12 1.66699 -17 3s-9.16699 3.16602 -12.5 5.49902s-6 5.16602 -8 8.49902c-36 66.667 -67.833 134.667 -95.5 204s-51 140 -70 212s-33.333 145 -43 219s-14.5 148.667 -14.5 224s5.33301 150 16 224s25.834 147.167 45.501 219.5
s43.334 143.5 71.001 213.5s58.5 139 92.5 207c0.666992 2 2 3.83301 4 5.5s5 3.33398 9 5.00098s9.5 3 16.5 4s16.167 1.5 27.5 1.5c10 0 18.167 -0.833008 24.5 -2.5s11.333 -3.83398 15 -6.50098s5.66699 -6.16699 6 -10.5s-0.5 -8.83301 -2.5 -13.5z" />
    <glyph glyph-name="parenright" unicode=")" horiz-adv-x="612" 
d="M463 536c0 -75.333 -4.83496 -150.004 -14.502 -224.004s-24 -147 -43 -219s-42.167 -142.667 -69.5 -212s-59 -137.333 -95 -204c-2 -3.33301 -4.66699 -6.16602 -8 -8.49902s-7.5 -4.16602 -12.5 -5.49902s-10.667 -2.33301 -17 -3s-13.5 -1 -21.5 -1
c-12 0 -21.333 0.666992 -28 2s-11.5 3.5 -14.5 6.5s-4.16699 6.66699 -3.5 11s2.33398 9.5 5.00098 15.5c64.667 136.667 113.334 276.334 146.001 419.001s49 285 49 427c0 140.667 -16.167 282.334 -48.5 425.001s-81.833 282 -148.5 418
c-2 4.66699 -2.83301 9.16699 -2.5 13.5s2.33301 7.83301 6 10.5s8.66699 4.83398 15 6.50098s14.5 2.5 24.5 2.5c10.667 0 19.5 -0.5 26.5 -1.5s12.667 -2.33301 17 -4s7.33301 -3.33398 9 -5.00098s3.16699 -3.5 4.5 -5.5c68 -135.333 122.333 -275.5 163 -420.5
s61 -292.833 61 -443.5z" />
    <glyph glyph-name="asterisk" unicode="*" 
d="M831 933c7.33301 -4 10.833 -10.667 10.5 -20s-7.16602 -25 -20.499 -47c-13.333 -22.667 -23.833 -36.334 -31.5 -41.001s-14.834 -4.66699 -21.501 0l-221 152l22 -267c1.33301 -8.66699 -2.33398 -15.167 -11.001 -19.5s-26 -6.5 -52 -6.5s-43.333 2.16699 -52 6.5
s-12.334 10.833 -11.001 19.5l22 267l-220 -152c-6.66699 -4.66699 -14 -4.66699 -22 0s-18.667 18.334 -32 41.001c-13.333 22 -20 37.667 -20 47s3.66699 16 11 20l243 115l-243 114c-7.33301 4 -11 10.667 -11 20s6.66699 25 20 47c13.333 22.667 24 36.334 32 41.001
s15.333 4.66699 22 0l220 -152l-22 267c-1.33301 8.66699 2.33398 15.167 11.001 19.5s26 6.5 52 6.5s43.333 -2.16699 52 -6.5s12.334 -10.833 11.001 -19.5l-22 -267l221 152c6.66699 4.66699 13.834 4.66699 21.501 0s18.167 -18.334 31.5 -41.001
c13.333 -22 20.166 -37.667 20.499 -47s-3.16699 -16 -10.5 -20l-243 -114z" />
    <glyph glyph-name="plus" unicode="+" 
d="M940 577c0 -10 -0.833008 -18.5 -2.5 -25.5s-4.16699 -13 -7.5 -18s-7.16602 -8.66699 -11.499 -11s-8.83301 -3.5 -13.5 -3.5h-338v-378c0 -4 -1 -7.5 -3 -10.5s-5.33301 -5.66699 -10 -8s-10.5 -4.16602 -17.5 -5.49902s-15.833 -2 -26.5 -2
c-10 0 -18.667 0.666992 -26 2s-13.333 3.16602 -18 5.49902s-8.16699 5 -10.5 8s-3.5 6.5 -3.5 10.5v378h-337c-5.33301 0 -10 1.16699 -14 3.5s-7.66699 6 -11 11s-5.83301 11 -7.5 18s-2.5 15.5 -2.5 25.5c0 8.66699 0.833008 16.5 2.5 23.5s4.16699 12.833 7.5 17.5
s7 8.16699 11 10.5s8.66699 3.5 14 3.5h337v378c0 4.66699 1.16699 8.83398 3.5 12.501s5.83301 6.83398 10.5 9.50098s10.667 4.66699 18 6s16 2 26 2c10.667 0 19.5 -0.666992 26.5 -2s12.833 -3.33301 17.5 -6s8 -5.83398 10 -9.50098s3 -7.83398 3 -12.501v-378h338
c4.66699 0 9.16699 -1.16699 13.5 -3.5s8.16602 -5.83301 11.499 -10.5s5.83301 -10.5 7.5 -17.5s2.5 -14.833 2.5 -23.5z" />
    <glyph glyph-name="comma" unicode="," horiz-adv-x="501" 
d="M343 121c0 -18 -0.834961 -34.334 -2.50195 -49.001s-4.5 -28.667 -8.5 -42s-9.33301 -26.666 -16 -39.999s-15 -27.333 -25 -42l-139 -213c-2.66699 -4 -5.83398 -7.5 -9.50098 -10.5s-8 -5.5 -13 -7.5s-10.833 -3.5 -17.5 -4.5s-15 -1.5 -25 -1.5
c-7.33301 0 -13.666 0.333008 -18.999 1s-9.16602 2 -11.499 4s-3.66602 4.5 -3.99902 7.5s0.833984 6.83301 3.50098 11.5l139 274v112c0 14.667 1.33301 26.5 4 35.5s7 15.833 13 20.5s13.667 7.83398 23 9.50098s20.666 2.5 33.999 2.5
c12.667 0 23.667 -0.833008 33 -2.5s17 -4.83398 23 -9.50098s10.5 -11.5 13.5 -20.5s4.5 -20.833 4.5 -35.5z" />
    <glyph glyph-name="hyphen" unicode="-" horiz-adv-x="627" 
d="M552 506c0 -19.333 -2.66797 -32.501 -8.00098 -39.501s-12.333 -10.5 -21 -10.5h-419c-8.66699 0 -15.834 3.66699 -21.501 11s-8.5 20.333 -8.5 39s2.83301 31.667 8.5 39s12.834 11 21.501 11h419c4 0 7.83301 -0.833008 11.5 -2.5s6.83398 -4.5 9.50098 -8.5
s4.66699 -9.16699 6 -15.5s2 -14.166 2 -23.499z" />
    <glyph glyph-name="hyphen" unicode="&#x2010;" horiz-adv-x="627" 
d="M552 506c0 -19.333 -2.66797 -32.501 -8.00098 -39.501s-12.333 -10.5 -21 -10.5h-419c-8.66699 0 -15.834 3.66699 -21.501 11s-8.5 20.333 -8.5 39s2.83301 31.667 8.5 39s12.834 11 21.501 11h419c4 0 7.83301 -0.833008 11.5 -2.5s6.83398 -4.5 9.50098 -8.5
s4.66699 -9.16699 6 -15.5s2 -14.166 2 -23.499z" />
    <glyph glyph-name="hyphen" unicode="&#xad;" horiz-adv-x="627" 
d="M552 506c0 -19.333 -2.66797 -32.501 -8.00098 -39.501s-12.333 -10.5 -21 -10.5h-419c-8.66699 0 -15.834 3.66699 -21.501 11s-8.5 20.333 -8.5 39s2.83301 31.667 8.5 39s12.834 11 21.501 11h419c4 0 7.83301 -0.833008 11.5 -2.5s6.83398 -4.5 9.50098 -8.5
s4.66699 -9.16699 6 -15.5s2 -14.166 2 -23.499z" />
    <glyph glyph-name="period" unicode="." horiz-adv-x="501" 
d="M336 90c0 -39.333 -6.33301 -65.333 -19 -78s-35.334 -19 -68.001 -19c-31.333 0 -53.166 6.16699 -65.499 18.5s-18.5 37.833 -18.5 76.5c0 39.333 6.33301 65.333 19 78s35.334 19 68.001 19c31.333 0 53.166 -6.16699 65.499 -18.5s18.5 -37.833 18.5 -76.5z" />
    <glyph glyph-name="slash" unicode="/" horiz-adv-x="742" 
d="M122 -232c-2.66699 -8 -5.8291 -14.333 -9.49609 -19s-8 -8.33398 -13 -11.001s-11 -4.5 -18 -5.5s-15.5 -1.5 -25.5 -1.5s-18.833 1 -26.5 3s-13.834 4.83301 -18.501 8.5s-7.5 8.33398 -8.5 14.001s0.166992 12.167 3.5 19.5l610 1648c2.66699 8 5.66699 14.333 9 19
s7.5 8.33398 12.5 11.001s11.167 4.5 18.5 5.5s16 1.5 26 1.5s18.667 -1 26 -3s13.166 -4.83301 17.499 -8.5s7.16602 -8.33398 8.49902 -14.001s0.666016 -12.167 -2.00098 -19.5z" />
    <glyph glyph-name="zero" unicode="0" horiz-adv-x="1038" 
d="M959 649c0 -97.333 -7.66504 -186.668 -22.998 -268.001s-40.833 -151.5 -76.5 -210.5s-82.334 -105 -140.001 -138s-128.834 -49.5 -213.501 -49.5c-78 0 -144.167 14.167 -198.5 42.5s-98.333 70.5 -132 126.5s-58 125.167 -73 207.5s-22.5 177.5 -22.5 285.5
c0 96.667 7.66699 185.834 23 267.501s40.666 152 75.999 211s81.833 105 139.5 138s128.834 49.5 213.501 49.5c78 0 144.167 -14.167 198.5 -42.5s98.5 -70.5 132.5 -126.5s58.5 -125.167 73.5 -207.5s22.5 -177.5 22.5 -285.5zM831.002 637.998
c0 66 -2.5 125.833 -7.5 179.5s-12.833 101.5 -23.5 143.5s-24.167 78.5 -40.5 109.5s-36 56.667 -59 77s-49.167 35.333 -78.5 45s-62.333 14.5 -99 14.5c-66 0 -119.5 -15.5 -160.5 -46.5s-73 -72.167 -96 -123.5s-38.5 -110 -46.5 -176s-12 -134.333 -12 -205
c0 -98.667 5.66699 -183.834 17 -255.501s29.333 -130.667 54 -177s56.334 -80.666 95.001 -102.999s85.667 -33.5 141 -33.5c44 0 82.333 7 115 21s60.667 33.667 84 59s42.666 55.333 57.999 90s27.333 72.334 36 113.001s14.667 83.667 18 129s5 91.666 5 138.999z" />
    <glyph glyph-name="one" unicode="1" horiz-adv-x="1038" 
d="M918 50c0 -9.33301 -0.998047 -17.165 -2.99805 -23.498s-4.66699 -11.5 -8 -15.5s-7 -6.83301 -11 -8.5s-8 -2.5 -12 -2.5h-656c-4 0 -7.83301 0.833008 -11.5 2.5s-7.16699 4.5 -10.5 8.5s-6 9.16699 -8 15.5s-3 14.166 -3 23.499c0 8 0.833008 15.333 2.5 22
s4 12.167 7 16.5s6.5 7.66602 10.5 9.99902s8.33301 3.5 13 3.5h287v1062l-274 -167c-10.667 -6.66699 -19.334 -10.5 -26.001 -11.5s-12 0.166992 -16 3.5s-6.66699 8.83301 -8 16.5s-2 16.834 -2 27.501c0 8.66699 0.333008 16.167 1 22.5s2 11.833 4 16.5
s4.5 8.66699 7.5 12s6.83301 6.66602 11.5 9.99902l310 198c2 1.33301 4.66699 2.66602 8 3.99902s7.33301 2.5 12 3.5s9.66699 1.66699 15 2s11.666 0.5 18.999 0.5c11.333 0 21 -0.666992 29 -2s14.333 -3 19 -5s8 -4.66699 10 -8s3 -7 3 -11v-1174h246
c4.66699 0 9.16699 -1.16699 13.5 -3.5s8 -5.66602 11 -9.99902s5.33301 -9.83301 7 -16.5s2.5 -14 2.5 -22z" />
    <glyph glyph-name="two" unicode="2" horiz-adv-x="1038" 
d="M907 56c0 -8 -0.830078 -15.4971 -2.49707 -22.4971s-4 -13 -7 -18s-6.83301 -8.83301 -11.5 -11.5s-10 -4 -16 -4h-699c-6 0 -11.667 1 -17 3s-10 5.16699 -14 9.5s-7 10.166 -9 17.499s-3 16 -3 26c0 8.66699 0.333008 16.334 1 23.001s2 12.667 4 18
s4.66699 10.666 8 15.999s7.66602 11 12.999 17l265 280c66 69.333 118.5 131.333 157.5 186s68.833 104 89.5 148s34.167 84 40.5 120s9.5 70 9.5 102s-5.16699 62.5 -15.5 91.5s-25.5 54.333 -45.5 76s-44.833 39 -74.5 52s-63.834 19.5 -102.501 19.5
c-42 0 -79.667 -5.83301 -113 -17.5s-62.5 -24.667 -87.5 -39s-45.833 -27.333 -62.5 -39s-29 -17.5 -37 -17.5c-4 0 -7.66699 1 -11 3s-6.16602 5.16699 -8.49902 9.5s-4 9.83301 -5 16.5s-1.5 14.334 -1.5 23.001c0 8 0.333008 14.667 1 20s1.66699 10.166 3 14.499
s3.16602 8.5 5.49902 12.5s7.33301 9.33301 15 16s20.667 15.667 39 27s41.5 22.833 69.5 34.5s59 21.667 93 30s69.333 12.5 106 12.5c60.667 0 113.5 -9 158.5 -27s82.5 -42.333 112.5 -73s52.333 -66.167 67 -106.5s22 -82.833 22 -127.5
c0 -41.333 -3.5 -82.5 -10.5 -123.5s-22 -85.667 -45 -134s-56.333 -101.833 -100 -160.5s-101.834 -126.334 -174.501 -203.001l-236 -247h592c5.33301 0 10.333 -1.16699 15 -3.5s8.66699 -5.83301 12 -10.5s5.83301 -10.334 7.5 -17.001s2.5 -14 2.5 -22z" />
    <glyph glyph-name="three" unicode="3" horiz-adv-x="1038" 
d="M894 365c0 -56 -9.1709 -107.335 -27.5039 -154.002s-45.5 -87 -81.5 -121s-81 -60.333 -135 -79s-116.333 -28 -187 -28c-42.667 0 -82.667 3.66699 -120 11s-70.5 16 -99.5 26s-53.167 20.333 -72.5 31s-31.333 18 -36 22s-8.16699 8 -10.5 12s-4.33301 8.5 -6 13.5
s-3 11.333 -4 19s-1.5 16.834 -1.5 27.501c0 20 2.16699 33.667 6.5 41s10.166 11 17.499 11c6 0 18.167 -5.66699 36.5 -17s42 -23.666 71 -36.999s62.667 -25.666 101 -36.999s80.833 -17 127.5 -17c48 0 90 6.33301 126 19s66.333 30.5 91 53.5s43.167 50.333 55.5 82
s18.5 66.167 18.5 103.5c0 40 -8 76.167 -24 108.5s-39 60.166 -69 83.499s-66.667 41.333 -110 54s-92 19 -146 19h-128c-4 0 -8.16699 1 -12.5 3s-8.33301 5.16699 -12 9.5s-6.66699 9.83301 -9 16.5s-3.5 15 -3.5 25c0 8.66699 1 16.167 3 22.5s4.66699 11.666 8 15.999
s7.16602 7.5 11.499 9.5s9.16602 3 14.499 3h113c46.667 0 88.834 6.33301 126.501 19s69.834 30.834 96.501 54.501s47.167 52 61.5 85s21.5 69.833 21.5 110.5c0 30 -4.83301 58.333 -14.5 85s-24 50 -43 70s-43 35.667 -72 47s-62.833 17 -101.5 17
c-40.667 0 -77.667 -6 -111 -18s-62.833 -25.167 -88.5 -39.5s-46.667 -27.5 -63 -39.5s-27.833 -18 -34.5 -18c-4 0 -7.66699 0.666992 -11 2s-6.16602 4 -8.49902 8s-4 9.5 -5 16.5s-1.5 16.167 -1.5 27.5c0 7.33301 0.333008 13.833 1 19.5s2 10.834 4 15.501
s4.33301 9.16699 7 13.5s7 9.5 13 15.5s18.333 15 37 27s41.5 23.667 68.5 35s57.833 21 92.5 29s71.667 12 111 12c59.333 0 110.833 -8 154.5 -24s79.834 -38 108.501 -66s50 -61.167 64 -99.5s21 -79.833 21 -124.5c0 -41.333 -5.5 -79.833 -16.5 -115.5
s-27.167 -67.334 -48.5 -95.001s-47.5 -50.834 -78.5 -69.501s-66.5 -31.334 -106.5 -38.001v-2c44.667 -4 85.834 -14.667 123.501 -32s70.334 -39.666 98.001 -66.999s49.334 -59.166 65.001 -95.499s23.5 -75.5 23.5 -117.5z" />
    <glyph glyph-name="four" unicode="4" horiz-adv-x="1038" 
d="M970 365c0 -15.333 -3.16406 -27.8369 -9.49707 -37.5039s-15.5 -14.5 -27.5 -14.5h-164v-293c0 -4 -1 -7.66699 -3 -11s-5.33301 -6 -10 -8s-10.834 -3.66699 -18.501 -5s-17.5 -2 -29.5 -2c-11.333 0 -20.833 0.666992 -28.5 2s-13.834 3 -18.501 5
s-7.83398 4.66699 -9.50098 8s-2.5 7 -2.5 11v293h-556c-6 0 -11.333 0.833008 -16 2.5s-8.83398 4.5 -12.501 8.5s-6.33398 9.33301 -8.00098 16s-2.5 15 -2.5 25c0 8.66699 0.333008 16.334 1 23.001s1.83398 13 3.50098 19s4 11.833 7 17.5s6.5 11.834 10.5 18.501
l501 829c3.33301 4.66699 7.5 8.83398 12.5 12.501s11.333 6.66699 19 9s16.834 4 27.501 5s23 1.5 37 1.5c15.333 0 29 -0.666992 41 -2s22 -3.16602 30 -5.49902s14.167 -5.5 18.5 -9.5s6.5 -8.33301 6.5 -13v-853h164c11.333 0 20.333 -4.33301 27 -13s10 -21.667 10 -39
zM649.003 1190h-2l-465 -773h467v773z" />
    <glyph glyph-name="five" unicode="5" horiz-adv-x="1038" 
d="M903 413c0 -68.667 -11.3291 -129.662 -33.9961 -182.995s-54.667 -98.333 -96 -135s-90.833 -64.5 -148.5 -83.5s-121.167 -28.5 -190.5 -28.5c-40 0 -78 3.16699 -114 9.5s-68 13.666 -96 21.999s-50.833 16.666 -68.5 24.999s-28.834 14.666 -33.501 18.999
s-7.83398 8 -9.50098 11s-3.16699 6.66699 -4.5 11s-2.33301 9.66602 -3 15.999s-1 13.833 -1 22.5c0 8 0.5 15.333 1.5 22s2.66699 12.334 5 17.001s5.16602 8.16699 8.49902 10.5s7 3.5 11 3.5c6.66699 0 17.167 -4.33301 31.5 -13s33.833 -18.167 58.5 -28.5
s55.167 -19.833 91.5 -28.5s79.5 -13 129.5 -13c47.333 0 91.333 5.83301 132 17.5s76 30.167 106 55.5s53.5 57.5 70.5 96.5s25.5 86.167 25.5 141.5c0 46.667 -7.33301 87.5 -22 122.5s-37 64.167 -67 87.5s-67.833 40.666 -113.5 51.999s-99.167 17 -160.5 17
c-42 0 -77.167 -2.16699 -105.5 -6.5s-54.5 -6.5 -78.5 -6.5c-17.333 0 -30 4.16699 -38 12.5s-12 24.5 -12 48.5v508c0 18.667 5.16699 33.167 15.5 43.5s24.166 15.5 41.499 15.5h551c5.33301 0 10.333 -1.16699 15 -3.5s8.66699 -5.83301 12 -10.5
s5.83301 -10.334 7.5 -17.001s2.5 -14.334 2.5 -23.001c0 -15.333 -3.16699 -28.333 -9.5 -39s-15.5 -16 -27.5 -16h-495v-410c23.333 3.33301 47.5 5.33301 72.5 6s55.167 1 90.5 1c76 0 142.167 -9.16699 198.5 -27.5s103 -43.833 140 -76.5s64.667 -71.667 83 -117
s27.5 -94.666 27.5 -147.999z" />
    <glyph glyph-name="six" unicode="6" horiz-adv-x="1038" 
d="M947 412c0 -52 -8.00391 -103.667 -24.0039 -155s-41.333 -97.166 -76 -137.499s-79.167 -73.166 -133.5 -98.499s-119.833 -38 -196.5 -38c-50.667 0 -95.667 6.5 -135 19.5s-73.833 31.667 -103.5 56s-54.5 54.333 -74.5 90s-36.333 76.5 -49 122.5
s-21.834 96.5 -27.501 151.5s-8.5 114.5 -8.5 178.5c0 57.333 3.33301 114.833 10 172.5s18 112.667 34 165s37.167 101.166 63.5 146.499s59.166 84.5 98.499 117.5s85.666 59 138.999 78s115 28.5 185 28.5c24.667 0 49.334 -1.5 74.001 -4.5s47.5 -6.83301 68.5 -11.5
s38.667 -10 53 -16s23.833 -10.833 28.5 -14.5s8 -7.33398 10 -11.001s3.66699 -7.5 5 -11.5s2.33301 -8.5 3 -13.5s1 -10.833 1 -17.5c0 -7.33301 -0.166992 -14 -0.5 -20s-1.33301 -11 -3 -15s-4.16699 -7.16699 -7.5 -9.5s-7.66602 -3.5 -12.999 -3.5
c-7.33301 0 -17.166 2.33301 -29.499 7s-27.666 10 -45.999 16s-40.5 11.333 -66.5 16s-56.667 7 -92 7c-67.333 0 -125.166 -14 -173.499 -42s-88.166 -65.667 -119.499 -113s-54.666 -102 -69.999 -164s-24 -127 -26 -195c18.667 10.667 39.5 21.334 62.5 32.001
s48.167 20.167 75.5 28.5s56.333 15.166 87 20.499s63 8 97 8c72.667 0 133.334 -9.66699 182.001 -29s87.667 -45.833 117 -79.5s50.166 -73 62.499 -118s18.5 -92.833 18.5 -143.5zM818.996 400c0 42 -4.33203 80.332 -12.999 114.999s-23.334 64.334 -44.001 89.001
s-48.167 43.834 -82.5 57.501s-76.833 20.5 -127.5 20.5c-28 0 -56.167 -2.5 -84.5 -7.5s-55.666 -11.833 -81.999 -20.5s-51.333 -18.834 -75 -30.501s-44.834 -24.167 -63.501 -37.5c0 -93.333 6.16699 -171.833 18.5 -235.5s30.5 -115 54.5 -154s53.833 -67 89.5 -84
s77.167 -25.5 124.5 -25.5c49.333 0 92 9.5 128 28.5s65.667 43.667 89 74s40.5 64 51.5 101s16.5 73.5 16.5 109.5z" />
    <glyph glyph-name="seven" unicode="7" horiz-adv-x="1038" 
d="M936 1240c0 -8 -0.334961 -15.5 -1.00195 -22.5s-1.66699 -14 -3 -21s-3.16602 -14 -5.49902 -21s-5.16602 -14.5 -8.49902 -22.5l-488 -1121c-3.33301 -8 -7 -14.5 -11 -19.5s-9 -8.83301 -15 -11.5s-13.333 -4.5 -22 -5.5s-19.334 -1.5 -32.001 -1.5
c-15.333 0 -27.166 1 -35.499 3s-14.166 5 -17.499 9s-4.5 8.66699 -3.5 14s3.16699 11.666 6.5 18.999l508 1146h-663c-12 0 -21.167 5.33301 -27.5 16s-9.5 23.667 -9.5 39c0 8.66699 0.833008 16.334 2.5 23.001s4.16699 12.334 7.5 17.001s7.16602 8.16699 11.499 10.5
s9.5 3.5 15.5 3.5h745c8.66699 0 16 -1 22 -3s10.667 -5.33301 14 -10s5.83301 -10.334 7.5 -17.001s2.5 -14.667 2.5 -24z" />
    <glyph glyph-name="eight" unicode="8" horiz-adv-x="1038" 
d="M942 324c0 -54.667 -9.83691 -103.167 -29.5039 -145.5s-48 -78 -85 -107s-82.167 -51 -135.5 -66s-114 -22.5 -182 -22.5c-63.333 0 -120.666 6.83301 -171.999 20.5s-95.166 33.834 -131.499 60.501s-64.333 59.5 -84 98.5s-29.5 83.833 -29.5 134.5
c0 42.667 7.33301 81.5 22 116.5s35.5 67.167 62.5 96.5s60 56.5 99 81.5s82.833 49.167 131.5 72.5c-43.333 21.333 -81.5 44 -114.5 68s-60.667 49.667 -83 77s-39.166 56.5 -50.499 87.5s-17 64.167 -17 99.5c0 42 7.66699 82 23 120s38.666 71.5 69.999 100.5
s71.333 52 120 69s106 25.5 172 25.5c62 0 115.833 -7.83301 161.5 -23.5s83.5 -36.834 113.5 -63.501s52.333 -57.667 67 -93s22 -72.333 22 -111c0 -36 -6 -70.167 -18 -102.5s-29.333 -62.833 -52 -91.5s-50.5 -55.5 -83.5 -80.5s-70.833 -48.5 -113.5 -70.5
c51.333 -24.667 96.833 -49.5 136.5 -74.5s72.834 -51.667 99.501 -80s46.834 -58.5 60.501 -90.5s20.5 -67.333 20.5 -106zM765.996 1007c0 30.667 -5.5 58.5 -16.5 83.5s-27.167 46.333 -48.5 64s-47.5 31.167 -78.5 40.5s-66.167 14 -105.5 14
c-80.667 0 -142.167 -18.167 -184.5 -54.5s-63.5 -86.166 -63.5 -149.499c0 -28.667 5.16699 -55.334 15.5 -80.001s26 -48.167 47 -70.5s47.667 -44 80 -65s70.833 -42.5 115.5 -64.5c76.667 37.333 135.667 79.5 177 126.5s62 98.833 62 155.5zM813.996 306
c0 34 -6.33008 64.667 -18.9971 92s-31.834 52.833 -57.501 76.5s-57.834 46.667 -96.501 69s-83.667 45.833 -135 70.5c-48 -23.333 -90 -46.166 -126 -68.499s-65.667 -45.5 -89 -69.5s-40.833 -49.333 -52.5 -76s-17.5 -56.334 -17.5 -89.001
c0 -71.333 25.167 -126.833 75.5 -166.5s125.166 -59.5 224.499 -59.5c96 0 168.833 19.833 218.5 59.5s74.5 93.5 74.5 161.5z" />
    <glyph glyph-name="nine" unicode="9" horiz-adv-x="1038" 
d="M920 693c0 -57.333 -3.66699 -114.83 -11 -172.497s-19.333 -112.834 -36 -165.501s-38.667 -101.667 -66 -147s-61.166 -84.666 -101.499 -117.999s-87.833 -59.5 -142.5 -78.5s-117.334 -28.5 -188.001 -28.5c-29.333 0 -57.166 1.83301 -83.499 5.5
s-49.833 8 -70.5 13s-37.834 10.333 -51.501 16s-23.5 11.167 -29.5 16.5s-10.5 12.333 -13.5 21s-4.5 20 -4.5 34c0 10 0.333008 18 1 24s2 10.833 4 14.5s4.5 6.16699 7.5 7.5s6.83301 2 11.5 2c6.66699 0 16.5 -2.66699 29.5 -8s29.5 -11 49.5 -17s43.667 -11.667 71 -17
s58.333 -8 93 -8c70 0 130.167 13.833 180.5 41.5s91.666 64.667 123.999 111s56.666 100.166 72.999 161.499s25.5 126 27.5 194c-38 -21.333 -83.333 -40.5 -136 -57.5s-113.334 -25.5 -182.001 -25.5c-74 0 -135.667 10.167 -185 30.5s-88.833 47.666 -118.5 81.999
s-50.667 74.333 -63 120s-18.5 94.167 -18.5 145.5c0 53.333 7.66699 105.166 23 155.499s39.833 95.166 73.5 134.499s77.334 71 131.001 95s118.834 36 195.501 36c50.667 0 95.834 -6.83301 135.501 -20.5s74.5 -33.167 104.5 -58.5s55.667 -56.166 77 -92.499
s38.5 -77.5 51.5 -123.5s22.5 -96.167 28.5 -150.5s9 -111.833 9 -172.5zM792 703.003c0 92.667 -6.50098 171.167 -19.501 235.5s-32 116.5 -57 156.5s-55.833 69 -92.5 87s-78.667 27 -126 27c-50 0 -92.5 -9.16699 -127.5 -27.5s-63.667 -42.333 -86 -72
s-38.666 -62.834 -48.999 -99.501s-15.5 -73 -15.5 -109c0 -42 4.66699 -80.833 14 -116.5s24.666 -66.167 45.999 -91.5s49.333 -45.166 84 -59.499s77.334 -21.5 128.001 -21.5c56.667 0 111.5 8.33301 164.5 25s98.5 38.667 136.5 66z" />
    <glyph glyph-name="colon" unicode=":" horiz-adv-x="538" 
d="M373 806c0 -18 -1.16699 -33.167 -3.5 -45.5s-6.83301 -22.166 -13.5 -29.499s-15.5 -12.5 -26.5 -15.5s-25.167 -4.5 -42.5 -4.5s-31.333 1.5 -42 4.5s-19.334 8.16699 -26.001 15.5s-11.167 17.166 -13.5 29.499s-3.5 27.5 -3.5 45.5
c0 19.333 1.16699 35.166 3.5 47.499s6.83301 22.166 13.5 29.499s15.334 12.5 26.001 15.5s24.667 4.5 42 4.5s31.5 -1.5 42.5 -4.5s19.833 -8.16699 26.5 -15.5s11.167 -17.166 13.5 -29.499s3.5 -28.166 3.5 -47.499zM373 89c0 -18.667 -1.16699 -34.167 -3.5 -46.5
s-6.83301 -22.166 -13.5 -29.499s-15.5 -12.5 -26.5 -15.5s-25.167 -4.5 -42.5 -4.5s-31.333 1.5 -42 4.5s-19.334 8.16699 -26.001 15.5s-11.167 17.166 -13.5 29.499s-3.5 27.833 -3.5 46.5s1.16699 34.334 3.5 47.001s6.83301 22.5 13.5 29.5s15.334 12 26.001 15
s24.667 4.5 42 4.5s31.5 -1.5 42.5 -4.5s19.833 -8 26.5 -15s11.167 -16.833 13.5 -29.5s3.5 -28.334 3.5 -47.001z" />
    <glyph glyph-name="semicolon" unicode=";" horiz-adv-x="538" 
d="M373 806c0 -18 -1.16699 -33.167 -3.5 -45.5s-6.83301 -22.166 -13.5 -29.499s-15.5 -12.5 -26.5 -15.5s-25.167 -4.5 -42.5 -4.5s-31.333 1.5 -42 4.5s-19.334 8.16699 -26.001 15.5s-11.167 17.166 -13.5 29.499s-3.5 27.5 -3.5 45.5
c0 19.333 1.16699 35.166 3.5 47.499s6.83301 22.166 13.5 29.499s15.334 12.5 26.001 15.5s24.667 4.5 42 4.5s31.5 -1.5 42.5 -4.5s19.833 -8.16699 26.5 -15.5s11.167 -17.166 13.5 -29.499s3.5 -28.166 3.5 -47.499zM373 121c0 -18 -0.832031 -34.334 -2.49902 -49.001
s-4.5 -28.667 -8.5 -42s-9.33301 -26.666 -16 -39.999s-15 -27.333 -25 -42l-139 -213c-2.66699 -4 -5.83398 -7.5 -9.50098 -10.5s-8 -5.5 -13 -7.5s-10.833 -3.5 -17.5 -4.5s-15 -1.5 -25 -1.5c-7.33301 0 -13.666 0.333008 -18.999 1s-9.33301 2 -12 4s-4 4.5 -4 7.5
s1 6.83301 3 11.5l139 274v112c0 14.667 1.5 26.5 4.5 35.5s7.5 15.833 13.5 20.5s13.667 7.83398 23 9.50098s20.333 2.5 33 2.5s23.667 -0.833008 33 -2.5s17.166 -4.83398 23.499 -9.50098s11 -11.5 14 -20.5s4.5 -20.833 4.5 -35.5z" />
    <glyph glyph-name="less" unicode="&#x3c;" 
d="M921 156c0 -13.333 -0.499023 -24 -1.49902 -32s-2.83301 -13.667 -5.5 -17s-6 -4.66602 -10 -3.99902s-9.33301 2.66699 -16 6l-799 406c-5.33301 3.33301 -10 10.166 -14 20.499s-6 24.166 -6 41.499c0 8 0.666992 15.5 2 22.5s3 13 5 18s4.5 9.33301 7.5 13
s6.16699 6.16699 9.5 7.5l795 404c13.333 6.66699 22.166 7.33398 26.499 2.00098s6.5 -21.333 6.5 -48c0 -14.667 -0.333008 -26.5 -1 -35.5s-2.16699 -16.333 -4.5 -22s-5.66602 -10.167 -9.99902 -13.5s-10.166 -7 -17.499 -11l-682 -341l682 -336
c7.33301 -4 13.166 -7.66699 17.499 -11s7.66602 -7.83301 9.99902 -13.5s3.83301 -13 4.5 -22s1 -20.5 1 -34.5z" />
    <glyph glyph-name="equal" unicode="=" 
d="M920 766c0 -21.333 -3.83301 -36 -11.5 -44s-15.167 -12 -22.5 -12h-753c-7.33301 0 -14.666 4 -21.999 12s-11 22.667 -11 44c0 19.333 3.16699 33.666 9.5 42.999s14.166 14 23.499 14h753c9.33301 0 17.333 -4.66699 24 -14s10 -23.666 10 -42.999zM920 386
c0 -21.333 -3.83301 -36 -11.5 -44s-15.167 -12 -22.5 -12h-753c-7.33301 0 -14.666 4 -21.999 12s-11 22.667 -11 44c0 19.333 3.16699 33.666 9.5 42.999s14.166 14 23.499 14h753c9.33301 0 17.333 -4.66699 24 -14s10 -23.666 10 -42.999z" />
    <glyph glyph-name="greater" unicode="&#x3e;" 
d="M953 573c0 -8 -0.666992 -15.499 -2 -22.499s-3 -13.167 -5 -18.5s-4.5 -9.66602 -7.5 -12.999s-6.16699 -5.66602 -9.5 -6.99902l-796 -404c-6 -3.33301 -11.167 -5.33301 -15.5 -6s-7.83301 0.666016 -10.5 3.99902s-4.5 8.83301 -5.5 16.5s-1.5 18.167 -1.5 31.5
c0 14 0.333008 25.5 1 34.5s2.16699 16.333 4.5 22s5.66602 10.334 9.99902 14.001s10.166 7.16699 17.499 10.5l683 342l-683 335c-7.33301 4 -13.166 7.66699 -17.499 11s-7.66602 7.83301 -9.99902 13.5s-3.83301 13 -4.5 22s-1 20.833 -1 35.5
c0 13.333 0.5 23.833 1.5 31.5s2.83301 13.167 5.5 16.5s6.16699 4.66602 10.5 3.99902s9.5 -2.66699 15.5 -6l800 -406c5.33301 -2.66699 10 -9.33398 14 -20.001s6 -24.334 6 -41.001z" />
    <glyph glyph-name="question" unicode="?" horiz-adv-x="949" 
d="M849 992c0 -60 -8.66797 -113.163 -26.001 -159.496s-41.5 -85.5 -72.5 -117.5s-68.167 -56.667 -111.5 -74s-91.333 -27 -144 -29l-6 -267c0 -8.66699 -4 -15.167 -12 -19.5s-22.333 -6.5 -43 -6.5c-10 0 -18.667 0.5 -26 1.5s-13.166 2.66699 -17.499 5
s-7.5 5.16602 -9.5 8.49902s-3 7 -3 11l-5 300c0 12 1.5 22 4.5 30s7.33301 14.5 13 19.5s12.667 8.5 21 10.5s18.166 3 29.499 3h26c48 0 88.667 7.5 122 22.5s60.166 35 80.499 60s35 54.167 44 87.5s13.5 68.333 13.5 105c0 41.333 -5.66699 79.166 -17 113.499
s-28.5 64 -51.5 89s-52 44.333 -87 58s-76.5 20.5 -124.5 20.5c-40.667 0 -76.5 -4.5 -107.5 -13.5s-57.833 -19 -80.5 -30s-41.167 -21 -55.5 -30s-24.833 -13.5 -31.5 -13.5c-4.66699 0 -8.83398 0.833008 -12.501 2.5s-6.66699 4.66699 -9 9s-4.16602 10 -5.49902 17
s-2 15.5 -2 25.5c0 12 0.833008 21.5 2.5 28.5s5.83398 13.667 12.501 20s19.834 14.833 39.501 25.5s43.167 20.667 70.5 30s57.333 17.166 90 23.499s66 9.5 100 9.5c67.333 0 125.5 -9.66699 174.5 -29s89.5 -46 121.5 -80s55.833 -73.833 71.5 -119.5
s23.5 -94.834 23.5 -147.501zM522.999 89.0039c0 -18.667 -1.16699 -34.167 -3.5 -46.5s-6.83301 -22.166 -13.5 -29.499s-15.5 -12.5 -26.5 -15.5s-24.833 -4.5 -41.5 -4.5c-17.333 0 -31.5 1.5 -42.5 4.5s-19.833 8.16699 -26.5 15.5s-11.167 17.166 -13.5 29.499
s-3.5 27.833 -3.5 46.5s1.16699 34.334 3.5 47.001s6.83301 22.5 13.5 29.5s15.5 12 26.5 15s25.167 4.5 42.5 4.5c16.667 0 30.5 -1.5 41.5 -4.5s19.833 -8 26.5 -15s11.167 -16.833 13.5 -29.5s3.5 -28.334 3.5 -47.001z" />
    <glyph glyph-name="at" unicode="@" horiz-adv-x="1826" 
d="M1626 768c0 -42.667 -2.49902 -87.166 -7.49902 -133.499s-13.333 -91.5 -25 -135.5s-27 -85.833 -46 -125.5s-42.667 -74.5 -71 -104.5s-61.5 -53.667 -99.5 -71s-81.667 -26 -131 -26c-24 0 -46.833 3.16699 -68.5 9.5s-41 15.666 -58 27.999s-31.333 28 -43 47
s-19.5 41.167 -23.5 66.5c-26.667 -27.333 -52.5 -50.5 -77.5 -69.5s-49.5 -34.5 -73.5 -46.5s-47.167 -20.833 -69.5 -26.5s-43.833 -8.5 -64.5 -8.5c-26.667 0 -50.667 2.5 -72 7.5s-40.333 12.333 -57 22s-31 21.834 -43 36.501s-22 31.834 -30 51.501
s-13.833 41.667 -17.5 66s-5.5 51.166 -5.5 80.499c0 27.333 2.16699 59.166 6.5 95.499s11.666 74 21.999 113s24.5 77.333 42.5 115s40.667 71.334 68 101.001s59.833 53.667 97.5 72s81.834 27.5 132.501 27.5c21.333 0 41.833 -2.66699 61.5 -8s38.5 -13.5 56.5 -24.5
s35.333 -24.5 52 -40.5s33 -34.667 49 -56l18 94c2 8.66699 6.66699 14.834 14 18.501s20.666 5.5 39.999 5.5c9.33301 0 17.166 -0.5 23.499 -1.5s11.333 -2.5 15 -4.5s6.16699 -4.5 7.5 -7.5s1.66602 -6.5 0.999023 -10.5l-91 -467
c-12 -62.667 -8.83301 -109.167 9.5 -139.5s52.166 -45.5 101.499 -45.5c29.333 0 55.833 7.16699 79.5 21.5s44.334 33.666 62.001 57.999s32.667 52.666 45 84.999s22.333 66.666 30 102.999s13.334 73.666 17.001 111.999s5.5 75.5 5.5 111.5
c0 60 -8.16699 117.333 -24.5 172s-43.666 102.834 -81.999 144.501s-89.5 75 -153.5 100s-144 37.5 -240 37.5c-86 0 -161.667 -9.83301 -227 -29.5s-122.333 -46 -171 -79s-89.834 -71 -123.501 -114s-61.5 -88 -83.5 -135s-39.167 -94.5 -51.5 -142.5
s-21.333 -93.167 -27 -135.5s-9.16699 -80.5 -10.5 -114.5s-2 -60.333 -2 -79c0 -74.667 8.83301 -143.834 26.5 -207.501s48.167 -119 91.5 -166s101.833 -83.833 175.5 -110.5s166.167 -40 277.5 -40c47.333 0 89.833 2.66699 127.5 8s70.334 11 98.001 17
s50 11.667 67 17s28.5 8 34.5 8c4 0 7.33301 -1 10 -3s4.66699 -5 6 -9s2.33301 -9 3 -15s1 -13 1 -21c0 -6 -0.166992 -11 -0.5 -15s-1 -7.83301 -2 -11.5s-2.5 -7.33398 -4.5 -11.001s-5 -7 -9 -10s-15 -7.66699 -33 -14s-42.333 -12.666 -73 -18.999
s-66.834 -11.833 -108.501 -16.5s-87.167 -7 -136.5 -7c-124 0 -228.333 14.833 -313 44.5s-153.334 71.667 -206.001 126s-90.5 119.5 -113.5 195.5s-34.5 160.333 -34.5 253c0 23.333 0.833008 54.5 2.5 93.5s6.16699 82.667 13.5 131s18.5 99.333 33.5 153
s35.667 106.834 62 159.501s59.5 103.167 99.5 151.5s88.833 90.833 146.5 127.5s124.834 65.834 201.501 87.501s165.334 32.5 266.001 32.5c102 0 190.833 -12.833 266.5 -38.5s138.5 -62.167 188.5 -109.5s87.333 -105 112 -173s37 -144.333 37 -229zM1096 717.001
c-28 46.667 -56.666 82.167 -85.999 106.5s-62.666 36.5 -99.999 36.5c-31.333 0 -59.333 -7.33301 -84 -22s-46.167 -33.834 -64.5 -57.501s-33.833 -50.5 -46.5 -80.5s-23 -60.5 -31 -91.5s-13.667 -61.167 -17 -90.5s-5 -55 -5 -77c0 -54 9.83301 -95.333 29.5 -124
s52.5 -43 98.5 -43c17.333 0 35.166 3 53.499 9s37.833 15.5 58.5 28.5s42.667 29.833 66 50.5s48.666 45.334 75.999 74.001zM0.00195312 1294z" />
    <glyph glyph-name="A" unicode="A" horiz-adv-x="1154" 
d="M1108 41c4 -10 5.83105 -18.1689 5.49805 -24.502s-2.66602 -11.166 -6.99902 -14.499s-11 -5.5 -20 -6.5s-20.5 -1.5 -34.5 -1.5s-25.167 0.5 -33.5 1.5s-14.833 2.5 -19.5 4.5s-8.16699 4.66699 -10.5 8s-4.5 7.33301 -6.5 12l-124 345h-568l-119 -343
c-1.33301 -4.66699 -3.33301 -8.66699 -6 -12s-6.33398 -6.16602 -11.001 -8.49902s-11.167 -4.16602 -19.5 -5.49902s-18.833 -2 -31.5 -2c-14 0 -25.667 0.666992 -35 2s-16.166 3.66602 -20.499 6.99902s-6.66602 8 -6.99902 14s1.5 14 5.5 24l453 1231
c2 5.33301 5 9.83301 9 13.5s9.16699 6.5 15.5 8.5s14 3.5 23 4.5s19.167 1.5 30.5 1.5c12 0 22.5 -0.5 31.5 -1.5s16.667 -2.5 23 -4.5s11.333 -4.83301 15 -8.5s6.5 -8.16699 8.5 -13.5zM570.998 1163h-1l-244 -696h495z" />
    <glyph glyph-name="B" unicode="B" horiz-adv-x="1096" 
d="M996 362c0 -38 -4.50195 -73.3359 -13.502 -106.003s-21.833 -62.334 -38.5 -89.001s-37 -50.334 -61 -71.001s-51.167 -38.167 -81.5 -52.5s-63.166 -25.166 -98.499 -32.499s-76.333 -11 -123 -11h-335c-12 0 -24.333 4.5 -37 13.5s-19 25.5 -19 49.5v1168
c0 24 6.33301 40.5 19 49.5s25 13.5 37 13.5h278c75.333 0 136.333 -7.66699 183 -23s85.167 -37.166 115.5 -65.499s53 -62.666 68 -102.999s22.5 -85.166 22.5 -134.499c0 -30.667 -3.5 -60 -10.5 -88s-17.5 -54 -31.5 -78s-31.5 -45.667 -52.5 -65
s-45.833 -35.666 -74.5 -48.999c34.667 -6.66699 67.334 -19.167 98.001 -37.5s57.5 -41.5 80.5 -69.5s41.167 -60.5 54.5 -97.5s20 -77.5 20 -121.5zM781.998 959.997c0 34 -4.66602 64.8311 -13.999 92.498s-24.166 51.334 -44.499 71.001s-46.833 34.834 -79.5 45.501
s-76.334 16 -131.001 16h-202v-464h222c48.667 0 88 6.5 118 19.5s54.667 30.5 74 52.5s33.666 47.5 42.999 76.5s14 59.167 14 90.5zM865.999 351.995c0 42.667 -6.83203 80.335 -20.499 113.002s-33.667 60 -60 82s-58.833 38.667 -97.5 50s-86.667 17 -144 17h-233v-505
h282c41.333 0 77.833 5.16699 109.5 15.5s59.667 25.666 84 45.999s43.666 45.666 57.999 75.999s21.5 65.5 21.5 105.5z" />
    <glyph glyph-name="C" unicode="C" horiz-adv-x="1096" 
d="M1036 176c0 -7.33301 -0.337891 -14.0078 -1.00488 -20.0078s-1.66699 -11.333 -3 -16s-3.16602 -9 -5.49902 -13s-6.66602 -9.16699 -12.999 -15.5s-20.166 -16.666 -41.499 -30.999s-48.166 -28.5 -80.499 -42.5s-69.5 -26 -111.5 -36s-88.333 -15 -139 -15
c-81.333 0 -155 14.167 -221 42.5s-122.167 69.833 -168.5 124.5s-82 122 -107 202s-37.5 171.333 -37.5 274c0 105.333 13.333 199.833 40 283.5s64.167 154.667 112.5 213s106.333 103 174 134s142.5 46.5 224.5 46.5c38.667 0 76.167 -3.66699 112.5 -11
s69.833 -16.666 100.5 -27.999s58.167 -24.333 82.5 -39s41 -26.5 50 -35.5s14.667 -15.5 17 -19.5s4.16602 -8.5 5.49902 -13.5s2.33301 -10.667 3 -17s1 -13.5 1 -21.5c0 -9.33301 -0.5 -17.5 -1.5 -24.5s-2.66699 -13 -5 -18s-5.16602 -8.83301 -8.49902 -11.5
s-7.33301 -4 -12 -4c-9.33301 0 -22.5 6.83301 -39.5 20.5s-39.333 28.834 -67 45.501s-61.5 31.834 -101.5 45.501s-87.667 20.5 -143 20.5c-60.667 0 -116.334 -12.167 -167.001 -36.5s-94.167 -60.166 -130.5 -107.499s-64.666 -105.666 -84.999 -174.999
s-30.5 -149 -30.5 -239c0 -86 9.33301 -162.333 28 -229s45.667 -122.834 81 -168.501s79 -80.5 131 -104.5s111 -36 177 -36c54 0 101.167 6.83301 141.5 20.5s74.833 28.834 103.5 45.501s52.167 31.834 70.5 45.501s32.5 20.5 42.5 20.5c4 0 7.33301 -0.833008 10 -2.5
s4.83398 -4.66699 6.50098 -9s3 -10.166 4 -17.499s1.5 -16.333 1.5 -27z" />
    <glyph glyph-name="D" unicode="D" horiz-adv-x="1243" 
d="M1140 666c0 -108.667 -13.6689 -204.5 -41.002 -287.5s-67.666 -152.5 -120.999 -208.5s-119.166 -98.333 -197.499 -127s-171.833 -43 -280.5 -43h-255c-12 0 -24.333 4.5 -37 13.5s-19 25.5 -19 49.5v1168c0 24 6.33301 40.5 19 49.5s25 13.5 37 13.5h272
c110 0 202.833 -15 278.5 -45s139 -72.5 190 -127.5s89.5 -121 115.5 -198s39 -162.833 39 -257.5zM1009 660c0 75.333 -9.49902 145.167 -28.499 209.5s-48.333 119.833 -88 166.5s-89.834 83.167 -150.501 109.5s-138 39.5 -232 39.5h-199v-1076h200
c88 0 162.5 10.833 223.5 32.5s111.833 55.167 152.5 100.5s71.167 102.5 91.5 171.5s30.5 151.167 30.5 246.5z" />
    <glyph glyph-name="E" unicode="E" horiz-adv-x="1001" 
d="M883 54c0 -8.66699 -0.666992 -16.334 -2 -23.001s-3.5 -12.334 -6.5 -17.001s-6.5 -8.16699 -10.5 -10.5s-8.33301 -3.5 -13 -3.5h-606c-12 0 -24.333 4.5 -37 13.5s-19 25.5 -19 49.5v1168c0 24 6.33301 40.5 19 49.5s25 13.5 37 13.5h597
c4.66699 0 9 -1.16699 13 -3.5s7.33301 -5.83301 10 -10.5s4.66699 -10.5 6 -17.5s2 -15.167 2 -24.5c0 -8.66699 -0.666992 -16.334 -2 -23.001s-3.33301 -12.167 -6 -16.5s-6 -7.66602 -10 -9.99902s-8.33301 -3.5 -13 -3.5h-531v-455h458c5.33301 0 10 -1.16699 14 -3.5
s7.33301 -5.66602 10 -9.99902s4.66699 -10 6 -17s2 -15.167 2 -24.5c0 -8.66699 -0.666992 -16.167 -2 -22.5s-3.33301 -11.5 -6 -15.5s-6 -7 -10 -9s-8.66699 -3 -14 -3h-458v-516h540c4.66699 0 9 -1.16699 13 -3.5s7.5 -5.66602 10.5 -9.99902s5.16699 -10 6.5 -17
s2 -15.167 2 -24.5z" />
    <glyph glyph-name="F" unicode="F" horiz-adv-x="942" 
d="M844 1238c0 -8.66699 -0.666016 -16.334 -1.99902 -23.001s-3.5 -12.167 -6.5 -16.5s-6.5 -7.66602 -10.5 -9.99902s-8.33301 -3.5 -13 -3.5h-501v-490h475c4.66699 0 9 -0.833008 13 -2.5s7.5 -4.5 10.5 -8.5s5.16699 -9.33301 6.5 -16s2 -15 2 -25
c0 -8.66699 -0.666992 -16.334 -2 -23.001s-3.5 -12.167 -6.5 -16.5s-6.5 -7.66602 -10.5 -9.99902s-8.33301 -3.5 -13 -3.5h-475v-570c0 -4 -1 -7.66699 -3 -11s-5.33301 -6 -10 -8s-10.834 -3.66699 -18.501 -5s-17.5 -2 -29.5 -2c-11.333 0 -21 0.666992 -29 2
s-14.333 3 -19 5s-8 4.66699 -10 8s-3 7 -3 11v1211c0 24 6.33301 40.5 19 49.5s25 13.5 37 13.5h567c4.66699 0 9 -1.16699 13 -3.5s7.5 -5.83301 10.5 -10.5s5.16699 -10.5 6.5 -17.5s2 -15.167 2 -24.5z" />
    <glyph glyph-name="G" unicode="G" horiz-adv-x="1285" 
d="M1125 1131c0 -8.66699 -0.667969 -16.6738 -2.00098 -24.0068s-3.16602 -13.5 -5.49902 -18.5s-5.33301 -8.83301 -9 -11.5s-7.5 -4 -11.5 -4c-8 0 -21.167 6.66699 -39.5 20s-42.833 27.833 -73.5 43.5s-67.834 30.167 -111.501 43.5s-95.5 20 -155.5 20
c-76.667 0 -145 -14.167 -205 -42.5s-110.667 -67.166 -152 -116.499s-72.833 -107.833 -94.5 -175.5s-32.5 -140.5 -32.5 -218.5c0 -87.333 12.333 -165.166 37 -233.499s58.834 -126 102.501 -173s95.667 -82.833 156 -107.5s126.166 -37 197.499 -37
c46 0 92.667 5.66699 140 17s91.666 28.666 132.999 51.999v419h-330c-10.667 0 -18.667 4.66699 -24 14s-8 22.666 -8 39.999c0 9.33301 0.666992 17.5 2 24.5s3.33301 12.667 6 17s6 7.66602 10 9.99902s8.66699 3.5 14 3.5h396c6 0 12.333 -1 19 -3
s12.834 -5.33301 18.501 -10s10.167 -11.167 13.5 -19.5s5 -18.5 5 -30.5v-481c0 -16 -2.5 -29.667 -7.5 -41s-16.5 -22.166 -34.5 -32.499s-42 -21.666 -72 -33.999s-61 -22.666 -93 -30.999s-64.167 -14.666 -96.5 -18.999s-64.166 -6.5 -95.499 -6.5
c-98 0 -185.5 15.833 -262.5 47.5s-142 76.334 -195 134.001s-93.5 126.334 -121.5 206.001s-42 167.5 -42 263.5c0 100.667 15.167 192.5 45.5 275.5s73 153.833 128 212.5s120.833 104.167 197.5 136.5s161.334 48.5 254.001 48.5c46.667 0 90.834 -4.33301 132.501 -13
s79.167 -19.167 112.5 -31.5s61.666 -25.666 84.999 -39.999s39.166 -25.666 47.499 -33.999s14 -16.5 17 -24.5s4.5 -19.667 4.5 -35z" />
    <glyph glyph-name="H" unicode="H" horiz-adv-x="1268" 
d="M1079 20c0 -4 -1 -7.66699 -3 -11s-5.33301 -6 -10 -8s-11 -3.66699 -19 -5s-17.667 -2 -29 -2c-12 0 -21.833 0.666992 -29.5 2s-13.834 3 -18.501 5s-8 4.66699 -10 8s-3 7 -3 11v603h-646v-603c0 -4 -1 -7.66699 -3 -11s-5.33301 -6 -10 -8
s-10.834 -3.66699 -18.501 -5s-17.5 -2 -29.5 -2c-11.333 0 -21 0.666992 -29 2s-14.333 3 -19 5s-8 4.66699 -10 8s-3 7 -3 11v1254c0 4 1 7.66699 3 11s5.33301 6 10 8s11 3.66699 19 5s17.667 2 29 2c12 0 21.833 -0.666992 29.5 -2s13.834 -3 18.501 -5
s8 -4.66699 10 -8s3 -7 3 -11v-542h646v542c0 4 1 7.66699 3 11s5.33301 6 10 8s10.834 3.66699 18.501 5s17.5 2 29.5 2c11.333 0 21 -0.666992 29 -2s14.333 -3 19 -5s8 -4.66699 10 -8s3 -7 3 -11v-1254z" />
    <glyph glyph-name="I" unicode="I" horiz-adv-x="500" 
d="M311 20c0 -4 -1.00098 -7.66699 -3.00098 -11s-5.33301 -6 -10 -8s-10.834 -3.66699 -18.501 -5s-17.5 -2 -29.5 -2c-11.333 0 -21 0.666992 -29 2s-14.333 3 -19 5s-8 4.66699 -10 8s-3 7 -3 11v1254c0 4 1.16699 7.66699 3.5 11s6 6 11 8s11.333 3.66699 19 5
s16.834 2 27.501 2c12 0 21.833 -0.666992 29.5 -2s13.834 -3 18.501 -5s8 -4.66699 10 -8s3 -7 3 -11v-1254z" />
    <glyph glyph-name="J" unicode="J" horiz-adv-x="640" 
d="M454 308c0 -48 -4.16504 -92 -12.498 -132s-22.833 -74.333 -43.5 -103s-48 -50.834 -82 -66.501s-76.333 -23.5 -127 -23.5c-18 0 -35.667 1.66699 -53 5s-33.333 7.5 -48 12.5s-27.5 10.333 -38.5 16s-18.333 10.5 -22 14.5s-6.5 7.66699 -8.5 11
s-3.83301 7.33301 -5.5 12s-2.83398 10.334 -3.50098 17.001s-1 14.667 -1 24c0 10 0.666992 18.333 2 25s3.16602 11.834 5.49902 15.501s5.16602 6.33398 8.49902 8.00098s7.33301 2.5 12 2.5c5.33301 0 12.333 -2.83301 21 -8.5s19.167 -11.667 31.5 -18
s26.833 -12.333 43.5 -18s36 -8.5 58 -8.5c24.667 0 45.834 3 63.501 9s32.167 17.667 43.5 35s19.833 41.166 25.5 71.499s8.5 70.166 8.5 119.499v946c0 4 1 7.66699 3 11s5.33301 6 10 8s11 3.66699 19 5s17.667 2 29 2s21 -0.666992 29 -2s14.333 -3 19 -5
s8 -4.66699 10 -8s3 -7 3 -11v-966z" />
    <glyph glyph-name="K" unicode="K" horiz-adv-x="1033" 
d="M977 22c0 -4.66699 -0.663086 -8.66895 -1.99609 -12.002s-4.33301 -6.16602 -9 -8.49902s-11 -4.16602 -19 -5.49902s-18.333 -2 -31 -2c-12 0 -24.167 0.666992 -36.5 2s-21.833 4.16602 -28.5 8.49902s-12.334 9.5 -17.001 15.5l-523 664v-664
c0 -4 -1 -7.66699 -3 -11s-5.33301 -6 -10 -8s-10.834 -3.66699 -18.501 -5s-17.5 -2 -29.5 -2c-11.333 0 -21 0.666992 -29 2s-14.333 3 -19 5s-8 4.66699 -10 8s-3 7 -3 11v1254c0 4 1 7.66699 3 11s5.33301 6 10 8s11 3.66699 19 5s17.667 2 29 2
c12 0 21.833 -0.666992 29.5 -2s13.834 -3 18.501 -5s8 -4.66699 10 -8s3 -7 3 -11v-588l501 588c4 4.66699 8.33301 8.66699 13 12s10 6 16 8s13 3.5 21 4.5s18 1.5 30 1.5s21.667 -0.666992 29 -2s13.166 -3.16602 17.499 -5.49902s7.16602 -5 8.49902 -8s2 -6.5 2 -10.5
c0 -7.33301 -1.83301 -14.333 -5.5 -21s-9.83398 -14.667 -18.501 -24l-471 -539l503 -631c9.33301 -12 15 -20.333 17 -25s3 -8.66699 3 -12z" />
    <glyph glyph-name="L" unicode="L" horiz-adv-x="858" 
d="M838 56c0 -9.33301 -0.667969 -17.334 -2.00098 -24.001s-3.33301 -12.5 -6 -17.5s-6 -8.66699 -10 -11s-8.66699 -3.5 -14 -3.5h-561c-12 0 -24.333 4.5 -37 13.5s-19 25.5 -19 49.5v1211c0 4 1 7.66699 3 11s5.33301 6 10 8s11 3.66699 19 5s17.667 2 29 2
c12 0 21.833 -0.666992 29.5 -2s13.834 -3 18.501 -5s8 -4.66699 10 -8s3 -7 3 -11v-1163h495c5.33301 0 10 -1.16699 14 -3.5s7.33301 -5.66602 10 -9.99902s4.66699 -10 6 -17s2 -15.167 2 -24.5z" />
    <glyph glyph-name="M" unicode="M" horiz-adv-x="1730" 
d="M1541 20c0 -4 -0.999023 -7.66797 -2.99902 -11.001s-5.5 -6 -10.5 -8s-11.333 -3.66699 -19 -5s-17.5 -2 -29.5 -2c-10.667 0 -20 0.666992 -28 2s-14.333 3 -19 5s-8 4.66699 -10 8s-3 7 -3 11v1167h-2l-509 -1174c-1.33301 -2.66699 -3.33301 -5.16699 -6 -7.5
s-6.33398 -4.33301 -11.001 -6s-10.167 -3 -16.5 -4s-13.833 -1.5 -22.5 -1.5c-9.33301 0 -17.333 0.5 -24 1.5s-12.167 2.33301 -16.5 4s-7.83301 3.66699 -10.5 6s-4.33398 4.83301 -5.00098 7.5l-484 1174h-1v-1167c0 -4 -1 -7.66699 -3 -11s-5.5 -6 -10.5 -8
s-11.333 -3.66699 -19 -5s-17.834 -2 -30.501 -2c-11.333 0 -20.833 0.666992 -28.5 2s-13.834 3 -18.501 5s-7.83398 4.66699 -9.50098 8s-2.5 7 -2.5 11v1211c0 24 6.33301 40.5 19 49.5s25 13.5 37 13.5h66c16.667 0 31.334 -1.83301 44.001 -5.5s23.834 -9 33.501 -16
s17.834 -15.5 24.501 -25.5s12.667 -21.333 18 -34l427 -1028h5l445 1024c6.66699 16 13.834 29.5 21.501 40.5s15.667 19.833 24 26.5s17.333 11.334 27 14.001s20.167 4 31.5 4h73c6 0 12.333 -1 19 -3s12.667 -5.5 18 -10.5s9.83301 -11.5 13.5 -19.5s5.5 -18 5.5 -30
v-1211z" />
    <glyph glyph-name="N" unicode="N" horiz-adv-x="1307" 
d="M1118 59c0 -12 -1.83398 -21.999 -5.50098 -29.999s-8.33398 -14.5 -14.001 -19.5s-12 -8.5 -19 -10.5s-13.5 -3 -19.5 -3h-25c-13.333 0 -25.5 1.66699 -36.5 5s-21.667 9.16602 -32 17.499s-20.666 19.5 -30.999 33.5s-21.833 32 -34.5 54l-456 808l-68.5 121.5
l-65.5 121.5h-1c0.666992 -48.667 1 -98.5 1 -149.5v-149.5v-838c0 -4 -1 -7.66699 -3 -11s-5.33301 -6 -10 -8s-10.834 -3.66699 -18.501 -5s-17.5 -2 -29.5 -2c-11.333 0 -21 0.666992 -29 2s-14.333 3 -19 5s-8 4.66699 -10 8s-3 7 -3 11v1211c0 24 6.33301 40.5 19 49.5
s25 13.5 37 13.5h50c16 0 29.333 -1.33301 40 -4s20.334 -7.16699 29.001 -13.5s17.167 -15.333 25.5 -27s17.5 -26.5 27.5 -44.5l349 -619l62.5 -111.5l57.5 -105l55.5 -101.5l54.5 -101h1c-0.666992 56 -1 114.333 -1 175v175v753c0 4 1 7.66699 3 11
s5.33301 6.16602 10 8.49902s10.834 4 18.501 5s17.5 1.5 29.5 1.5c10.667 0 20 -0.5 28 -1.5s14.333 -2.66699 19 -5s8.16699 -5.16602 10.5 -8.49902s3.5 -7 3.5 -11v-1211z" />
    <glyph glyph-name="O" unicode="O" horiz-adv-x="1340" 
d="M1230 662c0 -103.333 -11.835 -196.831 -35.502 -280.498s-59.167 -155 -106.5 -214s-107 -104.5 -179 -136.5s-156 -48 -252 -48s-178.5 15.167 -247.5 45.5s-125.667 73.666 -170 129.999s-77 125.166 -98 206.499s-31.5 173 -31.5 275
c0 101.333 11.667 193.333 35 276s58.833 153.167 106.5 211.5s107.334 103.5 179.001 135.5s155.834 48 252.501 48c94 0 175.333 -15 244 -45s125.5 -73 170.5 -129s78.333 -124 100 -204s32.5 -170.333 32.5 -271zM1100 651.002c0 76.667 -7.16699 148.501 -21.5 215.501
s-38 125.333 -71 175s-76.833 88.667 -131.5 117s-122.334 42.5 -203.001 42.5c-80 0 -147.5 -14.833 -202.5 -44.5s-99.667 -69.5 -134 -119.5s-59 -108.333 -74 -175s-22.5 -137 -22.5 -211c0 -78.667 6.83301 -151.834 20.5 -219.501s36.834 -126.5 69.501 -176.5
s76.334 -89.167 131.001 -117.5s123 -42.5 205 -42.5c81.333 0 149.666 15.167 204.999 45.5s100 71 134 122s58.333 110 73 177s22 137.5 22 211.5z" />
    <glyph glyph-name="P" unicode="P" horiz-adv-x="1040" 
d="M934 923c0 -60 -10.166 -115 -30.499 -165s-49.5 -93 -87.5 -129s-84.333 -64 -139 -84s-120.667 -30 -198 -30h-168v-495c0 -4 -1 -7.66699 -3 -11s-5.33301 -6 -10 -8s-10.834 -3.66699 -18.501 -5s-17.5 -2 -29.5 -2c-11.333 0 -21 0.666992 -29 2s-14.333 3 -19 5
s-8 4.66699 -10 8s-3 7 -3 11v1211c0 24 6.33301 40.5 19 49.5s25 13.5 37 13.5h263c26 0 51.333 -1.16699 76 -3.5s53.5 -7.33301 86.5 -15s66.667 -22 101 -43s63.5 -46.667 87.5 -77s42.5 -65 55.5 -104s19.5 -81.833 19.5 -128.5zM805.001 912
c0 56 -11 103.501 -33 142.501s-48.833 68 -80.5 87s-64.667 31 -99 36s-66.833 7.5 -97.5 7.5h-184v-562h176c56.667 0 104 7.16699 142 21.5s70 34.166 96 59.499s45.833 55.833 59.5 91.5s20.5 74.5 20.5 116.5z" />
    <glyph glyph-name="Q" unicode="Q" horiz-adv-x="1364" 
d="M1409 -109c0 -10.667 -0.835938 -19.8301 -2.50293 -27.4971s-4 -13.834 -7 -18.501s-6.16699 -8 -9.5 -10s-7 -3 -11 -3c-8 0 -25.167 5.33301 -51.5 16s-58.166 26 -95.499 46s-78.166 44.5 -122.499 73.5s-88.5 62.833 -132.5 101.5
c-34 -23.333 -77.667 -43.5 -131 -60.5s-116.333 -25.5 -189 -25.5c-96 0 -178.5 15.167 -247.5 45.5s-125.667 73.666 -170 129.999s-77 125.166 -98 206.499s-31.5 173 -31.5 275c0 101.333 11.667 193.333 35 276s58.833 153.167 106.5 211.5
s107.334 103.5 179.001 135.5s155.834 48 252.501 48c90.667 0 170.167 -15 238.5 -45s125.333 -73 171 -129s80 -124 103 -204s34.5 -170.333 34.5 -271c0 -51.333 -3 -101.333 -9 -150s-15.5 -95 -28.5 -139s-29.667 -85.167 -50 -123.5s-44.5 -72.833 -72.5 -103.5
c52 -43.333 97.667 -77 137 -101s71.666 -42.333 96.999 -55s44.833 -21.667 58.5 -27s23.5 -11 29.5 -17s10.333 -13.333 13 -22s4 -19.667 4 -33zM1100 651.004c0 76.667 -7.16699 148.501 -21.5 215.501s-38 125.333 -71 175s-76.833 88.667 -131.5 117
s-122.334 42.5 -203.001 42.5c-80 0 -147.5 -14.833 -202.5 -44.5s-99.667 -69.5 -134 -119.5s-59 -108.333 -74 -175s-22.5 -137 -22.5 -211c0 -78.667 6.83301 -151.834 20.5 -219.501s36.834 -126.5 69.501 -176.5s76.334 -89.167 131.001 -117.5s123 -42.5 205 -42.5
c81.333 0 149.666 15.167 204.999 45.5s100 71 134 122s58.333 110 73 177s22 137.5 22 211.5z" />
    <glyph glyph-name="R" unicode="R" horiz-adv-x="1090" 
d="M999 22c0 -4.66699 -0.830078 -8.66309 -2.49707 -11.9961s-4.83398 -6.16602 -9.50098 -8.49902s-11.167 -4.16602 -19.5 -5.49902s-18.833 -2 -31.5 -2c-11.333 0 -20.833 0.5 -28.5 1.5s-14.167 3 -19.5 6s-9.66602 7 -12.999 12s-6.33301 11.5 -9 19.5l-121 314
c-14 35.333 -29 68.666 -45 99.999s-35.333 58.5 -58 81.5s-50 41.167 -82 54.5s-70.333 20 -115 20h-134v-583c0 -4 -1 -7.66699 -3 -11s-5.33301 -6 -10 -8s-10.834 -3.66699 -18.501 -5s-17.5 -2 -29.5 -2c-11.333 0 -21 0.666992 -29 2s-14.333 3 -19 5
s-8 4.66699 -10 8s-3 7 -3 11v1211c0 24 6.33301 40.5 19 49.5s25 13.5 37 13.5h243c32 0 58.5 -0.833008 79.5 -2.5s40.167 -3.83398 57.5 -6.50098c49.333 -8.66699 92.333 -22.667 129 -42s67 -43.166 91 -71.499s41.833 -60.333 53.5 -96s17.5 -74.167 17.5 -115.5
c0 -42.667 -6 -80.834 -18 -114.501s-29 -63.334 -51 -89.001s-48.333 -47.834 -79 -66.501s-64.334 -34.334 -101.001 -47.001c22 -10 41.833 -22.333 59.5 -37s34 -32.334 49 -53.001s29.167 -44.5 42.5 -71.5s26.666 -57.167 39.999 -90.5l121 -302
c8.66699 -23.333 14.167 -39.333 16.5 -48s3.5 -15 3.5 -19zM784.003 947.004c0 55.333 -12.332 102.169 -36.999 140.502s-66 65.833 -124 82.5c-19.333 5.33301 -40.333 9.16602 -63 11.499s-52.334 3.5 -89.001 3.5h-160v-475h186c50 0 93 6.16699 129 18.5
s65.833 29.166 89.5 50.499s41 46.333 52 75s16.5 59.667 16.5 93z" />
    <glyph glyph-name="S" unicode="S" horiz-adv-x="927" 
d="M844 350c0 -57.333 -10.3389 -108.673 -31.0059 -154.006s-49.667 -83.833 -87 -115.5s-81.666 -55.834 -132.999 -72.501s-107.333 -25 -168 -25c-41.333 0 -80.333 3.83301 -117 11.5s-69.334 16.834 -98.001 27.501s-52.834 21.5 -72.501 32.5
s-33.167 20.333 -40.5 28s-12.666 16.667 -15.999 27s-5 23.166 -5 38.499c0 11.333 0.666992 20.666 2 27.999s3.16602 13.333 5.49902 18s5.33301 7.83398 9 9.50098s7.5 2.5 11.5 2.5c9.33301 0 22.5 -5.83301 39.5 -17.5s39 -24.334 66 -38.001
s59.333 -26.334 97 -38.001s81.5 -17.5 131.5 -17.5c40.667 0 78 5.5 112 16.5s63.333 26.833 88 47.5s43.834 46.167 57.501 76.5s20.5 64.833 20.5 103.5c0 40 -8.66699 74.333 -26 103s-40.166 53.834 -68.499 75.501s-60.5 41.334 -96.5 59.001l-110.5 53
c-37.667 17.667 -74.5 36.834 -110.5 57.501s-68.167 44.834 -96.5 72.501s-51.166 60.167 -68.499 97.5s-26 81.666 -26 132.999c0 50 9 94.833 27 134.5s43.333 73.334 76 101.001s71.834 48.834 117.501 63.501s95.834 22 150.501 22c27.333 0 55 -2.66699 83 -8
s54.5 -12.166 79.5 -20.499s47.333 -17.666 67 -27.999s32.667 -18.666 39 -24.999s10.333 -11 12 -14s3.16699 -6.83301 4.5 -11.5s2.33301 -10.167 3 -16.5s1 -14.166 1 -23.499c0 -8.66699 -0.5 -16.5 -1.5 -23.5s-2.5 -13 -4.5 -18s-4.5 -8.83301 -7.5 -11.5
s-6.5 -4 -10.5 -4c-7.33301 0 -18.5 4.83301 -33.5 14.5s-33.833 20.5 -56.5 32.5s-49.667 22.833 -81 32.5s-67 14.5 -107 14.5c-39.333 0 -73.666 -5.33301 -102.999 -16s-53.666 -25.167 -72.999 -43.5s-33.833 -39.833 -43.5 -64.5s-14.5 -50.667 -14.5 -78
c0 -40 8.66699 -74.333 26 -103s40.333 -54 69 -76s61.167 -41.833 97.5 -59.5l111 -53c37.667 -17.667 74.667 -36.667 111 -57s68.833 -44.333 97.5 -72s51.667 -60 69 -97s26 -80.833 26 -131.5z" />
    <glyph glyph-name="T" unicode="T" horiz-adv-x="990" 
d="M973 1238c0 -8.66699 -0.666992 -16.334 -2 -23.001s-3.33301 -12.167 -6 -16.5s-6 -7.66602 -10 -9.99902s-8.33301 -3.5 -13 -3.5h-386v-1165c0 -4 -1 -7.66699 -3 -11s-5.33301 -6 -10 -8s-11 -3.66699 -19 -5s-17.667 -2 -29 -2s-21 0.666992 -29 2s-14.333 3 -19 5
s-8 4.66699 -10 8s-3 7 -3 11v1165h-386c-5.33301 0 -9.83301 1.16699 -13.5 3.5s-6.83398 5.66602 -9.50098 9.99902s-4.66699 9.83301 -6 16.5s-2 14.334 -2 23.001c0 9.33301 0.666992 17.5 2 24.5s3.33301 12.833 6 17.5s5.83398 8.16699 9.50098 10.5
s8.16699 3.5 13.5 3.5h894c4.66699 0 9 -1.16699 13 -3.5s7.33301 -5.83301 10 -10.5s4.66699 -10.5 6 -17.5s2 -15.167 2 -24.5z" />
    <glyph glyph-name="U" unicode="U" horiz-adv-x="1302" 
d="M1116 476c0 -78.667 -11.167 -148.667 -33.5 -210s-54.166 -113 -95.499 -155s-91.333 -73.833 -150 -95.5s-124.334 -32.5 -197.001 -32.5c-66 0 -126.833 10.333 -182.5 31s-103.667 51.167 -144 91.5s-71.666 90.333 -93.999 150s-33.5 128.5 -33.5 206.5v812
c0 4 1 7.66699 3 11s5.5 6 10.5 8s11.167 3.66699 18.5 5s17 2 29 2c11.333 0 21 -0.666992 29 -2s14.333 -3 19 -5s8 -4.66699 10 -8s3 -7 3 -11v-792c0 -64.667 7.83301 -121.334 23.5 -170.001s38.334 -89.167 68.001 -121.5s65.667 -56.666 108 -72.999
s90.166 -24.5 143.499 -24.5c54 0 102.167 7.83301 144.5 23.5s78.166 39.5 107.499 71.5s51.833 71.833 67.5 119.5s23.5 103.5 23.5 167.5v799c0 4 1 7.66699 3 11s5.33301 6 10 8s11 3.66699 19 5s17.667 2 29 2s21 -0.666992 29 -2s14.333 -3 19 -5s8 -4.66699 10 -8
s3 -7 3 -11v-798z" />
    <glyph glyph-name="V" unicode="V" horiz-adv-x="1135" 
d="M645 22c-2 -5.33301 -5 -9.83301 -9 -13.5s-9.16699 -6.5 -15.5 -8.5s-14 -3.5 -23 -4.5s-19.167 -1.5 -30.5 -1.5c-8 0 -15.333 0.166992 -22 0.5s-12.667 1 -18 2s-10 2.16699 -14 3.5s-7.66699 3 -11 5s-6 4.33301 -8 7s-3.66699 6 -5 10l-443 1231
c-4 10 -5.83301 18.167 -5.5 24.5s2.83301 11.166 7.5 14.499s11.667 5.5 21 6.5s21.666 1.5 36.999 1.5c12.667 0 22.834 -0.5 30.501 -1.5s13.667 -2.5 18 -4.5s7.66602 -4.66699 9.99902 -8s4.5 -7.33301 6.5 -12l402 -1139h1l390 1139c1.33301 4.66699 3 8.66699 5 12
s5.5 6 10.5 8s11.833 3.5 20.5 4.5s20 1.5 34 1.5c15.333 0 27.5 -0.666992 36.5 -2s15.333 -3.66602 19 -6.99902s5.33398 -8 5.00098 -14s-2.5 -14 -6.5 -24z" />
    <glyph glyph-name="W" unicode="W" horiz-adv-x="1804" 
d="M1361 22c-2 -5.33301 -5.16895 -9.83398 -9.50195 -13.501s-10 -6.5 -17 -8.5s-15 -3.5 -24 -4.5s-19.5 -1.5 -31.5 -1.5s-22.667 0.5 -32 1.5s-17.5 2.5 -24.5 4.5s-12.667 4.83301 -17 8.5s-7.5 8.16699 -9.5 13.5l-306 1063h-2l-280 -1063
c-1.33301 -5.33301 -3.83301 -9.83301 -7.5 -13.5s-8.66699 -6.5 -15 -8.5s-14 -3.5 -23 -4.5s-19.833 -1.5 -32.5 -1.5c-13.333 0 -24.833 0.5 -34.5 1.5s-18.167 2.5 -25.5 4.5s-13.166 4.83301 -17.499 8.5s-7.5 8.16699 -9.5 13.5l-367 1231
c-3.33301 10.667 -5 19 -5 25s2.16699 10.667 6.5 14s11 5.5 20 6.5s20.833 1.5 35.5 1.5s26.334 -0.5 35.001 -1.5s15.334 -2.5 20.001 -4.5s7.83398 -4.66699 9.50098 -8s3.16699 -7.33301 4.5 -12l325 -1135h1l299 1135c1.33301 4.66699 3 8.66699 5 12s5.5 6 10.5 8
s12 3.5 21 4.5s20.833 1.5 35.5 1.5c11.333 0 20.5 -0.5 27.5 -1.5s12.667 -2.5 17 -4.5s7.66602 -4.66699 9.99902 -8s4.16602 -7.33301 5.49902 -12l326 -1135h2l317 1135c1.33301 4.66699 2.83301 8.66699 4.5 12s4.83398 6 9.50098 8s11 3.5 19 4.5s19 1.5 33 1.5
c14.667 0 26.334 -0.666992 35.001 -2s15.167 -3.66602 19.5 -6.99902s6.66602 -8 6.99902 -14s-0.833984 -14 -3.50098 -24z" />
    <glyph glyph-name="X" unicode="X" horiz-adv-x="1027" 
d="M960 41c6 -9.33301 9.32617 -17 9.99316 -23s-1.33301 -10.833 -6 -14.5s-11.834 -6.16699 -21.501 -7.5s-22.167 -2 -37.5 -2s-27.333 0.5 -36 1.5s-15.667 2.5 -21 4.5s-9.5 4.66699 -12.5 8s-5.83301 7.33301 -8.5 12l-312 540l-318 -540
c-3.33301 -4.66699 -6.66602 -8.66699 -9.99902 -12s-7.66602 -6 -12.999 -8s-12.333 -3.5 -21 -4.5s-20 -1.5 -34 -1.5c-15.333 0 -27.666 0.666992 -36.999 2s-16 3.83301 -20 7.5s-5.66699 8.5 -5 14.5s4 13.667 10 23l376 612l-363 600c-6 9.33301 -9.5 17 -10.5 23
s0.5 10.833 4.5 14.5s10.5 6.16699 19.5 7.5s21.167 2 36.5 2c14.667 0 26.5 -0.5 35.5 -1.5s16.333 -2.5 22 -4.5s10 -4.66699 13 -8s6.16699 -7.33301 9.5 -12l307 -514l306 514c2.66699 4.66699 5.33398 8.66699 8.00098 12s6.33398 6 11.001 8s11 3.5 19 4.5
s19 1.5 33 1.5s25.833 -0.666992 35.5 -2s16.834 -3.83301 21.501 -7.5s6.83398 -8.5 6.50098 -14.5s-3.16602 -13.667 -8.49902 -23l-363 -595z" />
    <glyph glyph-name="Y" unicode="Y" horiz-adv-x="961" 
d="M542 510l-0.00292969 -489.999c0 -4 -1 -7.66699 -3 -11s-5.33301 -6 -10 -8s-11 -3.66699 -19 -5s-17.667 -2 -29 -2c-12 0 -21.833 0.666992 -29.5 2s-14 3 -19 5s-8.5 4.66699 -10.5 8s-3 7 -3 11v490l-372 743c-4.66699 10 -7.33398 18 -8.00098 24
s0.833008 10.667 4.5 14s9.83398 5.66602 18.501 6.99902s19.667 2 33 2c14.667 0 26.5 -0.5 35.5 -1.5s16.333 -2.5 22 -4.5s9.83398 -4.66699 12.501 -8s5.33398 -7.33301 8.00098 -12l198 -403l55.5 -118l55.5 -123h2l53 119l55 119l200 406
c2 4.66699 4.33301 8.66699 7 12s6.33398 6 11.001 8s10.834 3.5 18.501 4.5s17.167 1.5 28.5 1.5c16 0 29 -0.666992 39 -2s17 -3.83301 21 -7.5s5.66699 -8.5 5 -14.5s-3.33398 -13.667 -8.00098 -23z" />
    <glyph glyph-name="Z" unicode="Z" horiz-adv-x="949" 
d="M905 54c0 -8.66699 -0.666992 -16.334 -2 -23.001s-3.33301 -12.334 -6 -17.001s-6 -8.16699 -10 -10.5s-8.66699 -3.5 -14 -3.5h-765c-12.667 0 -23.334 4.16699 -32.001 12.5s-13 22.166 -13 41.499v33c0 6 0.5 11.833 1.5 17.5s2.83301 11.834 5.5 18.501
s6.5 14.334 11.5 23.001s11.167 18.667 18.5 30l649 1009h-641c-5.33301 0 -10 1.16699 -14 3.5s-7.33301 5.66602 -10 9.99902s-4.66699 9.83301 -6 16.5s-2 14.334 -2 23.001c0 9.33301 0.666992 17.5 2 24.5s3.33301 12.833 6 17.5s6 8.16699 10 10.5s8.66699 3.5 14 3.5
h724c12.667 0 23.334 -4.16699 32.001 -12.5s13 -22.166 13 -41.499v-33c0 -6.66699 -0.5 -13 -1.5 -19s-2.83301 -12.333 -5.5 -19s-6.5 -14.167 -11.5 -22.5s-11.167 -17.833 -18.5 -28.5l-649 -1009h682c10.667 0 18.667 -4.5 24 -13.5s8 -22.833 8 -41.5z" />
    <glyph glyph-name="bracketleft" unicode="[" horiz-adv-x="608" 
d="M517 -267c0 -15.333 -2.16504 -26.5 -6.49805 -33.5s-10.833 -10.5 -19.5 -10.5h-226c-6 0 -12.167 1 -18.5 3s-12.333 5.33301 -18 10s-10.167 11.167 -13.5 19.5s-5 18.5 -5 30.5v1575c0 12 1.66699 22.167 5 30.5s7.83301 14.833 13.5 19.5s11.667 8 18 10
s12.5 3 18.5 3h226c4 0 7.66699 -0.833008 11 -2.5s6.16602 -4.5 8.49902 -8.5s4 -8.83301 5 -14.5s1.5 -12.5 1.5 -20.5c0 -15.333 -2.16699 -26.5 -6.5 -33.5s-10.833 -10.5 -19.5 -10.5h-168v-1521h168c4 0 7.66699 -0.833008 11 -2.5s6.16602 -4.5 8.49902 -8.5
s4 -8.83301 5 -14.5s1.5 -12.5 1.5 -20.5z" />
    <glyph glyph-name="backslash" unicode="\" horiz-adv-x="742" 
d="M738 -226c2.66699 -8 3.83301 -14.4971 3.5 -19.4971s-2.5 -8.66699 -6.5 -11s-9.83301 -4 -17.5 -5s-17.5 -1.5 -29.5 -1.5s-21.833 0.333008 -29.5 1s-14 1.66699 -19 3s-8.83301 3.5 -11.5 6.5s-5 6.83301 -7 11.5l-615 1663c-3.33301 8 -4.83301 14.5 -4.5 19.5
s2.5 8.66699 6.5 11s10 4 18 5s18 1.5 30 1.5s21.833 -0.333008 29.5 -1s14 -1.83398 19 -3.50098s8.66699 -3.83398 11 -6.50098s4.5 -6.33398 6.5 -11.001z" />
    <glyph glyph-name="bracketright" unicode="]" horiz-adv-x="608" 
d="M399 -248c0 -12 -1.83105 -22.167 -5.49805 -30.5s-8.16699 -14.833 -13.5 -19.5s-11.333 -8 -18 -10s-13 -3 -19 -3h-226c-8.66699 0 -15.167 3.5 -19.5 10.5s-6.5 18.167 -6.5 33.5c0 8 0.5 14.833 1.5 20.5s2.66699 10.5 5 14.5s5.16602 6.83301 8.49902 8.5
s7 2.5 11 2.5h169v1521h-169c-8.66699 0 -15.167 3.5 -19.5 10.5s-6.5 18.167 -6.5 33.5c0 8 0.5 14.833 1.5 20.5s2.66699 10.5 5 14.5s5.16602 6.83301 8.49902 8.5s7 2.5 11 2.5h226c6 0 12.333 -1 19 -3s12.667 -5.33301 18 -10s9.83301 -11.167 13.5 -19.5
s5.5 -18.5 5.5 -30.5v-1575z" />
    <glyph glyph-name="asciicircum" unicode="^" 
d="M862 640c4 -9.33301 5.99414 -16.8311 5.99414 -22.498s-2.16699 -10 -6.5 -13s-11 -5 -20 -6s-20.167 -1.5 -33.5 -1.5s-24.166 0.5 -32.499 1.5s-15.166 2.5 -20.499 4.5s-9.33301 4.5 -12 7.5s-5 6.5 -7 10.5l-239 556l-2 -3l-222 -553c-2 -4 -4.33301 -7.5 -7 -10.5
s-6.5 -5.5 -11.5 -7.5s-11.5 -3.5 -19.5 -4.5s-18.333 -1.5 -31 -1.5c-13.333 0 -24.166 0.5 -32.499 1.5s-14.5 3.16699 -18.5 6.5s-6.16699 7.66602 -6.5 12.999s1.5 12.666 5.5 21.999l280 643c2 4.66699 4.83301 8.66699 8.5 12s8.33398 5.83301 14.001 7.5
s12.334 2.83398 20.001 3.50098s16.834 1 27.501 1c11.333 0 21 -0.333008 29 -1s14.667 -1.83398 20 -3.50098s9.83301 -4.16699 13.5 -7.5s6.5 -7.33301 8.5 -12z" />
    <glyph glyph-name="underscore" unicode="_" 
d="M1023 -313c0 -17.333 -2.5 -30.332 -7.5 -38.999s-12.167 -13 -21.5 -13h-970c-9.33301 0 -16.666 4 -21.999 12s-8 20.667 -8 38s2.66699 30.666 8 39.999s12.666 14 21.999 14h970c8.66699 0 15.667 -4.33301 21 -13s8 -21.667 8 -39z" />
    <glyph glyph-name="grave" unicode="`" horiz-adv-x="586" 
d="M430 1133c4 -6 6.5 -11.333 7.5 -16s0.333008 -8.5 -2 -11.5s-6.5 -5.33301 -12.5 -7s-14 -2.5 -24 -2.5s-18.333 0.333008 -25 1s-12.5 2 -17.5 4s-9.5 4.83301 -13.5 8.5s-8.33301 8.83398 -13 15.501l-174 234c-4.66699 6 -7.33398 11.5 -8.00098 16.5
s0.666016 9.33301 3.99902 13s9 6.5 17 8.5s18.333 3 31 3s23.334 -0.5 32.001 -1.5s16 -2.66699 22 -5s11.333 -5.83301 16 -10.5s9.33398 -10.334 14.001 -17.001zM0 946z" />
    <glyph glyph-name="a" unicode="a" horiz-adv-x="964" 
d="M801 20c0 -6.66699 -2.16406 -11.835 -6.49707 -15.502s-10 -6.33398 -17 -8.00098s-16.5 -2.5 -28.5 -2.5c-11.333 0 -21 0.833008 -29 2.5s-14.167 4.33398 -18.5 8.00098s-6.5 8.83398 -6.5 15.501v101c-40.667 -44 -85.5 -78 -134.5 -102s-99.833 -36 -152.5 -36
c-47.333 0 -89.833 6.16699 -127.5 18.5s-69.5 30 -95.5 53s-46 50.833 -60 83.5s-21 69.334 -21 110.001c0 50 10.333 93.5 31 130.5s50 67.833 88 92.5s83.667 43.167 137 55.5s112.666 18.5 177.999 18.5h144v78c0 38.667 -4 72.834 -12 102.501s-21 54.5 -39 74.5
s-41.333 35 -70 45s-63.667 15 -105 15c-40 0 -76 -4.83301 -108 -14.5s-60 -20.5 -84 -32.5s-43.833 -22.833 -59.5 -32.5s-26.834 -14.5 -33.501 -14.5c-4 0 -7.66699 0.666992 -11 2s-6.16602 3.83301 -8.49902 7.5s-4 8.33398 -5 14.001s-1.5 12.5 -1.5 20.5
c0 14 1 25.167 3 33.5s7.16699 16.666 15.5 24.999s23.166 18.166 44.499 29.499s45.833 21.833 73.5 31.5s57.5 17.5 89.5 23.5s64 9 96 9c62 0 114.333 -7.5 157 -22.5s77.167 -36.5 103.5 -64.5s45.166 -62.5 56.499 -103.5s17 -87.5 17 -139.5v-612zM682.003 446.999
l-165 0.000976562c-48 0 -90 -4.33301 -126 -13s-66 -21.334 -90 -38.001s-41.833 -36.667 -53.5 -60s-17.5 -50 -17.5 -80c0 -52 16.5 -93.5 49.5 -124.5s79.5 -46.5 139.5 -46.5c47.333 0 91.5 12.167 132.5 36.5s84.5 61.833 130.5 112.5v213z" />
    <glyph glyph-name="b" unicode="b" horiz-adv-x="1064" 
d="M957 484c0 -77.333 -8.33105 -146.833 -24.998 -208.5s-41.5 -114.167 -74.5 -157.5s-73.667 -76.666 -122 -99.999s-103.833 -35 -166.5 -35c-28 0 -53.833 2.83301 -77.5 8.5s-46.834 14.834 -69.501 27.501s-45.834 28.667 -69.501 48s-49.167 42.666 -76.5 69.999
v-117c0 -4.66699 -1 -8.66699 -3 -12s-5.33301 -6 -10 -8s-10.334 -3.5 -17.001 -4.5s-15 -1.5 -25 -1.5s-18.5 0.5 -25.5 1.5s-12.667 2.5 -17 4.5s-7.33301 4.66699 -9 8s-2.5 7.33301 -2.5 12v1348c0 4 0.833008 7.66699 2.5 11s4.83398 6.16602 9.50098 8.49902
s10.834 4 18.501 5s17.167 1.5 28.5 1.5c12 0 21.833 -0.5 29.5 -1.5s13.667 -2.66699 18 -5s7.5 -5.16602 9.5 -8.49902s3 -7 3 -11v-565c28.667 30 56 55.167 82 75.5s51.333 36.666 76 48.999s49.167 21.166 73.5 26.499s49.5 8 75.5 8
c65.333 0 121.166 -12.667 167.499 -38s84 -59.666 113 -102.999s50.167 -94 63.5 -152s20 -119.667 20 -185zM832.002 465c0 50.667 -4 99.666 -12 146.999s-21.667 89.333 -41 126s-45 66.167 -77 88.5s-72 33.5 -120 33.5c-23.333 0 -46.5 -3.33301 -69.5 -10
s-46.5 -17.667 -70.5 -33s-48.833 -35.166 -74.5 -59.499s-52.834 -54.5 -81.501 -90.5v-394c50 -60.667 98.167 -107.167 144.5 -139.5s94.5 -48.5 144.5 -48.5c46 0 85.333 11.167 118 33.5s59.334 51.5 80.001 87.5s35.667 76.667 45 122s14 91 14 137z" />
    </font>
</defs>
</svg>
