<?xml version="1.0" encoding="utf-8"?>
<!-- Generator: Avocode 2.6.0 - http://avocode.com -->
<svg height="17" width="23" xmlns:xlink="http://www.w3.org/1999/xlink" xmlns="http://www.w3.org/2000/svg" viewBox="0 0 23 17">
    <path fill="#ffffff" fill-rule="evenodd" d="M 11.22 10.46 L 8.89 8.53 L 0.78 16.83 L 21.44 16.83 L 13.48 8.51 L 11.22 10.46 L 11.22 10.46 L 11.22 10.46 Z M 14.64 7.63 L 22.35 15.65 C 22.4 15.5 22.43 15.33 22.43 15.16 L 22.43 1.31 L 14.64 7.63 L 14.64 7.63 L 14.64 7.63 Z M 0 1.27 L 0 15.16 C 0 15.33 0.03 15.5 0.08 15.65 L 7.81 7.66 L 0 1.27 L 0 1.27 L 0 1.27 Z M 21.73 0 L 0.7 0 L 11.22 8.42 L 21.73 0 L 21.73 0 L 21.73 0 Z M 21.73 0" />
</svg>