<?xml version="1.0" encoding="utf-8"?>
<!-- Generator: Avocode 2.6.0 - http://avocode.com -->
<svg height="22" width="22" xmlns:xlink="http://www.w3.org/1999/xlink" xmlns="http://www.w3.org/2000/svg" viewBox="0 0 22 22">
    <path fill="#ffffff" fill-rule="evenodd" d="M 20.54 13.24 C 20.68 12.56 20.76 11.84 20.76 11.11 C 20.76 5.62 16.44 1.18 11.11 1.18 C 10.54 1.18 9.99 1.23 9.46 1.32 C 8.59 0.76 7.57 0.44 6.48 0.44 C 3.39 0.44 0.88 3.02 0.88 6.2 C 0.88 7.26 1.16 8.26 1.65 9.11 C 1.52 9.76 1.45 10.43 1.45 11.11 C 1.45 16.59 5.78 21.04 11.11 21.04 C 11.71 21.04 12.3 20.99 12.87 20.88 C 13.66 21.31 14.56 21.56 15.52 21.56 C 18.61 21.56 21.12 18.98 21.12 15.8 C 21.12 14.88 20.91 14.01 20.54 13.24 L 20.54 13.24 Z M 16.06 15.86 C 15.61 16.51 14.95 17.02 14.1 17.39 C 13.25 17.75 12.24 17.93 11.08 17.93 C 9.7 17.93 8.53 17.68 7.62 17.19 C 6.98 16.83 6.44 16.34 6.03 15.74 C 5.63 15.13 5.42 14.52 5.42 13.94 C 5.42 13.58 5.55 13.26 5.82 13 C 6.08 12.75 6.42 12.62 6.83 12.62 C 7.16 12.62 7.44 12.72 7.68 12.92 C 7.9 13.12 8.09 13.4 8.24 13.77 C 8.41 14.18 8.6 14.52 8.8 14.78 C 8.99 15.04 9.26 15.26 9.61 15.43 C 9.96 15.6 10.43 15.68 11.01 15.68 C 11.81 15.68 12.46 15.51 12.95 15.16 C 13.44 14.82 13.67 14.42 13.67 13.92 C 13.67 13.53 13.55 13.22 13.29 12.98 C 13.03 12.73 12.68 12.53 12.27 12.4 C 11.83 12.26 11.23 12.1 10.49 11.95 C 9.49 11.72 8.64 11.46 7.96 11.17 C 7.27 10.87 6.71 10.44 6.31 9.92 C 5.89 9.39 5.68 8.72 5.68 7.93 C 5.68 7.18 5.9 6.5 6.34 5.92 C 6.77 5.34 7.4 4.89 8.21 4.58 C 9.01 4.28 9.97 4.12 11.04 4.12 C 11.91 4.12 12.66 4.22 13.3 4.43 C 13.93 4.63 14.47 4.9 14.89 5.24 C 15.32 5.59 15.63 5.95 15.83 6.33 C 16.03 6.71 16.13 7.09 16.13 7.46 C 16.13 7.82 16 8.14 15.73 8.42 C 15.47 8.7 15.14 8.85 14.74 8.85 C 14.39 8.85 14.11 8.76 13.91 8.58 C 13.73 8.42 13.54 8.16 13.34 7.79 C 13.1 7.32 12.8 6.95 12.47 6.69 C 12.15 6.43 11.6 6.3 10.86 6.3 C 10.17 6.3 9.6 6.45 9.19 6.73 C 8.78 7 8.59 7.31 8.59 7.68 C 8.59 7.91 8.65 8.1 8.78 8.26 C 8.92 8.43 9.11 8.58 9.36 8.71 C 9.61 8.84 9.87 8.95 10.13 9.02 C 10.4 9.1 10.85 9.21 11.47 9.36 C 12.25 9.53 12.97 9.72 13.6 9.93 C 14.24 10.14 14.8 10.4 15.25 10.71 C 15.71 11.02 16.08 11.42 16.34 11.89 C 16.6 12.37 16.73 12.96 16.73 13.64 C 16.73 14.46 16.51 15.2 16.06 15.86 L 16.06 15.86 Z M 16.06 15.86" />
</svg>