<?xml version="1.0" encoding="utf-8"?>
<!-- Generator: Avocode 2.6.0 - http://avocode.com -->
<svg height="20" width="20" xmlns:xlink="http://www.w3.org/1999/xlink" xmlns="http://www.w3.org/2000/svg" viewBox="0 0 20 20">
    <path fill="#ffffff" fill-rule="evenodd" d="M 17.78 0 L 2.22 0 C 1 0 0 1 0 2.22 L 0 17.78 C 0 19 1 20 2.22 20 L 10 20 L 10 12.22 L 7.78 12.22 L 7.78 9.47 L 10 9.47 L 10 7.19 C 10 4.79 11.35 3.1 14.18 3.1 L 16.19 3.1 L 16.19 6 L 14.86 6 C 13.75 6 13.33 6.83 13.33 7.6 L 13.33 9.47 L 16.19 9.47 L 15.56 12.22 L 13.33 12.22 L 13.33 20 L 17.78 20 C 19 20 20 19 20 17.78 L 20 2.22 C 20 1 19 0 17.78 0 L 17.78 0 Z M 17.78 0" />
</svg>