<?xml version="1.0" encoding="utf-8"?>
<!-- Generator: Avocode 2.6.0 - http://avocode.com -->
<svg height="20" width="20" xmlns:xlink="http://www.w3.org/1999/xlink" xmlns="http://www.w3.org/2000/svg" viewBox="0 0 20 20">
    <path fill="#ffffff" fill-rule="evenodd" d="M 17.78 0 L 2.22 0 C 1 0 0 1 0 2.22 L 0 17.78 C 0 19 1 20 2.22 20 L 17.78 20 C 19 20 20 19 20 17.78 L 20 2.22 C 20 1 19 0 17.78 0 L 17.78 0 Z M 9.98 16.14 C 13.38 16.14 16.14 13.38 16.14 9.98 C 16.14 9.61 16.09 9.24 16.02 8.89 L 17.78 8.89 L 17.78 16.91 C 17.78 17.33 17.43 17.67 17.01 17.67 L 2.99 17.67 C 2.57 17.67 2.22 17.33 2.22 16.91 L 2.22 8.89 L 3.94 8.89 C 3.88 9.24 3.83 9.61 3.83 9.98 C 3.83 13.38 6.58 16.14 9.98 16.14 L 9.98 16.14 Z M 6.14 9.98 C 6.14 7.86 7.86 6.14 9.98 6.14 C 12.11 6.14 13.83 7.86 13.83 9.98 C 13.83 12.11 12.11 13.83 9.98 13.83 C 7.86 13.83 6.14 12.11 6.14 9.98 L 6.14 9.98 Z M 17.01 5.56 L 15.21 5.56 C 14.79 5.56 14.44 5.21 14.44 4.79 L 14.44 2.99 C 14.44 2.57 14.79 2.22 15.21 2.22 L 17.01 2.22 C 17.43 2.22 17.78 2.57 17.78 2.99 L 17.78 4.79 C 17.78 5.21 17.43 5.56 17.01 5.56 L 17.01 5.56 Z M 17.01 5.56" />
</svg>