<?xml version="1.0" encoding="utf-8"?>
<!-- Generator: Avocode 2.6.0 - http://avocode.com -->
<svg height="20" width="20" xmlns:xlink="http://www.w3.org/1999/xlink" xmlns="http://www.w3.org/2000/svg" viewBox="0 0 20 20">
    <path fill="#ffffff" fill-rule="evenodd" d="M 20 17.78 L 20 2.22 C 20 1 19 0 17.77 0 L 2.23 0 C 0.95 0 0 0.95 0 2.22 L 0 17.78 C 0 19.05 0.95 20 2.23 20 L 17.77 20 C 19 20 20 19 20 17.78 L 20 17.78 Z M 15.76 11.79 C 15.76 11.79 17.02 13.03 17.33 13.6 C 17.34 13.61 17.34 13.63 17.34 13.63 C 17.47 13.84 17.5 14.01 17.44 14.13 C 17.33 14.33 16.98 14.44 16.86 14.44 L 14.64 14.44 C 14.48 14.44 14.16 14.4 13.77 14.13 C 13.47 13.93 13.17 13.58 12.88 13.24 C 12.45 12.74 12.08 12.31 11.7 12.31 C 11.65 12.31 11.61 12.32 11.56 12.33 C 11.28 12.42 10.91 12.83 10.91 13.91 C 10.91 14.25 10.65 14.45 10.46 14.45 L 9.44 14.45 C 9.09 14.45 7.29 14.32 5.69 12.64 C 3.73 10.57 1.96 6.42 1.95 6.39 C 1.84 6.12 2.07 5.97 2.32 5.97 L 4.56 5.97 C 4.86 5.97 4.96 6.16 5.03 6.32 C 5.11 6.51 5.4 7.25 5.88 8.1 C 6.66 9.47 7.14 10.02 7.53 10.02 C 7.6 10.02 7.67 10.01 7.73 9.97 C 8.23 9.69 8.14 7.91 8.12 7.54 C 8.12 7.47 8.11 6.74 7.86 6.39 C 7.67 6.14 7.36 6.04 7.17 6 C 7.22 5.93 7.33 5.82 7.47 5.75 C 7.81 5.58 8.43 5.56 9.05 5.56 L 9.39 5.56 C 10.06 5.56 10.23 5.61 10.47 5.67 C 10.96 5.79 10.97 6.1 10.93 7.18 C 10.91 7.49 10.9 7.83 10.9 8.24 C 10.9 8.33 10.9 8.43 10.9 8.53 C 10.88 9.08 10.86 9.7 11.25 9.96 C 11.3 9.99 11.36 10.01 11.42 10.01 C 11.56 10.01 11.96 10.01 13.06 8.12 C 13.54 7.29 13.92 6.31 13.94 6.23 C 13.96 6.19 14.03 6.07 14.11 6.03 C 14.17 5.99 14.25 5.99 14.29 5.99 L 16.93 5.99 C 17.22 5.99 17.41 6.03 17.45 6.14 C 17.51 6.32 17.44 6.85 16.23 8.48 C 16.03 8.75 15.85 8.99 15.7 9.19 C 14.6 10.63 14.6 10.7 15.76 11.79 L 15.76 11.79 Z M 15.76 11.79" />
</svg>