<?xml version="1.0" encoding="utf-8"?>
<!-- Generator: Avocode 2.5.4 - http://avocode.com -->
<svg height="50" width="39" xmlns:xlink="http://www.w3.org/1999/xlink" xmlns="http://www.w3.org/2000/svg" viewBox="0 0 39 50">
    <path fill="#009ee2" fill-rule="evenodd" d="M 19.5 37.97 C 22.1 37.97 24.23 35.84 24.23 33.24 C 24.23 30.63 22.1 28.5 19.5 28.5 C 16.9 28.5 14.77 30.63 14.77 33.24 C 14.77 35.84 16.9 37.97 19.5 37.97 L 19.5 37.97 Z M 33.7 16.67 L 31.34 16.67 L 31.34 11.93 C 31.34 5.4 26.03 0.09 19.5 0.09 C 12.97 0.09 7.66 5.4 7.66 11.93 L 7.66 16.67 L 5.3 16.67 C 2.69 16.67 0.56 18.8 0.56 21.4 L 0.56 45.08 C 0.56 47.68 2.69 49.81 5.3 49.81 L 33.7 49.81 C 36.31 49.81 38.44 47.68 38.44 45.08 L 38.44 21.4 C 38.44 18.8 36.31 16.67 33.7 16.67 L 33.7 16.67 Z M 12.16 11.93 C 12.16 7.88 15.45 4.59 19.5 4.59 C 23.55 4.59 26.84 7.88 26.84 11.93 L 26.84 16.67 L 12.16 16.67 L 12.16 11.93 L 12.16 11.93 Z M 33.7 45.08 L 5.3 45.08 L 5.3 21.4 L 33.7 21.4 L 33.7 45.08 L 33.7 45.08 Z M 33.7 45.08" />
</svg>