<?xml version="1.0" encoding="utf-8"?>
<!-- Generator: Avocode 2.5.4 - http://avocode.com -->
<svg height="49" width="63" xmlns:xlink="http://www.w3.org/1999/xlink" xmlns="http://www.w3.org/2000/svg" viewBox="0 0 63 49">
    <path fill="#009ee2" fill-rule="evenodd" d="M 61.59 25.29 L 54.47 19.46 L 54.47 8.46 C 54.47 6.97 53.26 5.76 51.77 5.76 L 43.66 5.76 C 42.19 5.76 40.99 6.95 40.97 8.42 L 31.86 0.96 C 30.83 0.12 29.33 0.15 28.34 1.04 L 1.31 25.37 C 0.48 26.12 0.2 27.3 0.6 28.35 C 1 29.39 2 30.08 3.12 30.08 L 8.53 30.08 L 8.53 46.3 C 8.53 47.79 9.74 49 11.23 49 L 51.77 49 C 53.26 49 54.47 47.79 54.47 46.3 L 54.47 30.08 L 59.88 30.08 C 61.02 30.08 62.04 29.36 62.42 28.29 C 62.81 27.21 62.47 26.01 61.59 25.29 L 61.59 25.29 Z M 46.36 11.16 L 49.07 11.16 L 49.07 15.04 L 46.36 12.83 L 46.36 11.16 L 46.36 11.16 Z M 27.45 43.59 L 27.45 32.78 L 19.34 32.78 L 19.34 43.59 L 13.93 43.59 L 13.93 30.08 L 49.07 30.08 L 49.07 43.59 L 27.45 43.59 L 27.45 43.59 Z M 10.16 24.68 L 30.23 6.62 L 52.31 24.68 L 10.16 24.68 L 10.16 24.68 Z M 10.16 24.68" />
</svg>