<?xml version="1.0" encoding="utf-8"?>
<!-- Generator: Avocode 2.5.4 - http://avocode.com -->
<svg height="50" width="33" xmlns:xlink="http://www.w3.org/1999/xlink" xmlns="http://www.w3.org/2000/svg" viewBox="0 0 33 50">
    <path fill="#009ee2" fill-rule="evenodd" d="M 17.69 10.87 C 21.32 10.87 22.67 13.18 22.79 16.58 L 27.31 16.58 C 27.17 11.9 25.02 7.6 20.75 6.21 L 20.75 0.25 L 14.62 0.25 L 14.62 6.13 C 13.54 6.45 12.52 6.94 11.6 7.6 L 14.6 11.6 C 15.44 11.14 16.46 10.87 17.69 10.87 L 17.69 10.87 Z M 3.04 3.13 L 0.45 6.59 L 7.48 15.96 C 7.48 21.62 10.66 24.7 15.46 26.61 L 22.63 36.17 C 21.94 37.47 20.49 38.64 17.69 38.64 C 13.48 38.64 11.83 36.14 11.6 32.92 L 7.11 32.92 C 7.35 38.89 10.7 42.24 14.62 43.36 L 14.62 49.26 L 20.75 49.26 L 20.75 43.41 C 22.71 42.92 24.47 41.91 25.76 40.36 L 30.29 46.41 L 32.88 42.95 L 3.04 3.13 L 3.04 3.13 Z M 3.04 3.13" />
</svg>