<?xml version="1.0" encoding="utf-8"?>
<!-- Generator: Avocode 2.6.0 - http://avocode.com -->
<svg height="34" width="40" xmlns:xlink="http://www.w3.org/1999/xlink" xmlns="http://www.w3.org/2000/svg" viewBox="0 0 40 34">
    <path fill="#009ee2" fill-rule="evenodd" d="M 26.34 21.92 C 28.16 21.92 29.64 20.45 29.64 18.63 C 29.64 16.81 28.16 15.34 26.34 15.34 C 24.53 15.34 23.05 16.81 23.05 18.63 C 23.05 20.45 24.53 21.92 26.34 21.92 Z M 26.34 21.92" />
    <path fill="#009ee2" fill-rule="evenodd" d="M 37.87 8.75 L 35.51 8.75 L 31.05 1.32 C 30.81 0.92 30.42 0.65 29.97 0.55 C 29.53 0.46 29.05 0.56 28.68 0.82 L 17.58 8.75 L 23.25 8.75 L 29.14 4.54 L 31.67 8.75 L 24.7 8.75 L 24.7 12.04 L 36.22 12.04 L 36.22 25.22 L 16.47 25.22 L 16.47 21.92 L 13.17 21.92 L 13.17 26.86 C 13.17 27.77 13.91 28.51 14.82 28.51 L 26.15 28.51 L 25.78 29.25 C 25.5 29.81 24.94 30.15 24.31 30.15 L 13.85 30.15 L 9.88 26.18 L 9.88 17.67 L 13.85 13.69 L 19.76 13.69 L 19.76 15.34 C 19.76 16.24 19.02 16.98 18.11 16.98 L 14.82 16.98 L 14.82 20.28 L 18.11 20.28 C 20.83 20.28 23.05 18.06 23.05 15.34 L 23.05 12.04 C 23.05 11.13 22.32 10.4 21.4 10.4 L 13.17 10.4 C 12.74 10.4 12.32 10.57 12.01 10.88 L 8.99 13.9 C 8.76 13.78 8.51 13.69 8.23 13.69 L 1.65 13.69 C 0.74 13.69 0 14.43 0 15.34 L 0 28.51 C 0 29.42 0.74 30.15 1.65 30.15 L 8.23 30.15 C 8.51 30.15 8.76 30.07 8.99 29.95 L 12.01 32.97 C 12.32 33.27 12.74 33.45 13.17 33.45 L 24.31 33.45 C 26.19 33.45 27.89 32.4 28.73 30.72 L 29.83 28.51 L 37.87 28.51 C 38.78 28.51 39.52 27.77 39.52 26.86 L 39.52 10.4 C 39.52 9.49 38.78 8.75 37.87 8.75 L 37.87 8.75 Z M 6.59 26.86 L 3.29 26.86 L 3.29 16.98 L 6.59 16.98 L 6.59 26.86 L 6.59 26.86 Z M 6.59 26.86" />
</svg>