<?xml version="1.0" encoding="utf-8"?>
<!-- Generator: Avocode 2.6.0 - http://avocode.com -->
<svg height="35" width="35" xmlns:xlink="http://www.w3.org/1999/xlink" xmlns="http://www.w3.org/2000/svg" viewBox="0 0 35 35">
    <path fill="#009ee2" fill-rule="evenodd" d="M 32.59 4.55 L 24.46 12.71 L 29.38 26.24 C 29.62 27.02 29.47 27.98 29.16 28.29 C 28.27 29.18 27.63 28.76 27.3 28.39 L 19.43 17.76 L 10.72 26.5 L 12.29 32.32 C 11.67 31.7 8.06 26.86 7.97 26.77 C 7.91 26.72 3.16 23.17 2.65 22.66 L 8.23 24.16 L 17.1 15.45 L 6.55 7.64 C 6.25 7.37 5.85 6.57 6.66 5.75 C 6.98 5.44 7.93 5.35 8.7 5.59 L 22.18 10.47 L 30.42 2.37 C 31 1.8 32.13 1.86 32.63 2.36 C 33.14 2.87 33.17 3.97 32.59 4.55 L 32.59 4.55 L 32.59 4.55 Z M 34.07 0.9 C 32.71 -0.47 30.32 -0.15 28.95 1.22 L 21.99 8.17 L 9.08 3.34 C 7.84 3.02 6.59 2.61 5.06 4.15 C 4.28 4.93 2.65 6.56 5.06 8.98 L 13.91 16.23 L 8.15 21.97 L 2.78 20.63 C 1.98 20.43 1.44 20.59 1.03 21.04 C 0.83 21.3 -0.67 22.4 0.37 23.45 L 6.62 28.31 L 11.49 34.56 C 12.24 35.32 12.94 34.85 13.9 33.94 C 14.51 33.33 14.38 33.01 14.2 32.13 L 12.98 26.79 L 18.71 21.05 L 25.94 29.9 C 28.35 32.32 29.98 30.69 30.76 29.9 C 32.3 28.36 31.89 27.12 31.57 25.88 L 26.78 12.94 L 33.71 5.98 C 35.08 4.61 35.43 2.26 34.07 0.9 L 34.07 0.9 L 34.07 0.9 Z M 34.07 0.9" />
</svg>