<?xml version="1.0" encoding="utf-8"?>
<!-- Generator: Avocode 2.6.0 - http://avocode.com -->
<svg height="35" width="31" xmlns:xlink="http://www.w3.org/1999/xlink" xmlns="http://www.w3.org/2000/svg" viewBox="0 0 31 35">
    <path fill="#009ee2" fill-rule="evenodd" d="M 27.17 16.04 L 3.83 16.04 C 2.22 16.04 0.92 17.35 0.92 18.96 L 0.92 32.08 C 0.92 33.69 2.22 35 3.83 35 L 27.17 35 C 28.78 35 30.08 33.69 30.08 32.08 L 30.08 18.96 C 30.08 17.35 28.78 16.04 27.17 16.04 L 27.17 16.04 Z M 24.41 18.96 L 15.5 24.53 L 6.59 18.96 L 24.41 18.96 L 24.41 18.96 Z M 3.83 32.08 L 3.83 20.68 L 14.73 27.49 C 14.96 27.63 15.23 27.71 15.5 27.71 C 15.77 27.71 16.04 27.63 16.27 27.49 L 27.17 20.68 L 27.17 32.08 L 3.83 32.08 L 3.83 32.08 Z M 3.83 32.08" />
    <path fill="#009ee2" fill-rule="evenodd" d="M 14.04 6.44 L 14.04 13.13 L 16.96 13.13 L 16.96 6.44 L 20.3 9.78 L 22.36 7.72 L 15.5 0.85 L 8.64 7.72 L 10.7 9.78 L 14.04 6.44 Z M 14.04 6.44" />
</svg>