<?xml version="1.0" encoding="utf-8"?>
<!-- Generator: Avocode 2.6.0 - http://avocode.com -->
<svg height="35" width="44" xmlns:xlink="http://www.w3.org/1999/xlink" xmlns="http://www.w3.org/2000/svg" viewBox="0 0 44 35">
    <path fill="#009ee2" fill-rule="evenodd" d="M 42.82 18.4 L 37.84 14.32 L 37.84 6.62 C 37.84 5.58 36.99 4.73 35.95 4.73 L 30.27 4.73 C 29.24 4.73 28.4 5.56 28.38 6.59 L 22.01 1.37 C 21.29 0.78 20.24 0.81 19.55 1.43 L 0.63 18.46 C 0.04 18.98 -0.16 19.81 0.12 20.54 C 0.4 21.28 1.11 21.76 1.89 21.76 L 5.68 21.76 L 5.68 33.11 C 5.68 34.15 6.52 35 7.57 35 L 35.95 35 C 36.99 35 37.84 34.15 37.84 33.11 L 37.84 21.76 L 41.62 21.76 C 42.42 21.76 43.14 21.26 43.4 20.5 C 43.67 19.75 43.44 18.91 42.82 18.4 L 42.82 18.4 Z M 32.16 8.51 L 34.05 8.51 L 34.05 11.23 L 32.16 9.68 L 32.16 8.51 L 32.16 8.51 Z M 18.92 31.22 L 18.92 23.65 L 13.24 23.65 L 13.24 31.22 L 9.46 31.22 L 9.46 21.76 L 34.05 21.76 L 34.05 31.22 L 18.92 31.22 L 18.92 31.22 Z M 6.82 17.97 L 20.87 5.33 L 36.32 17.97 L 6.82 17.97 L 6.82 17.97 Z M 6.82 17.97" />
</svg>