<?xml version="1.0" encoding="utf-8"?>
<!-- Generator: Avocode 2.6.0 - http://avocode.com -->
<svg height="34" width="38" xmlns:xlink="http://www.w3.org/1999/xlink" xmlns="http://www.w3.org/2000/svg" viewBox="0 0 38 34">
    <path stroke-linejoin="miter" stroke-linecap="square" stroke-width="1" stroke="#009ee2" fill="none" fill-rule="evenodd" d="M 37.5 0.5 L 37.5 33.5" />
    <path fill="#009ee2" fill-rule="evenodd" d="M 21.56 23.38 C 21.56 23.52 21.53 23.66 21.49 23.79 L 15.09 16.91 L 21.56 11.88 L 21.56 23.38 L 21.56 23.38 L 21.56 23.38 Z M 2.56 24.77 L 9.04 17.86 L 11.5 19.72 L 13.85 17.85 L 20.44 24.77 C 20.34 24.8 2.66 24.8 2.56 24.77 L 2.56 24.77 L 2.56 24.77 Z M 1.44 23.38 L 1.44 11.88 L 7.91 16.91 L 1.51 23.79 C 1.47 23.66 1.44 23.52 1.44 23.38 L 1.44 23.38 L 1.44 23.38 Z M 20.84 10.44 L 11.5 17.63 L 2.16 10.44 L 20.84 10.44 L 20.84 10.44 L 20.84 10.44 Z M 20.13 9 L 2.88 9 C 1.29 9 0 10.29 0 11.88 L 0 23.38 C 0 24.96 1.29 26.25 2.88 26.25 L 20.13 26.25 C 21.71 26.25 23 24.96 23 23.38 L 23 11.88 C 23 10.29 21.71 9 20.13 9 L 20.13 9 L 20.13 9 Z M 20.13 9" />
</svg>