<?xml version="1.0" encoding="utf-8"?>
<!-- Generator: Avocode 2.6.0 - http://avocode.com -->
<svg height="34" width="38" xmlns:xlink="http://www.w3.org/1999/xlink" xmlns="http://www.w3.org/2000/svg" viewBox="0 0 38 34">
    <path fill="#009ee2" fill-rule="evenodd" d="M 11.48 19.03 C 7.97 19.03 0.93 20.79 0.93 24.3 L 0.93 28.07 L 22.03 28.07 L 22.03 24.3 C 22.03 20.79 14.99 19.03 11.48 19.03 L 11.48 19.03 Z M 19.45 25.5 L 3.5 25.5 L 3.5 24.3 C 3.66 23.57 7.41 21.61 11.48 21.61 C 15.55 21.61 19.3 23.57 19.45 24.3 L 19.45 25.5 L 19.45 25.5 Z M 11.48 17.52 C 14.82 17.52 17.51 14.82 17.51 11.49 C 17.51 8.16 14.82 5.46 11.48 5.46 C 8.15 5.46 5.46 8.16 5.46 11.49 C 5.46 14.82 8.15 17.52 11.48 17.52 L 11.48 17.52 Z M 11.48 8.04 C 13.38 8.04 14.91 9.59 14.91 11.49 C 14.91 13.39 13.38 14.94 11.48 14.94 C 9.59 14.94 8.04 13.39 8.04 11.49 C 8.04 9.59 9.59 8.04 11.48 8.04 L 11.48 8.04 Z M 11.48 8.04" />
    <path stroke-linejoin="miter" stroke-linecap="square" stroke-width="1" stroke="#009ee2" fill="none" fill-rule="evenodd" d="M 37.5 0.5 L 37.5 33.5" />
</svg>