<?xml version="1.0" encoding="utf-8"?>
<!-- Generator: Avocode 2.6.0 - http://avocode.com -->
<svg height="34" width="38" xmlns:xlink="http://www.w3.org/1999/xlink" xmlns="http://www.w3.org/2000/svg" viewBox="0 0 38 34">
    <path stroke-linejoin="miter" stroke-linecap="square" stroke-width="1" stroke="#009ee2" fill="none" fill-rule="evenodd" d="M 37.5 0.5 L 37.5 33.5" />
    <path fill="#009ee2" fill-rule="evenodd" d="M 17.25 27.23 C 15.91 27.23 14.37 26.85 12.65 25.99 C 10.54 24.93 8.43 23.4 6.42 21.39 C 4.5 19.47 2.87 17.27 1.82 15.16 C 0.19 11.8 0.1 9.02 1.72 7.49 C 2.11 7.11 2.68 7.11 3.07 7.49 C 3.45 7.87 3.45 8.45 3.07 8.83 C 2.11 9.79 2.3 11.9 3.55 14.39 C 4.5 16.31 5.94 18.32 7.76 20.14 C 9.58 21.96 11.6 23.4 13.51 24.36 C 16 25.6 18.11 25.8 19.07 24.84 C 19.45 24.45 20.03 24.45 20.41 24.84 C 20.8 25.22 20.8 25.8 20.41 26.18 C 19.65 26.85 18.59 27.23 17.25 27.23 L 17.25 27.23 Z M 17.25 27.23" />
    <path fill="#009ee2" fill-rule="evenodd" d="M 7.48 15.25 C 7.09 15.25 6.8 15.06 6.61 14.68 C 6.33 14.2 6.52 13.62 7 13.43 L 9.2 12.38 C 9.58 12.19 10.06 11.71 9.97 11.13 C 9.97 10.85 9.77 10.65 9.58 10.46 L 6.42 7.2 C 6.13 6.92 5.65 6.82 5.17 6.92 C 4.98 7.01 4.79 7.11 4.6 7.2 L 3.07 8.83 C 2.68 9.22 2.11 9.22 1.73 8.83 C 1.34 8.45 1.34 7.87 1.73 7.49 L 3.26 5.96 C 3.64 5.57 4.12 5.29 4.6 5.19 C 5.75 4.9 6.9 5.19 7.76 5.96 L 10.92 9.12 C 11.4 9.6 11.69 10.27 11.79 10.94 C 11.98 12.19 11.21 13.53 9.97 14.2 L 7.76 15.25 C 7.76 15.16 7.57 15.25 7.48 15.25 L 7.48 15.25 Z M 7.48 15.25" />
    <path fill="#009ee2" fill-rule="evenodd" d="M 19.65 26.37 C 19.36 26.37 19.17 26.27 18.98 26.08 C 18.59 25.7 18.59 25.12 18.98 24.74 L 20.51 23.21 C 20.7 23.02 20.8 22.92 20.8 22.63 C 20.89 22.15 20.8 21.67 20.51 21.39 L 17.35 18.22 C 17.15 18.03 16.87 17.94 16.68 17.84 C 16.1 17.75 15.62 18.13 15.43 18.61 L 14.38 20.81 C 14.18 21.29 13.61 21.48 13.13 21.2 C 12.65 21 12.46 20.43 12.75 19.95 L 13.8 17.75 C 14.47 16.5 15.72 15.73 17.06 15.92 C 17.73 16.02 18.3 16.31 18.78 16.79 L 21.95 19.95 C 22.81 20.81 23.1 21.96 22.71 23.11 C 22.52 23.59 22.33 24.07 21.95 24.45 L 20.32 26.08 C 20.13 26.27 19.93 26.37 19.65 26.37 L 19.65 26.37 Z M 19.65 26.37" />
    <path fill="#009ee2" fill-rule="evenodd" d="M 13.51 21.29 C 13.32 21.29 13.13 21.2 12.94 21.1 C 11.79 20.24 10.64 19.28 9.49 18.23 C 8.34 17.08 7.38 15.93 6.61 14.78 C 6.32 14.39 6.42 13.82 6.9 13.43 C 7.38 13.15 7.95 13.24 8.24 13.63 C 9.01 14.68 9.87 15.83 10.92 16.79 C 11.98 17.75 13.03 18.7 14.09 19.47 C 14.57 19.76 14.66 20.33 14.28 20.81 C 14.18 21.2 13.9 21.29 13.51 21.29 L 13.51 21.29 Z M 13.51 21.29" />
</svg>