<?xml version="1.0" encoding="utf-8"?>
<!-- Generator: Avocode 2.6.0 - http://avocode.com -->
<svg height="59" width="263" xmlns:xlink="http://www.w3.org/1999/xlink" xmlns="http://www.w3.org/2000/svg" viewBox="0 0 263 59">
    <path fill="#3c3c3b" fill-rule="evenodd" d="M 73.95 35.05 L 70.04 35.05 L 67.98 44.69 C 67.83 45.43 67.76 45.99 67.76 46.51 C 67.76 47.81 68.24 48.48 69.6 48.48 C 70.26 48.48 71.3 48.33 72.11 48.03 L 72.4 49.96 C 70.82 51.22 68.53 51.74 66.47 51.74 C 62.97 51.74 61.45 50.03 61.45 47.7 C 61.45 46.77 61.56 45.92 61.82 44.69 L 63.81 35.05 L 61.64 35.05 L 62.08 32.94 L 64.7 32.08 C 65.4 30.23 66.47 28 68.09 26.82 L 72.4 26.52 C 71.85 27.82 71.19 29.97 70.71 32.08 L 75.09 32.08 L 73.95 35.05 Z M 73.95 35.05" />
    <path fill="#3c3c3b" fill-rule="evenodd" d="M 87.5 38.5 C 87.57 38.24 87.61 37.98 87.61 37.76 C 87.61 37.09 87.27 36.72 86.54 36.72 C 85.39 36.72 83.96 37.87 82.48 39.98 L 80.01 51.22 L 73.78 51.22 L 78.32 30.27 C 78.46 29.64 78.5 29.08 78.5 28.67 C 78.5 27.45 77.91 27.04 76.47 27.04 L 76.92 25.11 L 84.36 24.15 L 84.84 24.15 C 84.95 24.48 85.06 25.15 85.06 26.08 C 85.06 27.11 84.95 28.56 84.55 30.42 L 83.26 36.39 C 85.06 33.46 87.61 31.6 90.33 31.6 C 92.95 31.6 94.2 33.27 94.2 35.53 C 94.2 36.09 94.13 36.65 93.98 37.24 L 91.96 45.84 C 91.81 46.47 91.7 47.03 91.7 47.36 C 91.7 48.18 92.14 48.55 93.32 48.55 C 93.65 48.55 94.02 48.51 94.46 48.47 L 94.61 50.14 C 92.99 51.07 91.29 51.55 89.3 51.55 C 86.65 51.55 85.39 50.29 85.39 47.99 C 85.39 47.33 85.5 46.55 85.73 45.69 L 87.5 38.5 Z M 87.5 38.5" />
    <path fill="#3c3c3b" fill-rule="evenodd" d="M 109.77 35.16 C 109.37 34.75 108.89 34.64 108.19 34.64 C 105.09 34.64 102.4 40.54 102.4 45.21 C 102.4 47.03 102.81 47.77 103.62 47.77 C 104.84 47.77 106.27 46.14 107.71 43.95 L 109.77 35.16 Z M 100.74 51.74 C 97.76 51.74 95.99 49.81 95.99 46.25 C 95.99 38.72 101.55 31.6 107.93 31.6 C 110.14 31.6 111.29 32.57 111.62 33.79 C 112.02 33.05 112.58 32.49 113.13 32.08 L 117.07 32.08 C 116.59 33.2 116.04 34.79 115.56 36.83 L 113.53 45.84 C 113.39 46.47 113.28 46.96 113.28 47.36 C 113.28 48.22 113.72 48.55 114.9 48.55 C 115.23 48.55 115.75 48.51 116.04 48.47 L 116.19 50.14 C 114.57 51.07 112.87 51.55 110.88 51.55 C 109.11 51.55 108.04 51 107.53 49.88 C 107.27 49.33 107.12 48.62 107.12 47.77 C 105.57 50.22 103.47 51.74 100.74 51.74 L 100.74 51.74 Z M 100.74 51.74" />
    <path fill="#3c3c3b" fill-rule="evenodd" d="M 125.4 30.16 C 123.52 30.16 121.93 28.64 121.93 26.74 C 121.93 24.85 123.52 23.3 125.47 23.3 C 127.39 23.3 128.9 24.85 128.9 26.74 C 128.9 28.64 127.31 30.16 125.4 30.16 L 125.4 30.16 Z M 124.84 45.84 C 124.7 46.47 124.59 46.99 124.59 47.36 C 124.59 48.22 125.03 48.55 126.21 48.55 C 126.54 48.55 126.91 48.51 127.35 48.47 L 127.5 50.14 C 125.88 51.07 124.18 51.55 122.19 51.55 C 119.5 51.55 118.32 50.25 118.32 47.96 C 118.32 47.29 118.39 46.69 118.61 45.69 L 120.49 37.98 C 120.64 37.42 120.71 36.9 120.71 36.57 C 120.71 35.27 119.94 34.75 118.24 34.75 L 118.58 33.2 C 119.83 32.53 121.64 31.82 123.7 31.82 C 125.95 31.82 127.2 32.79 127.2 34.98 C 127.2 35.53 127.09 36.2 126.94 36.9 L 124.84 45.84 Z M 124.84 45.84" />
    <path fill="#3c3c3b" fill-rule="evenodd" d="M 147.94 32.31 L 147.94 34.05 L 137.7 51.22 L 132.79 51.22 L 131.28 37.79 C 131.02 35.35 130.95 34.64 128.59 34.64 L 128.89 33.09 C 129.88 32.45 131.98 31.82 133.6 31.82 C 135.59 31.82 136.74 32.79 136.99 35.2 L 137.62 41.58 C 137.73 42.65 137.77 43.51 137.77 44.21 C 137.77 45.14 137.73 45.55 137.66 46.1 L 137.88 46.1 L 140.02 41.39 C 141.75 37.65 142.49 34.72 142.56 31.82 L 147.94 32.31 Z M 147.94 32.31" />
    <path fill="#3c3c3b" fill-rule="evenodd" d="M 155.99 30.16 C 154.11 30.16 152.52 28.64 152.52 26.74 C 152.52 24.85 154.11 23.3 156.06 23.3 C 157.98 23.3 159.49 24.85 159.49 26.74 C 159.49 28.64 157.91 30.16 155.99 30.16 L 155.99 30.16 Z M 155.44 45.84 C 155.29 46.47 155.18 46.99 155.18 47.36 C 155.18 48.22 155.62 48.55 156.8 48.55 C 157.13 48.55 157.5 48.51 157.94 48.47 L 158.09 50.14 C 156.47 51.07 154.77 51.55 152.78 51.55 C 150.09 51.55 148.91 50.25 148.91 47.96 C 148.91 47.29 148.98 46.69 149.21 45.69 L 151.09 37.98 C 151.23 37.42 151.31 36.9 151.31 36.57 C 151.31 35.27 150.53 34.75 148.84 34.75 L 149.17 33.2 C 150.42 32.53 152.23 31.82 154.29 31.82 C 156.54 31.82 157.79 32.79 157.79 34.98 C 157.79 35.53 157.68 36.2 157.54 36.9 L 155.44 45.84 Z M 155.44 45.84" />
    <path fill="#3c3c3b" fill-rule="evenodd" d="M 163.35 30.27 C 163.5 29.64 163.53 29.12 163.53 28.71 C 163.53 27.45 162.94 27.04 161.5 27.04 L 161.95 25.11 L 169.39 24.15 L 169.87 24.15 C 169.98 24.52 170.13 25.15 170.13 26.11 C 170.13 26.97 169.98 28.6 169.58 30.42 L 166.26 45.84 C 166.11 46.47 166.04 46.96 166.04 47.33 C 166.04 48.22 166.41 48.55 167.7 48.55 C 167.99 48.55 168.43 48.51 168.77 48.47 L 168.91 50.14 C 167.29 51.07 165.6 51.55 163.61 51.55 C 160.91 51.55 159.77 50.29 159.77 47.96 C 159.77 47.29 159.85 46.51 160.03 45.69 L 163.35 30.27 Z M 163.35 30.27" />
    <path fill="#3c3c3b" fill-rule="evenodd" d="M 174.3 30.27 C 174.45 29.64 174.49 29.12 174.49 28.71 C 174.49 27.45 173.9 27.04 172.46 27.04 L 172.9 25.11 L 180.35 24.15 L 180.83 24.15 C 180.94 24.52 181.09 25.15 181.09 26.11 C 181.09 26.97 180.94 28.6 180.53 30.42 L 177.22 45.84 C 177.07 46.47 177 46.96 177 47.33 C 177 48.22 177.36 48.55 178.65 48.55 C 178.95 48.55 179.39 48.51 179.72 48.47 L 179.87 50.14 C 178.25 51.07 176.55 51.55 174.56 51.55 C 171.87 51.55 170.73 50.29 170.73 47.96 C 170.73 47.29 170.8 46.51 170.99 45.69 L 174.3 30.27 Z M 174.3 30.27" />
    <path fill="#3c3c3b" fill-rule="evenodd" d="M 195.14 35.16 C 194.73 34.75 194.25 34.64 193.55 34.64 C 190.46 34.64 187.77 40.54 187.77 45.21 C 187.77 47.03 188.17 47.77 188.98 47.77 C 190.2 47.77 191.64 46.14 193.07 43.95 L 195.14 35.16 Z M 186.11 51.74 C 183.12 51.74 181.35 49.81 181.35 46.25 C 181.35 38.72 186.92 31.6 193.29 31.6 C 195.51 31.6 196.65 32.57 196.98 33.79 C 197.39 33.05 197.94 32.49 198.49 32.08 L 202.44 32.08 C 201.96 33.2 201.4 34.79 200.92 36.83 L 198.9 45.84 C 198.75 46.47 198.64 46.96 198.64 47.36 C 198.64 48.22 199.08 48.55 200.26 48.55 C 200.59 48.55 201.11 48.51 201.4 48.47 L 201.55 50.14 C 199.93 51.07 198.23 51.55 196.24 51.55 C 194.47 51.55 193.4 51 192.89 49.88 C 192.63 49.33 192.48 48.62 192.48 47.77 C 190.94 50.22 188.83 51.74 186.11 51.74 L 186.11 51.74 Z M 186.11 51.74" />
    <path fill="#3c3c3b" fill-rule="evenodd" d="M 202.73 50 L 203.4 45.88 L 207.19 45.88 C 207.19 47.85 208.01 49.07 209.96 49.07 C 211.62 49.07 213.06 48.66 213.06 46.81 C 213.06 45.58 212.25 45.06 210.81 44.62 L 209.33 44.17 C 206.64 43.36 204.91 41.8 204.91 38.65 C 204.91 34.01 208.52 31.6 213.28 31.6 C 216.45 31.6 218.44 32.42 219.73 33.05 L 219.03 37.24 L 215.34 37.24 C 215.34 35.35 214.71 34.16 212.8 34.16 C 211.32 34.16 209.89 34.94 209.89 36.5 C 209.89 37.5 210.77 37.98 212.06 38.35 L 213.53 38.8 C 216.96 39.83 218.47 41.47 218.47 44.54 C 218.47 49.07 215.19 51.74 209.41 51.74 C 205.87 51.74 203.8 50.81 202.73 50" />
    <path fill="#009ee2" fill-rule="evenodd" d="M 28.24 44.69 C 26.92 46.69 25.59 48.2 24.47 48.2 C 23.72 48.2 23.35 47.86 23.35 46.36 C 23.35 41.98 25.75 35.81 28.95 35.81 C 29.45 35.81 29.82 35.85 30.28 36.18 L 28.24 44.69 Z M 53.95 36.89 C 52.66 36.15 48.98 33.57 48.98 31.43 L 48.98 29.93 L 47.72 30.73 C 46.82 31.29 46.52 32.02 46.42 32.53 C 46.15 34.01 47.22 35.47 47.66 36.07 C 47.76 36.19 47.94 36.41 48.18 36.67 C 49.12 37.74 49.71 38.5 49.93 38.96 C 48.89 38.56 46.57 36.49 44.69 34.24 L 44.43 33.93 C 36.29 24.31 30.45 13.47 27.98 3.39 L 27.18 0.12 L 26.38 3.39 C 23.91 13.47 18.07 24.32 9.93 33.93 L 9.68 34.24 C 7.8 36.49 5.48 38.55 4.44 38.96 C 4.66 38.5 5.24 37.73 6.19 36.67 C 6.42 36.4 6.6 36.19 6.74 36.01 C 7.14 35.47 8.22 34.01 7.94 32.53 C 7.85 32.02 7.54 31.29 6.64 30.73 L 5.38 29.93 L 5.38 31.43 C 5.38 33.58 1.8 36.1 0.42 36.89 L 0 37.13 L 0 44.52 L 2.63 44.52 C 5.01 44.52 7.5 42.32 10.5 38.86 C 10.47 39.3 10.45 39.75 10.45 40.21 C 10.45 40.21 10.44 44.1 10.46 46.31 C 10.47 47.8 10.48 49.35 10.49 50.91 C 10.5 51.34 10.51 51.76 10.51 52.19 L 10.53 52.49 L 10.54 52.63 L 10.56 52.85 C 10.61 53.15 10.65 53.47 10.72 53.72 C 10.99 54.76 11.49 55.75 12.19 56.57 C 12.89 57.38 13.78 58.02 14.75 58.45 C 15.24 58.65 15.76 58.81 16.28 58.9 C 16.54 58.93 16.8 58.98 17.06 58.98 C 17.32 59 17.6 59 17.77 59 C 19.33 58.97 20.86 58.94 22.35 58.92 C 25.32 58.87 28.09 58.77 30.47 58.71 C 32.84 58.65 34.82 58.56 36.21 58.52 C 37.6 58.46 38.39 58.43 38.39 58.43 C 39 58.4 39.5 57.91 39.52 57.28 C 39.55 56.62 39.04 56.07 38.39 56.04 C 38.39 56.04 37.6 56.01 36.21 55.95 C 34.82 55.9 32.84 55.81 30.47 55.75 C 28.09 55.7 25.32 55.6 22.35 55.55 C 20.86 55.52 19.33 55.5 17.77 55.47 C 17.55 55.47 17.43 55.46 17.31 55.45 C 17.18 55.45 17.05 55.4 16.93 55.39 C 16.67 55.34 16.43 55.25 16.2 55.14 C 15.73 54.92 15.32 54.58 14.99 54.19 C 14.66 53.79 14.43 53.31 14.32 52.82 C 14.27 52.68 14.28 52.61 14.26 52.52 C 14.26 52.49 14.25 52.48 14.24 52.44 L 14.24 52.3 L 14.23 52 C 14.23 51.64 14.23 51.27 14.23 50.91 C 14.25 49.35 14.26 47.8 14.27 46.31 C 14.28 44.89 14.28 42.15 14.28 39.37 C 14.38 35.61 15.44 32.78 17.35 30.34 C 17.34 30.34 17.34 30.34 17.34 30.34 C 21.08 25.22 25.49 18.09 27.18 15.31 C 28.95 18.22 33.71 25.91 37.55 31.06 C 37.55 31.06 37.55 31.06 37.55 31.06 C 39.56 33.63 40.64 35.91 40.64 39.98 C 40.64 46.49 38.32 49.41 35.33 49.41 C 33.97 49.41 33.43 48.99 33.43 48.03 C 33.43 47.74 33.47 47.4 33.55 46.99 L 35.42 38.14 C 35.67 36.93 36.16 35.43 36.54 34.39 C 35.04 33.64 32.14 33.35 29.78 33.35 C 22.4 33.35 17.46 40.14 17.46 46.78 C 17.46 50.07 19.08 51.83 21.82 51.83 C 24.72 51.83 26.25 50.45 27.66 48.2 C 27.66 50.45 29.16 51.66 33.3 51.66 C 39.23 51.66 44.62 48.4 44.62 40.23 C 44.62 40.05 44.61 39.87 44.6 39.69 C 47.28 42.67 49.55 44.52 51.73 44.52 L 54.36 44.52 L 54.36 37.12 L 53.95 36.89 Z M 53.95 36.89" />
    <path fill="#3c3c3b" fill-rule="evenodd" d="M 221.84 51.64 C 220.6 51.64 219.59 50.62 219.59 49.35 C 219.59 48.13 220.6 47.11 221.84 47.11 C 223.07 47.11 224.11 48.13 224.11 49.35 C 224.11 50.62 223.07 51.64 221.84 51.64" />
    <path fill="#3c3c3b" fill-rule="evenodd" d="M 241.66 38.4 C 240.71 38.03 240.12 37.91 239.24 37.91 C 236.85 37.91 235.19 38.62 234.17 43.5 L 232.55 51.15 L 226.33 51.15 L 229.31 37.25 C 229.46 36.51 229.42 35.95 229.17 35.55 C 228.83 35.03 228.14 34.77 226.96 34.73 L 227.29 33.18 C 228.69 32.48 230.34 31.81 232.36 31.81 C 234.28 31.81 235.27 33.18 235.27 35.95 C 235.27 36.25 235.23 36.66 235.19 37.1 C 236.55 33.92 238.65 31.59 241.22 31.59 C 242.03 31.59 242.51 31.66 243.21 32.03 L 241.66 38.4 Z M 241.66 38.4" />
    <path fill="#3c3c3b" fill-rule="evenodd" d="M 247.07 51.67 C 244.35 51.67 242.99 50.19 242.99 47.72 C 242.99 47.09 243.06 46.38 243.25 45.64 L 245.12 37.95 C 245.27 37.4 245.34 36.88 245.34 36.55 C 245.34 35.25 244.57 34.73 242.88 34.73 L 243.21 33.18 C 244.46 32.51 246.26 31.81 248.32 31.81 C 250.56 31.81 251.81 32.77 251.81 34.99 C 251.81 35.51 251.7 36.18 251.55 36.88 L 249.68 44.65 C 249.53 45.2 249.5 45.64 249.5 46.01 C 249.5 46.94 249.9 47.27 250.63 47.27 C 251.85 47.27 253.13 45.9 254.35 43.98 L 256.85 32.07 L 262.95 32.07 L 260.12 45.79 C 259.97 46.42 259.9 46.94 259.9 47.27 C 259.9 48.16 260.34 48.49 261.55 48.49 C 261.74 48.49 262.29 48.45 262.62 48.42 L 262.77 50.08 C 261.15 51.01 259.46 51.49 257.47 51.49 C 255.89 51.49 254.83 51.08 254.24 50.23 C 253.83 49.68 253.65 48.9 253.65 47.9 C 252 50.45 249.83 51.67 247.07 51.67" />
</svg>