<?xml version="1.0" encoding="utf-8"?>
<!-- Generator: Avocode 2.6.0 - http://avocode.com -->
<svg height="41" width="183" xmlns:xlink="http://www.w3.org/1999/xlink" xmlns="http://www.w3.org/2000/svg" viewBox="0 0 183 41">
    <path fill="#3c3c3b" fill-rule="evenodd" d="M 51.46 24.36 L 48.74 24.36 L 47.3 31.06 C 47.2 31.57 47.15 31.96 47.15 32.32 C 47.15 33.22 47.48 33.69 48.43 33.69 C 48.89 33.69 49.61 33.58 50.17 33.38 L 50.38 34.72 C 49.28 35.59 47.69 35.95 46.25 35.95 C 43.81 35.95 42.76 34.77 42.76 33.15 C 42.76 32.5 42.84 31.91 43.02 31.06 L 44.4 24.36 L 42.89 24.36 L 43.2 22.89 L 45.02 22.3 C 45.51 21.01 46.25 19.46 47.38 18.64 L 50.38 18.43 C 49.99 19.33 49.53 20.83 49.2 22.3 L 52.25 22.3 L 51.46 24.36 Z M 51.46 24.36" />
    <path fill="#3c3c3b" fill-rule="evenodd" d="M 60.88 26.75 C 60.93 26.57 60.96 26.39 60.96 26.24 C 60.96 25.77 60.73 25.52 60.21 25.52 C 59.42 25.52 58.42 26.32 57.39 27.78 L 55.67 35.59 L 51.34 35.59 L 54.49 21.03 C 54.6 20.6 54.62 20.21 54.62 19.92 C 54.62 19.07 54.21 18.79 53.21 18.79 L 53.52 17.45 L 58.7 16.78 L 59.03 16.78 C 59.11 17.01 59.19 17.48 59.19 18.12 C 59.19 18.84 59.11 19.85 58.83 21.14 L 57.93 25.28 C 59.19 23.25 60.96 21.96 62.86 21.96 C 64.68 21.96 65.55 23.12 65.55 24.69 C 65.55 25.08 65.5 25.47 65.4 25.88 L 63.98 31.86 C 63.88 32.29 63.8 32.68 63.8 32.91 C 63.8 33.48 64.11 33.74 64.93 33.74 C 65.16 33.74 65.42 33.71 65.73 33.69 L 65.83 34.85 C 64.7 35.49 63.52 35.82 62.14 35.82 C 60.29 35.82 59.42 34.95 59.42 33.35 C 59.42 32.89 59.5 32.35 59.65 31.75 L 60.88 26.75 Z M 60.88 26.75" />
    <path fill="#3c3c3b" fill-rule="evenodd" d="M 76.38 24.43 C 76.1 24.15 75.77 24.07 75.28 24.07 C 73.13 24.07 71.25 28.17 71.25 31.42 C 71.25 32.68 71.54 33.2 72.1 33.2 C 72.95 33.2 73.95 32.06 74.95 30.54 L 76.38 24.43 Z M 70.1 35.95 C 68.02 35.95 66.79 34.61 66.79 32.14 C 66.79 26.91 70.66 21.96 75.1 21.96 C 76.64 21.96 77.43 22.63 77.67 23.48 C 77.95 22.97 78.33 22.58 78.72 22.3 L 81.46 22.3 C 81.13 23.07 80.74 24.18 80.41 25.59 L 79 31.86 C 78.9 32.29 78.82 32.63 78.82 32.91 C 78.82 33.51 79.13 33.74 79.95 33.74 C 80.18 33.74 80.54 33.71 80.74 33.69 L 80.85 34.85 C 79.72 35.49 78.54 35.82 77.15 35.82 C 75.92 35.82 75.18 35.44 74.82 34.67 C 74.64 34.28 74.54 33.79 74.54 33.2 C 73.46 34.9 72 35.95 70.1 35.95 L 70.1 35.95 Z M 70.1 35.95" />
    <path fill="#3c3c3b" fill-rule="evenodd" d="M 87.25 20.96 C 85.94 20.96 84.84 19.9 84.84 18.58 C 84.84 17.27 85.94 16.19 87.3 16.19 C 88.64 16.19 89.69 17.27 89.69 18.58 C 89.69 19.9 88.59 20.96 87.25 20.96 L 87.25 20.96 Z M 86.87 31.86 C 86.77 32.29 86.69 32.66 86.69 32.91 C 86.69 33.51 87 33.74 87.82 33.74 C 88.05 33.74 88.3 33.71 88.61 33.69 L 88.71 34.85 C 87.59 35.49 86.41 35.82 85.02 35.82 C 83.15 35.82 82.33 34.92 82.33 33.33 C 82.33 32.86 82.38 32.45 82.53 31.75 L 83.84 26.39 C 83.94 26.01 84 25.65 84 25.41 C 84 24.51 83.46 24.15 82.28 24.15 L 82.51 23.07 C 83.38 22.6 84.64 22.12 86.07 22.12 C 87.64 22.12 88.51 22.79 88.51 24.31 C 88.51 24.69 88.43 25.16 88.33 25.65 L 86.87 31.86 Z M 86.87 31.86" />
    <path fill="#3c3c3b" fill-rule="evenodd" d="M 102.94 22.45 L 102.94 23.66 L 95.81 35.59 L 92.4 35.59 L 91.35 26.26 C 91.17 24.56 91.12 24.07 89.47 24.07 L 89.68 22.99 C 90.37 22.55 91.84 22.12 92.96 22.12 C 94.35 22.12 95.14 22.79 95.32 24.46 L 95.76 28.89 C 95.84 29.64 95.86 30.23 95.86 30.72 C 95.86 31.37 95.84 31.65 95.78 32.04 L 95.94 32.04 L 97.43 28.76 C 98.63 26.16 99.14 24.13 99.2 22.12 L 102.94 22.45 Z M 102.94 22.45" />
    <path fill="#3c3c3b" fill-rule="evenodd" d="M 108.54 20.96 C 107.23 20.96 106.13 19.9 106.13 18.58 C 106.13 17.27 107.23 16.19 108.59 16.19 C 109.92 16.19 110.98 17.27 110.98 18.58 C 110.98 19.9 109.87 20.96 108.54 20.96 L 108.54 20.96 Z M 108.15 31.86 C 108.05 32.29 107.98 32.66 107.98 32.91 C 107.98 33.51 108.28 33.74 109.1 33.74 C 109.33 33.74 109.59 33.71 109.9 33.69 L 110 34.85 C 108.87 35.49 107.69 35.82 106.31 35.82 C 104.44 35.82 103.61 34.92 103.61 33.33 C 103.61 32.86 103.67 32.45 103.82 31.75 L 105.13 26.39 C 105.23 26.01 105.28 25.65 105.28 25.41 C 105.28 24.51 104.74 24.15 103.56 24.15 L 103.79 23.07 C 104.67 22.6 105.92 22.12 107.36 22.12 C 108.92 22.12 109.8 22.79 109.8 24.31 C 109.8 24.69 109.72 25.16 109.62 25.65 L 108.15 31.86 Z M 108.15 31.86" />
    <path fill="#3c3c3b" fill-rule="evenodd" d="M 113.66 21.03 C 113.76 20.6 113.79 20.23 113.79 19.95 C 113.79 19.07 113.38 18.79 112.38 18.79 L 112.69 17.45 L 117.87 16.78 L 118.2 16.78 C 118.28 17.04 118.38 17.48 118.38 18.15 C 118.38 18.74 118.28 19.87 117.99 21.14 L 115.69 31.86 C 115.58 32.29 115.53 32.63 115.53 32.89 C 115.53 33.51 115.79 33.74 116.69 33.74 C 116.89 33.74 117.2 33.71 117.43 33.69 L 117.53 34.85 C 116.4 35.49 115.22 35.82 113.84 35.82 C 111.97 35.82 111.17 34.95 111.17 33.33 C 111.17 32.86 111.22 32.32 111.35 31.75 L 113.66 21.03 Z M 113.66 21.03" />
    <path fill="#3c3c3b" fill-rule="evenodd" d="M 121.28 21.03 C 121.39 20.6 121.41 20.23 121.41 19.95 C 121.41 19.07 121 18.79 120 18.79 L 120.31 17.45 L 125.49 16.78 L 125.82 16.78 C 125.9 17.04 126 17.48 126 18.15 C 126 18.74 125.9 19.87 125.62 21.14 L 123.31 31.86 C 123.21 32.29 123.16 32.63 123.16 32.89 C 123.16 33.51 123.41 33.74 124.31 33.74 C 124.52 33.74 124.82 33.71 125.05 33.69 L 125.16 34.85 C 124.03 35.49 122.85 35.82 121.46 35.82 C 119.59 35.82 118.8 34.95 118.8 33.33 C 118.8 32.86 118.85 32.32 118.98 31.75 L 121.28 21.03 Z M 121.28 21.03" />
    <path fill="#3c3c3b" fill-rule="evenodd" d="M 135.78 24.43 C 135.5 24.15 135.16 24.07 134.68 24.07 C 132.52 24.07 130.65 28.17 130.65 31.42 C 130.65 32.68 130.93 33.2 131.5 33.2 C 132.34 33.2 133.34 32.06 134.34 30.54 L 135.78 24.43 Z M 129.5 35.95 C 127.42 35.95 126.19 34.61 126.19 32.14 C 126.19 26.91 130.06 21.96 134.5 21.96 C 136.04 21.96 136.83 22.63 137.06 23.48 C 137.34 22.97 137.73 22.58 138.11 22.3 L 140.86 22.3 C 140.52 23.07 140.14 24.18 139.81 25.59 L 138.4 31.86 C 138.29 32.29 138.22 32.63 138.22 32.91 C 138.22 33.51 138.52 33.74 139.35 33.74 C 139.58 33.74 139.94 33.71 140.14 33.69 L 140.24 34.85 C 139.11 35.49 137.93 35.82 136.55 35.82 C 135.32 35.82 134.57 35.44 134.22 34.67 C 134.04 34.28 133.93 33.79 133.93 33.2 C 132.86 34.9 131.39 35.95 129.5 35.95 L 129.5 35.95 Z M 129.5 35.95" />
    <path fill="#3c3c3b" fill-rule="evenodd" d="M 141.07 34.74 L 141.53 31.88 L 144.17 31.88 C 144.17 33.25 144.73 34.1 146.09 34.1 C 147.25 34.1 148.25 33.81 148.25 32.53 C 148.25 31.68 147.68 31.32 146.68 31.01 L 145.66 30.7 C 143.78 30.13 142.58 29.05 142.58 26.86 C 142.58 23.64 145.09 21.96 148.4 21.96 C 150.61 21.96 151.99 22.53 152.89 22.97 L 152.4 25.88 L 149.84 25.88 C 149.84 24.56 149.4 23.74 148.07 23.74 C 147.04 23.74 146.04 24.28 146.04 25.36 C 146.04 26.06 146.66 26.39 147.56 26.65 L 148.58 26.96 C 150.97 27.68 152.02 28.82 152.02 30.95 C 152.02 34.1 149.74 35.95 145.71 35.95 C 143.25 35.95 141.81 35.31 141.07 34.74" />
    <path fill="#009ee2" fill-rule="evenodd" d="M 19.65 31.06 C 18.73 32.45 17.81 33.49 17.03 33.49 C 16.51 33.49 16.25 33.26 16.25 32.22 C 16.25 29.17 17.92 24.88 20.14 24.88 C 20.49 24.88 20.75 24.91 21.07 25.14 L 19.65 31.06 Z M 37.54 25.63 C 36.64 25.12 34.08 23.33 34.08 21.84 L 34.08 20.8 L 33.21 21.35 C 32.58 21.75 32.37 22.25 32.3 22.61 C 32.11 23.64 32.86 24.65 33.17 25.06 C 33.23 25.15 33.36 25.3 33.52 25.48 C 34.18 26.22 34.59 26.76 34.74 27.07 C 34.02 26.8 32.4 25.36 31.09 23.79 L 30.91 23.58 C 25.25 16.9 21.19 9.36 19.47 2.36 L 18.91 0.09 L 18.36 2.36 C 16.64 9.36 12.57 16.9 6.91 23.58 L 6.73 23.79 C 5.43 25.35 3.81 26.79 3.09 27.07 C 3.24 26.75 3.65 26.22 4.31 25.48 C 4.47 25.3 4.6 25.15 4.69 25.03 C 4.97 24.65 5.72 23.64 5.53 22.61 C 5.46 22.25 5.25 21.75 4.62 21.35 L 3.74 20.8 L 3.74 21.84 C 3.74 23.33 1.25 25.08 0.29 25.63 L 0 25.8 L 0 30.94 L 1.83 30.94 C 3.49 30.94 5.22 29.41 7.31 27 C 7.29 27.31 7.27 27.62 7.27 27.94 C 7.27 27.94 7.27 30.64 7.28 32.18 C 7.29 33.22 7.29 34.29 7.3 35.38 C 7.31 35.68 7.31 35.97 7.31 36.27 L 7.33 36.47 L 7.33 36.58 L 7.35 36.73 C 7.38 36.94 7.41 37.16 7.46 37.33 C 7.65 38.06 8 38.74 8.48 39.31 C 8.97 39.87 9.59 40.32 10.27 40.62 C 10.61 40.76 10.96 40.86 11.33 40.93 C 11.51 40.95 11.69 40.99 11.87 40.99 C 12.05 41 12.25 41 12.36 41 C 13.45 40.98 14.52 40.96 15.55 40.94 C 17.62 40.91 19.55 40.84 21.2 40.8 C 22.85 40.76 24.23 40.7 25.2 40.67 C 26.16 40.62 26.71 40.6 26.71 40.6 C 27.14 40.58 27.48 40.24 27.5 39.81 C 27.52 39.35 27.17 38.96 26.71 38.94 C 26.71 38.94 26.16 38.92 25.2 38.88 C 24.23 38.85 22.85 38.78 21.2 38.74 C 19.55 38.7 17.62 38.63 15.55 38.6 C 14.52 38.58 13.45 38.57 12.36 38.55 C 12.21 38.55 12.13 38.54 12.04 38.53 C 11.95 38.53 11.87 38.5 11.78 38.49 C 11.6 38.45 11.43 38.39 11.27 38.32 C 10.95 38.16 10.66 37.93 10.43 37.66 C 10.2 37.38 10.04 37.05 9.96 36.71 C 9.93 36.61 9.94 36.56 9.92 36.5 C 9.92 36.48 9.91 36.47 9.91 36.44 L 9.91 36.34 L 9.9 36.13 C 9.9 35.88 9.9 35.63 9.9 35.38 C 9.91 34.29 9.92 33.22 9.93 32.18 C 9.94 31.19 9.94 29.29 9.94 27.36 C 10.01 24.75 10.74 22.78 12.07 21.08 C 12.07 21.08 12.07 21.08 12.07 21.08 C 14.67 17.53 17.74 12.57 18.91 10.64 C 20.15 12.66 23.45 18.01 26.13 21.58 C 26.13 21.58 26.13 21.58 26.13 21.58 C 27.53 23.37 28.28 24.95 28.28 27.78 C 28.28 32.3 26.66 34.33 24.59 34.33 C 23.63 34.33 23.26 34.04 23.26 33.38 C 23.26 33.17 23.29 32.94 23.35 32.65 L 24.64 26.51 C 24.82 25.67 25.16 24.62 25.42 23.9 C 24.38 23.38 22.36 23.17 20.72 23.17 C 15.58 23.17 12.15 27.9 12.15 32.51 C 12.15 34.8 13.27 36.02 15.18 36.02 C 17.2 36.02 18.27 35.06 19.25 33.49 C 19.25 35.06 20.29 35.9 23.17 35.9 C 27.3 35.9 31.05 33.64 31.05 27.96 C 31.05 27.83 31.04 27.71 31.03 27.58 C 32.89 29.65 34.48 30.94 35.99 30.94 L 37.83 30.94 L 37.83 25.8 L 37.54 25.63 Z M 37.54 25.63" />
    <path fill="#3c3c3b" fill-rule="evenodd" d="M 154.36 35.88 C 153.5 35.88 152.79 35.17 152.79 34.3 C 152.79 33.45 153.5 32.74 154.36 32.74 C 155.22 32.74 155.94 33.45 155.94 34.3 C 155.94 35.17 155.22 35.88 154.36 35.88" />
    <path fill="#3c3c3b" fill-rule="evenodd" d="M 168.15 26.68 C 167.49 26.42 167.08 26.35 166.47 26.35 C 164.8 26.35 163.65 26.84 162.94 30.23 L 161.81 35.55 L 157.49 35.55 L 159.56 25.88 C 159.66 25.37 159.64 24.99 159.46 24.7 C 159.23 24.34 158.74 24.16 157.92 24.14 L 158.15 23.06 C 159.12 22.57 160.28 22.11 161.68 22.11 C 163.01 22.11 163.7 23.06 163.7 24.99 C 163.7 25.19 163.68 25.47 163.65 25.78 C 164.6 23.57 166.06 21.95 167.85 21.95 C 168.41 21.95 168.74 22 169.23 22.26 L 168.15 26.68 Z M 168.15 26.68" />
    <path fill="#3c3c3b" fill-rule="evenodd" d="M 171.91 35.91 C 170.02 35.91 169.08 34.88 169.08 33.16 C 169.08 32.72 169.13 32.23 169.25 31.72 L 170.56 26.37 C 170.66 25.99 170.71 25.63 170.71 25.4 C 170.71 24.5 170.18 24.14 169 24.14 L 169.23 23.06 C 170.1 22.59 171.35 22.11 172.78 22.11 C 174.34 22.11 175.21 22.77 175.21 24.32 C 175.21 24.68 175.14 25.14 175.04 25.63 L 173.73 31.02 C 173.63 31.41 173.6 31.72 173.6 31.98 C 173.6 32.62 173.88 32.85 174.4 32.85 C 175.24 32.85 176.14 31.9 176.98 30.56 L 178.72 22.29 L 182.97 22.29 L 181 31.82 C 180.89 32.26 180.84 32.62 180.84 32.85 C 180.84 33.47 181.15 33.7 181.99 33.7 C 182.12 33.7 182.51 33.67 182.74 33.65 L 182.84 34.8 C 181.71 35.45 180.54 35.78 179.15 35.78 C 178.05 35.78 177.31 35.5 176.9 34.91 C 176.62 34.52 176.49 33.98 176.49 33.29 C 175.34 35.06 173.83 35.91 171.91 35.91" />
</svg>